<?xml version="1.0" encoding="UTF-8" standalone="no"?>
<!DOCTYPE svg PUBLIC "-//W3C//DTD SVG 1.1//EN" "http://www.w3.org/Graphics/SVG/1.1/DTD/svg11.dtd">
<svg width="100%" height="100%" viewBox="0 0 205 185" version="1.1" xmlns="http://www.w3.org/2000/svg" xmlns:xlink="http://www.w3.org/1999/xlink" xml:space="preserve" xmlns:serif="http://www.serif.com/" style="fill-rule:evenodd;clip-rule:evenodd;stroke-linejoin:round;stroke-miterlimit:2;">
    <g transform="matrix(0.997051,0,0,1.00905,0.586817,-1.48732)">
        <path d="M51.593,100.081L51.593,107.019L5.931,107.019C5.931,107.019 5.931,178.373 5.931,178.373L198.499,178.373C198.499,178.373 198.499,107.019 198.499,107.019L151.884,107.019L151.884,100.081L205.519,100.081L205.519,185.31L-1.09,185.31L-1.09,100.081L51.593,100.081Z"/>
    </g>
    <path d="M45.368,146.746C45.143,146.833 44.904,146.876 44.661,146.872L34.002,146.658C33.435,146.648 32.888,146.886 32.483,147.318C32.077,147.75 31.846,148.341 31.84,148.96L31.625,167.691C31.611,169.304 30.407,170.602 28.93,170.596L20.141,170.567C19.058,170.563 18.184,169.601 18.187,168.418L18.265,143.382C18.267,142.751 18.62,142.184 19.157,141.951L21.049,141.129C21.948,140.738 22.538,139.786 22.536,138.729L22.5,119.414C22.499,118.73 22.784,118.083 23.274,117.656C23.764,117.23 24.405,117.072 25.015,117.226L45.169,122.321C46.005,122.532 46.599,123.343 46.604,124.28L46.696,141.252C46.907,141.171 47.135,141.125 47.373,141.119L47.402,141.118C48.666,141.085 49.674,140.053 49.676,138.788L49.706,125.507C49.706,125.164 49.859,124.84 50.123,124.621C50.386,124.402 50.734,124.311 51.071,124.373L57.649,125.583C58.32,125.706 58.807,126.291 58.807,126.972L58.833,169.346C58.834,169.891 58.617,170.414 58.231,170.799C57.845,171.185 57.321,171.4 56.776,171.399L47.679,171.373C46.397,171.37 45.36,170.33 45.361,169.048L45.368,146.746ZM49.72,170.814L55.819,170.836C56.365,170.838 56.889,170.622 57.275,170.236C57.662,169.851 57.879,169.327 57.878,168.781L57.809,130.06C57.807,129.34 57.266,128.736 56.55,128.657L52.988,128.264C52.662,128.228 52.336,128.332 52.091,128.551C51.847,128.769 51.706,129.082 51.706,129.41L51.677,140.789C51.674,142.053 50.666,143.085 49.403,143.118L49.377,143.119C48.26,143.148 47.371,144.062 47.372,145.179L47.404,168.493C47.405,169.772 48.441,170.81 49.72,170.814ZM22.905,169.573L28.732,169.596C29.999,169.6 31.033,168.581 31.045,167.313L31.23,147.875C31.235,147.388 31.433,146.924 31.781,146.584C32.13,146.245 32.599,146.058 33.085,146.065L43.952,146.234C44.419,146.241 44.868,146.06 45.2,145.732C45.532,145.403 45.717,144.955 45.714,144.488L45.62,128.477C45.616,127.74 45.106,127.103 44.388,126.937L27.089,122.933C26.565,122.811 26.014,122.936 25.594,123.271C25.173,123.606 24.929,124.115 24.93,124.652L24.96,141.405C24.962,142.236 24.456,142.984 23.683,143.291L22.06,143.938C21.599,144.121 21.296,144.566 21.294,145.063L21.227,167.884C21.224,168.814 21.975,169.57 22.905,169.573ZM31.081,141.818L31.015,137.175C31.008,136.623 31.223,136.091 31.612,135.7C32.002,135.308 32.533,135.09 33.085,135.096L37.828,135.139C38.157,135.143 38.47,135.276 38.7,135.51C38.93,135.744 39.057,136.06 39.054,136.389L39.003,141.781C38.996,142.461 38.445,143.009 37.766,143.013L32.324,143.038C31.645,143.042 31.09,142.497 31.081,141.818ZM31.666,139.255C31.677,140.118 32.324,140.811 33.114,140.807L35.454,140.774C36.246,140.77 36.888,140.072 36.896,139.207L36.955,137.346C36.959,136.929 36.811,136.526 36.543,136.228C36.275,135.93 35.91,135.761 35.527,135.757L34.002,135.701C33.358,135.694 32.74,135.972 32.286,136.47C31.832,136.968 31.581,137.645 31.59,138.347L31.666,139.255ZM161.266,147.385C160.243,147.374 159.413,146.553 159.393,145.53L158.998,125.455C158.977,124.382 159.682,123.43 160.715,123.138L167.176,121.314C167.549,121.209 167.951,121.282 168.263,121.513C168.576,121.743 168.764,122.106 168.773,122.494L169.162,139.097C169.173,139.55 169.366,139.979 169.697,140.286C170.029,140.594 170.471,140.755 170.923,140.732L172.259,140.664C173.115,140.62 173.787,139.915 173.788,139.058L173.829,120.6C173.831,119.833 174.327,119.154 175.058,118.92L181.772,116.766C182.226,116.621 182.722,116.704 183.103,116.99C183.484,117.275 183.703,117.728 183.69,118.204L183.123,139.428C183.103,140.16 183.517,140.835 184.179,141.148L185.796,141.914C186.312,142.158 186.635,142.684 186.621,143.254L186,168.162C185.968,169.441 184.917,170.458 183.638,170.449L175.174,170.385C174.272,170.378 173.541,169.652 173.528,168.75L173.252,149.483C173.236,148.383 172.347,147.497 171.248,147.486L161.266,147.385ZM162.861,146.864L173.052,146.932C174.159,146.939 175.055,147.834 175.064,148.941L175.221,168.33C175.225,168.771 175.404,169.193 175.72,169.502C176.036,169.811 176.461,169.981 176.903,169.975L183.05,169.89C184.322,169.872 185.347,168.845 185.363,167.573L185.646,144.377C185.655,143.613 185.068,142.975 184.306,142.92L184.147,142.909C183.163,142.839 182.408,142.008 182.431,141.021L182.852,123.458C182.864,122.975 182.636,122.516 182.244,122.232C181.852,121.949 181.345,121.877 180.889,122.04L176.858,123.479C176.163,123.728 175.695,124.381 175.684,125.119L175.445,141.497C175.432,142.369 174.727,143.073 173.855,143.085L169.961,143.135C169.513,143.141 169.082,142.968 168.763,142.654C168.444,142.34 168.264,141.911 168.263,141.464L168.225,126.143C168.224,125.752 168.04,125.383 167.729,125.147C167.417,124.91 167.013,124.831 166.636,124.935L162.792,125.99C161.772,126.27 161.063,127.196 161.058,128.254L160.981,144.964C160.976,146.007 161.817,146.857 162.861,146.864ZM134.407,129.068C134.416,128.237 135.028,127.537 135.85,127.417L156.556,124.385C157.009,124.318 157.468,124.454 157.812,124.756C158.156,125.058 158.35,125.496 158.343,125.953L158.212,134.21C158.197,135.153 157.428,135.91 156.485,135.91L152.292,135.91C151.933,135.91 151.59,136.056 151.341,136.315C151.093,136.574 150.961,136.923 150.976,137.281L151.076,139.7C151.096,140.195 151.313,140.661 151.677,140.996C152.042,141.331 152.525,141.507 153.02,141.485L153.023,141.485C153.365,141.47 153.698,141.596 153.944,141.832C154.191,142.069 154.33,142.396 154.328,142.738L154.245,169.448C154.244,169.966 154.036,170.462 153.669,170.827C153.301,171.192 152.804,171.396 152.286,171.394L143.243,171.361C142.245,171.357 141.437,170.547 141.437,169.549L141.437,137.583C141.437,137.116 141.25,136.669 140.919,136.342C140.587,136.014 140.137,135.833 139.671,135.839L135.925,135.889C135.505,135.894 135.101,135.73 134.804,135.434C134.508,135.138 134.343,134.734 134.348,134.315L134.407,129.068ZM135.956,131.973L135.956,133.584C135.956,134.001 136.122,134.4 136.419,134.692C136.715,134.985 137.116,135.146 137.533,135.141L141.297,135.091C141.763,135.085 142.213,135.266 142.544,135.594C142.876,135.921 143.063,136.368 143.063,136.834L143.063,168.959C143.063,169.95 143.86,170.757 144.851,170.77L151.56,170.86C152.082,170.867 152.585,170.665 152.957,170.298C153.328,169.931 153.538,169.431 153.538,168.909L153.538,144.358C153.538,143.992 153.391,143.641 153.13,143.384C152.87,143.127 152.517,142.985 152.151,142.99L152.149,142.99C151.055,143.005 150.155,142.133 150.136,141.04L150.055,136.511C150.048,136.156 150.185,135.813 150.435,135.561C150.684,135.309 151.025,135.168 151.38,135.17L155.841,135.198C156.791,135.204 157.568,134.441 157.579,133.49L157.631,128.922C157.637,128.462 157.439,128.024 157.091,127.723C156.742,127.423 156.279,127.291 155.825,127.363L137.378,130.305C136.559,130.436 135.956,131.143 135.956,131.973ZM110.318,170.797C109.777,170.801 109.257,170.589 108.873,170.208C108.489,169.828 108.273,169.31 108.272,168.769L108.231,142.735C108.23,141.864 108.884,141.131 109.749,141.035L109.807,141.028C110.573,140.943 111.15,140.29 111.14,139.52L111.039,130.984C111.026,129.946 111.84,129.086 112.877,129.039L132.413,128.169C132.853,128.149 133.282,128.309 133.602,128.613C133.922,128.916 134.105,129.337 134.108,129.777L134.177,138.472C134.183,139.264 133.549,139.913 132.757,139.925L126.507,140.023C126.163,140.028 125.831,139.895 125.586,139.654C125.341,139.412 125.203,139.083 125.203,138.739L125.203,138.736C125.203,138.284 125.018,137.852 124.691,137.54C124.364,137.229 123.923,137.064 123.472,137.086L122.904,137.113C121.978,137.157 121.231,137.885 121.162,138.81L121.144,139.06C121.107,139.555 121.277,140.044 121.613,140.41C121.949,140.775 122.421,140.986 122.918,140.991L132.298,141.092C133.292,141.103 134.091,141.914 134.086,142.908L133.963,168.928C133.958,169.868 133.198,170.63 132.258,170.637L110.318,170.797ZM112.363,170.122L131.305,169.966C132.245,169.958 133.004,169.195 133.007,168.255L133.089,144.905C133.092,143.912 132.294,143.103 131.301,143.092L121.856,142.991C121.37,142.985 120.906,142.783 120.571,142.43C120.236,142.078 120.058,141.604 120.078,141.118L120.211,137.903C120.251,136.939 121.031,136.17 121.995,136.144L125.494,136.05C125.943,136.038 126.378,136.207 126.7,136.521C127.021,136.834 127.203,137.264 127.203,137.713L127.203,137.716C127.203,138.065 127.344,138.399 127.593,138.643C127.843,138.887 128.18,139.02 128.529,139.012L131.763,138.936C132.553,138.918 133.181,138.267 133.171,137.477L133.115,132.786C133.11,132.344 132.924,131.923 132.601,131.621C132.278,131.318 131.846,131.161 131.405,131.185L115.86,132.023C114.83,132.078 114.027,132.937 114.04,133.969L114.134,141.166C114.147,142.13 113.412,142.939 112.451,143.019L112.052,143.053C111.022,143.138 110.231,144.001 110.235,145.035L110.315,168.098C110.317,168.639 110.534,169.156 110.918,169.536C111.303,169.915 111.823,170.127 112.363,170.122ZM121.645,147.103L125.603,147.158C126.014,147.164 126.406,147.333 126.692,147.628C126.978,147.924 127.134,148.321 127.126,148.732L126.955,157.399C126.946,157.839 126.763,158.256 126.446,158.561C126.129,158.865 125.704,159.031 125.265,159.021L121.993,158.952C121.069,158.932 120.332,158.176 120.336,157.252L120.371,148.355C120.372,148.02 120.508,147.699 120.747,147.464C120.986,147.228 121.31,147.099 121.645,147.103ZM122.655,148.117C122.318,148.109 121.992,148.237 121.749,148.471C121.507,148.706 121.369,149.028 121.367,149.366L121.34,153.276C121.334,154.19 122.054,154.945 122.968,154.98L123.26,154.992C123.7,155.009 124.129,154.85 124.452,154.55C124.774,154.25 124.964,153.834 124.979,153.394L125.103,149.737C125.117,149.325 124.966,148.925 124.683,148.625C124.401,148.325 124.01,148.151 123.598,148.141L122.655,148.117ZM89.221,149.107C88.92,149.109 88.63,148.99 88.418,148.776C88.205,148.562 88.087,148.272 88.091,147.971L88.184,139.323C88.192,138.62 88.766,138.054 89.47,138.058L97.838,138.104C98.192,138.106 98.531,138.249 98.78,138.501C99.028,138.754 99.166,139.095 99.162,139.449L99.159,139.74C99.156,140.07 99.283,140.388 99.514,140.623C99.745,140.859 100.06,140.993 100.39,140.997L106.751,141.061C107.435,141.068 107.985,141.626 107.982,142.31L107.961,147.935C107.959,148.521 107.484,148.997 106.897,149.001L89.221,149.107ZM91.229,148.106L105.903,148.002C106.487,147.998 106.961,147.525 106.965,146.94L106.977,145.313C106.983,144.628 106.433,144.067 105.748,144.06L100.388,143.998C99.702,143.99 99.152,143.428 99.159,142.742L99.162,142.448C99.166,142.094 99.028,141.753 98.78,141.5C98.532,141.248 98.193,141.104 97.839,141.102L91.464,141.06C90.763,141.055 90.188,141.616 90.176,142.317L90.098,146.963C90.093,147.266 90.21,147.558 90.423,147.773C90.636,147.988 90.927,148.108 91.229,148.106ZM59.345,128.016C59.342,127.589 59.523,127.182 59.841,126.897C60.159,126.612 60.584,126.478 61.008,126.529L70.507,127.657C71.218,127.741 71.753,128.343 71.753,129.059L71.753,135.19C71.753,135.512 71.882,135.821 72.11,136.048C72.339,136.274 72.648,136.4 72.97,136.397L75.346,136.377C75.679,136.375 75.998,136.239 76.23,136C76.463,135.762 76.591,135.44 76.586,135.107L76.502,129.807C76.496,129.423 76.647,129.053 76.92,128.782C77.193,128.512 77.564,128.365 77.948,128.374L84.593,128.543C85.486,128.565 86.204,129.285 86.224,130.178L86.483,141.766C86.495,142.278 86.3,142.774 85.943,143.142C85.585,143.51 85.095,143.719 84.583,143.722L78.526,143.761C78.246,143.763 78.017,143.984 78.006,144.263L78.006,144.269C78,144.404 78.048,144.535 78.14,144.634C78.232,144.733 78.36,144.791 78.495,144.795L85.056,144.995C85.925,145.022 86.618,145.729 86.627,146.599L86.846,169.359C86.857,170.457 85.981,171.36 84.883,171.382L78.481,171.511C78.02,171.521 77.574,171.345 77.243,171.023C76.913,170.701 76.725,170.26 76.722,169.798L76.614,151.82C76.609,151.109 76.031,150.534 75.319,150.534L72.924,150.534C72.592,150.534 72.273,150.667 72.039,150.902C71.804,151.138 71.674,151.458 71.676,151.79L71.781,169.095C71.785,169.712 71.543,170.304 71.108,170.741C70.674,171.178 70.083,171.424 69.467,171.424L60.936,171.424C60.12,171.424 59.458,170.764 59.455,169.948L59.379,146.429C59.378,146.087 59.514,145.758 59.757,145.516C59.999,145.273 60.328,145.138 60.671,145.139L68,145.172C68.157,145.173 68.306,145.108 68.412,144.993C68.518,144.878 68.57,144.724 68.557,144.568L68.538,144.349C68.506,143.987 68.203,143.709 67.84,143.709L60.877,143.709C60.093,143.709 59.455,143.077 59.45,142.292L59.345,128.016ZM62.011,131.542L62.096,141.521C62.103,142.305 62.74,142.936 63.524,142.936L68.587,142.936C69.416,142.936 70.095,143.596 70.117,144.425L70.151,145.636C70.161,145.997 70.024,146.347 69.771,146.606C69.518,146.864 69.171,147.009 68.81,147.008L63.329,146.983C62.987,146.981 62.657,147.116 62.415,147.358C62.172,147.601 62.037,147.93 62.038,148.272L62.104,169.507C62.106,170.323 62.768,170.983 63.584,170.983L68.909,170.983C69.525,170.983 70.116,170.737 70.55,170.301C70.985,169.864 71.227,169.272 71.224,168.656L71.131,151.337C71.129,151.004 71.26,150.685 71.494,150.449C71.728,150.214 72.047,150.081 72.379,150.081L77.73,150.081C78.442,150.081 79.02,150.657 79.024,151.369L79.12,169.335C79.122,169.798 79.311,170.241 79.644,170.564C79.977,170.886 80.426,171.061 80.889,171.049L84.347,170.959C85.439,170.931 86.306,170.034 86.299,168.943L86.17,148.229C86.165,147.572 85.642,147.036 84.985,147.017L78.442,146.827C77.723,146.806 77.153,146.213 77.16,145.493L77.171,144.393C77.178,143.686 77.746,143.112 78.454,143.097L84.088,142.977C84.598,142.966 85.082,142.753 85.433,142.384C85.784,142.015 85.974,141.522 85.961,141.012L85.756,133.439C85.732,132.554 85.023,131.841 84.138,131.812L80.385,131.688C79.999,131.675 79.625,131.821 79.349,132.091C79.074,132.362 78.922,132.733 78.928,133.119L78.998,137.707C79.003,138.041 78.874,138.363 78.64,138.602C78.407,138.84 78.087,138.976 77.753,138.977L72.412,139.003C72.09,139.004 71.782,138.878 71.554,138.651C71.327,138.425 71.199,138.117 71.199,137.796L71.199,132.373C71.199,131.672 70.685,131.077 69.991,130.976L63.714,130.057C63.284,129.994 62.848,130.122 62.521,130.408C62.194,130.693 62.007,131.107 62.011,131.542Z"/>
    <clipPath id="_clip1">
        <path d="M45.368,146.746C45.143,146.833 44.904,146.876 44.661,146.872L34.002,146.658C33.435,146.648 32.888,146.886 32.483,147.318C32.077,147.75 31.846,148.341 31.84,148.96L31.625,167.691C31.611,169.304 30.407,170.602 28.93,170.596L20.141,170.567C19.058,170.563 18.184,169.601 18.187,168.418L18.265,143.382C18.267,142.751 18.62,142.184 19.157,141.951L21.049,141.129C21.948,140.738 22.538,139.786 22.536,138.729L22.5,119.414C22.499,118.73 22.784,118.083 23.274,117.656C23.764,117.23 24.405,117.072 25.015,117.226L45.169,122.321C46.005,122.532 46.599,123.343 46.604,124.28L46.696,141.252C46.907,141.171 47.135,141.125 47.373,141.119L47.402,141.118C48.666,141.085 49.674,140.053 49.676,138.788L49.706,125.507C49.706,125.164 49.859,124.84 50.123,124.621C50.386,124.402 50.734,124.311 51.071,124.373L57.649,125.583C58.32,125.706 58.807,126.291 58.807,126.972L58.833,169.346C58.834,169.891 58.617,170.414 58.231,170.799C57.845,171.185 57.321,171.4 56.776,171.399L47.679,171.373C46.397,171.37 45.36,170.33 45.361,169.048L45.368,146.746ZM49.72,170.814L55.819,170.836C56.365,170.838 56.889,170.622 57.275,170.236C57.662,169.851 57.879,169.327 57.878,168.781L57.809,130.06C57.807,129.34 57.266,128.736 56.55,128.657L52.988,128.264C52.662,128.228 52.336,128.332 52.091,128.551C51.847,128.769 51.706,129.082 51.706,129.41L51.677,140.789C51.674,142.053 50.666,143.085 49.403,143.118L49.377,143.119C48.26,143.148 47.371,144.062 47.372,145.179L47.404,168.493C47.405,169.772 48.441,170.81 49.72,170.814ZM22.905,169.573L28.732,169.596C29.999,169.6 31.033,168.581 31.045,167.313L31.23,147.875C31.235,147.388 31.433,146.924 31.781,146.584C32.13,146.245 32.599,146.058 33.085,146.065L43.952,146.234C44.419,146.241 44.868,146.06 45.2,145.732C45.532,145.403 45.717,144.955 45.714,144.488L45.62,128.477C45.616,127.74 45.106,127.103 44.388,126.937L27.089,122.933C26.565,122.811 26.014,122.936 25.594,123.271C25.173,123.606 24.929,124.115 24.93,124.652L24.96,141.405C24.962,142.236 24.456,142.984 23.683,143.291L22.06,143.938C21.599,144.121 21.296,144.566 21.294,145.063L21.227,167.884C21.224,168.814 21.975,169.57 22.905,169.573ZM31.081,141.818L31.015,137.175C31.008,136.623 31.223,136.091 31.612,135.7C32.002,135.308 32.533,135.09 33.085,135.096L37.828,135.139C38.157,135.143 38.47,135.276 38.7,135.51C38.93,135.744 39.057,136.06 39.054,136.389L39.003,141.781C38.996,142.461 38.445,143.009 37.766,143.013L32.324,143.038C31.645,143.042 31.09,142.497 31.081,141.818ZM31.666,139.255C31.677,140.118 32.324,140.811 33.114,140.807L35.454,140.774C36.246,140.77 36.888,140.072 36.896,139.207L36.955,137.346C36.959,136.929 36.811,136.526 36.543,136.228C36.275,135.93 35.91,135.761 35.527,135.757L34.002,135.701C33.358,135.694 32.74,135.972 32.286,136.47C31.832,136.968 31.581,137.645 31.59,138.347L31.666,139.255ZM161.266,147.385C160.243,147.374 159.413,146.553 159.393,145.53L158.998,125.455C158.977,124.382 159.682,123.43 160.715,123.138L167.176,121.314C167.549,121.209 167.951,121.282 168.263,121.513C168.576,121.743 168.764,122.106 168.773,122.494L169.162,139.097C169.173,139.55 169.366,139.979 169.697,140.286C170.029,140.594 170.471,140.755 170.923,140.732L172.259,140.664C173.115,140.62 173.787,139.915 173.788,139.058L173.829,120.6C173.831,119.833 174.327,119.154 175.058,118.92L181.772,116.766C182.226,116.621 182.722,116.704 183.103,116.99C183.484,117.275 183.703,117.728 183.69,118.204L183.123,139.428C183.103,140.16 183.517,140.835 184.179,141.148L185.796,141.914C186.312,142.158 186.635,142.684 186.621,143.254L186,168.162C185.968,169.441 184.917,170.458 183.638,170.449L175.174,170.385C174.272,170.378 173.541,169.652 173.528,168.75L173.252,149.483C173.236,148.383 172.347,147.497 171.248,147.486L161.266,147.385ZM162.861,146.864L173.052,146.932C174.159,146.939 175.055,147.834 175.064,148.941L175.221,168.33C175.225,168.771 175.404,169.193 175.72,169.502C176.036,169.811 176.461,169.981 176.903,169.975L183.05,169.89C184.322,169.872 185.347,168.845 185.363,167.573L185.646,144.377C185.655,143.613 185.068,142.975 184.306,142.92L184.147,142.909C183.163,142.839 182.408,142.008 182.431,141.021L182.852,123.458C182.864,122.975 182.636,122.516 182.244,122.232C181.852,121.949 181.345,121.877 180.889,122.04L176.858,123.479C176.163,123.728 175.695,124.381 175.684,125.119L175.445,141.497C175.432,142.369 174.727,143.073 173.855,143.085L169.961,143.135C169.513,143.141 169.082,142.968 168.763,142.654C168.444,142.34 168.264,141.911 168.263,141.464L168.225,126.143C168.224,125.752 168.04,125.383 167.729,125.147C167.417,124.91 167.013,124.831 166.636,124.935L162.792,125.99C161.772,126.27 161.063,127.196 161.058,128.254L160.981,144.964C160.976,146.007 161.817,146.857 162.861,146.864ZM134.407,129.068C134.416,128.237 135.028,127.537 135.85,127.417L156.556,124.385C157.009,124.318 157.468,124.454 157.812,124.756C158.156,125.058 158.35,125.496 158.343,125.953L158.212,134.21C158.197,135.153 157.428,135.91 156.485,135.91L152.292,135.91C151.933,135.91 151.59,136.056 151.341,136.315C151.093,136.574 150.961,136.923 150.976,137.281L151.076,139.7C151.096,140.195 151.313,140.661 151.677,140.996C152.042,141.331 152.525,141.507 153.02,141.485L153.023,141.485C153.365,141.47 153.698,141.596 153.944,141.832C154.191,142.069 154.33,142.396 154.328,142.738L154.245,169.448C154.244,169.966 154.036,170.462 153.669,170.827C153.301,171.192 152.804,171.396 152.286,171.394L143.243,171.361C142.245,171.357 141.437,170.547 141.437,169.549L141.437,137.583C141.437,137.116 141.25,136.669 140.919,136.342C140.587,136.014 140.137,135.833 139.671,135.839L135.925,135.889C135.505,135.894 135.101,135.73 134.804,135.434C134.508,135.138 134.343,134.734 134.348,134.315L134.407,129.068ZM135.956,131.973L135.956,133.584C135.956,134.001 136.122,134.4 136.419,134.692C136.715,134.985 137.116,135.146 137.533,135.141L141.297,135.091C141.763,135.085 142.213,135.266 142.544,135.594C142.876,135.921 143.063,136.368 143.063,136.834L143.063,168.959C143.063,169.95 143.86,170.757 144.851,170.77L151.56,170.86C152.082,170.867 152.585,170.665 152.957,170.298C153.328,169.931 153.538,169.431 153.538,168.909L153.538,144.358C153.538,143.992 153.391,143.641 153.13,143.384C152.87,143.127 152.517,142.985 152.151,142.99L152.149,142.99C151.055,143.005 150.155,142.133 150.136,141.04L150.055,136.511C150.048,136.156 150.185,135.813 150.435,135.561C150.684,135.309 151.025,135.168 151.38,135.17L155.841,135.198C156.791,135.204 157.568,134.441 157.579,133.49L157.631,128.922C157.637,128.462 157.439,128.024 157.091,127.723C156.742,127.423 156.279,127.291 155.825,127.363L137.378,130.305C136.559,130.436 135.956,131.143 135.956,131.973ZM110.318,170.797C109.777,170.801 109.257,170.589 108.873,170.208C108.489,169.828 108.273,169.31 108.272,168.769L108.231,142.735C108.23,141.864 108.884,141.131 109.749,141.035L109.807,141.028C110.573,140.943 111.15,140.29 111.14,139.52L111.039,130.984C111.026,129.946 111.84,129.086 112.877,129.039L132.413,128.169C132.853,128.149 133.282,128.309 133.602,128.613C133.922,128.916 134.105,129.337 134.108,129.777L134.177,138.472C134.183,139.264 133.549,139.913 132.757,139.925L126.507,140.023C126.163,140.028 125.831,139.895 125.586,139.654C125.341,139.412 125.203,139.083 125.203,138.739L125.203,138.736C125.203,138.284 125.018,137.852 124.691,137.54C124.364,137.229 123.923,137.064 123.472,137.086L122.904,137.113C121.978,137.157 121.231,137.885 121.162,138.81L121.144,139.06C121.107,139.555 121.277,140.044 121.613,140.41C121.949,140.775 122.421,140.986 122.918,140.991L132.298,141.092C133.292,141.103 134.091,141.914 134.086,142.908L133.963,168.928C133.958,169.868 133.198,170.63 132.258,170.637L110.318,170.797ZM112.363,170.122L131.305,169.966C132.245,169.958 133.004,169.195 133.007,168.255L133.089,144.905C133.092,143.912 132.294,143.103 131.301,143.092L121.856,142.991C121.37,142.985 120.906,142.783 120.571,142.43C120.236,142.078 120.058,141.604 120.078,141.118L120.211,137.903C120.251,136.939 121.031,136.17 121.995,136.144L125.494,136.05C125.943,136.038 126.378,136.207 126.7,136.521C127.021,136.834 127.203,137.264 127.203,137.713L127.203,137.716C127.203,138.065 127.344,138.399 127.593,138.643C127.843,138.887 128.18,139.02 128.529,139.012L131.763,138.936C132.553,138.918 133.181,138.267 133.171,137.477L133.115,132.786C133.11,132.344 132.924,131.923 132.601,131.621C132.278,131.318 131.846,131.161 131.405,131.185L115.86,132.023C114.83,132.078 114.027,132.937 114.04,133.969L114.134,141.166C114.147,142.13 113.412,142.939 112.451,143.019L112.052,143.053C111.022,143.138 110.231,144.001 110.235,145.035L110.315,168.098C110.317,168.639 110.534,169.156 110.918,169.536C111.303,169.915 111.823,170.127 112.363,170.122ZM121.645,147.103L125.603,147.158C126.014,147.164 126.406,147.333 126.692,147.628C126.978,147.924 127.134,148.321 127.126,148.732L126.955,157.399C126.946,157.839 126.763,158.256 126.446,158.561C126.129,158.865 125.704,159.031 125.265,159.021L121.993,158.952C121.069,158.932 120.332,158.176 120.336,157.252L120.371,148.355C120.372,148.02 120.508,147.699 120.747,147.464C120.986,147.228 121.31,147.099 121.645,147.103ZM122.655,148.117C122.318,148.109 121.992,148.237 121.749,148.471C121.507,148.706 121.369,149.028 121.367,149.366L121.34,153.276C121.334,154.19 122.054,154.945 122.968,154.98L123.26,154.992C123.7,155.009 124.129,154.85 124.452,154.55C124.774,154.25 124.964,153.834 124.979,153.394L125.103,149.737C125.117,149.325 124.966,148.925 124.683,148.625C124.401,148.325 124.01,148.151 123.598,148.141L122.655,148.117ZM89.221,149.107C88.92,149.109 88.63,148.99 88.418,148.776C88.205,148.562 88.087,148.272 88.091,147.971L88.184,139.323C88.192,138.62 88.766,138.054 89.47,138.058L97.838,138.104C98.192,138.106 98.531,138.249 98.78,138.501C99.028,138.754 99.166,139.095 99.162,139.449L99.159,139.74C99.156,140.07 99.283,140.388 99.514,140.623C99.745,140.859 100.06,140.993 100.39,140.997L106.751,141.061C107.435,141.068 107.985,141.626 107.982,142.31L107.961,147.935C107.959,148.521 107.484,148.997 106.897,149.001L89.221,149.107ZM91.229,148.106L105.903,148.002C106.487,147.998 106.961,147.525 106.965,146.94L106.977,145.313C106.983,144.628 106.433,144.067 105.748,144.06L100.388,143.998C99.702,143.99 99.152,143.428 99.159,142.742L99.162,142.448C99.166,142.094 99.028,141.753 98.78,141.5C98.532,141.248 98.193,141.104 97.839,141.102L91.464,141.06C90.763,141.055 90.188,141.616 90.176,142.317L90.098,146.963C90.093,147.266 90.21,147.558 90.423,147.773C90.636,147.988 90.927,148.108 91.229,148.106ZM59.345,128.016C59.342,127.589 59.523,127.182 59.841,126.897C60.159,126.612 60.584,126.478 61.008,126.529L70.507,127.657C71.218,127.741 71.753,128.343 71.753,129.059L71.753,135.19C71.753,135.512 71.882,135.821 72.11,136.048C72.339,136.274 72.648,136.4 72.97,136.397L75.346,136.377C75.679,136.375 75.998,136.239 76.23,136C76.463,135.762 76.591,135.44 76.586,135.107L76.502,129.807C76.496,129.423 76.647,129.053 76.92,128.782C77.193,128.512 77.564,128.365 77.948,128.374L84.593,128.543C85.486,128.565 86.204,129.285 86.224,130.178L86.483,141.766C86.495,142.278 86.3,142.774 85.943,143.142C85.585,143.51 85.095,143.719 84.583,143.722L78.526,143.761C78.246,143.763 78.017,143.984 78.006,144.263L78.006,144.269C78,144.404 78.048,144.535 78.14,144.634C78.232,144.733 78.36,144.791 78.495,144.795L85.056,144.995C85.925,145.022 86.618,145.729 86.627,146.599L86.846,169.359C86.857,170.457 85.981,171.36 84.883,171.382L78.481,171.511C78.02,171.521 77.574,171.345 77.243,171.023C76.913,170.701 76.725,170.26 76.722,169.798L76.614,151.82C76.609,151.109 76.031,150.534 75.319,150.534L72.924,150.534C72.592,150.534 72.273,150.667 72.039,150.902C71.804,151.138 71.674,151.458 71.676,151.79L71.781,169.095C71.785,169.712 71.543,170.304 71.108,170.741C70.674,171.178 70.083,171.424 69.467,171.424L60.936,171.424C60.12,171.424 59.458,170.764 59.455,169.948L59.379,146.429C59.378,146.087 59.514,145.758 59.757,145.516C59.999,145.273 60.328,145.138 60.671,145.139L68,145.172C68.157,145.173 68.306,145.108 68.412,144.993C68.518,144.878 68.57,144.724 68.557,144.568L68.538,144.349C68.506,143.987 68.203,143.709 67.84,143.709L60.877,143.709C60.093,143.709 59.455,143.077 59.45,142.292L59.345,128.016ZM62.011,131.542L62.096,141.521C62.103,142.305 62.74,142.936 63.524,142.936L68.587,142.936C69.416,142.936 70.095,143.596 70.117,144.425L70.151,145.636C70.161,145.997 70.024,146.347 69.771,146.606C69.518,146.864 69.171,147.009 68.81,147.008L63.329,146.983C62.987,146.981 62.657,147.116 62.415,147.358C62.172,147.601 62.037,147.93 62.038,148.272L62.104,169.507C62.106,170.323 62.768,170.983 63.584,170.983L68.909,170.983C69.525,170.983 70.116,170.737 70.55,170.301C70.985,169.864 71.227,169.272 71.224,168.656L71.131,151.337C71.129,151.004 71.26,150.685 71.494,150.449C71.728,150.214 72.047,150.081 72.379,150.081L77.73,150.081C78.442,150.081 79.02,150.657 79.024,151.369L79.12,169.335C79.122,169.798 79.311,170.241 79.644,170.564C79.977,170.886 80.426,171.061 80.889,171.049L84.347,170.959C85.439,170.931 86.306,170.034 86.299,168.943L86.17,148.229C86.165,147.572 85.642,147.036 84.985,147.017L78.442,146.827C77.723,146.806 77.153,146.213 77.16,145.493L77.171,144.393C77.178,143.686 77.746,143.112 78.454,143.097L84.088,142.977C84.598,142.966 85.082,142.753 85.433,142.384C85.784,142.015 85.974,141.522 85.961,141.012L85.756,133.439C85.732,132.554 85.023,131.841 84.138,131.812L80.385,131.688C79.999,131.675 79.625,131.821 79.349,132.091C79.074,132.362 78.922,132.733 78.928,133.119L78.998,137.707C79.003,138.041 78.874,138.363 78.64,138.602C78.407,138.84 78.087,138.976 77.753,138.977L72.412,139.003C72.09,139.004 71.782,138.878 71.554,138.651C71.327,138.425 71.199,138.117 71.199,137.796L71.199,132.373C71.199,131.672 70.685,131.077 69.991,130.976L63.714,130.057C63.284,129.994 62.848,130.122 62.521,130.408C62.194,130.693 62.007,131.107 62.011,131.542Z"/>
    </clipPath>
    <g clip-path="url(#_clip1)">
        <path d="M161.266,147.385C160.243,147.374 159.413,146.553 159.393,145.53C159.306,141.101 159.085,129.869 158.998,125.455C158.977,124.382 159.682,123.43 160.715,123.138C162.553,122.619 165.414,121.812 167.176,121.314C167.549,121.209 167.951,121.282 168.263,121.513C168.576,121.743 168.764,122.106 168.773,122.494C168.86,126.204 169.073,135.29 169.162,139.097C169.173,139.55 169.366,139.979 169.697,140.286C170.029,140.594 170.471,140.755 170.923,140.732C171.362,140.709 171.831,140.685 172.259,140.664C173.115,140.62 173.787,139.915 173.788,139.058C173.797,135.055 173.821,124.317 173.829,120.6C173.831,119.833 174.327,119.154 175.058,118.92C176.737,118.381 179.771,117.408 181.772,116.766C182.226,116.621 182.722,116.704 183.103,116.99C183.484,117.275 183.703,117.728 183.69,118.204C183.558,123.148 183.227,135.519 183.123,139.428C183.103,140.16 183.517,140.835 184.179,141.148C184.699,141.394 185.312,141.685 185.796,141.914C186.312,142.158 186.635,142.684 186.621,143.254C186.523,147.176 186.146,162.331 186,168.162C185.968,169.441 184.917,170.458 183.638,170.449C181.176,170.43 177.337,170.401 175.174,170.385C174.272,170.378 173.541,169.652 173.528,168.75C173.469,164.658 173.316,153.93 173.252,149.483C173.236,148.383 172.347,147.497 171.248,147.486C168.579,147.459 163.86,147.411 161.266,147.385Z"/>
        <path d="M134.407,129.068C134.416,128.237 135.028,127.537 135.85,127.417C139.985,126.811 151.969,125.056 156.556,124.385C157.009,124.318 157.468,124.454 157.812,124.756C158.156,125.058 158.35,125.496 158.343,125.953C158.307,128.212 158.247,132.016 158.212,134.21C158.197,135.153 157.428,135.91 156.485,135.91C155.208,135.91 153.482,135.91 152.292,135.91C151.933,135.91 151.59,136.056 151.341,136.315C151.093,136.574 150.961,136.923 150.976,137.281C151.006,138.008 151.043,138.911 151.076,139.7C151.096,140.195 151.313,140.661 151.677,140.996C152.042,141.331 152.525,141.507 153.02,141.485C153.021,141.485 153.022,141.485 153.023,141.485C153.365,141.47 153.698,141.596 153.944,141.832C154.191,142.069 154.33,142.396 154.328,142.738C154.314,147.484 154.263,163.79 154.245,169.448C154.244,169.966 154.036,170.462 153.669,170.827C153.301,171.192 152.804,171.396 152.286,171.394C149.826,171.385 145.631,171.37 143.243,171.361C142.245,171.357 141.437,170.547 141.437,169.549C141.437,163.445 141.437,143.627 141.437,137.583C141.437,137.116 141.25,136.669 140.919,136.342C140.587,136.014 140.137,135.833 139.671,135.839C138.523,135.855 137.037,135.874 135.925,135.889C135.505,135.894 135.101,135.73 134.804,135.434C134.508,135.138 134.343,134.734 134.348,134.315C134.365,132.797 134.39,130.533 134.407,129.068Z"/>
        <path d="M110.318,170.797C109.777,170.801 109.257,170.589 108.873,170.208C108.489,169.828 108.273,169.31 108.272,168.769C108.263,163.17 108.239,147.67 108.231,142.735C108.23,141.864 108.884,141.131 109.749,141.035C109.769,141.032 109.788,141.03 109.807,141.028C110.573,140.943 111.15,140.29 111.14,139.52C111.115,137.415 111.067,133.361 111.039,130.984C111.026,129.946 111.84,129.086 112.877,129.039C117.265,128.844 128.208,128.356 132.413,128.169C132.853,128.149 133.282,128.309 133.602,128.613C133.922,128.916 134.105,129.337 134.108,129.777C134.127,132.109 134.16,136.282 134.177,138.472C134.183,139.264 133.549,139.913 132.757,139.925C131.036,139.952 128.17,139.997 126.507,140.023C126.163,140.028 125.831,139.895 125.586,139.654C125.341,139.412 125.203,139.083 125.203,138.739C125.203,138.738 125.203,138.737 125.203,138.736C125.203,138.284 125.018,137.852 124.691,137.54C124.364,137.229 123.923,137.064 123.472,137.086C123.283,137.095 123.092,137.104 122.904,137.113C121.978,137.157 121.231,137.885 121.162,138.81C121.156,138.893 121.15,138.976 121.144,139.06C121.107,139.555 121.277,140.044 121.613,140.41C121.949,140.775 122.421,140.986 122.918,140.991C125.439,141.018 129.838,141.066 132.298,141.092C133.292,141.103 134.091,141.914 134.086,142.908C134.061,148.212 133.987,163.756 133.963,168.928C133.958,169.868 133.198,170.63 132.258,170.637C127.708,170.67 115.244,170.761 110.318,170.797ZM122.655,148.117C122.318,148.109 121.992,148.237 121.749,148.471C121.507,148.706 121.369,149.028 121.367,149.366C121.359,150.471 121.348,152.076 121.34,153.276C121.334,154.19 122.054,154.945 122.968,154.98C123.065,154.984 123.163,154.988 123.26,154.992C123.7,155.009 124.129,154.85 124.452,154.55C124.774,154.25 124.964,153.834 124.979,153.394C125.017,152.281 125.066,150.827 125.103,149.737C125.117,149.325 124.966,148.925 124.683,148.625C124.401,148.325 124.01,148.151 123.598,148.141C123.285,148.133 122.958,148.125 122.655,148.117Z"/>
        <path d="M89.221,149.107C88.92,149.109 88.63,148.99 88.418,148.776C88.205,148.562 88.087,148.272 88.091,147.971C88.113,145.89 88.161,141.497 88.184,139.323C88.192,138.62 88.766,138.054 89.47,138.058C91.561,138.069 95.705,138.092 97.838,138.104C98.192,138.106 98.531,138.249 98.78,138.501C99.028,138.754 99.166,139.095 99.162,139.449C99.161,139.546 99.16,139.644 99.159,139.74C99.156,140.07 99.283,140.388 99.514,140.623C99.745,140.859 100.06,140.993 100.39,140.997C102.076,141.014 105.069,141.044 106.751,141.061C107.435,141.068 107.985,141.626 107.982,142.31C107.976,143.856 107.967,146.476 107.961,147.935C107.959,148.521 107.484,148.997 106.897,149.001C103.478,149.021 92.756,149.086 89.221,149.107Z"/>
        <g transform="matrix(1.13231,0,0,1.09513,-10.8659,-15.825)">
            <path d="M62.007,131.346C62.004,130.956 62.164,130.584 62.445,130.324C62.726,130.064 63.101,129.942 63.475,129.988C65.706,130.261 69.882,130.774 71.865,131.018C72.492,131.095 72.965,131.645 72.965,132.298C72.965,133.799 72.965,136.413 72.965,137.897C72.965,138.191 73.079,138.473 73.28,138.68C73.482,138.887 73.756,139.002 74.04,138.999C74.68,138.994 75.491,138.986 76.138,138.981C76.432,138.978 76.714,138.854 76.919,138.636C77.125,138.419 77.238,138.125 77.233,137.821C77.213,136.509 77.18,134.368 77.159,132.981C77.154,132.63 77.287,132.292 77.528,132.046C77.769,131.799 78.097,131.664 78.436,131.673C80.017,131.714 82.676,131.784 84.304,131.827C85.093,131.847 85.727,132.505 85.745,133.32C85.8,135.872 85.914,141.141 85.974,143.901C85.984,144.369 85.812,144.822 85.497,145.158C85.181,145.493 84.748,145.684 84.296,145.687C82.553,145.699 79.97,145.716 78.947,145.723C78.7,145.725 78.498,145.927 78.487,146.182C78.487,146.184 78.487,146.185 78.487,146.187C78.482,146.31 78.525,146.43 78.606,146.52C78.687,146.61 78.8,146.663 78.919,146.667C80.035,146.702 82.965,146.795 84.714,146.85C85.481,146.874 86.093,147.521 86.101,148.314C86.139,152.453 86.252,164.501 86.295,169.097C86.304,170.1 85.531,170.924 84.561,170.945C82.916,170.979 80.48,171.03 78.907,171.063C78.5,171.071 78.106,170.911 77.814,170.617C77.522,170.323 77.356,169.92 77.354,169.498C77.332,165.736 77.277,156.382 77.258,153.082C77.254,152.433 76.743,151.908 76.115,151.908C75.462,151.908 74.647,151.908 73.999,151.908C73.706,151.908 73.424,152.029 73.217,152.244C73.011,152.459 72.895,152.751 72.897,153.055C72.915,156.169 72.966,164.819 72.99,168.857C72.993,169.419 72.779,169.96 72.396,170.359C72.012,170.758 71.49,170.983 70.946,170.983C68.732,170.983 65.278,170.983 63.412,170.983C62.691,170.983 62.107,170.38 62.104,169.635C62.091,165.367 62.05,152.19 62.037,148.16C62.036,147.847 62.156,147.546 62.37,147.325C62.584,147.104 62.875,146.98 63.178,146.982C64.963,146.99 68.341,147.005 69.651,147.011C69.789,147.012 69.921,146.953 70.014,146.848C70.108,146.743 70.154,146.602 70.142,146.46C70.137,146.394 70.131,146.326 70.125,146.26C70.098,145.929 69.83,145.676 69.51,145.676C68.234,145.676 65.115,145.676 63.36,145.676C62.667,145.676 62.104,145.098 62.099,144.382C62.079,141.48 62.029,134.466 62.007,131.346Z"/>
        </g>
        <g transform="matrix(1,0,0,1,-2,-4)">
            <path d="M49.679,175.373C48.397,175.37 47.36,174.33 47.361,173.048C47.363,167.317 47.367,152.56 47.369,147.175C47.369,146.06 48.258,145.148 49.373,145.119C49.383,145.118 49.392,145.118 49.402,145.118C50.666,145.085 51.674,144.053 51.676,142.788C51.684,139.225 51.699,132.424 51.706,129.507C51.706,129.164 51.859,128.84 52.123,128.621C52.386,128.402 52.734,128.311 53.071,128.373C54.859,128.702 57.969,129.274 59.649,129.583C60.32,129.706 60.807,130.291 60.807,130.972C60.811,137.105 60.828,165.432 60.833,173.346C60.834,173.891 60.617,174.414 60.231,174.799C59.845,175.185 59.321,175.4 58.776,175.399C56.324,175.392 52.24,175.381 49.679,175.373Z"/>
        </g>
        <g transform="matrix(1.16499,0,0,1.27231,-6.54236,-39.1819)">
            <path d="M22.905,164.858C21.975,164.854 21.224,164.098 21.227,163.169L21.294,143.491C21.296,142.994 21.599,142.549 22.06,142.366L23.683,141.72C24.456,141.412 24.962,140.664 24.96,139.833L24.93,124.652C24.929,124.115 25.173,123.606 25.594,123.271C26.014,122.936 26.565,122.811 27.089,122.933L44.388,126.937C45.106,127.103 45.616,127.74 45.62,128.477L45.714,144.488C45.717,144.955 45.532,145.403 45.2,145.732C44.868,146.06 44.419,146.241 43.952,146.234L34.802,146.065C34.316,146.058 33.846,146.245 33.498,146.584C33.15,146.924 32.951,147.388 32.947,147.875L32.762,162.597C32.75,163.865 31.716,164.885 30.449,164.88L22.905,164.858ZM32.797,140.246C32.807,140.925 33.362,141.47 34.041,141.466L36.049,141.441C36.729,141.437 37.28,140.889 37.286,140.209L37.337,138.747C37.341,138.418 37.213,138.102 36.983,137.868C36.753,137.634 36.44,137.5 36.112,137.497L34.802,137.453C34.25,137.448 33.719,137.666 33.329,138.058C32.94,138.449 32.724,138.981 32.732,139.533L32.797,140.246Z"/>
        </g>
    </g>
    <g>
        <path d="M66.5,26.342L60.588,26.342C53.294,26.342 47.372,20.42 47.372,13.126C47.372,5.832 53.294,-0.09 60.588,-0.09L84.851,-0.09C92.145,-0.09 98.067,5.832 98.067,13.126C98.067,20.42 92.145,26.342 84.851,26.342L79,26.342L79,19.342L84.851,19.342C88.281,19.342 91.067,16.557 91.067,13.126C91.067,9.696 88.281,6.91 84.851,6.91L60.588,6.91C57.157,6.91 54.372,9.696 54.372,13.126C54.372,16.557 57.157,19.342 60.588,19.342L66.5,19.342L66.5,26.342Z"/>
        <path d="M139.5,19.427L143.69,19.427C151.683,19.427 158.172,25.916 158.172,33.909L158.172,108.388C158.172,116.381 151.683,122.87 143.69,122.87L61.199,122.87C53.207,122.87 46.717,116.381 46.717,108.388L46.717,33.909C46.717,25.916 53.207,19.427 61.199,19.427L66.5,19.427L66.5,26.427L61.199,26.427C57.07,26.427 53.717,29.78 53.717,33.909L53.717,108.388C53.717,112.517 57.07,115.87 61.199,115.87L143.69,115.87C147.819,115.87 151.172,112.517 151.172,108.388L151.172,33.909C151.172,29.78 147.819,26.427 143.69,26.427L139.5,26.427L139.5,19.427ZM79,19.427L127,19.427L127,26.427L79,26.427L79,19.427Z"/>
        <path d="M127,26.342L120.588,26.342C113.294,26.342 107.372,20.42 107.372,13.126C107.372,5.832 113.294,-0.09 120.588,-0.09L144.851,-0.09C152.145,-0.09 158.067,5.832 158.067,13.126C158.067,20.42 152.145,26.342 144.851,26.342L139.5,26.342L139.5,19.342L144.851,19.342C148.281,19.342 151.067,16.557 151.067,13.126C151.067,9.696 148.281,6.91 144.851,6.91L120.588,6.91C117.157,6.91 114.372,9.696 114.372,13.126C114.372,16.557 117.157,19.342 120.588,19.342L127,19.342L127,26.342Z"/>
    </g>
    <path d="M138.5,31.072L138.5,96.072C138.5,97.398 137.973,98.67 137.036,99.608C136.098,100.546 134.826,101.072 133.5,101.072L71.5,101.072C70.174,101.072 68.902,100.546 67.964,99.608C67.027,98.67 66.5,97.398 66.5,96.072L66.5,31.072L138.5,31.072ZM79.167,43.619L72.5,43.619L72.5,50.286L79.167,50.286L79.167,43.619ZM79.167,74.095L72.5,74.095L72.5,80.762L79.167,80.762L79.167,74.095ZM109.643,81.714L102.976,81.714L102.976,88.381L109.643,88.381L109.643,81.714ZM79.167,36L72.5,36L72.5,42.667L79.167,42.667L79.167,36ZM109.643,89.333L102.976,89.333L102.976,96L109.643,96L109.643,89.333ZM94.405,51.238L87.738,51.238L87.738,57.905L94.405,57.905L94.405,51.238ZM79.167,66.476L72.5,66.476L72.5,73.143L79.167,73.143L79.167,66.476ZM94.405,74.095L87.738,74.095L87.738,80.762L94.405,80.762L94.405,74.095ZM94.405,89.333L87.738,89.333L87.738,96L94.405,96L94.405,89.333ZM94.405,81.714L87.738,81.714L87.738,88.381L94.405,88.381L94.405,81.714ZM124.881,81.714L118.214,81.714L118.214,88.381L124.881,88.381L124.881,81.714ZM124.881,36L118.214,36L118.214,42.667L124.881,42.667L124.881,36ZM117.262,89.333L110.595,89.333L110.595,96L117.262,96L117.262,89.333ZM132.5,66.476L125.833,66.476L125.833,73.143L132.5,73.143L132.5,66.476ZM117.262,51.238L110.595,51.238L110.595,57.905L117.262,57.905L117.262,51.238ZM86.786,81.714L80.119,81.714L80.119,88.381L86.786,88.381L86.786,81.714ZM117.262,81.714L110.595,81.714L110.595,88.381L117.262,88.381L117.262,81.714ZM117.262,74.095L110.595,74.095L110.595,80.762L117.262,80.762L117.262,74.095ZM102.024,81.714L95.357,81.714L95.357,88.381L102.024,88.381L102.024,81.714ZM102.024,89.333L95.357,89.333L95.357,96L102.024,96L102.024,89.333ZM132.5,36L125.833,36L125.833,42.667L132.5,42.667L132.5,36ZM132.5,43.619L125.833,43.619L125.833,50.286L132.5,50.286L132.5,43.619ZM132.5,74.095L125.833,74.095L125.833,80.762L132.5,80.762L132.5,74.095ZM86.786,36L80.119,36L80.119,42.667L86.786,42.667L86.786,36Z"/>
    <path d="M138.5,31.072L138.5,96.072C138.5,97.398 137.973,98.67 137.036,99.608C136.098,100.546 134.826,101.072 133.5,101.072L71.5,101.072C70.174,101.072 68.902,100.546 67.964,99.608C67.027,98.67 66.5,97.398 66.5,96.072L66.5,31.072L138.5,31.072ZM79.167,66.476L72.5,66.476L72.5,73.143L79.167,73.143L79.167,66.476ZM94.405,74.095L87.738,74.095L87.738,80.762L94.405,80.762L94.405,74.095ZM94.405,89.333L87.738,89.333L87.738,96L94.405,96L94.405,89.333ZM94.405,81.714L87.738,81.714L87.738,88.381L94.405,88.381L94.405,81.714ZM124.881,81.714L118.214,81.714L118.214,88.381L124.881,88.381L124.881,81.714ZM132.5,66.476L125.833,66.476L125.833,73.143L132.5,73.143L132.5,66.476ZM124.881,36L118.214,36L118.214,42.667L124.881,42.667L124.881,36ZM117.262,89.333L110.595,89.333L110.595,96L117.262,96L117.262,89.333ZM86.786,81.714L80.119,81.714L80.119,88.381L86.786,88.381L86.786,81.714ZM102.024,81.714L95.357,81.714L95.357,88.381L102.024,88.381L102.024,81.714ZM86.786,36L80.119,36L80.119,42.667L86.786,42.667L86.786,36ZM117.262,81.714L110.595,81.714L110.595,88.381L117.262,88.381L117.262,81.714ZM132.5,36L125.833,36L125.833,42.667L132.5,42.667L132.5,36ZM117.262,74.095L110.595,74.095L110.595,80.762L117.262,80.762L117.262,74.095ZM132.5,43.619L125.833,43.619L125.833,50.286L132.5,50.286L132.5,43.619ZM102.024,89.333L95.357,89.333L95.357,96L102.024,96L102.024,89.333ZM132.5,74.095L125.833,74.095L125.833,80.762L132.5,80.762L132.5,74.095ZM70.631,62.791C71.192,62.506 71.827,62.345 72.5,62.345L79.167,62.345C81.448,62.345 83.298,64.195 83.298,66.476L83.298,73.143C83.298,73.304 83.288,73.463 83.27,73.619C83.288,73.775 83.298,73.934 83.298,74.095L83.298,77.583L83.607,77.583L83.607,74.095C83.607,71.814 85.457,69.964 87.738,69.964L94.405,69.964C96.686,69.964 98.536,71.814 98.536,74.095L98.536,77.583L102.024,77.583C102.185,77.583 102.344,77.593 102.5,77.611C102.656,77.593 102.815,77.583 102.976,77.583L106.464,77.583L106.464,74.095C106.464,71.814 108.314,69.964 110.595,69.964L117.262,69.964C119.543,69.964 121.393,71.814 121.393,74.095L121.393,77.583L121.702,77.583L121.702,74.095C121.702,73.934 121.712,73.775 121.73,73.619C121.712,73.463 121.702,73.304 121.702,73.143L121.702,66.476C121.702,64.195 123.552,62.345 125.833,62.345L132.5,62.345C133.173,62.345 133.808,62.506 134.369,62.791L134.369,53.971C133.808,54.256 133.173,54.417 132.5,54.417L125.833,54.417C123.552,54.417 121.702,52.567 121.702,50.286L121.702,46.798L118.214,46.798C115.933,46.798 114.083,44.948 114.083,42.667L114.083,36C114.083,35.727 114.11,35.461 114.16,35.203L90.84,35.203C90.89,35.461 90.917,35.727 90.917,36L90.917,42.667C90.917,44.948 89.067,46.798 86.786,46.798L83.298,46.798L83.298,50.286C83.298,52.567 81.448,54.417 79.167,54.417L72.5,54.417C71.827,54.417 71.192,54.256 70.631,53.971L70.631,62.791ZM98.536,51.238L98.536,57.905C98.536,60.186 96.686,62.036 94.405,62.036L87.738,62.036C85.457,62.036 83.607,60.186 83.607,57.905L83.607,51.238C83.607,48.957 85.457,47.107 87.738,47.107L94.405,47.107C96.686,47.107 98.536,48.957 98.536,51.238ZM94.405,51.238L87.738,51.238L87.738,57.905L94.405,57.905L94.405,51.238ZM121.393,51.238L121.393,57.905C121.393,60.186 119.543,62.036 117.262,62.036L110.595,62.036C108.314,62.036 106.464,60.186 106.464,57.905L106.464,51.238C106.464,48.957 108.314,47.107 110.595,47.107L117.262,47.107C119.543,47.107 121.393,48.957 121.393,51.238ZM117.262,51.238L110.595,51.238L110.595,57.905L117.262,57.905L117.262,51.238ZM79.167,36L72.5,36L72.5,42.667L79.167,42.667L79.167,36ZM83.715,96.941C83.644,96.639 83.607,96.324 83.607,96L83.607,92.512L80.119,92.512C77.838,92.512 75.988,90.662 75.988,88.381L75.988,84.893L72.5,84.893C71.827,84.893 71.192,84.732 70.631,84.447L70.631,96.072C70.631,96.303 70.722,96.524 70.885,96.687C71.048,96.85 71.27,96.941 71.5,96.941L83.715,96.941ZM134.369,84.447C133.808,84.732 133.173,84.893 132.5,84.893L129.012,84.893L129.012,88.381C129.012,90.662 127.162,92.512 124.881,92.512L121.393,92.512L121.393,96C121.393,96.324 121.356,96.639 121.285,96.941L133.5,96.941C133.73,96.941 133.952,96.85 134.115,96.687C134.278,96.524 134.369,96.303 134.369,96.072L134.369,84.447ZM79.167,43.619L72.5,43.619L72.5,50.286L79.167,50.286L79.167,43.619ZM79.167,74.095L72.5,74.095L72.5,80.762L79.167,80.762L79.167,74.095ZM109.643,81.714L102.976,81.714L102.976,88.381L109.643,88.381L109.643,81.714ZM109.643,89.333L102.976,89.333L102.976,96L109.643,96L109.643,89.333Z"/>
</svg>
