<?xml version="1.0" encoding="UTF-8" standalone="no"?>
<!DOCTYPE svg PUBLIC "-//W3C//DTD SVG 1.1//EN" "http://www.w3.org/Graphics/SVG/1.1/DTD/svg11.dtd">
<svg width="100%" height="100%" viewBox="0 0 205 185" version="1.1" xmlns="http://www.w3.org/2000/svg" xmlns:xlink="http://www.w3.org/1999/xlink" xml:space="preserve" xmlns:serif="http://www.serif.com/" style="fill-rule:evenodd;clip-rule:evenodd;stroke-linejoin:round;stroke-miterlimit:2;">
    <g transform="matrix(0.997051,0,0,1.00905,0.586817,-1.48732)">
        <rect x="-0.589" y="100.577" width="205.606" height="84.238" style="fill:rgb(255,0,0);"/>
        <path d="M205.018,100.577L205.018,184.815L-0.589,184.815L-0.589,100.577L205.018,100.577ZM197.997,107.514C197.997,107.514 6.432,107.514 6.432,107.514L6.432,177.877C6.432,177.877 197.997,177.877 197.997,177.877L197.997,107.514Z"/>
    </g>
    <g id="_4" serif:id="4">
        <path d="M161.266,147.385C160.243,147.374 159.413,146.553 159.393,145.53C159.306,141.101 159.085,129.869 158.998,125.455C158.977,124.382 159.682,123.43 160.715,123.138C162.553,122.619 165.414,121.812 167.176,121.314C167.549,121.209 167.951,121.282 168.263,121.513C168.576,121.743 168.764,122.106 168.773,122.494C168.86,126.204 169.073,135.29 169.162,139.097C169.173,139.55 169.366,139.979 169.697,140.286C170.029,140.594 170.471,140.755 170.923,140.732C171.362,140.709 171.831,140.685 172.259,140.664C173.115,140.62 173.787,139.915 173.788,139.058C173.797,135.055 173.821,124.317 173.829,120.6C173.831,119.833 174.327,119.154 175.058,118.92C176.737,118.381 179.771,117.408 181.772,116.766C182.226,116.621 182.722,116.704 183.103,116.99C183.484,117.275 183.703,117.728 183.69,118.204C183.558,123.148 183.227,135.519 183.123,139.428C183.103,140.16 183.517,140.835 184.179,141.148C184.699,141.394 185.312,141.685 185.796,141.914C186.312,142.158 186.635,142.684 186.621,143.254C186.523,147.176 186.146,162.331 186,168.162C185.968,169.441 184.917,170.458 183.638,170.449C181.176,170.43 177.337,170.401 175.174,170.385C174.272,170.378 173.541,169.652 173.528,168.75C173.469,164.658 173.316,153.93 173.252,149.483C173.236,148.383 172.347,147.497 171.248,147.486C168.579,147.459 163.86,147.411 161.266,147.385Z"/>
        <path d="M162.861,146.864C161.817,146.857 160.976,146.007 160.981,144.964C160.999,141.047 161.04,132.085 161.058,128.254C161.063,127.196 161.772,126.27 162.792,125.99C163.962,125.669 165.497,125.248 166.636,124.935C167.013,124.831 167.417,124.91 167.729,125.147C168.04,125.383 168.224,125.752 168.225,126.143C168.233,129.663 168.254,137.9 168.263,141.464C168.264,141.911 168.444,142.34 168.763,142.654C169.082,142.968 169.513,143.141 169.961,143.135C171.141,143.12 172.703,143.1 173.855,143.085C174.727,143.073 175.432,142.369 175.445,141.497C175.499,137.776 175.635,128.471 175.684,125.119C175.695,124.381 176.163,123.728 176.858,123.479C177.943,123.092 179.589,122.504 180.889,122.04C181.345,121.877 181.852,121.949 182.244,122.232C182.636,122.516 182.864,122.975 182.852,123.458C182.751,127.7 182.525,137.107 182.431,141.021C182.408,142.008 183.163,142.839 184.147,142.909C184.201,142.913 184.254,142.917 184.306,142.92C185.068,142.975 185.655,143.613 185.646,144.377C185.593,148.7 185.429,162.163 185.363,167.573C185.347,168.845 184.322,169.872 183.05,169.89C181.181,169.916 178.581,169.952 176.903,169.975C176.461,169.981 176.036,169.811 175.72,169.502C175.404,169.193 175.225,168.771 175.221,168.33C175.187,164.182 175.1,153.415 175.064,148.941C175.055,147.834 174.159,146.939 173.052,146.932C170.338,146.914 165.518,146.882 162.861,146.864Z" style="fill:white;"/>
    </g>
    <g id="T">
        <path d="M134.407,129.068C134.416,128.237 135.028,127.537 135.85,127.417C139.985,126.811 151.969,125.056 156.556,124.385C157.009,124.318 157.468,124.454 157.812,124.756C158.156,125.058 158.35,125.496 158.343,125.953C158.307,128.212 158.247,132.016 158.212,134.21C158.197,135.153 157.428,135.91 156.485,135.91C155.208,135.91 153.482,135.91 152.292,135.91C151.933,135.91 151.59,136.056 151.341,136.315C151.093,136.574 150.961,136.923 150.976,137.281C151.006,138.008 151.043,138.911 151.076,139.7C151.096,140.195 151.313,140.661 151.677,140.996C152.042,141.331 152.525,141.507 153.02,141.485C153.021,141.485 153.022,141.485 153.023,141.485C153.365,141.47 153.698,141.596 153.944,141.832C154.191,142.069 154.33,142.396 154.328,142.738C154.314,147.484 154.263,163.79 154.245,169.448C154.244,169.966 154.036,170.462 153.669,170.827C153.301,171.192 152.804,171.396 152.286,171.394C149.826,171.385 145.631,171.37 143.243,171.361C142.245,171.357 141.437,170.547 141.437,169.549C141.437,163.445 141.437,143.627 141.437,137.583C141.437,137.116 141.25,136.669 140.919,136.342C140.587,136.014 140.137,135.833 139.671,135.839C138.523,135.855 137.037,135.874 135.925,135.889C135.505,135.894 135.101,135.73 134.804,135.434C134.508,135.138 134.343,134.734 134.348,134.315C134.365,132.797 134.39,130.533 134.407,129.068Z"/>
        <path d="M135.956,131.973C135.956,131.143 136.559,130.436 137.378,130.305C141.183,129.699 151.591,128.039 155.825,127.363C156.279,127.291 156.742,127.423 157.091,127.723C157.439,128.024 157.637,128.462 157.631,128.922C157.616,130.294 157.594,132.151 157.579,133.49C157.568,134.441 156.791,135.204 155.841,135.198C154.488,135.189 152.627,135.178 151.38,135.17C151.025,135.168 150.684,135.309 150.435,135.561C150.185,135.813 150.048,136.156 150.055,136.511C150.077,137.757 150.11,139.625 150.136,141.04C150.155,142.133 151.055,143.005 152.149,142.99C152.149,142.99 152.15,142.99 152.151,142.99C152.517,142.985 152.87,143.127 153.13,143.384C153.391,143.641 153.538,143.992 153.538,144.358C153.538,148.934 153.538,163.565 153.538,168.909C153.538,169.431 153.328,169.931 152.957,170.298C152.585,170.665 152.082,170.867 151.56,170.86C149.628,170.834 146.715,170.795 144.851,170.77C143.86,170.757 143.063,169.95 143.063,168.959C143.063,162.858 143.063,142.903 143.063,136.834C143.063,136.368 142.876,135.921 142.544,135.594C142.213,135.266 141.763,135.085 141.297,135.091C140.142,135.106 138.647,135.126 137.533,135.141C137.116,135.146 136.715,134.985 136.419,134.692C136.122,134.4 135.956,134.001 135.956,133.584C135.956,133.062 135.956,132.484 135.956,131.973Z" style="fill:white;"/>
    </g>
    <g id="_6" serif:id="6">
        <path d="M110.318,170.797C109.777,170.801 109.257,170.589 108.873,170.208C108.489,169.828 108.273,169.31 108.272,168.769C108.263,163.17 108.239,147.67 108.231,142.735C108.23,141.864 108.884,141.131 109.749,141.035C109.769,141.032 109.788,141.03 109.807,141.028C110.573,140.943 111.15,140.29 111.14,139.52C111.115,137.415 111.067,133.361 111.039,130.984C111.026,129.946 111.84,129.086 112.877,129.039C117.265,128.844 128.208,128.356 132.413,128.169C132.853,128.149 133.282,128.309 133.602,128.613C133.922,128.916 134.105,129.337 134.108,129.777C134.127,132.109 134.16,136.282 134.177,138.472C134.183,139.264 133.549,139.913 132.757,139.925C131.036,139.952 128.17,139.997 126.507,140.023C126.163,140.028 125.831,139.895 125.586,139.654C125.341,139.412 125.203,139.083 125.203,138.739C125.203,138.738 125.203,138.737 125.203,138.736C125.203,138.284 125.018,137.852 124.691,137.54C124.364,137.229 123.923,137.064 123.472,137.086C123.283,137.095 123.092,137.104 122.904,137.113C121.978,137.157 121.231,137.885 121.162,138.81C121.156,138.893 121.15,138.976 121.144,139.06C121.107,139.555 121.277,140.044 121.613,140.41C121.949,140.775 122.421,140.986 122.918,140.991C125.439,141.018 129.838,141.066 132.298,141.092C133.292,141.103 134.091,141.914 134.086,142.908C134.061,148.212 133.987,163.756 133.963,168.928C133.958,169.868 133.198,170.63 132.258,170.637C127.708,170.67 115.244,170.761 110.318,170.797ZM122.655,148.117C122.318,148.109 121.992,148.237 121.749,148.471C121.507,148.706 121.369,149.028 121.367,149.366C121.359,150.471 121.348,152.076 121.34,153.276C121.334,154.19 122.054,154.945 122.968,154.98C123.065,154.984 123.163,154.988 123.26,154.992C123.7,155.009 124.129,154.85 124.452,154.55C124.774,154.25 124.964,153.834 124.979,153.394C125.017,152.281 125.066,150.827 125.103,149.737C125.117,149.325 124.966,148.925 124.683,148.625C124.401,148.325 124.01,148.151 123.598,148.141C123.285,148.133 122.958,148.125 122.655,148.117Z"/>
        <path d="M112.363,170.122C111.823,170.127 111.303,169.915 110.918,169.536C110.534,169.156 110.317,168.639 110.315,168.098C110.298,163.021 110.252,149.88 110.235,145.035C110.231,144.001 111.022,143.138 112.052,143.053C112.185,143.042 112.319,143.03 112.451,143.019C113.412,142.939 114.147,142.13 114.134,141.166C114.109,139.201 114.067,135.989 114.04,133.969C114.027,132.937 114.83,132.078 115.86,132.023C119.56,131.823 127.836,131.377 131.405,131.185C131.846,131.161 132.278,131.318 132.601,131.621C132.924,131.923 133.11,132.344 133.115,132.786C133.132,134.187 133.155,136.155 133.171,137.477C133.181,138.267 132.553,138.918 131.763,138.936C130.782,138.959 129.488,138.989 128.529,139.012C128.18,139.02 127.843,138.887 127.593,138.643C127.344,138.399 127.203,138.065 127.203,137.716C127.203,137.715 127.203,137.714 127.203,137.713C127.203,137.264 127.021,136.834 126.7,136.521C126.378,136.207 125.943,136.038 125.494,136.05C124.428,136.078 123.062,136.115 121.995,136.144C121.031,136.17 120.251,136.939 120.211,137.903C120.171,138.883 120.12,140.115 120.078,141.118C120.058,141.604 120.236,142.078 120.571,142.43C120.906,142.783 121.37,142.985 121.856,142.991C124.368,143.018 128.821,143.065 131.301,143.092C132.294,143.103 133.092,143.912 133.089,144.905C133.071,149.821 133.024,163.457 133.007,168.255C133.004,169.195 132.245,169.958 131.305,169.966C127.208,170 116.79,170.086 112.363,170.122ZM121.645,147.103C121.31,147.099 120.986,147.228 120.747,147.464C120.508,147.699 120.372,148.02 120.371,148.355C120.362,150.505 120.345,154.861 120.336,157.252C120.332,158.176 121.069,158.932 121.993,158.952C122.995,158.973 124.265,159 125.265,159.021C125.704,159.031 126.129,158.865 126.446,158.561C126.763,158.256 126.946,157.839 126.955,157.399C127,155.1 127.081,150.974 127.126,148.732C127.134,148.321 126.978,147.924 126.692,147.628C126.406,147.333 126.014,147.164 125.603,147.158C124.404,147.141 122.766,147.119 121.645,147.103Z" style="fill:white;"/>
    </g>
    <g id="_-" serif:id="-">
        <path d="M89.221,149.107C88.92,149.109 88.63,148.99 88.418,148.776C88.205,148.562 88.087,148.272 88.091,147.971C88.113,145.89 88.161,141.497 88.184,139.323C88.192,138.62 88.766,138.054 89.47,138.058C91.561,138.069 95.705,138.092 97.838,138.104C98.192,138.106 98.531,138.249 98.78,138.501C99.028,138.754 99.166,139.095 99.162,139.449C99.161,139.546 99.16,139.644 99.159,139.74C99.156,140.07 99.283,140.388 99.514,140.623C99.745,140.859 100.06,140.993 100.39,140.997C102.076,141.014 105.069,141.044 106.751,141.061C107.435,141.068 107.985,141.626 107.982,142.31C107.976,143.856 107.967,146.476 107.961,147.935C107.959,148.521 107.484,148.997 106.897,149.001C103.478,149.021 92.756,149.086 89.221,149.107Z"/>
        <path d="M91.229,148.106C90.927,148.108 90.636,147.988 90.423,147.773C90.21,147.558 90.093,147.266 90.098,146.963C90.119,145.688 90.154,143.637 90.176,142.317C90.188,141.616 90.763,141.055 91.464,141.06C93.15,141.071 96.119,141.091 97.839,141.102C98.193,141.104 98.532,141.248 98.78,141.5C99.028,141.753 99.166,142.094 99.162,142.448C99.161,142.546 99.16,142.644 99.159,142.742C99.152,143.428 99.702,143.99 100.388,143.998C101.855,144.015 104.282,144.043 105.748,144.06C106.433,144.067 106.983,144.628 106.977,145.313C106.973,145.836 106.969,146.438 106.965,146.94C106.961,147.525 106.487,147.998 105.903,148.002C102.904,148.023 94.344,148.084 91.229,148.106Z" style="fill:white;"/>
    </g>
    <g id="X">
        <g transform="matrix(1.13231,0,0,1.09513,-10.8659,-15.825)">
            <path d="M62.007,131.346C62.004,130.956 62.164,130.584 62.445,130.324C62.726,130.064 63.101,129.942 63.475,129.988C65.706,130.261 69.882,130.774 71.865,131.018C72.492,131.095 72.965,131.645 72.965,132.298C72.965,133.799 72.965,136.413 72.965,137.897C72.965,138.191 73.079,138.473 73.28,138.68C73.482,138.887 73.756,139.002 74.04,138.999C74.68,138.994 75.491,138.986 76.138,138.981C76.432,138.978 76.714,138.854 76.919,138.636C77.125,138.419 77.238,138.125 77.233,137.821C77.213,136.509 77.18,134.368 77.159,132.981C77.154,132.63 77.287,132.292 77.528,132.046C77.769,131.799 78.097,131.664 78.436,131.673C80.017,131.714 82.676,131.784 84.304,131.827C85.093,131.847 85.727,132.505 85.745,133.32C85.8,135.872 85.914,141.141 85.974,143.901C85.984,144.369 85.812,144.822 85.497,145.158C85.181,145.493 84.748,145.684 84.296,145.687C82.553,145.699 79.97,145.716 78.947,145.723C78.7,145.725 78.498,145.927 78.487,146.182C78.487,146.184 78.487,146.185 78.487,146.187C78.482,146.31 78.525,146.43 78.606,146.52C78.687,146.61 78.8,146.663 78.919,146.667C80.035,146.702 82.965,146.795 84.714,146.85C85.481,146.874 86.093,147.521 86.101,148.314C86.139,152.453 86.252,164.501 86.295,169.097C86.304,170.1 85.531,170.924 84.561,170.945C82.916,170.979 80.48,171.03 78.907,171.063C78.5,171.071 78.106,170.911 77.814,170.617C77.522,170.323 77.356,169.92 77.354,169.498C77.332,165.736 77.277,156.382 77.258,153.082C77.254,152.433 76.743,151.908 76.115,151.908C75.462,151.908 74.647,151.908 73.999,151.908C73.706,151.908 73.424,152.029 73.217,152.244C73.011,152.459 72.895,152.751 72.897,153.055C72.915,156.169 72.966,164.819 72.99,168.857C72.993,169.419 72.779,169.96 72.396,170.359C72.012,170.758 71.49,170.983 70.946,170.983C68.732,170.983 65.278,170.983 63.412,170.983C62.691,170.983 62.107,170.38 62.104,169.635C62.091,165.367 62.05,152.19 62.037,148.16C62.036,147.847 62.156,147.546 62.37,147.325C62.584,147.104 62.875,146.98 63.178,146.982C64.963,146.99 68.341,147.005 69.651,147.011C69.789,147.012 69.921,146.953 70.014,146.848C70.108,146.743 70.154,146.602 70.142,146.46C70.137,146.394 70.131,146.326 70.125,146.26C70.098,145.929 69.83,145.676 69.51,145.676C68.234,145.676 65.115,145.676 63.36,145.676C62.667,145.676 62.104,145.098 62.099,144.382C62.079,141.48 62.029,134.466 62.007,131.346Z"/>
        </g>
        <path d="M62.011,131.542C62.007,131.107 62.194,130.693 62.521,130.408C62.848,130.122 63.284,129.994 63.714,130.057C65.541,130.325 68.386,130.741 69.991,130.976C70.685,131.077 71.199,131.672 71.199,132.373C71.199,133.85 71.199,136.322 71.199,137.796C71.199,138.117 71.327,138.425 71.554,138.651C71.782,138.878 72.09,139.004 72.412,139.003C73.862,138.996 76.28,138.984 77.753,138.977C78.087,138.976 78.407,138.84 78.64,138.602C78.874,138.363 79.003,138.041 78.998,137.707C78.978,136.433 78.948,134.466 78.928,133.119C78.922,132.733 79.074,132.362 79.349,132.091C79.625,131.821 79.999,131.675 80.385,131.688C81.493,131.724 83.007,131.774 84.138,131.812C85.023,131.841 85.732,132.554 85.756,133.439C85.81,135.433 85.903,138.866 85.961,141.012C85.974,141.522 85.784,142.015 85.433,142.384C85.082,142.753 84.598,142.966 84.088,142.977C82.379,143.013 79.929,143.065 78.454,143.097C77.746,143.112 77.178,143.686 77.171,144.393C77.168,144.749 77.164,145.136 77.16,145.493C77.153,146.213 77.723,146.806 78.442,146.827C80.195,146.878 83.296,146.968 84.985,147.017C85.642,147.036 86.165,147.572 86.17,148.229C86.194,152.056 86.27,164.166 86.299,168.943C86.306,170.034 85.439,170.931 84.347,170.959C83.266,170.987 81.936,171.022 80.889,171.049C80.426,171.061 79.977,170.886 79.644,170.564C79.311,170.241 79.122,169.798 79.12,169.335C79.098,165.207 79.043,154.979 79.024,151.369C79.02,150.657 78.442,150.081 77.73,150.081C76.252,150.081 73.843,150.081 72.379,150.081C72.047,150.081 71.728,150.214 71.494,150.449C71.26,150.685 71.129,151.004 71.131,151.337C71.149,154.748 71.2,164.233 71.224,168.656C71.227,169.272 70.985,169.864 70.55,170.301C70.116,170.737 69.525,170.983 68.909,170.983C67.233,170.983 65.023,170.983 63.584,170.983C62.768,170.983 62.106,170.323 62.104,169.507C62.09,165.15 62.05,152.388 62.038,148.272C62.037,147.93 62.172,147.601 62.415,147.358C62.657,147.116 62.987,146.981 63.329,146.983C64.826,146.989 67.279,147.001 68.81,147.008C69.171,147.009 69.518,146.864 69.771,146.606C70.024,146.347 70.161,145.997 70.151,145.636C70.14,145.246 70.128,144.821 70.117,144.425C70.095,143.596 69.416,142.936 68.587,142.936C67.137,142.936 64.948,142.936 63.524,142.936C62.74,142.936 62.103,142.305 62.096,141.521C62.076,139.099 62.033,134.167 62.011,131.542Z" style="fill:white;"/>
    </g>
    <g id="I">
        <g transform="matrix(1,0,0,1,-2,-4)">
            <path d="M49.679,175.373C48.397,175.37 47.36,174.33 47.361,173.048C47.363,167.317 47.367,152.56 47.369,147.175C47.369,146.06 48.258,145.148 49.373,145.119C49.383,145.118 49.392,145.118 49.402,145.118C50.666,145.085 51.674,144.053 51.676,142.788C51.684,139.225 51.699,132.424 51.706,129.507C51.706,129.164 51.859,128.84 52.123,128.621C52.386,128.402 52.734,128.311 53.071,128.373C54.859,128.702 57.969,129.274 59.649,129.583C60.32,129.706 60.807,130.291 60.807,130.972C60.811,137.105 60.828,165.432 60.833,173.346C60.834,173.891 60.617,174.414 60.231,174.799C59.845,175.185 59.321,175.4 58.776,175.399C56.324,175.392 52.24,175.381 49.679,175.373Z"/>
        </g>
        <path d="M49.72,170.814C48.441,170.81 47.405,169.772 47.404,168.493C47.396,163.18 47.379,150.182 47.372,145.179C47.371,144.062 48.26,143.148 49.377,143.119C49.385,143.118 49.394,143.118 49.403,143.118C50.666,143.085 51.674,142.053 51.677,140.789C51.685,137.612 51.699,131.945 51.706,129.41C51.706,129.082 51.847,128.769 52.091,128.551C52.336,128.332 52.662,128.228 52.988,128.264C54.036,128.38 55.509,128.542 56.55,128.657C57.266,128.736 57.807,129.34 57.809,130.06C57.819,136.02 57.864,161.342 57.878,168.781C57.879,169.327 57.662,169.851 57.275,170.236C56.889,170.622 56.365,170.838 55.819,170.836C54.063,170.83 51.544,170.821 49.72,170.814Z" style="fill:white;"/>
    </g>
    <g id="P">
        <g transform="matrix(1.16499,0,0,1.27231,-6.54236,-39.1819)">
            <path d="M22.905,164.858C21.975,164.854 21.224,164.098 21.227,163.169L21.294,143.491C21.296,142.994 21.599,142.549 22.06,142.366L23.683,141.72C24.456,141.412 24.962,140.664 24.96,139.833L24.93,124.652C24.929,124.115 25.173,123.606 25.594,123.271C26.014,122.936 26.565,122.811 27.089,122.933L44.388,126.937C45.106,127.103 45.616,127.74 45.62,128.477L45.714,144.488C45.717,144.955 45.532,145.403 45.2,145.732C44.868,146.06 44.419,146.241 43.952,146.234L34.802,146.065C34.316,146.058 33.846,146.245 33.498,146.584C33.15,146.924 32.951,147.388 32.947,147.875L32.762,162.597C32.75,163.865 31.716,164.885 30.449,164.88L22.905,164.858ZM32.797,140.246C32.807,140.925 33.362,141.47 34.041,141.466L36.049,141.441C36.729,141.437 37.28,140.889 37.286,140.209L37.337,138.747C37.341,138.418 37.213,138.102 36.983,137.868C36.753,137.634 36.44,137.5 36.112,137.497L34.802,137.453C34.25,137.448 33.719,137.666 33.329,138.058C32.94,138.449 32.724,138.981 32.732,139.533L32.797,140.246Z"/>
        </g>
        <path d="M22.905,169.573C21.975,169.57 21.224,168.814 21.227,167.884L21.294,145.063C21.296,144.566 21.599,144.121 22.06,143.938L23.683,143.291C24.456,142.984 24.962,142.236 24.96,141.405L24.93,124.652C24.929,124.115 25.173,123.606 25.594,123.271C26.014,122.936 26.565,122.811 27.089,122.933L44.388,126.937C45.106,127.103 45.616,127.74 45.62,128.477L45.714,144.488C45.717,144.955 45.532,145.403 45.2,145.732C44.868,146.06 44.419,146.241 43.952,146.234L33.085,146.065C32.599,146.058 32.13,146.245 31.781,146.584C31.433,146.924 31.235,147.388 31.23,147.875L31.045,167.313C31.033,168.581 29.999,169.6 28.732,169.596L22.905,169.573ZM31.081,141.818C31.09,142.497 31.645,143.042 32.324,143.038L37.766,143.013C38.445,143.009 38.996,142.461 39.003,141.781L39.054,136.389C39.057,136.06 38.93,135.744 38.7,135.51C38.47,135.276 38.157,135.143 37.828,135.139L33.085,135.096C32.533,135.09 32.002,135.308 31.612,135.7C31.223,136.091 31.008,136.623 31.015,137.175L31.081,141.818Z"/>
        <path d="M22.905,169.573C21.975,169.57 21.224,168.814 21.227,167.884L21.294,145.063C21.296,144.566 21.599,144.121 22.06,143.938L23.683,143.291C24.456,142.984 24.962,142.236 24.96,141.405L24.93,124.652C24.929,124.115 25.173,123.606 25.594,123.271C26.014,122.936 26.565,122.811 27.089,122.933L44.388,126.937C45.106,127.103 45.616,127.74 45.62,128.477L45.714,144.488C45.717,144.955 45.532,145.403 45.2,145.732C44.868,146.06 44.419,146.241 43.952,146.234L33.085,146.065C32.599,146.058 32.13,146.245 31.781,146.584C31.433,146.924 31.235,147.388 31.23,147.875L31.045,167.313C31.033,168.581 29.999,169.6 28.732,169.596L22.905,169.573ZM31.081,141.818C31.09,142.497 31.645,143.042 32.324,143.038L37.766,143.013C38.445,143.009 38.996,142.461 39.003,141.781L39.054,136.389C39.057,136.06 38.93,135.744 38.7,135.51C38.47,135.276 38.157,135.143 37.828,135.139L33.085,135.096C32.533,135.09 32.002,135.308 31.612,135.7C31.223,136.091 31.008,136.623 31.015,137.175L31.081,141.818Z" style="fill:white;"/>
    </g>
    <g>
        <path d="M98.067,13.126C98.067,5.832 92.145,-0.09 84.851,-0.09L60.588,-0.09C53.294,-0.09 47.372,5.832 47.372,13.126C47.372,20.42 53.294,26.342 60.588,26.342L84.851,26.342C92.145,26.342 98.067,20.42 98.067,13.126Z" style="fill:rgb(255,0,0);"/>
        <path d="M98.067,13.126C98.067,20.42 92.145,26.342 84.851,26.342L60.588,26.342C53.294,26.342 47.372,20.42 47.372,13.126C47.372,5.832 53.294,-0.09 60.588,-0.09L84.851,-0.09C92.145,-0.09 98.067,5.832 98.067,13.126ZM91.067,13.126C91.067,9.696 88.281,6.91 84.851,6.91L60.588,6.91C57.157,6.91 54.372,9.696 54.372,13.126C54.372,16.557 57.157,19.342 60.588,19.342L84.851,19.342C88.281,19.342 91.067,16.557 91.067,13.126Z"/>
        <g transform="matrix(1,0,0,1,60,0)">
            <path d="M98.067,13.126C98.067,5.832 92.145,-0.09 84.851,-0.09L60.588,-0.09C53.294,-0.09 47.372,5.832 47.372,13.126C47.372,20.42 53.294,26.342 60.588,26.342L84.851,26.342C92.145,26.342 98.067,20.42 98.067,13.126Z" style="fill:rgb(255,0,0);"/>
            <path d="M98.067,13.126C98.067,20.42 92.145,26.342 84.851,26.342L60.588,26.342C53.294,26.342 47.372,20.42 47.372,13.126C47.372,5.832 53.294,-0.09 60.588,-0.09L84.851,-0.09C92.145,-0.09 98.067,5.832 98.067,13.126ZM91.067,13.126C91.067,9.696 88.281,6.91 84.851,6.91L60.588,6.91C57.157,6.91 54.372,9.696 54.372,13.126C54.372,16.557 57.157,19.342 60.588,19.342L84.851,19.342C88.281,19.342 91.067,16.557 91.067,13.126Z"/>
        </g>
        <path d="M158.172,33.909C158.172,25.916 151.683,19.427 143.69,19.427L61.199,19.427C53.207,19.427 46.717,25.916 46.717,33.909L46.717,108.388C46.717,116.381 53.207,122.87 61.199,122.87L143.69,122.87C151.683,122.87 158.172,116.381 158.172,108.388L158.172,33.909Z" style="fill:rgb(255,0,0);"/>
        <path d="M158.172,33.909L158.172,108.388C158.172,116.381 151.683,122.87 143.69,122.87L61.199,122.87C53.207,122.87 46.717,116.381 46.717,108.388L46.717,33.909C46.717,25.916 53.207,19.427 61.199,19.427L143.69,19.427C151.683,19.427 158.172,25.916 158.172,33.909ZM151.172,33.909C151.172,29.78 147.819,26.427 143.69,26.427L61.199,26.427C57.07,26.427 53.717,29.78 53.717,33.909L53.717,108.388C53.717,112.517 57.07,115.87 61.199,115.87L143.69,115.87C147.819,115.87 151.172,112.517 151.172,108.388L151.172,33.909Z"/>
        <g transform="matrix(1.05659,0,0,0.981983,-4.40265,0.276425)">
            <rect x="67.105" y="18.558" width="11.831" height="9.165" style="fill:rgb(255,0,0);"/>
        </g>
        <g transform="matrix(1.05659,0,0,0.981983,56.0973,0.276425)">
            <rect x="67.105" y="18.558" width="11.831" height="9.165" style="fill:rgb(255,0,0);"/>
        </g>
    </g>
    <g transform="matrix(0.997458,0,0,1.00604,-0.216306,-0.187578)">
        <path d="M139.07,31.072L66.886,31.072L66.886,95.682C66.886,97 67.414,98.265 68.355,99.197C69.295,100.129 70.57,100.652 71.899,100.652C85.122,100.652 120.834,100.652 134.057,100.652C135.386,100.652 136.661,100.129 137.602,99.197C138.542,98.265 139.07,97 139.07,95.682C139.07,79.763 139.07,31.072 139.07,31.072Z"/>
        <path d="M139.07,31.072L139.07,95.682C139.07,97 138.542,98.265 137.602,99.197C136.661,100.129 135.386,100.652 134.057,100.652L71.899,100.652C70.57,100.652 69.295,100.129 68.355,99.197C67.414,98.265 66.886,97 66.886,95.682L66.886,31.072L139.07,31.072ZM134.928,35.178L71.028,35.178L71.028,95.682C71.028,95.911 71.12,96.131 71.283,96.293C71.446,96.455 71.668,96.546 71.899,96.546L134.057,96.546C134.288,96.546 134.51,96.455 134.673,96.293C134.837,96.131 134.928,95.911 134.928,95.682L134.928,35.178Z"/>
    </g>
    <g id="Pixels" transform="matrix(0.952381,0,0,0.952381,4.88095,2.19048)">
        <g transform="matrix(1,0,0,1,-1.5,0)">
            <rect x="72.5" y="35.5" width="7" height="7" style="fill:white;"/>
        </g>
        <g transform="matrix(1,0,0,1,-1.5,32)">
            <rect x="72.5" y="35.5" width="7" height="7" style="fill:white;"/>
        </g>
        <g transform="matrix(1,0,0,1,-1.5,16)">
            <rect x="72.5" y="35.5" width="7" height="7" style="fill:rgb(255,0,0);"/>
        </g>
        <g transform="matrix(1,0,0,1,-1.5,48)">
            <rect x="72.5" y="35.5" width="7" height="7" style="fill:rgb(255,0,0);"/>
        </g>
        <g transform="matrix(1,0,0,1,-1.5,8)">
            <rect x="72.5" y="35.5" width="7" height="7" style="fill:white;"/>
        </g>
        <g transform="matrix(1,0,0,1,-1.5,40)">
            <rect x="72.5" y="35.5" width="7" height="7" style="fill:white;"/>
        </g>
        <g transform="matrix(1,0,0,1,-1.5,24)">
            <rect x="72.5" y="35.5" width="7" height="7" style="fill:rgb(255,0,0);"/>
        </g>
        <g transform="matrix(1,0,0,1,-1.5,56)">
            <rect x="72.5" y="35.5" width="7" height="7" style="fill:rgb(255,0,0);"/>
        </g>
        <g transform="matrix(1,0,0,1,30.5,0)">
            <rect x="72.5" y="35.5" width="7" height="7" style="fill:rgb(255,0,0);"/>
        </g>
        <g transform="matrix(1,0,0,1,30.5,32)">
            <rect x="72.5" y="35.5" width="7" height="7" style="fill:rgb(255,0,0);"/>
        </g>
        <g transform="matrix(1,0,0,1,30.5,16)">
            <rect x="72.5" y="35.5" width="7" height="7" style="fill:rgb(255,0,0);"/>
        </g>
        <g transform="matrix(1,0,0,1,30.5,48)">
            <rect x="72.5" y="35.5" width="7" height="7" style="fill:white;"/>
        </g>
        <g transform="matrix(1,0,0,1,30.5,8)">
            <rect x="72.5" y="35.5" width="7" height="7" style="fill:rgb(255,0,0);"/>
        </g>
        <g transform="matrix(1,0,0,1,30.5,40)">
            <rect x="72.5" y="35.5" width="7" height="7" style="fill:rgb(255,0,0);"/>
        </g>
        <g transform="matrix(1,0,0,1,30.5,24)">
            <rect x="72.5" y="35.5" width="7" height="7" style="fill:rgb(255,0,0);"/>
        </g>
        <g transform="matrix(1,0,0,1,30.5,56)">
            <rect x="72.5" y="35.5" width="7" height="7" style="fill:white;"/>
        </g>
        <g transform="matrix(1,0,0,1,14.5,0)">
            <rect x="72.5" y="35.5" width="7" height="7" style="fill:rgb(255,0,0);"/>
        </g>
        <g transform="matrix(1,0,0,1,14.5,32)">
            <rect x="72.5" y="35.5" width="7" height="7" style="fill:rgb(255,0,0);"/>
        </g>
        <g transform="matrix(1,0,0,1,14.5,16)">
            <rect x="72.5" y="35.5" width="7" height="7" style="fill:white;"/>
        </g>
        <g transform="matrix(1,0,0,1,14.5,48)">
            <rect x="72.5" y="35.5" width="7" height="7" style="fill:white;"/>
        </g>
        <g transform="matrix(1,0,0,1,14.5,8)">
            <rect x="72.5" y="35.5" width="7" height="7" style="fill:rgb(255,0,0);"/>
        </g>
        <g transform="matrix(1,0,0,1,14.5,40)">
            <rect x="72.5" y="35.5" width="7" height="7" style="fill:white;"/>
        </g>
        <g transform="matrix(1,0,0,1,14.5,24)">
            <rect x="72.5" y="35.5" width="7" height="7" style="fill:rgb(255,0,0);"/>
        </g>
        <g transform="matrix(1,0,0,1,14.5,56)">
            <rect x="72.5" y="35.5" width="7" height="7" style="fill:white;"/>
        </g>
        <g transform="matrix(1,0,0,1,46.5,0)">
            <rect x="72.5" y="35.5" width="7" height="7" style="fill:white;"/>
        </g>
        <g transform="matrix(1,0,0,1,46.5,32)">
            <rect x="72.5" y="35.5" width="7" height="7" style="fill:rgb(255,0,0);"/>
        </g>
        <g transform="matrix(1,0,0,1,46.5,16)">
            <rect x="72.5" y="35.5" width="7" height="7" style="fill:rgb(255,0,0);"/>
        </g>
        <g transform="matrix(1,0,0,1,46.5,48)">
            <rect x="72.5" y="35.5" width="7" height="7" style="fill:white;"/>
        </g>
        <g transform="matrix(1,0,0,1,46.5,8)">
            <rect x="72.5" y="35.5" width="7" height="7" style="fill:rgb(255,0,0);"/>
        </g>
        <g transform="matrix(1,0,0,1,46.5,40)">
            <rect x="72.5" y="35.5" width="7" height="7" style="fill:rgb(255,0,0);"/>
        </g>
        <g transform="matrix(1,0,0,1,46.5,24)">
            <rect x="72.5" y="35.5" width="7" height="7" style="fill:rgb(255,0,0);"/>
        </g>
        <g transform="matrix(1,0,0,1,46.5,56)">
            <rect x="72.5" y="35.5" width="7" height="7" style="fill:rgb(255,0,0);"/>
        </g>
        <g transform="matrix(1,0,0,1,6.5,0)">
            <rect x="72.5" y="35.5" width="7" height="7" style="fill:white;"/>
        </g>
        <g transform="matrix(1,0,0,1,6.5,32)">
            <rect x="72.5" y="35.5" width="7" height="7" style="fill:rgb(255,0,0);"/>
        </g>
        <g transform="matrix(1,0,0,1,6.5,16)">
            <rect x="72.5" y="35.5" width="7" height="7" style="fill:rgb(255,0,0);"/>
        </g>
        <g transform="matrix(1,0,0,1,6.5,48)">
            <rect x="72.5" y="35.5" width="7" height="7" style="fill:white;"/>
        </g>
        <g transform="matrix(1,0,0,1,6.5,8)">
            <rect x="72.5" y="35.5" width="7" height="7" style="fill:rgb(255,0,0);"/>
        </g>
        <g transform="matrix(1,0,0,1,6.5,40)">
            <rect x="72.5" y="35.5" width="7" height="7" style="fill:rgb(255,0,0);"/>
        </g>
        <g transform="matrix(1,0,0,1,6.5,24)">
            <rect x="72.5" y="35.5" width="7" height="7" style="fill:rgb(255,0,0);"/>
        </g>
        <g transform="matrix(1,0,0,1,6.5,56)">
            <rect x="72.5" y="35.5" width="7" height="7" style="fill:rgb(255,0,0);"/>
        </g>
        <g transform="matrix(1,0,0,1,38.5,0)">
            <rect x="72.5" y="35.5" width="7" height="7" style="fill:rgb(255,0,0);"/>
        </g>
        <g transform="matrix(1,0,0,1,38.5,32)">
            <rect x="72.5" y="35.5" width="7" height="7" style="fill:rgb(255,0,0);"/>
        </g>
        <g transform="matrix(1,0,0,1,38.5,16)">
            <rect x="72.5" y="35.5" width="7" height="7" style="fill:white;"/>
        </g>
        <g transform="matrix(1,0,0,1,38.5,48)">
            <rect x="72.5" y="35.5" width="7" height="7" style="fill:white;"/>
        </g>
        <g transform="matrix(1,0,0,1,38.5,8)">
            <rect x="72.5" y="35.5" width="7" height="7" style="fill:rgb(255,0,0);"/>
        </g>
        <g transform="matrix(1,0,0,1,38.5,40)">
            <rect x="72.5" y="35.5" width="7" height="7" style="fill:white;"/>
        </g>
        <g transform="matrix(1,0,0,1,38.5,24)">
            <rect x="72.5" y="35.5" width="7" height="7" style="fill:rgb(255,0,0);"/>
        </g>
        <g transform="matrix(1,0,0,1,38.5,56)">
            <rect x="72.5" y="35.5" width="7" height="7" style="fill:white;"/>
        </g>
        <g transform="matrix(1,0,0,1,22.5,0)">
            <rect x="72.5" y="35.5" width="7" height="7" style="fill:rgb(255,0,0);"/>
        </g>
        <g transform="matrix(1,0,0,1,22.5,32)">
            <rect x="72.5" y="35.5" width="7" height="7" style="fill:rgb(255,0,0);"/>
        </g>
        <g transform="matrix(1,0,0,1,22.5,16)">
            <rect x="72.5" y="35.5" width="7" height="7" style="fill:rgb(255,0,0);"/>
        </g>
        <g transform="matrix(1,0,0,1,22.5,48)">
            <rect x="72.5" y="35.5" width="7" height="7" style="fill:white;"/>
        </g>
        <g transform="matrix(1,0,0,1,22.5,8)">
            <rect x="72.5" y="35.5" width="7" height="7" style="fill:rgb(255,0,0);"/>
        </g>
        <g transform="matrix(1,0,0,1,22.5,40)">
            <rect x="72.5" y="35.5" width="7" height="7" style="fill:rgb(255,0,0);"/>
        </g>
        <g transform="matrix(1,0,0,1,22.5,24)">
            <rect x="72.5" y="35.5" width="7" height="7" style="fill:rgb(255,0,0);"/>
        </g>
        <g transform="matrix(1,0,0,1,22.5,56)">
            <rect x="72.5" y="35.5" width="7" height="7" style="fill:white;"/>
        </g>
        <g transform="matrix(1,0,0,1,54.5,0)">
            <rect x="72.5" y="35.5" width="7" height="7" style="fill:white;"/>
        </g>
        <g transform="matrix(1,0,0,1,54.5,32)">
            <rect x="72.5" y="35.5" width="7" height="7" style="fill:white;"/>
        </g>
        <g transform="matrix(1,0,0,1,54.5,16)">
            <rect x="72.5" y="35.5" width="7" height="7" style="fill:rgb(255,0,0);"/>
        </g>
        <g transform="matrix(1,0,0,1,54.5,48)">
            <rect x="72.5" y="35.5" width="7" height="7" style="fill:rgb(255,0,0);"/>
        </g>
        <g transform="matrix(1,0,0,1,54.5,8)">
            <rect x="72.5" y="35.5" width="7" height="7" style="fill:white;"/>
        </g>
        <g transform="matrix(1,0,0,1,54.5,40)">
            <rect x="72.5" y="35.5" width="7" height="7" style="fill:white;"/>
        </g>
        <g transform="matrix(1,0,0,1,54.5,24)">
            <rect x="72.5" y="35.5" width="7" height="7" style="fill:rgb(255,0,0);"/>
        </g>
        <g transform="matrix(1,0,0,1,54.5,56)">
            <rect x="72.5" y="35.5" width="7" height="7" style="fill:rgb(255,0,0);"/>
        </g>
    </g>
</svg>
