%TF.GenerationSoftware,KiCad,Pcbnew,(6.0.10)*%
%TF.CreationDate,2023-01-20T23:09:19-08:00*%
%TF.ProjectId,pico8t,7069636f-3874-42e6-9b69-6361645f7063,rev?*%
%TF.SameCoordinates,Original*%
%TF.FileFunction,Legend,Top*%
%TF.FilePolarity,Positive*%
%FSLAX46Y46*%
G04 Gerber Fmt 4.6, Leading zero omitted, Abs format (unit mm)*
G04 Created by KiCad (PCBNEW (6.0.10)) date 2023-01-20 23:09:19*
%MOMM*%
%LPD*%
G01*
G04 APERTURE LIST*
%ADD10C,0.150000*%
%ADD11C,0.120000*%
G04 APERTURE END LIST*
D10*
%TO.C,J0*%
X37004666Y-47458380D02*
X37004666Y-48172666D01*
X36957047Y-48315523D01*
X36861809Y-48410761D01*
X36718952Y-48458380D01*
X36623714Y-48458380D01*
X37671333Y-47458380D02*
X37766571Y-47458380D01*
X37861809Y-47506000D01*
X37909428Y-47553619D01*
X37957047Y-47648857D01*
X38004666Y-47839333D01*
X38004666Y-48077428D01*
X37957047Y-48267904D01*
X37909428Y-48363142D01*
X37861809Y-48410761D01*
X37766571Y-48458380D01*
X37671333Y-48458380D01*
X37576095Y-48410761D01*
X37528476Y-48363142D01*
X37480857Y-48267904D01*
X37433238Y-48077428D01*
X37433238Y-47839333D01*
X37480857Y-47648857D01*
X37528476Y-47553619D01*
X37576095Y-47506000D01*
X37671333Y-47458380D01*
D11*
X37851000Y-52130000D02*
X36521000Y-52130000D01*
X39121000Y-49470000D02*
X87441000Y-49470000D01*
X87441000Y-52130000D02*
X87441000Y-49470000D01*
X39121000Y-52130000D02*
X87441000Y-52130000D01*
X36521000Y-52130000D02*
X36521000Y-50800000D01*
X39121000Y-52130000D02*
X39121000Y-49470000D01*
%TO.C,R7*%
X61482500Y-46735276D02*
X61482500Y-47244724D01*
X60437500Y-46735276D02*
X60437500Y-47244724D01*
%TO.C,R3*%
X51322500Y-46735276D02*
X51322500Y-47244724D01*
X50277500Y-46735276D02*
X50277500Y-47244724D01*
%TO.C,D42*%
X53010000Y-32280000D02*
X52010000Y-32280000D01*
X53010000Y-31180000D02*
X53010000Y-32280000D01*
%TO.C,D45*%
X65010000Y-31180000D02*
X65010000Y-32280000D01*
X65010000Y-32280000D02*
X64010000Y-32280000D01*
%TO.C,D51*%
X49010000Y-35180000D02*
X49010000Y-36280000D01*
X49010000Y-36280000D02*
X48010000Y-36280000D01*
%TO.C,R11*%
X70597500Y-46735276D02*
X70597500Y-47244724D01*
X71642500Y-46735276D02*
X71642500Y-47244724D01*
%TO.C,D76*%
X69010000Y-43180000D02*
X69010000Y-44280000D01*
X69010000Y-44280000D02*
X68010000Y-44280000D01*
%TO.C,D73*%
X57010000Y-44280000D02*
X56010000Y-44280000D01*
X57010000Y-43180000D02*
X57010000Y-44280000D01*
%TO.C,D61*%
X49010000Y-39180000D02*
X49010000Y-40280000D01*
X49010000Y-40280000D02*
X48010000Y-40280000D01*
%TO.C,D14*%
X61010000Y-20280000D02*
X60010000Y-20280000D01*
X61010000Y-19180000D02*
X61010000Y-20280000D01*
%TO.C,R6*%
X58942500Y-46735276D02*
X58942500Y-47244724D01*
X57897500Y-46735276D02*
X57897500Y-47244724D01*
%TO.C,D1*%
X49010000Y-16280000D02*
X48010000Y-16280000D01*
X49010000Y-15180000D02*
X49010000Y-16280000D01*
%TO.C,D24*%
X61010000Y-23180000D02*
X61010000Y-24280000D01*
X61010000Y-24280000D02*
X60010000Y-24280000D01*
%TO.C,D20*%
X45010000Y-24280000D02*
X44010000Y-24280000D01*
X45010000Y-23180000D02*
X45010000Y-24280000D01*
%TO.C,D33*%
X57010000Y-27180000D02*
X57010000Y-28280000D01*
X57010000Y-28280000D02*
X56010000Y-28280000D01*
%TO.C,D7*%
X73010000Y-16280000D02*
X72010000Y-16280000D01*
X73010000Y-15180000D02*
X73010000Y-16280000D01*
%TO.C,D59*%
X81010000Y-35180000D02*
X81010000Y-36280000D01*
X81010000Y-36280000D02*
X80010000Y-36280000D01*
%TO.C,D2*%
X53010000Y-16280000D02*
X52010000Y-16280000D01*
X53010000Y-15180000D02*
X53010000Y-16280000D01*
%TO.C,D5*%
X65010000Y-16280000D02*
X64010000Y-16280000D01*
X65010000Y-15180000D02*
X65010000Y-16280000D01*
%TO.C,D50*%
X45010000Y-35180000D02*
X45010000Y-36280000D01*
X45010000Y-36280000D02*
X44010000Y-36280000D01*
%TO.C,D9*%
X81010000Y-16280000D02*
X80010000Y-16280000D01*
X81010000Y-15180000D02*
X81010000Y-16280000D01*
%TO.C,D22*%
X53010000Y-24280000D02*
X52010000Y-24280000D01*
X53010000Y-23180000D02*
X53010000Y-24280000D01*
%TO.C,D28*%
X77010000Y-24280000D02*
X76010000Y-24280000D01*
X77010000Y-23180000D02*
X77010000Y-24280000D01*
%TO.C,D46*%
X69010000Y-31180000D02*
X69010000Y-32280000D01*
X69010000Y-32280000D02*
X68010000Y-32280000D01*
%TO.C,D17*%
X73010000Y-20280000D02*
X72010000Y-20280000D01*
X73010000Y-19180000D02*
X73010000Y-20280000D01*
%TO.C,D29*%
X81010000Y-24280000D02*
X80010000Y-24280000D01*
X81010000Y-23180000D02*
X81010000Y-24280000D01*
%TO.C,D18*%
X77010000Y-20280000D02*
X76010000Y-20280000D01*
X77010000Y-19180000D02*
X77010000Y-20280000D01*
%TO.C,D37*%
X73010000Y-27180000D02*
X73010000Y-28280000D01*
X73010000Y-28280000D02*
X72010000Y-28280000D01*
%TO.C,D56*%
X69010000Y-36280000D02*
X68010000Y-36280000D01*
X69010000Y-35180000D02*
X69010000Y-36280000D01*
%TO.C,D19*%
X81010000Y-20280000D02*
X80010000Y-20280000D01*
X81010000Y-19180000D02*
X81010000Y-20280000D01*
%TO.C,R4*%
X53862500Y-46735276D02*
X53862500Y-47244724D01*
X52817500Y-46735276D02*
X52817500Y-47244724D01*
%TO.C,D53*%
X57010000Y-36280000D02*
X56010000Y-36280000D01*
X57010000Y-35180000D02*
X57010000Y-36280000D01*
%TO.C,D47*%
X73010000Y-32280000D02*
X72010000Y-32280000D01*
X73010000Y-31180000D02*
X73010000Y-32280000D01*
%TO.C,D69*%
X81010000Y-40280000D02*
X80010000Y-40280000D01*
X81010000Y-39180000D02*
X81010000Y-40280000D01*
%TO.C,D67*%
X73010000Y-40280000D02*
X72010000Y-40280000D01*
X73010000Y-39180000D02*
X73010000Y-40280000D01*
%TO.C,D43*%
X57010000Y-32280000D02*
X56010000Y-32280000D01*
X57010000Y-31180000D02*
X57010000Y-32280000D01*
%TO.C,D68*%
X77010000Y-40280000D02*
X76010000Y-40280000D01*
X77010000Y-39180000D02*
X77010000Y-40280000D01*
%TO.C,D58*%
X77010000Y-35180000D02*
X77010000Y-36280000D01*
X77010000Y-36280000D02*
X76010000Y-36280000D01*
%TO.C,D64*%
X61010000Y-39180000D02*
X61010000Y-40280000D01*
X61010000Y-40280000D02*
X60010000Y-40280000D01*
%TO.C,D71*%
X49010000Y-44280000D02*
X48010000Y-44280000D01*
X49010000Y-43180000D02*
X49010000Y-44280000D01*
%TO.C,D0*%
X45010000Y-15180000D02*
X45010000Y-16280000D01*
X45010000Y-16280000D02*
X44010000Y-16280000D01*
%TO.C,D26*%
X69010000Y-23180000D02*
X69010000Y-24280000D01*
X69010000Y-24280000D02*
X68010000Y-24280000D01*
%TO.C,D4*%
X61010000Y-15180000D02*
X61010000Y-16280000D01*
X61010000Y-16280000D02*
X60010000Y-16280000D01*
%TO.C,D40*%
X45010000Y-31180000D02*
X45010000Y-32280000D01*
X45010000Y-32280000D02*
X44010000Y-32280000D01*
%TO.C,R12*%
X74182500Y-46735276D02*
X74182500Y-47244724D01*
X73137500Y-46735276D02*
X73137500Y-47244724D01*
%TO.C,D60*%
X45010000Y-39180000D02*
X45010000Y-40280000D01*
X45010000Y-40280000D02*
X44010000Y-40280000D01*
%TO.C,D31*%
X49010000Y-28280000D02*
X48010000Y-28280000D01*
X49010000Y-27180000D02*
X49010000Y-28280000D01*
%TO.C,D36*%
X69010000Y-27180000D02*
X69010000Y-28280000D01*
X69010000Y-28280000D02*
X68010000Y-28280000D01*
%TO.C,D52*%
X53010000Y-36280000D02*
X52010000Y-36280000D01*
X53010000Y-35180000D02*
X53010000Y-36280000D01*
%TO.C,R0*%
X43702500Y-46735276D02*
X43702500Y-47244724D01*
X42657500Y-46735276D02*
X42657500Y-47244724D01*
%TO.C,D39*%
X81010000Y-27180000D02*
X81010000Y-28280000D01*
X81010000Y-28280000D02*
X80010000Y-28280000D01*
%TO.C,D49*%
X81010000Y-32280000D02*
X80010000Y-32280000D01*
X81010000Y-31180000D02*
X81010000Y-32280000D01*
%TO.C,D38*%
X77010000Y-27180000D02*
X77010000Y-28280000D01*
X77010000Y-28280000D02*
X76010000Y-28280000D01*
%TO.C,R15*%
X80757500Y-46735276D02*
X80757500Y-47244724D01*
X81802500Y-46735276D02*
X81802500Y-47244724D01*
%TO.C,D62*%
X53010000Y-40280000D02*
X52010000Y-40280000D01*
X53010000Y-39180000D02*
X53010000Y-40280000D01*
%TO.C,R8*%
X62977500Y-46735276D02*
X62977500Y-47244724D01*
X64022500Y-46735276D02*
X64022500Y-47244724D01*
%TO.C,D8*%
X77010000Y-15180000D02*
X77010000Y-16280000D01*
X77010000Y-16280000D02*
X76010000Y-16280000D01*
%TO.C,D34*%
X61010000Y-27180000D02*
X61010000Y-28280000D01*
X61010000Y-28280000D02*
X60010000Y-28280000D01*
%TO.C,R2*%
X48782500Y-46735276D02*
X48782500Y-47244724D01*
X47737500Y-46735276D02*
X47737500Y-47244724D01*
%TO.C,D55*%
X65010000Y-36280000D02*
X64010000Y-36280000D01*
X65010000Y-35180000D02*
X65010000Y-36280000D01*
%TO.C,D75*%
X65010000Y-44280000D02*
X64010000Y-44280000D01*
X65010000Y-43180000D02*
X65010000Y-44280000D01*
%TO.C,D74*%
X61010000Y-44280000D02*
X60010000Y-44280000D01*
X61010000Y-43180000D02*
X61010000Y-44280000D01*
%TO.C,D70*%
X45010000Y-44280000D02*
X44010000Y-44280000D01*
X45010000Y-43180000D02*
X45010000Y-44280000D01*
%TO.C,D54*%
X61010000Y-36280000D02*
X60010000Y-36280000D01*
X61010000Y-35180000D02*
X61010000Y-36280000D01*
%TO.C,D25*%
X65010000Y-24280000D02*
X64010000Y-24280000D01*
X65010000Y-23180000D02*
X65010000Y-24280000D01*
%TO.C,D66*%
X69010000Y-39180000D02*
X69010000Y-40280000D01*
X69010000Y-40280000D02*
X68010000Y-40280000D01*
%TO.C,D12*%
X53010000Y-19180000D02*
X53010000Y-20280000D01*
X53010000Y-20280000D02*
X52010000Y-20280000D01*
%TO.C,R10*%
X68057500Y-46735276D02*
X68057500Y-47244724D01*
X69102500Y-46735276D02*
X69102500Y-47244724D01*
%TO.C,D13*%
X57010000Y-20280000D02*
X56010000Y-20280000D01*
X57010000Y-19180000D02*
X57010000Y-20280000D01*
%TO.C,D48*%
X77010000Y-32280000D02*
X76010000Y-32280000D01*
X77010000Y-31180000D02*
X77010000Y-32280000D01*
%TO.C,D63*%
X57010000Y-40280000D02*
X56010000Y-40280000D01*
X57010000Y-39180000D02*
X57010000Y-40280000D01*
%TO.C,R1*%
X46242500Y-46735276D02*
X46242500Y-47244724D01*
X45197500Y-46735276D02*
X45197500Y-47244724D01*
%TO.C,D44*%
X61010000Y-32280000D02*
X60010000Y-32280000D01*
X61010000Y-31180000D02*
X61010000Y-32280000D01*
%TO.C,D16*%
X69010000Y-19180000D02*
X69010000Y-20280000D01*
X69010000Y-20280000D02*
X68010000Y-20280000D01*
%TO.C,D6*%
X69010000Y-15180000D02*
X69010000Y-16280000D01*
X69010000Y-16280000D02*
X68010000Y-16280000D01*
%TO.C,D10*%
X45010000Y-19180000D02*
X45010000Y-20280000D01*
X45010000Y-20280000D02*
X44010000Y-20280000D01*
%TO.C,D79*%
X81010000Y-43180000D02*
X81010000Y-44280000D01*
X81010000Y-44280000D02*
X80010000Y-44280000D01*
%TO.C,D65*%
X65010000Y-39180000D02*
X65010000Y-40280000D01*
X65010000Y-40280000D02*
X64010000Y-40280000D01*
%TO.C,D57*%
X73010000Y-36280000D02*
X72010000Y-36280000D01*
X73010000Y-35180000D02*
X73010000Y-36280000D01*
%TO.C,D78*%
X77010000Y-44280000D02*
X76010000Y-44280000D01*
X77010000Y-43180000D02*
X77010000Y-44280000D01*
%TO.C,D32*%
X53010000Y-27180000D02*
X53010000Y-28280000D01*
X53010000Y-28280000D02*
X52010000Y-28280000D01*
%TO.C,D27*%
X73010000Y-24280000D02*
X72010000Y-24280000D01*
X73010000Y-23180000D02*
X73010000Y-24280000D01*
%TO.C,D15*%
X65010000Y-20280000D02*
X64010000Y-20280000D01*
X65010000Y-19180000D02*
X65010000Y-20280000D01*
%TO.C,R5*%
X56402500Y-46735276D02*
X56402500Y-47244724D01*
X55357500Y-46735276D02*
X55357500Y-47244724D01*
%TO.C,D30*%
X45010000Y-27180000D02*
X45010000Y-28280000D01*
X45010000Y-28280000D02*
X44010000Y-28280000D01*
%TO.C,D41*%
X49010000Y-32280000D02*
X48010000Y-32280000D01*
X49010000Y-31180000D02*
X49010000Y-32280000D01*
%TO.C,D35*%
X65010000Y-27180000D02*
X65010000Y-28280000D01*
X65010000Y-28280000D02*
X64010000Y-28280000D01*
%TO.C,D3*%
X57010000Y-15180000D02*
X57010000Y-16280000D01*
X57010000Y-16280000D02*
X56010000Y-16280000D01*
%TO.C,D21*%
X49010000Y-23180000D02*
X49010000Y-24280000D01*
X49010000Y-24280000D02*
X48010000Y-24280000D01*
%TO.C,D23*%
X57010000Y-23180000D02*
X57010000Y-24280000D01*
X57010000Y-24280000D02*
X56010000Y-24280000D01*
%TO.C,D77*%
X73010000Y-43180000D02*
X73010000Y-44280000D01*
X73010000Y-44280000D02*
X72010000Y-44280000D01*
%TO.C,R13*%
X75677500Y-46735276D02*
X75677500Y-47244724D01*
X76722500Y-46735276D02*
X76722500Y-47244724D01*
%TO.C,D11*%
X49010000Y-20280000D02*
X48010000Y-20280000D01*
X49010000Y-19180000D02*
X49010000Y-20280000D01*
%TO.C,R14*%
X79262500Y-46735276D02*
X79262500Y-47244724D01*
X78217500Y-46735276D02*
X78217500Y-47244724D01*
%TO.C,R9*%
X65517500Y-46735276D02*
X65517500Y-47244724D01*
X66562500Y-46735276D02*
X66562500Y-47244724D01*
%TO.C,D72*%
X53010000Y-43180000D02*
X53010000Y-44280000D01*
X53010000Y-44280000D02*
X52010000Y-44280000D01*
%TD*%
M02*
