%TF.GenerationSoftware,KiCad,Pcbnew,(6.0.10)*%
%TF.CreationDate,2023-02-01T20:58:39-08:00*%
%TF.ProjectId,pico8t-matrix,7069636f-3874-42d6-9d61-747269782e6b,rev?*%
%TF.SameCoordinates,Original*%
%TF.FileFunction,Paste,Top*%
%TF.FilePolarity,Positive*%
%FSLAX46Y46*%
G04 Gerber Fmt 4.6, Leading zero omitted, Abs format (unit mm)*
G04 Created by KiCad (PCBNEW (6.0.10)) date 2023-02-01 20:58:39*
%MOMM*%
%LPD*%
G01*
G04 APERTURE LIST*
G04 Aperture macros list*
%AMRoundRect*
0 Rectangle with rounded corners*
0 $1 Rounding radius*
0 $2 $3 $4 $5 $6 $7 $8 $9 X,Y pos of 4 corners*
0 Add a 4 corners polygon primitive as box body*
4,1,4,$2,$3,$4,$5,$6,$7,$8,$9,$2,$3,0*
0 Add four circle primitives for the rounded corners*
1,1,$1+$1,$2,$3*
1,1,$1+$1,$4,$5*
1,1,$1+$1,$6,$7*
1,1,$1+$1,$8,$9*
0 Add four rect primitives between the rounded corners*
20,1,$1+$1,$2,$3,$4,$5,0*
20,1,$1+$1,$4,$5,$6,$7,0*
20,1,$1+$1,$6,$7,$8,$9,0*
20,1,$1+$1,$8,$9,$2,$3,0*%
G04 Aperture macros list end*
%ADD10R,0.450000X0.450000*%
%ADD11RoundRect,0.237500X-0.237500X0.250000X-0.237500X-0.250000X0.237500X-0.250000X0.237500X0.250000X0*%
G04 APERTURE END LIST*
D10*
%TO.C,D42*%
X51625000Y-31565000D03*
X51625000Y-30795000D03*
X52395000Y-30795000D03*
X52395000Y-31565000D03*
%TD*%
%TO.C,D45*%
X63625000Y-31565000D03*
X63625000Y-30795000D03*
X64395000Y-30795000D03*
X64395000Y-31565000D03*
%TD*%
%TO.C,D51*%
X47625000Y-35565000D03*
X47625000Y-34795000D03*
X48395000Y-34795000D03*
X48395000Y-35565000D03*
%TD*%
%TO.C,D76*%
X67625000Y-43565000D03*
X67625000Y-42795000D03*
X68395000Y-42795000D03*
X68395000Y-43565000D03*
%TD*%
%TO.C,D73*%
X55625000Y-43565000D03*
X55625000Y-42795000D03*
X56395000Y-42795000D03*
X56395000Y-43565000D03*
%TD*%
%TO.C,D61*%
X47625000Y-39565000D03*
X47625000Y-38795000D03*
X48395000Y-38795000D03*
X48395000Y-39565000D03*
%TD*%
%TO.C,D14*%
X59625000Y-19565000D03*
X59625000Y-18795000D03*
X60395000Y-18795000D03*
X60395000Y-19565000D03*
%TD*%
%TO.C,D1*%
X47625000Y-15565000D03*
X47625000Y-14795000D03*
X48395000Y-14795000D03*
X48395000Y-15565000D03*
%TD*%
%TO.C,D24*%
X59625000Y-23565000D03*
X59625000Y-22795000D03*
X60395000Y-22795000D03*
X60395000Y-23565000D03*
%TD*%
%TO.C,D20*%
X43625000Y-23565000D03*
X43625000Y-22795000D03*
X44395000Y-22795000D03*
X44395000Y-23565000D03*
%TD*%
%TO.C,D33*%
X55625000Y-27565000D03*
X55625000Y-26795000D03*
X56395000Y-26795000D03*
X56395000Y-27565000D03*
%TD*%
%TO.C,D7*%
X71625000Y-15565000D03*
X71625000Y-14795000D03*
X72395000Y-14795000D03*
X72395000Y-15565000D03*
%TD*%
%TO.C,D59*%
X79625000Y-35565000D03*
X79625000Y-34795000D03*
X80395000Y-34795000D03*
X80395000Y-35565000D03*
%TD*%
%TO.C,D2*%
X51625000Y-15565000D03*
X51625000Y-14795000D03*
X52395000Y-14795000D03*
X52395000Y-15565000D03*
%TD*%
%TO.C,D5*%
X63625000Y-15565000D03*
X63625000Y-14795000D03*
X64395000Y-14795000D03*
X64395000Y-15565000D03*
%TD*%
%TO.C,D50*%
X43625000Y-35565000D03*
X43625000Y-34795000D03*
X44395000Y-34795000D03*
X44395000Y-35565000D03*
%TD*%
%TO.C,D9*%
X79625000Y-15565000D03*
X79625000Y-14795000D03*
X80395000Y-14795000D03*
X80395000Y-15565000D03*
%TD*%
%TO.C,D22*%
X51625000Y-23565000D03*
X51625000Y-22795000D03*
X52395000Y-22795000D03*
X52395000Y-23565000D03*
%TD*%
%TO.C,D28*%
X75625000Y-23565000D03*
X75625000Y-22795000D03*
X76395000Y-22795000D03*
X76395000Y-23565000D03*
%TD*%
%TO.C,D46*%
X67625000Y-31565000D03*
X67625000Y-30795000D03*
X68395000Y-30795000D03*
X68395000Y-31565000D03*
%TD*%
%TO.C,D17*%
X71625000Y-19565000D03*
X71625000Y-18795000D03*
X72395000Y-18795000D03*
X72395000Y-19565000D03*
%TD*%
%TO.C,D29*%
X79625000Y-23565000D03*
X79625000Y-22795000D03*
X80395000Y-22795000D03*
X80395000Y-23565000D03*
%TD*%
%TO.C,D18*%
X75625000Y-19565000D03*
X75625000Y-18795000D03*
X76395000Y-18795000D03*
X76395000Y-19565000D03*
%TD*%
%TO.C,D37*%
X71625000Y-27565000D03*
X71625000Y-26795000D03*
X72395000Y-26795000D03*
X72395000Y-27565000D03*
%TD*%
%TO.C,D56*%
X67625000Y-35565000D03*
X67625000Y-34795000D03*
X68395000Y-34795000D03*
X68395000Y-35565000D03*
%TD*%
%TO.C,D19*%
X79625000Y-19565000D03*
X79625000Y-18795000D03*
X80395000Y-18795000D03*
X80395000Y-19565000D03*
%TD*%
%TO.C,D53*%
X55625000Y-35565000D03*
X55625000Y-34795000D03*
X56395000Y-34795000D03*
X56395000Y-35565000D03*
%TD*%
%TO.C,D47*%
X71625000Y-31565000D03*
X71625000Y-30795000D03*
X72395000Y-30795000D03*
X72395000Y-31565000D03*
%TD*%
%TO.C,D69*%
X79625000Y-39565000D03*
X79625000Y-38795000D03*
X80395000Y-38795000D03*
X80395000Y-39565000D03*
%TD*%
%TO.C,D67*%
X71625000Y-39565000D03*
X71625000Y-38795000D03*
X72395000Y-38795000D03*
X72395000Y-39565000D03*
%TD*%
%TO.C,D43*%
X55625000Y-31565000D03*
X55625000Y-30795000D03*
X56395000Y-30795000D03*
X56395000Y-31565000D03*
%TD*%
%TO.C,D68*%
X75625000Y-39565000D03*
X75625000Y-38795000D03*
X76395000Y-38795000D03*
X76395000Y-39565000D03*
%TD*%
%TO.C,D58*%
X75625000Y-35565000D03*
X75625000Y-34795000D03*
X76395000Y-34795000D03*
X76395000Y-35565000D03*
%TD*%
%TO.C,D64*%
X59625000Y-39565000D03*
X59625000Y-38795000D03*
X60395000Y-38795000D03*
X60395000Y-39565000D03*
%TD*%
%TO.C,D71*%
X47625000Y-43565000D03*
X47625000Y-42795000D03*
X48395000Y-42795000D03*
X48395000Y-43565000D03*
%TD*%
%TO.C,D0*%
X43625000Y-15565000D03*
X43625000Y-14795000D03*
X44395000Y-14795000D03*
X44395000Y-15565000D03*
%TD*%
%TO.C,D26*%
X67625000Y-23565000D03*
X67625000Y-22795000D03*
X68395000Y-22795000D03*
X68395000Y-23565000D03*
%TD*%
%TO.C,D4*%
X59625000Y-15565000D03*
X59625000Y-14795000D03*
X60395000Y-14795000D03*
X60395000Y-15565000D03*
%TD*%
%TO.C,D40*%
X43625000Y-31565000D03*
X43625000Y-30795000D03*
X44395000Y-30795000D03*
X44395000Y-31565000D03*
%TD*%
%TO.C,D60*%
X43625000Y-39565000D03*
X43625000Y-38795000D03*
X44395000Y-38795000D03*
X44395000Y-39565000D03*
%TD*%
%TO.C,D31*%
X47625000Y-27565000D03*
X47625000Y-26795000D03*
X48395000Y-26795000D03*
X48395000Y-27565000D03*
%TD*%
%TO.C,D36*%
X67625000Y-27565000D03*
X67625000Y-26795000D03*
X68395000Y-26795000D03*
X68395000Y-27565000D03*
%TD*%
%TO.C,D52*%
X51625000Y-35565000D03*
X51625000Y-34795000D03*
X52395000Y-34795000D03*
X52395000Y-35565000D03*
%TD*%
%TO.C,D39*%
X79625000Y-27565000D03*
X79625000Y-26795000D03*
X80395000Y-26795000D03*
X80395000Y-27565000D03*
%TD*%
%TO.C,D49*%
X79625000Y-31565000D03*
X79625000Y-30795000D03*
X80395000Y-30795000D03*
X80395000Y-31565000D03*
%TD*%
%TO.C,D38*%
X75625000Y-27565000D03*
X75625000Y-26795000D03*
X76395000Y-26795000D03*
X76395000Y-27565000D03*
%TD*%
%TO.C,D62*%
X51625000Y-39565000D03*
X51625000Y-38795000D03*
X52395000Y-38795000D03*
X52395000Y-39565000D03*
%TD*%
%TO.C,D8*%
X75625000Y-15565000D03*
X75625000Y-14795000D03*
X76395000Y-14795000D03*
X76395000Y-15565000D03*
%TD*%
%TO.C,D34*%
X59625000Y-27565000D03*
X59625000Y-26795000D03*
X60395000Y-26795000D03*
X60395000Y-27565000D03*
%TD*%
%TO.C,D55*%
X63625000Y-35565000D03*
X63625000Y-34795000D03*
X64395000Y-34795000D03*
X64395000Y-35565000D03*
%TD*%
%TO.C,D75*%
X63625000Y-43565000D03*
X63625000Y-42795000D03*
X64395000Y-42795000D03*
X64395000Y-43565000D03*
%TD*%
%TO.C,D74*%
X59625000Y-43565000D03*
X59625000Y-42795000D03*
X60395000Y-42795000D03*
X60395000Y-43565000D03*
%TD*%
%TO.C,D70*%
X43625000Y-43565000D03*
X43625000Y-42795000D03*
X44395000Y-42795000D03*
X44395000Y-43565000D03*
%TD*%
%TO.C,D54*%
X59625000Y-35565000D03*
X59625000Y-34795000D03*
X60395000Y-34795000D03*
X60395000Y-35565000D03*
%TD*%
%TO.C,D25*%
X63625000Y-23565000D03*
X63625000Y-22795000D03*
X64395000Y-22795000D03*
X64395000Y-23565000D03*
%TD*%
%TO.C,D66*%
X67625000Y-39565000D03*
X67625000Y-38795000D03*
X68395000Y-38795000D03*
X68395000Y-39565000D03*
%TD*%
%TO.C,D12*%
X51625000Y-19565000D03*
X51625000Y-18795000D03*
X52395000Y-18795000D03*
X52395000Y-19565000D03*
%TD*%
%TO.C,D13*%
X55625000Y-19565000D03*
X55625000Y-18795000D03*
X56395000Y-18795000D03*
X56395000Y-19565000D03*
%TD*%
%TO.C,D48*%
X75625000Y-31565000D03*
X75625000Y-30795000D03*
X76395000Y-30795000D03*
X76395000Y-31565000D03*
%TD*%
%TO.C,D63*%
X55625000Y-39565000D03*
X55625000Y-38795000D03*
X56395000Y-38795000D03*
X56395000Y-39565000D03*
%TD*%
%TO.C,D44*%
X59625000Y-31565000D03*
X59625000Y-30795000D03*
X60395000Y-30795000D03*
X60395000Y-31565000D03*
%TD*%
%TO.C,D16*%
X67625000Y-19565000D03*
X67625000Y-18795000D03*
X68395000Y-18795000D03*
X68395000Y-19565000D03*
%TD*%
%TO.C,D6*%
X67625000Y-15565000D03*
X67625000Y-14795000D03*
X68395000Y-14795000D03*
X68395000Y-15565000D03*
%TD*%
%TO.C,D10*%
X43625000Y-19565000D03*
X43625000Y-18795000D03*
X44395000Y-18795000D03*
X44395000Y-19565000D03*
%TD*%
%TO.C,D79*%
X79625000Y-43565000D03*
X79625000Y-42795000D03*
X80395000Y-42795000D03*
X80395000Y-43565000D03*
%TD*%
%TO.C,D65*%
X63625000Y-39565000D03*
X63625000Y-38795000D03*
X64395000Y-38795000D03*
X64395000Y-39565000D03*
%TD*%
%TO.C,D57*%
X71625000Y-35565000D03*
X71625000Y-34795000D03*
X72395000Y-34795000D03*
X72395000Y-35565000D03*
%TD*%
%TO.C,D78*%
X75625000Y-43565000D03*
X75625000Y-42795000D03*
X76395000Y-42795000D03*
X76395000Y-43565000D03*
%TD*%
%TO.C,D32*%
X51625000Y-27565000D03*
X51625000Y-26795000D03*
X52395000Y-26795000D03*
X52395000Y-27565000D03*
%TD*%
%TO.C,D27*%
X71625000Y-23565000D03*
X71625000Y-22795000D03*
X72395000Y-22795000D03*
X72395000Y-23565000D03*
%TD*%
%TO.C,D15*%
X63625000Y-19565000D03*
X63625000Y-18795000D03*
X64395000Y-18795000D03*
X64395000Y-19565000D03*
%TD*%
%TO.C,D30*%
X43625000Y-27565000D03*
X43625000Y-26795000D03*
X44395000Y-26795000D03*
X44395000Y-27565000D03*
%TD*%
%TO.C,D41*%
X47625000Y-31565000D03*
X47625000Y-30795000D03*
X48395000Y-30795000D03*
X48395000Y-31565000D03*
%TD*%
%TO.C,D35*%
X63625000Y-27565000D03*
X63625000Y-26795000D03*
X64395000Y-26795000D03*
X64395000Y-27565000D03*
%TD*%
%TO.C,D3*%
X55625000Y-15565000D03*
X55625000Y-14795000D03*
X56395000Y-14795000D03*
X56395000Y-15565000D03*
%TD*%
%TO.C,D21*%
X47625000Y-23565000D03*
X47625000Y-22795000D03*
X48395000Y-22795000D03*
X48395000Y-23565000D03*
%TD*%
%TO.C,D23*%
X55625000Y-23565000D03*
X55625000Y-22795000D03*
X56395000Y-22795000D03*
X56395000Y-23565000D03*
%TD*%
%TO.C,D77*%
X71625000Y-43565000D03*
X71625000Y-42795000D03*
X72395000Y-42795000D03*
X72395000Y-43565000D03*
%TD*%
%TO.C,D11*%
X47625000Y-19565000D03*
X47625000Y-18795000D03*
X48395000Y-18795000D03*
X48395000Y-19565000D03*
%TD*%
%TO.C,D72*%
X51625000Y-43565000D03*
X51625000Y-42795000D03*
X52395000Y-42795000D03*
X52395000Y-43565000D03*
%TD*%
D11*
%TO.C,R7*%
X60960000Y-46077500D03*
X60960000Y-47902500D03*
%TD*%
%TO.C,R3*%
X50800000Y-46077500D03*
X50800000Y-47902500D03*
%TD*%
%TO.C,R11*%
X71120000Y-46077500D03*
X71120000Y-47902500D03*
%TD*%
%TO.C,R6*%
X58420000Y-46077500D03*
X58420000Y-47902500D03*
%TD*%
%TO.C,R4*%
X53340000Y-46077500D03*
X53340000Y-47902500D03*
%TD*%
%TO.C,R12*%
X73660000Y-46077500D03*
X73660000Y-47902500D03*
%TD*%
%TO.C,R0*%
X43180000Y-46077500D03*
X43180000Y-47902500D03*
%TD*%
%TO.C,R15*%
X81280000Y-46077500D03*
X81280000Y-47902500D03*
%TD*%
%TO.C,R8*%
X63500000Y-46077500D03*
X63500000Y-47902500D03*
%TD*%
%TO.C,R2*%
X48260000Y-46077500D03*
X48260000Y-47902500D03*
%TD*%
%TO.C,R10*%
X68580000Y-46077500D03*
X68580000Y-47902500D03*
%TD*%
%TO.C,R1*%
X45720000Y-46077500D03*
X45720000Y-47902500D03*
%TD*%
%TO.C,R5*%
X55880000Y-46077500D03*
X55880000Y-47902500D03*
%TD*%
%TO.C,R13*%
X76200000Y-46077500D03*
X76200000Y-47902500D03*
%TD*%
%TO.C,R14*%
X78740000Y-46077500D03*
X78740000Y-47902500D03*
%TD*%
%TO.C,R9*%
X66040000Y-46077500D03*
X66040000Y-47902500D03*
%TD*%
M02*
