M48
; DRILL file {KiCad (6.0.10)} date Fri Jan 20 23:09:34 2023
; FORMAT={-:-/ absolute / metric / decimal}
; #@! TF.CreationDate,2023-01-20T23:09:34-08:00
; #@! TF.GenerationSoftware,Kicad,Pcbnew,(6.0.10)
; #@! TF.FileFunction,Plated,1,2,PTH
FMAT,2
METRIC
; #@! TA.AperFunction,Plated,PTH,ViaDrill
T1C0.400
; #@! TA.AperFunction,Plated,PTH,ComponentDrill
T2C1.000
%
G90
G05
T1
X36.322Y-45.72
X42.879Y-19.308
X43.705Y-24.835
X43.739Y-28.68
X43.743Y-40.797
X43.763Y-36.702
X43.806Y-32.734
X43.84Y-20.701
X44.195Y-46.076
X44.386Y-44.755
X44.501Y-16.662
X44.532Y-17.661
X44.704Y-25.654
X45.405Y-18.148
X45.982Y-15.023
X45.992Y-16.922
X46.259Y-39.878
X46.506Y-44.426
X46.761Y-19.787
X46.863Y-49.022
X47.66Y-25.705
X47.7Y-40.766
X47.777Y-36.702
X47.797Y-32.734
X47.851Y-28.68
X47.855Y-16.678
X48.057Y-20.701
X48.469Y-24.835
X48.565Y-44.755
X48.81Y-17.526
X49.209Y-43.177
X49.784Y-45.974
X50.038Y-14.478
X51.669Y-16.797
X51.675Y-36.791
X51.683Y-32.734
X51.694Y-40.797
X51.695Y-24.835
X51.715Y-20.701
X52.27Y-29.629
X52.527Y-44.755
X52.581Y-28.68
X52.82Y-33.77
X53.307Y-43.025
X53.518Y-27.127
X54.102Y-14.529
X54.102Y-43.942
X55.696Y-24.835
X55.75Y-28.68
X55.765Y-16.7
X55.798Y-32.734
X55.83Y-20.701
X55.885Y-40.797
X56.008Y-36.702
X56.388Y-33.63
X56.81Y-28.702
X57.023Y-44.755
X57.201Y-37.871
X57.535Y-26.801
X57.874Y-42.972
X58.114Y-34.56
X58.709Y-16.51
X58.709Y-18.612
X58.725Y-29.665
X59.659Y-20.777
X59.721Y-24.745
X59.766Y-32.69
X60.028Y-36.787
X60.378Y-45.065
X60.528Y-40.919
X60.86Y-28.983
X61.351Y-43.112
X62.202Y-20.924
X62.23Y-46.342
X62.255Y-14.529
X62.262Y-17.145
X62.306Y-18.872
X62.564Y-44.878
X63.681Y-32.86
X63.701Y-40.765
X63.703Y-36.754
X63.713Y-28.827
X63.779Y-24.689
X63.837Y-20.679
X64.452Y-16.713
X64.491Y-44.755
X64.77Y-21.59
X64.77Y-45.974
X65.985Y-16.917
X66.26Y-28.049
X66.563Y-14.814
X66.909Y-19.266
X67.31Y-46.736
X67.667Y-28.827
X67.693Y-40.765
X67.716Y-16.713
X67.742Y-24.689
X67.758Y-32.782
X68.047Y-36.754
X68.417Y-20.716
X68.576Y-17.522
X68.58Y-44.755
X69.393Y-19.05
X69.85Y-45.974
X70.26Y-39.902
X70.333Y-27.762
X70.358Y-14.478
X70.714Y-23.851
X71.707Y-40.765
X71.74Y-20.716
X71.773Y-29.87
X71.78Y-16.713
X71.78Y-36.754
X71.831Y-24.689
X71.915Y-32.86
X72.163Y-28.827
X72.644Y-46.736
X73.424Y-14.716
X74.422Y-14.528
X74.473Y-44.755
X74.709Y-22.606
X75.665Y-28.827
X75.694Y-40.765
X75.743Y-24.689
X75.768Y-36.754
X75.772Y-29.821
X75.809Y-20.716
X75.997Y-16.713
X76.589Y-32.86
X77.258Y-46.49
X77.47Y-47.752
X77.535Y-21.627
X77.724Y-45.479
X78.319Y-39.639
X78.559Y-14.405
X79.659Y-41.605
X79.731Y-36.68
X79.756Y-47.752
X79.766Y-24.699
X79.785Y-28.68
X79.791Y-32.75
X79.832Y-20.679
X79.855Y-16.685
X79.905Y-21.676
X80.162Y-40.742
X80.485Y-44.849
X81.26Y-38.552
X82.132Y-37.89
X82.347Y-47.828
X82.804Y-13.208
X83.072Y-16.242
X87.63Y-45.72
T2
X37.851Y-50.8
X40.391Y-50.8
X42.931Y-50.8
X45.471Y-50.8
X48.011Y-50.8
X50.551Y-50.8
X53.091Y-50.8
X55.631Y-50.8
X58.171Y-50.8
X60.711Y-50.8
X63.251Y-50.8
X65.791Y-50.8
X68.331Y-50.8
X70.871Y-50.8
X73.411Y-50.8
X75.951Y-50.8
X78.491Y-50.8
X81.031Y-50.8
X83.571Y-50.8
X86.111Y-50.8
T0
M30
