%TF.GenerationSoftware,KiCad,Pcbnew,(6.0.10)*%
%TF.CreationDate,2023-01-10T20:09:20-08:00*%
%TF.ProjectId,pico8t-diffuser,7069636f-3874-42d6-9469-666675736572,rev?*%
%TF.SameCoordinates,Original*%
%TF.FileFunction,Soldermask,Top*%
%TF.FilePolarity,Negative*%
%FSLAX46Y46*%
G04 Gerber Fmt 4.6, Leading zero omitted, Abs format (unit mm)*
G04 Created by KiCad (PCBNEW (6.0.10)) date 2023-01-10 20:09:20*
%MOMM*%
%LPD*%
G01*
G04 APERTURE LIST*
%ADD10C,0.120000*%
%ADD11C,2.500000*%
G04 APERTURE END LIST*
D10*
%TO.C,D42*%
X50410000Y-29580000D02*
X53610000Y-29580000D01*
X53610000Y-29580000D02*
X53610000Y-32780000D01*
X53610000Y-32780000D02*
X50410000Y-32780000D01*
X50410000Y-32780000D02*
X50410000Y-29580000D01*
G36*
X50410000Y-29580000D02*
G01*
X53610000Y-29580000D01*
X53610000Y-32780000D01*
X50410000Y-32780000D01*
X50410000Y-29580000D01*
G37*
%TO.C,D45*%
X62410000Y-29580000D02*
X65610000Y-29580000D01*
X65610000Y-29580000D02*
X65610000Y-32780000D01*
X65610000Y-32780000D02*
X62410000Y-32780000D01*
X62410000Y-32780000D02*
X62410000Y-29580000D01*
G36*
X62410000Y-29580000D02*
G01*
X65610000Y-29580000D01*
X65610000Y-32780000D01*
X62410000Y-32780000D01*
X62410000Y-29580000D01*
G37*
%TO.C,D51*%
X46410000Y-33580000D02*
X49610000Y-33580000D01*
X49610000Y-33580000D02*
X49610000Y-36780000D01*
X49610000Y-36780000D02*
X46410000Y-36780000D01*
X46410000Y-36780000D02*
X46410000Y-33580000D01*
G36*
X46410000Y-33580000D02*
G01*
X49610000Y-33580000D01*
X49610000Y-36780000D01*
X46410000Y-36780000D01*
X46410000Y-33580000D01*
G37*
%TO.C,D76*%
X66410000Y-41580000D02*
X69610000Y-41580000D01*
X69610000Y-41580000D02*
X69610000Y-44780000D01*
X69610000Y-44780000D02*
X66410000Y-44780000D01*
X66410000Y-44780000D02*
X66410000Y-41580000D01*
G36*
X66410000Y-41580000D02*
G01*
X69610000Y-41580000D01*
X69610000Y-44780000D01*
X66410000Y-44780000D01*
X66410000Y-41580000D01*
G37*
%TO.C,D73*%
X54410000Y-41580000D02*
X57610000Y-41580000D01*
X57610000Y-41580000D02*
X57610000Y-44780000D01*
X57610000Y-44780000D02*
X54410000Y-44780000D01*
X54410000Y-44780000D02*
X54410000Y-41580000D01*
G36*
X54410000Y-41580000D02*
G01*
X57610000Y-41580000D01*
X57610000Y-44780000D01*
X54410000Y-44780000D01*
X54410000Y-41580000D01*
G37*
%TO.C,D61*%
X46410000Y-37580000D02*
X49610000Y-37580000D01*
X49610000Y-37580000D02*
X49610000Y-40780000D01*
X49610000Y-40780000D02*
X46410000Y-40780000D01*
X46410000Y-40780000D02*
X46410000Y-37580000D01*
G36*
X46410000Y-37580000D02*
G01*
X49610000Y-37580000D01*
X49610000Y-40780000D01*
X46410000Y-40780000D01*
X46410000Y-37580000D01*
G37*
%TO.C,D14*%
X58410000Y-17580000D02*
X61610000Y-17580000D01*
X61610000Y-17580000D02*
X61610000Y-20780000D01*
X61610000Y-20780000D02*
X58410000Y-20780000D01*
X58410000Y-20780000D02*
X58410000Y-17580000D01*
G36*
X58410000Y-17580000D02*
G01*
X61610000Y-17580000D01*
X61610000Y-20780000D01*
X58410000Y-20780000D01*
X58410000Y-17580000D01*
G37*
%TO.C,D1*%
X46410000Y-13580000D02*
X49610000Y-13580000D01*
X49610000Y-13580000D02*
X49610000Y-16780000D01*
X49610000Y-16780000D02*
X46410000Y-16780000D01*
X46410000Y-16780000D02*
X46410000Y-13580000D01*
G36*
X46410000Y-13580000D02*
G01*
X49610000Y-13580000D01*
X49610000Y-16780000D01*
X46410000Y-16780000D01*
X46410000Y-13580000D01*
G37*
%TO.C,D24*%
X58410000Y-21580000D02*
X61610000Y-21580000D01*
X61610000Y-21580000D02*
X61610000Y-24780000D01*
X61610000Y-24780000D02*
X58410000Y-24780000D01*
X58410000Y-24780000D02*
X58410000Y-21580000D01*
G36*
X58410000Y-21580000D02*
G01*
X61610000Y-21580000D01*
X61610000Y-24780000D01*
X58410000Y-24780000D01*
X58410000Y-21580000D01*
G37*
%TO.C,D20*%
X42410000Y-21580000D02*
X45610000Y-21580000D01*
X45610000Y-21580000D02*
X45610000Y-24780000D01*
X45610000Y-24780000D02*
X42410000Y-24780000D01*
X42410000Y-24780000D02*
X42410000Y-21580000D01*
G36*
X42410000Y-21580000D02*
G01*
X45610000Y-21580000D01*
X45610000Y-24780000D01*
X42410000Y-24780000D01*
X42410000Y-21580000D01*
G37*
%TO.C,D33*%
X54410000Y-25580000D02*
X57610000Y-25580000D01*
X57610000Y-25580000D02*
X57610000Y-28780000D01*
X57610000Y-28780000D02*
X54410000Y-28780000D01*
X54410000Y-28780000D02*
X54410000Y-25580000D01*
G36*
X54410000Y-25580000D02*
G01*
X57610000Y-25580000D01*
X57610000Y-28780000D01*
X54410000Y-28780000D01*
X54410000Y-25580000D01*
G37*
%TO.C,D7*%
X70410000Y-13580000D02*
X73610000Y-13580000D01*
X73610000Y-13580000D02*
X73610000Y-16780000D01*
X73610000Y-16780000D02*
X70410000Y-16780000D01*
X70410000Y-16780000D02*
X70410000Y-13580000D01*
G36*
X70410000Y-13580000D02*
G01*
X73610000Y-13580000D01*
X73610000Y-16780000D01*
X70410000Y-16780000D01*
X70410000Y-13580000D01*
G37*
%TO.C,D59*%
X78410000Y-33580000D02*
X81610000Y-33580000D01*
X81610000Y-33580000D02*
X81610000Y-36780000D01*
X81610000Y-36780000D02*
X78410000Y-36780000D01*
X78410000Y-36780000D02*
X78410000Y-33580000D01*
G36*
X78410000Y-33580000D02*
G01*
X81610000Y-33580000D01*
X81610000Y-36780000D01*
X78410000Y-36780000D01*
X78410000Y-33580000D01*
G37*
%TO.C,D2*%
X50410000Y-13580000D02*
X53610000Y-13580000D01*
X53610000Y-13580000D02*
X53610000Y-16780000D01*
X53610000Y-16780000D02*
X50410000Y-16780000D01*
X50410000Y-16780000D02*
X50410000Y-13580000D01*
G36*
X50410000Y-13580000D02*
G01*
X53610000Y-13580000D01*
X53610000Y-16780000D01*
X50410000Y-16780000D01*
X50410000Y-13580000D01*
G37*
%TO.C,D5*%
X62410000Y-13580000D02*
X65610000Y-13580000D01*
X65610000Y-13580000D02*
X65610000Y-16780000D01*
X65610000Y-16780000D02*
X62410000Y-16780000D01*
X62410000Y-16780000D02*
X62410000Y-13580000D01*
G36*
X62410000Y-13580000D02*
G01*
X65610000Y-13580000D01*
X65610000Y-16780000D01*
X62410000Y-16780000D01*
X62410000Y-13580000D01*
G37*
%TO.C,D50*%
X42410000Y-33580000D02*
X45610000Y-33580000D01*
X45610000Y-33580000D02*
X45610000Y-36780000D01*
X45610000Y-36780000D02*
X42410000Y-36780000D01*
X42410000Y-36780000D02*
X42410000Y-33580000D01*
G36*
X42410000Y-33580000D02*
G01*
X45610000Y-33580000D01*
X45610000Y-36780000D01*
X42410000Y-36780000D01*
X42410000Y-33580000D01*
G37*
%TO.C,D9*%
X78410000Y-13580000D02*
X81610000Y-13580000D01*
X81610000Y-13580000D02*
X81610000Y-16780000D01*
X81610000Y-16780000D02*
X78410000Y-16780000D01*
X78410000Y-16780000D02*
X78410000Y-13580000D01*
G36*
X78410000Y-13580000D02*
G01*
X81610000Y-13580000D01*
X81610000Y-16780000D01*
X78410000Y-16780000D01*
X78410000Y-13580000D01*
G37*
%TO.C,D22*%
X50410000Y-21580000D02*
X53610000Y-21580000D01*
X53610000Y-21580000D02*
X53610000Y-24780000D01*
X53610000Y-24780000D02*
X50410000Y-24780000D01*
X50410000Y-24780000D02*
X50410000Y-21580000D01*
G36*
X50410000Y-21580000D02*
G01*
X53610000Y-21580000D01*
X53610000Y-24780000D01*
X50410000Y-24780000D01*
X50410000Y-21580000D01*
G37*
%TO.C,D28*%
X74410000Y-21580000D02*
X77610000Y-21580000D01*
X77610000Y-21580000D02*
X77610000Y-24780000D01*
X77610000Y-24780000D02*
X74410000Y-24780000D01*
X74410000Y-24780000D02*
X74410000Y-21580000D01*
G36*
X74410000Y-21580000D02*
G01*
X77610000Y-21580000D01*
X77610000Y-24780000D01*
X74410000Y-24780000D01*
X74410000Y-21580000D01*
G37*
%TO.C,D46*%
X66410000Y-29580000D02*
X69610000Y-29580000D01*
X69610000Y-29580000D02*
X69610000Y-32780000D01*
X69610000Y-32780000D02*
X66410000Y-32780000D01*
X66410000Y-32780000D02*
X66410000Y-29580000D01*
G36*
X66410000Y-29580000D02*
G01*
X69610000Y-29580000D01*
X69610000Y-32780000D01*
X66410000Y-32780000D01*
X66410000Y-29580000D01*
G37*
%TO.C,D17*%
X70410000Y-17580000D02*
X73610000Y-17580000D01*
X73610000Y-17580000D02*
X73610000Y-20780000D01*
X73610000Y-20780000D02*
X70410000Y-20780000D01*
X70410000Y-20780000D02*
X70410000Y-17580000D01*
G36*
X70410000Y-17580000D02*
G01*
X73610000Y-17580000D01*
X73610000Y-20780000D01*
X70410000Y-20780000D01*
X70410000Y-17580000D01*
G37*
%TO.C,D29*%
X78410000Y-21580000D02*
X81610000Y-21580000D01*
X81610000Y-21580000D02*
X81610000Y-24780000D01*
X81610000Y-24780000D02*
X78410000Y-24780000D01*
X78410000Y-24780000D02*
X78410000Y-21580000D01*
G36*
X78410000Y-21580000D02*
G01*
X81610000Y-21580000D01*
X81610000Y-24780000D01*
X78410000Y-24780000D01*
X78410000Y-21580000D01*
G37*
%TO.C,D18*%
X74410000Y-17580000D02*
X77610000Y-17580000D01*
X77610000Y-17580000D02*
X77610000Y-20780000D01*
X77610000Y-20780000D02*
X74410000Y-20780000D01*
X74410000Y-20780000D02*
X74410000Y-17580000D01*
G36*
X74410000Y-17580000D02*
G01*
X77610000Y-17580000D01*
X77610000Y-20780000D01*
X74410000Y-20780000D01*
X74410000Y-17580000D01*
G37*
%TO.C,D37*%
X70410000Y-25580000D02*
X73610000Y-25580000D01*
X73610000Y-25580000D02*
X73610000Y-28780000D01*
X73610000Y-28780000D02*
X70410000Y-28780000D01*
X70410000Y-28780000D02*
X70410000Y-25580000D01*
G36*
X70410000Y-25580000D02*
G01*
X73610000Y-25580000D01*
X73610000Y-28780000D01*
X70410000Y-28780000D01*
X70410000Y-25580000D01*
G37*
%TO.C,D56*%
X66410000Y-33580000D02*
X69610000Y-33580000D01*
X69610000Y-33580000D02*
X69610000Y-36780000D01*
X69610000Y-36780000D02*
X66410000Y-36780000D01*
X66410000Y-36780000D02*
X66410000Y-33580000D01*
G36*
X66410000Y-33580000D02*
G01*
X69610000Y-33580000D01*
X69610000Y-36780000D01*
X66410000Y-36780000D01*
X66410000Y-33580000D01*
G37*
%TO.C,D19*%
X78410000Y-17580000D02*
X81610000Y-17580000D01*
X81610000Y-17580000D02*
X81610000Y-20780000D01*
X81610000Y-20780000D02*
X78410000Y-20780000D01*
X78410000Y-20780000D02*
X78410000Y-17580000D01*
G36*
X78410000Y-17580000D02*
G01*
X81610000Y-17580000D01*
X81610000Y-20780000D01*
X78410000Y-20780000D01*
X78410000Y-17580000D01*
G37*
%TO.C,D53*%
X54410000Y-33580000D02*
X57610000Y-33580000D01*
X57610000Y-33580000D02*
X57610000Y-36780000D01*
X57610000Y-36780000D02*
X54410000Y-36780000D01*
X54410000Y-36780000D02*
X54410000Y-33580000D01*
G36*
X54410000Y-33580000D02*
G01*
X57610000Y-33580000D01*
X57610000Y-36780000D01*
X54410000Y-36780000D01*
X54410000Y-33580000D01*
G37*
%TO.C,D47*%
X70410000Y-29580000D02*
X73610000Y-29580000D01*
X73610000Y-29580000D02*
X73610000Y-32780000D01*
X73610000Y-32780000D02*
X70410000Y-32780000D01*
X70410000Y-32780000D02*
X70410000Y-29580000D01*
G36*
X70410000Y-29580000D02*
G01*
X73610000Y-29580000D01*
X73610000Y-32780000D01*
X70410000Y-32780000D01*
X70410000Y-29580000D01*
G37*
%TO.C,D69*%
X78410000Y-37580000D02*
X81610000Y-37580000D01*
X81610000Y-37580000D02*
X81610000Y-40780000D01*
X81610000Y-40780000D02*
X78410000Y-40780000D01*
X78410000Y-40780000D02*
X78410000Y-37580000D01*
G36*
X78410000Y-37580000D02*
G01*
X81610000Y-37580000D01*
X81610000Y-40780000D01*
X78410000Y-40780000D01*
X78410000Y-37580000D01*
G37*
%TO.C,D67*%
X70410000Y-37580000D02*
X73610000Y-37580000D01*
X73610000Y-37580000D02*
X73610000Y-40780000D01*
X73610000Y-40780000D02*
X70410000Y-40780000D01*
X70410000Y-40780000D02*
X70410000Y-37580000D01*
G36*
X70410000Y-37580000D02*
G01*
X73610000Y-37580000D01*
X73610000Y-40780000D01*
X70410000Y-40780000D01*
X70410000Y-37580000D01*
G37*
%TO.C,D43*%
X54410000Y-29580000D02*
X57610000Y-29580000D01*
X57610000Y-29580000D02*
X57610000Y-32780000D01*
X57610000Y-32780000D02*
X54410000Y-32780000D01*
X54410000Y-32780000D02*
X54410000Y-29580000D01*
G36*
X54410000Y-29580000D02*
G01*
X57610000Y-29580000D01*
X57610000Y-32780000D01*
X54410000Y-32780000D01*
X54410000Y-29580000D01*
G37*
%TO.C,D68*%
X74410000Y-37580000D02*
X77610000Y-37580000D01*
X77610000Y-37580000D02*
X77610000Y-40780000D01*
X77610000Y-40780000D02*
X74410000Y-40780000D01*
X74410000Y-40780000D02*
X74410000Y-37580000D01*
G36*
X74410000Y-37580000D02*
G01*
X77610000Y-37580000D01*
X77610000Y-40780000D01*
X74410000Y-40780000D01*
X74410000Y-37580000D01*
G37*
%TO.C,D58*%
X74410000Y-33580000D02*
X77610000Y-33580000D01*
X77610000Y-33580000D02*
X77610000Y-36780000D01*
X77610000Y-36780000D02*
X74410000Y-36780000D01*
X74410000Y-36780000D02*
X74410000Y-33580000D01*
G36*
X74410000Y-33580000D02*
G01*
X77610000Y-33580000D01*
X77610000Y-36780000D01*
X74410000Y-36780000D01*
X74410000Y-33580000D01*
G37*
%TO.C,D64*%
X58410000Y-37580000D02*
X61610000Y-37580000D01*
X61610000Y-37580000D02*
X61610000Y-40780000D01*
X61610000Y-40780000D02*
X58410000Y-40780000D01*
X58410000Y-40780000D02*
X58410000Y-37580000D01*
G36*
X58410000Y-37580000D02*
G01*
X61610000Y-37580000D01*
X61610000Y-40780000D01*
X58410000Y-40780000D01*
X58410000Y-37580000D01*
G37*
%TO.C,D71*%
X46410000Y-41580000D02*
X49610000Y-41580000D01*
X49610000Y-41580000D02*
X49610000Y-44780000D01*
X49610000Y-44780000D02*
X46410000Y-44780000D01*
X46410000Y-44780000D02*
X46410000Y-41580000D01*
G36*
X46410000Y-41580000D02*
G01*
X49610000Y-41580000D01*
X49610000Y-44780000D01*
X46410000Y-44780000D01*
X46410000Y-41580000D01*
G37*
%TO.C,D0*%
X42410000Y-13580000D02*
X45610000Y-13580000D01*
X45610000Y-13580000D02*
X45610000Y-16780000D01*
X45610000Y-16780000D02*
X42410000Y-16780000D01*
X42410000Y-16780000D02*
X42410000Y-13580000D01*
G36*
X42410000Y-13580000D02*
G01*
X45610000Y-13580000D01*
X45610000Y-16780000D01*
X42410000Y-16780000D01*
X42410000Y-13580000D01*
G37*
%TO.C,D26*%
X66410000Y-21580000D02*
X69610000Y-21580000D01*
X69610000Y-21580000D02*
X69610000Y-24780000D01*
X69610000Y-24780000D02*
X66410000Y-24780000D01*
X66410000Y-24780000D02*
X66410000Y-21580000D01*
G36*
X66410000Y-21580000D02*
G01*
X69610000Y-21580000D01*
X69610000Y-24780000D01*
X66410000Y-24780000D01*
X66410000Y-21580000D01*
G37*
%TO.C,D4*%
X58410000Y-13580000D02*
X61610000Y-13580000D01*
X61610000Y-13580000D02*
X61610000Y-16780000D01*
X61610000Y-16780000D02*
X58410000Y-16780000D01*
X58410000Y-16780000D02*
X58410000Y-13580000D01*
G36*
X58410000Y-13580000D02*
G01*
X61610000Y-13580000D01*
X61610000Y-16780000D01*
X58410000Y-16780000D01*
X58410000Y-13580000D01*
G37*
%TO.C,D40*%
X42410000Y-29580000D02*
X45610000Y-29580000D01*
X45610000Y-29580000D02*
X45610000Y-32780000D01*
X45610000Y-32780000D02*
X42410000Y-32780000D01*
X42410000Y-32780000D02*
X42410000Y-29580000D01*
G36*
X42410000Y-29580000D02*
G01*
X45610000Y-29580000D01*
X45610000Y-32780000D01*
X42410000Y-32780000D01*
X42410000Y-29580000D01*
G37*
%TO.C,D60*%
X42410000Y-37580000D02*
X45610000Y-37580000D01*
X45610000Y-37580000D02*
X45610000Y-40780000D01*
X45610000Y-40780000D02*
X42410000Y-40780000D01*
X42410000Y-40780000D02*
X42410000Y-37580000D01*
G36*
X42410000Y-37580000D02*
G01*
X45610000Y-37580000D01*
X45610000Y-40780000D01*
X42410000Y-40780000D01*
X42410000Y-37580000D01*
G37*
%TO.C,D31*%
X46410000Y-25580000D02*
X49610000Y-25580000D01*
X49610000Y-25580000D02*
X49610000Y-28780000D01*
X49610000Y-28780000D02*
X46410000Y-28780000D01*
X46410000Y-28780000D02*
X46410000Y-25580000D01*
G36*
X46410000Y-25580000D02*
G01*
X49610000Y-25580000D01*
X49610000Y-28780000D01*
X46410000Y-28780000D01*
X46410000Y-25580000D01*
G37*
%TO.C,D36*%
X66410000Y-25580000D02*
X69610000Y-25580000D01*
X69610000Y-25580000D02*
X69610000Y-28780000D01*
X69610000Y-28780000D02*
X66410000Y-28780000D01*
X66410000Y-28780000D02*
X66410000Y-25580000D01*
G36*
X66410000Y-25580000D02*
G01*
X69610000Y-25580000D01*
X69610000Y-28780000D01*
X66410000Y-28780000D01*
X66410000Y-25580000D01*
G37*
%TO.C,D52*%
X50410000Y-33580000D02*
X53610000Y-33580000D01*
X53610000Y-33580000D02*
X53610000Y-36780000D01*
X53610000Y-36780000D02*
X50410000Y-36780000D01*
X50410000Y-36780000D02*
X50410000Y-33580000D01*
G36*
X50410000Y-33580000D02*
G01*
X53610000Y-33580000D01*
X53610000Y-36780000D01*
X50410000Y-36780000D01*
X50410000Y-33580000D01*
G37*
%TO.C,D39*%
X78410000Y-25580000D02*
X81610000Y-25580000D01*
X81610000Y-25580000D02*
X81610000Y-28780000D01*
X81610000Y-28780000D02*
X78410000Y-28780000D01*
X78410000Y-28780000D02*
X78410000Y-25580000D01*
G36*
X78410000Y-25580000D02*
G01*
X81610000Y-25580000D01*
X81610000Y-28780000D01*
X78410000Y-28780000D01*
X78410000Y-25580000D01*
G37*
%TO.C,D49*%
X78410000Y-29580000D02*
X81610000Y-29580000D01*
X81610000Y-29580000D02*
X81610000Y-32780000D01*
X81610000Y-32780000D02*
X78410000Y-32780000D01*
X78410000Y-32780000D02*
X78410000Y-29580000D01*
G36*
X78410000Y-29580000D02*
G01*
X81610000Y-29580000D01*
X81610000Y-32780000D01*
X78410000Y-32780000D01*
X78410000Y-29580000D01*
G37*
%TO.C,D38*%
X74410000Y-25580000D02*
X77610000Y-25580000D01*
X77610000Y-25580000D02*
X77610000Y-28780000D01*
X77610000Y-28780000D02*
X74410000Y-28780000D01*
X74410000Y-28780000D02*
X74410000Y-25580000D01*
G36*
X74410000Y-25580000D02*
G01*
X77610000Y-25580000D01*
X77610000Y-28780000D01*
X74410000Y-28780000D01*
X74410000Y-25580000D01*
G37*
%TO.C,D62*%
X50410000Y-37580000D02*
X53610000Y-37580000D01*
X53610000Y-37580000D02*
X53610000Y-40780000D01*
X53610000Y-40780000D02*
X50410000Y-40780000D01*
X50410000Y-40780000D02*
X50410000Y-37580000D01*
G36*
X50410000Y-37580000D02*
G01*
X53610000Y-37580000D01*
X53610000Y-40780000D01*
X50410000Y-40780000D01*
X50410000Y-37580000D01*
G37*
%TO.C,D8*%
X74410000Y-13580000D02*
X77610000Y-13580000D01*
X77610000Y-13580000D02*
X77610000Y-16780000D01*
X77610000Y-16780000D02*
X74410000Y-16780000D01*
X74410000Y-16780000D02*
X74410000Y-13580000D01*
G36*
X74410000Y-13580000D02*
G01*
X77610000Y-13580000D01*
X77610000Y-16780000D01*
X74410000Y-16780000D01*
X74410000Y-13580000D01*
G37*
%TO.C,D34*%
X58410000Y-25580000D02*
X61610000Y-25580000D01*
X61610000Y-25580000D02*
X61610000Y-28780000D01*
X61610000Y-28780000D02*
X58410000Y-28780000D01*
X58410000Y-28780000D02*
X58410000Y-25580000D01*
G36*
X58410000Y-25580000D02*
G01*
X61610000Y-25580000D01*
X61610000Y-28780000D01*
X58410000Y-28780000D01*
X58410000Y-25580000D01*
G37*
%TO.C,D55*%
X62410000Y-33580000D02*
X65610000Y-33580000D01*
X65610000Y-33580000D02*
X65610000Y-36780000D01*
X65610000Y-36780000D02*
X62410000Y-36780000D01*
X62410000Y-36780000D02*
X62410000Y-33580000D01*
G36*
X62410000Y-33580000D02*
G01*
X65610000Y-33580000D01*
X65610000Y-36780000D01*
X62410000Y-36780000D01*
X62410000Y-33580000D01*
G37*
%TO.C,D75*%
X62410000Y-41580000D02*
X65610000Y-41580000D01*
X65610000Y-41580000D02*
X65610000Y-44780000D01*
X65610000Y-44780000D02*
X62410000Y-44780000D01*
X62410000Y-44780000D02*
X62410000Y-41580000D01*
G36*
X62410000Y-41580000D02*
G01*
X65610000Y-41580000D01*
X65610000Y-44780000D01*
X62410000Y-44780000D01*
X62410000Y-41580000D01*
G37*
%TO.C,D74*%
X58410000Y-41580000D02*
X61610000Y-41580000D01*
X61610000Y-41580000D02*
X61610000Y-44780000D01*
X61610000Y-44780000D02*
X58410000Y-44780000D01*
X58410000Y-44780000D02*
X58410000Y-41580000D01*
G36*
X58410000Y-41580000D02*
G01*
X61610000Y-41580000D01*
X61610000Y-44780000D01*
X58410000Y-44780000D01*
X58410000Y-41580000D01*
G37*
%TO.C,D70*%
X42410000Y-41580000D02*
X45610000Y-41580000D01*
X45610000Y-41580000D02*
X45610000Y-44780000D01*
X45610000Y-44780000D02*
X42410000Y-44780000D01*
X42410000Y-44780000D02*
X42410000Y-41580000D01*
G36*
X42410000Y-41580000D02*
G01*
X45610000Y-41580000D01*
X45610000Y-44780000D01*
X42410000Y-44780000D01*
X42410000Y-41580000D01*
G37*
%TO.C,D54*%
X58410000Y-33580000D02*
X61610000Y-33580000D01*
X61610000Y-33580000D02*
X61610000Y-36780000D01*
X61610000Y-36780000D02*
X58410000Y-36780000D01*
X58410000Y-36780000D02*
X58410000Y-33580000D01*
G36*
X58410000Y-33580000D02*
G01*
X61610000Y-33580000D01*
X61610000Y-36780000D01*
X58410000Y-36780000D01*
X58410000Y-33580000D01*
G37*
%TO.C,D25*%
X62410000Y-21580000D02*
X65610000Y-21580000D01*
X65610000Y-21580000D02*
X65610000Y-24780000D01*
X65610000Y-24780000D02*
X62410000Y-24780000D01*
X62410000Y-24780000D02*
X62410000Y-21580000D01*
G36*
X62410000Y-21580000D02*
G01*
X65610000Y-21580000D01*
X65610000Y-24780000D01*
X62410000Y-24780000D01*
X62410000Y-21580000D01*
G37*
%TO.C,D66*%
X66410000Y-37580000D02*
X69610000Y-37580000D01*
X69610000Y-37580000D02*
X69610000Y-40780000D01*
X69610000Y-40780000D02*
X66410000Y-40780000D01*
X66410000Y-40780000D02*
X66410000Y-37580000D01*
G36*
X66410000Y-37580000D02*
G01*
X69610000Y-37580000D01*
X69610000Y-40780000D01*
X66410000Y-40780000D01*
X66410000Y-37580000D01*
G37*
%TO.C,D12*%
X50410000Y-17580000D02*
X53610000Y-17580000D01*
X53610000Y-17580000D02*
X53610000Y-20780000D01*
X53610000Y-20780000D02*
X50410000Y-20780000D01*
X50410000Y-20780000D02*
X50410000Y-17580000D01*
G36*
X50410000Y-17580000D02*
G01*
X53610000Y-17580000D01*
X53610000Y-20780000D01*
X50410000Y-20780000D01*
X50410000Y-17580000D01*
G37*
%TO.C,D13*%
X54410000Y-17580000D02*
X57610000Y-17580000D01*
X57610000Y-17580000D02*
X57610000Y-20780000D01*
X57610000Y-20780000D02*
X54410000Y-20780000D01*
X54410000Y-20780000D02*
X54410000Y-17580000D01*
G36*
X54410000Y-17580000D02*
G01*
X57610000Y-17580000D01*
X57610000Y-20780000D01*
X54410000Y-20780000D01*
X54410000Y-17580000D01*
G37*
%TO.C,D48*%
X74410000Y-29580000D02*
X77610000Y-29580000D01*
X77610000Y-29580000D02*
X77610000Y-32780000D01*
X77610000Y-32780000D02*
X74410000Y-32780000D01*
X74410000Y-32780000D02*
X74410000Y-29580000D01*
G36*
X74410000Y-29580000D02*
G01*
X77610000Y-29580000D01*
X77610000Y-32780000D01*
X74410000Y-32780000D01*
X74410000Y-29580000D01*
G37*
%TO.C,D63*%
X54410000Y-37580000D02*
X57610000Y-37580000D01*
X57610000Y-37580000D02*
X57610000Y-40780000D01*
X57610000Y-40780000D02*
X54410000Y-40780000D01*
X54410000Y-40780000D02*
X54410000Y-37580000D01*
G36*
X54410000Y-37580000D02*
G01*
X57610000Y-37580000D01*
X57610000Y-40780000D01*
X54410000Y-40780000D01*
X54410000Y-37580000D01*
G37*
%TO.C,D44*%
X58410000Y-29580000D02*
X61610000Y-29580000D01*
X61610000Y-29580000D02*
X61610000Y-32780000D01*
X61610000Y-32780000D02*
X58410000Y-32780000D01*
X58410000Y-32780000D02*
X58410000Y-29580000D01*
G36*
X58410000Y-29580000D02*
G01*
X61610000Y-29580000D01*
X61610000Y-32780000D01*
X58410000Y-32780000D01*
X58410000Y-29580000D01*
G37*
%TO.C,D16*%
X66410000Y-17580000D02*
X69610000Y-17580000D01*
X69610000Y-17580000D02*
X69610000Y-20780000D01*
X69610000Y-20780000D02*
X66410000Y-20780000D01*
X66410000Y-20780000D02*
X66410000Y-17580000D01*
G36*
X66410000Y-17580000D02*
G01*
X69610000Y-17580000D01*
X69610000Y-20780000D01*
X66410000Y-20780000D01*
X66410000Y-17580000D01*
G37*
%TO.C,D6*%
X66410000Y-13580000D02*
X69610000Y-13580000D01*
X69610000Y-13580000D02*
X69610000Y-16780000D01*
X69610000Y-16780000D02*
X66410000Y-16780000D01*
X66410000Y-16780000D02*
X66410000Y-13580000D01*
G36*
X66410000Y-13580000D02*
G01*
X69610000Y-13580000D01*
X69610000Y-16780000D01*
X66410000Y-16780000D01*
X66410000Y-13580000D01*
G37*
%TO.C,D10*%
X42410000Y-17580000D02*
X45610000Y-17580000D01*
X45610000Y-17580000D02*
X45610000Y-20780000D01*
X45610000Y-20780000D02*
X42410000Y-20780000D01*
X42410000Y-20780000D02*
X42410000Y-17580000D01*
G36*
X42410000Y-17580000D02*
G01*
X45610000Y-17580000D01*
X45610000Y-20780000D01*
X42410000Y-20780000D01*
X42410000Y-17580000D01*
G37*
%TO.C,D79*%
X78410000Y-41580000D02*
X81610000Y-41580000D01*
X81610000Y-41580000D02*
X81610000Y-44780000D01*
X81610000Y-44780000D02*
X78410000Y-44780000D01*
X78410000Y-44780000D02*
X78410000Y-41580000D01*
G36*
X78410000Y-41580000D02*
G01*
X81610000Y-41580000D01*
X81610000Y-44780000D01*
X78410000Y-44780000D01*
X78410000Y-41580000D01*
G37*
%TO.C,D65*%
X62410000Y-37580000D02*
X65610000Y-37580000D01*
X65610000Y-37580000D02*
X65610000Y-40780000D01*
X65610000Y-40780000D02*
X62410000Y-40780000D01*
X62410000Y-40780000D02*
X62410000Y-37580000D01*
G36*
X62410000Y-37580000D02*
G01*
X65610000Y-37580000D01*
X65610000Y-40780000D01*
X62410000Y-40780000D01*
X62410000Y-37580000D01*
G37*
%TO.C,D57*%
X70410000Y-33580000D02*
X73610000Y-33580000D01*
X73610000Y-33580000D02*
X73610000Y-36780000D01*
X73610000Y-36780000D02*
X70410000Y-36780000D01*
X70410000Y-36780000D02*
X70410000Y-33580000D01*
G36*
X70410000Y-33580000D02*
G01*
X73610000Y-33580000D01*
X73610000Y-36780000D01*
X70410000Y-36780000D01*
X70410000Y-33580000D01*
G37*
%TO.C,D78*%
X74410000Y-41580000D02*
X77610000Y-41580000D01*
X77610000Y-41580000D02*
X77610000Y-44780000D01*
X77610000Y-44780000D02*
X74410000Y-44780000D01*
X74410000Y-44780000D02*
X74410000Y-41580000D01*
G36*
X74410000Y-41580000D02*
G01*
X77610000Y-41580000D01*
X77610000Y-44780000D01*
X74410000Y-44780000D01*
X74410000Y-41580000D01*
G37*
%TO.C,D32*%
X50410000Y-25580000D02*
X53610000Y-25580000D01*
X53610000Y-25580000D02*
X53610000Y-28780000D01*
X53610000Y-28780000D02*
X50410000Y-28780000D01*
X50410000Y-28780000D02*
X50410000Y-25580000D01*
G36*
X50410000Y-25580000D02*
G01*
X53610000Y-25580000D01*
X53610000Y-28780000D01*
X50410000Y-28780000D01*
X50410000Y-25580000D01*
G37*
%TO.C,D27*%
X70410000Y-21580000D02*
X73610000Y-21580000D01*
X73610000Y-21580000D02*
X73610000Y-24780000D01*
X73610000Y-24780000D02*
X70410000Y-24780000D01*
X70410000Y-24780000D02*
X70410000Y-21580000D01*
G36*
X70410000Y-21580000D02*
G01*
X73610000Y-21580000D01*
X73610000Y-24780000D01*
X70410000Y-24780000D01*
X70410000Y-21580000D01*
G37*
%TO.C,D15*%
X62410000Y-17580000D02*
X65610000Y-17580000D01*
X65610000Y-17580000D02*
X65610000Y-20780000D01*
X65610000Y-20780000D02*
X62410000Y-20780000D01*
X62410000Y-20780000D02*
X62410000Y-17580000D01*
G36*
X62410000Y-17580000D02*
G01*
X65610000Y-17580000D01*
X65610000Y-20780000D01*
X62410000Y-20780000D01*
X62410000Y-17580000D01*
G37*
%TO.C,D30*%
X42410000Y-25580000D02*
X45610000Y-25580000D01*
X45610000Y-25580000D02*
X45610000Y-28780000D01*
X45610000Y-28780000D02*
X42410000Y-28780000D01*
X42410000Y-28780000D02*
X42410000Y-25580000D01*
G36*
X42410000Y-25580000D02*
G01*
X45610000Y-25580000D01*
X45610000Y-28780000D01*
X42410000Y-28780000D01*
X42410000Y-25580000D01*
G37*
%TO.C,D41*%
X46410000Y-29580000D02*
X49610000Y-29580000D01*
X49610000Y-29580000D02*
X49610000Y-32780000D01*
X49610000Y-32780000D02*
X46410000Y-32780000D01*
X46410000Y-32780000D02*
X46410000Y-29580000D01*
G36*
X46410000Y-29580000D02*
G01*
X49610000Y-29580000D01*
X49610000Y-32780000D01*
X46410000Y-32780000D01*
X46410000Y-29580000D01*
G37*
%TO.C,D35*%
X62410000Y-25580000D02*
X65610000Y-25580000D01*
X65610000Y-25580000D02*
X65610000Y-28780000D01*
X65610000Y-28780000D02*
X62410000Y-28780000D01*
X62410000Y-28780000D02*
X62410000Y-25580000D01*
G36*
X62410000Y-25580000D02*
G01*
X65610000Y-25580000D01*
X65610000Y-28780000D01*
X62410000Y-28780000D01*
X62410000Y-25580000D01*
G37*
%TO.C,D3*%
X54410000Y-13580000D02*
X57610000Y-13580000D01*
X57610000Y-13580000D02*
X57610000Y-16780000D01*
X57610000Y-16780000D02*
X54410000Y-16780000D01*
X54410000Y-16780000D02*
X54410000Y-13580000D01*
G36*
X54410000Y-13580000D02*
G01*
X57610000Y-13580000D01*
X57610000Y-16780000D01*
X54410000Y-16780000D01*
X54410000Y-13580000D01*
G37*
%TO.C,D21*%
X46410000Y-21580000D02*
X49610000Y-21580000D01*
X49610000Y-21580000D02*
X49610000Y-24780000D01*
X49610000Y-24780000D02*
X46410000Y-24780000D01*
X46410000Y-24780000D02*
X46410000Y-21580000D01*
G36*
X46410000Y-21580000D02*
G01*
X49610000Y-21580000D01*
X49610000Y-24780000D01*
X46410000Y-24780000D01*
X46410000Y-21580000D01*
G37*
%TO.C,D23*%
X54410000Y-21580000D02*
X57610000Y-21580000D01*
X57610000Y-21580000D02*
X57610000Y-24780000D01*
X57610000Y-24780000D02*
X54410000Y-24780000D01*
X54410000Y-24780000D02*
X54410000Y-21580000D01*
G36*
X54410000Y-21580000D02*
G01*
X57610000Y-21580000D01*
X57610000Y-24780000D01*
X54410000Y-24780000D01*
X54410000Y-21580000D01*
G37*
%TO.C,D77*%
X70410000Y-41580000D02*
X73610000Y-41580000D01*
X73610000Y-41580000D02*
X73610000Y-44780000D01*
X73610000Y-44780000D02*
X70410000Y-44780000D01*
X70410000Y-44780000D02*
X70410000Y-41580000D01*
G36*
X70410000Y-41580000D02*
G01*
X73610000Y-41580000D01*
X73610000Y-44780000D01*
X70410000Y-44780000D01*
X70410000Y-41580000D01*
G37*
%TO.C,D11*%
X46410000Y-17580000D02*
X49610000Y-17580000D01*
X49610000Y-17580000D02*
X49610000Y-20780000D01*
X49610000Y-20780000D02*
X46410000Y-20780000D01*
X46410000Y-20780000D02*
X46410000Y-17580000D01*
G36*
X46410000Y-17580000D02*
G01*
X49610000Y-17580000D01*
X49610000Y-20780000D01*
X46410000Y-20780000D01*
X46410000Y-17580000D01*
G37*
%TO.C,D72*%
X50410000Y-41580000D02*
X53610000Y-41580000D01*
X53610000Y-41580000D02*
X53610000Y-44780000D01*
X53610000Y-44780000D02*
X50410000Y-44780000D01*
X50410000Y-44780000D02*
X50410000Y-41580000D01*
G36*
X50410000Y-41580000D02*
G01*
X53610000Y-41580000D01*
X53610000Y-44780000D01*
X50410000Y-44780000D01*
X50410000Y-41580000D01*
G37*
%TD*%
D11*
%TO.C,REF\u002A\u002A*%
X85810000Y-42554000D03*
%TD*%
%TO.C,REF\u002A\u002A*%
X38210000Y-15420000D03*
%TD*%
%TO.C,REF\u002A\u002A*%
X38210000Y-42554000D03*
%TD*%
%TO.C,REF\u002A\u002A*%
X85810000Y-15420000D03*
%TD*%
M02*
