%TF.GenerationSoftware,KiCad,Pcbnew,(6.0.10)*%
%TF.CreationDate,2023-02-01T20:58:39-08:00*%
%TF.ProjectId,pico8t-matrix,7069636f-3874-42d6-9d61-747269782e6b,rev?*%
%TF.SameCoordinates,Original*%
%TF.FileFunction,Copper,L1,Top*%
%TF.FilePolarity,Positive*%
%FSLAX46Y46*%
G04 Gerber Fmt 4.6, Leading zero omitted, Abs format (unit mm)*
G04 Created by KiCad (PCBNEW (6.0.10)) date 2023-02-01 20:58:39*
%MOMM*%
%LPD*%
G01*
G04 APERTURE LIST*
G04 Aperture macros list*
%AMRoundRect*
0 Rectangle with rounded corners*
0 $1 Rounding radius*
0 $2 $3 $4 $5 $6 $7 $8 $9 X,Y pos of 4 corners*
0 Add a 4 corners polygon primitive as box body*
4,1,4,$2,$3,$4,$5,$6,$7,$8,$9,$2,$3,0*
0 Add four circle primitives for the rounded corners*
1,1,$1+$1,$2,$3*
1,1,$1+$1,$4,$5*
1,1,$1+$1,$6,$7*
1,1,$1+$1,$8,$9*
0 Add four rect primitives between the rounded corners*
20,1,$1+$1,$2,$3,$4,$5,0*
20,1,$1+$1,$4,$5,$6,$7,0*
20,1,$1+$1,$6,$7,$8,$9,0*
20,1,$1+$1,$8,$9,$2,$3,0*%
G04 Aperture macros list end*
%TA.AperFunction,SMDPad,CuDef*%
%ADD10R,0.450000X0.450000*%
%TD*%
%TA.AperFunction,SMDPad,CuDef*%
%ADD11RoundRect,0.237500X-0.237500X0.250000X-0.237500X-0.250000X0.237500X-0.250000X0.237500X0.250000X0*%
%TD*%
%TA.AperFunction,ComponentPad*%
%ADD12O,1.700000X1.700000*%
%TD*%
%TA.AperFunction,ComponentPad*%
%ADD13R,1.700000X1.700000*%
%TD*%
%TA.AperFunction,ViaPad*%
%ADD14C,0.800000*%
%TD*%
%TA.AperFunction,Conductor*%
%ADD15C,0.250000*%
%TD*%
G04 APERTURE END LIST*
D10*
%TO.P,D42,1,RK*%
%TO.N,P6*%
X51625000Y-31565000D03*
%TO.P,D42,2,GK*%
%TO.N,P7*%
X51625000Y-30795000D03*
%TO.P,D42,3,BK*%
%TO.N,P9*%
X52395000Y-30795000D03*
%TO.P,D42,4,A*%
%TO.N,Y8*%
X52395000Y-31565000D03*
%TD*%
%TO.P,D45,1,RK*%
%TO.N,P0*%
X63625000Y-31565000D03*
%TO.P,D45,2,GK*%
%TO.N,P1*%
X63625000Y-30795000D03*
%TO.P,D45,3,BK*%
%TO.N,P2*%
X64395000Y-30795000D03*
%TO.P,D45,4,A*%
%TO.N,Y9*%
X64395000Y-31565000D03*
%TD*%
%TO.P,D51,1,RK*%
%TO.N,P3*%
X47625000Y-35565000D03*
%TO.P,D51,2,GK*%
%TO.N,P4*%
X47625000Y-34795000D03*
%TO.P,D51,3,BK*%
%TO.N,P5*%
X48395000Y-34795000D03*
%TO.P,D51,4,A*%
%TO.N,YA*%
X48395000Y-35565000D03*
%TD*%
%TO.P,D76,1,RK*%
%TO.N,P3*%
X67625000Y-43565000D03*
%TO.P,D76,2,GK*%
%TO.N,P4*%
X67625000Y-42795000D03*
%TO.P,D76,3,BK*%
%TO.N,P5*%
X68395000Y-42795000D03*
%TO.P,D76,4,A*%
%TO.N,YF*%
X68395000Y-43565000D03*
%TD*%
%TO.P,D73,1,RK*%
%TO.N,P9*%
X55625000Y-43565000D03*
%TO.P,D73,2,GK*%
%TO.N,PA*%
X55625000Y-42795000D03*
%TO.P,D73,3,BK*%
%TO.N,PB*%
X56395000Y-42795000D03*
%TO.P,D73,4,A*%
%TO.N,YE*%
X56395000Y-43565000D03*
%TD*%
%TO.P,D61,1,RK*%
%TO.N,P3*%
X47625000Y-39565000D03*
%TO.P,D61,2,GK*%
%TO.N,P4*%
X47625000Y-38795000D03*
%TO.P,D61,3,BK*%
%TO.N,P5*%
X48395000Y-38795000D03*
%TO.P,D61,4,A*%
%TO.N,YC*%
X48395000Y-39565000D03*
%TD*%
%TO.P,D14,1,RK*%
%TO.N,PD*%
X59625000Y-19565000D03*
%TO.P,D14,2,GK*%
%TO.N,PE*%
X59625000Y-18795000D03*
%TO.P,D14,3,BK*%
%TO.N,PF*%
X60395000Y-18795000D03*
%TO.P,D14,4,A*%
%TO.N,Y2*%
X60395000Y-19565000D03*
%TD*%
%TO.P,D1,1,RK*%
%TO.N,P4*%
X47625000Y-15565000D03*
%TO.P,D1,2,GK*%
%TO.N,P5*%
X47625000Y-14795000D03*
%TO.P,D1,3,BK*%
%TO.N,P6*%
X48395000Y-14795000D03*
%TO.P,D1,4,A*%
%TO.N,Y0*%
X48395000Y-15565000D03*
%TD*%
%TO.P,D24,1,RK*%
%TO.N,PD*%
X59625000Y-23565000D03*
%TO.P,D24,2,GK*%
%TO.N,PE*%
X59625000Y-22795000D03*
%TO.P,D24,3,BK*%
%TO.N,PF*%
X60395000Y-22795000D03*
%TO.P,D24,4,A*%
%TO.N,Y4*%
X60395000Y-23565000D03*
%TD*%
%TO.P,D20,1,RK*%
%TO.N,P0*%
X43625000Y-23565000D03*
%TO.P,D20,2,GK*%
%TO.N,P1*%
X43625000Y-22795000D03*
%TO.P,D20,3,BK*%
%TO.N,P2*%
X44395000Y-22795000D03*
%TO.P,D20,4,A*%
%TO.N,Y4*%
X44395000Y-23565000D03*
%TD*%
%TO.P,D33,1,RK*%
%TO.N,PA*%
X55625000Y-27565000D03*
%TO.P,D33,2,GK*%
%TO.N,PB*%
X55625000Y-26795000D03*
%TO.P,D33,3,BK*%
%TO.N,PC*%
X56395000Y-26795000D03*
%TO.P,D33,4,A*%
%TO.N,Y6*%
X56395000Y-27565000D03*
%TD*%
%TO.P,D7,1,RK*%
%TO.N,P7*%
X71625000Y-15565000D03*
%TO.P,D7,2,GK*%
%TO.N,P8*%
X71625000Y-14795000D03*
%TO.P,D7,3,BK*%
%TO.N,P9*%
X72395000Y-14795000D03*
%TO.P,D7,4,A*%
%TO.N,Y1*%
X72395000Y-15565000D03*
%TD*%
%TO.P,D59,1,RK*%
%TO.N,PD*%
X79625000Y-35565000D03*
%TO.P,D59,2,GK*%
%TO.N,PE*%
X79625000Y-34795000D03*
%TO.P,D59,3,BK*%
%TO.N,PF*%
X80395000Y-34795000D03*
%TO.P,D59,4,A*%
%TO.N,YB*%
X80395000Y-35565000D03*
%TD*%
%TO.P,D2,1,RK*%
%TO.N,P7*%
X51625000Y-15565000D03*
%TO.P,D2,2,GK*%
%TO.N,P8*%
X51625000Y-14795000D03*
%TO.P,D2,3,BK*%
%TO.N,P9*%
X52395000Y-14795000D03*
%TO.P,D2,4,A*%
%TO.N,Y0*%
X52395000Y-15565000D03*
%TD*%
%TO.P,D5,1,RK*%
%TO.N,P0*%
X63625000Y-15565000D03*
%TO.P,D5,2,GK*%
%TO.N,P2*%
X63625000Y-14795000D03*
%TO.P,D5,3,BK*%
%TO.N,P3*%
X64395000Y-14795000D03*
%TO.P,D5,4,A*%
%TO.N,Y1*%
X64395000Y-15565000D03*
%TD*%
%TO.P,D50,1,RK*%
%TO.N,P0*%
X43625000Y-35565000D03*
%TO.P,D50,2,GK*%
%TO.N,P1*%
X43625000Y-34795000D03*
%TO.P,D50,3,BK*%
%TO.N,P2*%
X44395000Y-34795000D03*
%TO.P,D50,4,A*%
%TO.N,YA*%
X44395000Y-35565000D03*
%TD*%
%TO.P,D9,1,RK*%
%TO.N,PD*%
X79625000Y-15565000D03*
%TO.P,D9,2,GK*%
%TO.N,PE*%
X79625000Y-14795000D03*
%TO.P,D9,3,BK*%
%TO.N,PF*%
X80395000Y-14795000D03*
%TO.P,D9,4,A*%
%TO.N,Y1*%
X80395000Y-15565000D03*
%TD*%
%TO.P,D22,1,RK*%
%TO.N,P7*%
X51625000Y-23565000D03*
%TO.P,D22,2,GK*%
%TO.N,P8*%
X51625000Y-22795000D03*
%TO.P,D22,3,BK*%
%TO.N,P9*%
X52395000Y-22795000D03*
%TO.P,D22,4,A*%
%TO.N,Y4*%
X52395000Y-23565000D03*
%TD*%
%TO.P,D28,1,RK*%
%TO.N,PA*%
X75625000Y-23565000D03*
%TO.P,D28,2,GK*%
%TO.N,PB*%
X75625000Y-22795000D03*
%TO.P,D28,3,BK*%
%TO.N,PC*%
X76395000Y-22795000D03*
%TO.P,D28,4,A*%
%TO.N,Y5*%
X76395000Y-23565000D03*
%TD*%
%TO.P,D46,1,RK*%
%TO.N,P3*%
X67625000Y-31565000D03*
%TO.P,D46,2,GK*%
%TO.N,P4*%
X67625000Y-30795000D03*
%TO.P,D46,3,BK*%
%TO.N,P5*%
X68395000Y-30795000D03*
%TO.P,D46,4,A*%
%TO.N,Y9*%
X68395000Y-31565000D03*
%TD*%
%TO.P,D17,1,RK*%
%TO.N,P7*%
X71625000Y-19565000D03*
%TO.P,D17,2,GK*%
%TO.N,P8*%
X71625000Y-18795000D03*
%TO.P,D17,3,BK*%
%TO.N,P9*%
X72395000Y-18795000D03*
%TO.P,D17,4,A*%
%TO.N,Y3*%
X72395000Y-19565000D03*
%TD*%
%TO.P,D29,1,RK*%
%TO.N,PD*%
X79625000Y-23565000D03*
%TO.P,D29,2,GK*%
%TO.N,PE*%
X79625000Y-22795000D03*
%TO.P,D29,3,BK*%
%TO.N,PF*%
X80395000Y-22795000D03*
%TO.P,D29,4,A*%
%TO.N,Y5*%
X80395000Y-23565000D03*
%TD*%
%TO.P,D18,1,RK*%
%TO.N,PA*%
X75625000Y-19565000D03*
%TO.P,D18,2,GK*%
%TO.N,PB*%
X75625000Y-18795000D03*
%TO.P,D18,3,BK*%
%TO.N,PC*%
X76395000Y-18795000D03*
%TO.P,D18,4,A*%
%TO.N,Y3*%
X76395000Y-19565000D03*
%TD*%
%TO.P,D37,1,RK*%
%TO.N,P6*%
X71625000Y-27565000D03*
%TO.P,D37,2,GK*%
%TO.N,P8*%
X71625000Y-26795000D03*
%TO.P,D37,3,BK*%
%TO.N,P9*%
X72395000Y-26795000D03*
%TO.P,D37,4,A*%
%TO.N,Y7*%
X72395000Y-27565000D03*
%TD*%
%TO.P,D56,1,RK*%
%TO.N,P3*%
X67625000Y-35565000D03*
%TO.P,D56,2,GK*%
%TO.N,P4*%
X67625000Y-34795000D03*
%TO.P,D56,3,BK*%
%TO.N,P5*%
X68395000Y-34795000D03*
%TO.P,D56,4,A*%
%TO.N,YB*%
X68395000Y-35565000D03*
%TD*%
%TO.P,D19,1,RK*%
%TO.N,PD*%
X79625000Y-19565000D03*
%TO.P,D19,2,GK*%
%TO.N,PE*%
X79625000Y-18795000D03*
%TO.P,D19,3,BK*%
%TO.N,PF*%
X80395000Y-18795000D03*
%TO.P,D19,4,A*%
%TO.N,Y3*%
X80395000Y-19565000D03*
%TD*%
%TO.P,D53,1,RK*%
%TO.N,P9*%
X55625000Y-35565000D03*
%TO.P,D53,2,GK*%
%TO.N,PB*%
X55625000Y-34795000D03*
%TO.P,D53,3,BK*%
%TO.N,PC*%
X56395000Y-34795000D03*
%TO.P,D53,4,A*%
%TO.N,YA*%
X56395000Y-35565000D03*
%TD*%
%TO.P,D47,1,RK*%
%TO.N,P6*%
X71625000Y-31565000D03*
%TO.P,D47,2,GK*%
%TO.N,P7*%
X71625000Y-30795000D03*
%TO.P,D47,3,BK*%
%TO.N,P8*%
X72395000Y-30795000D03*
%TO.P,D47,4,A*%
%TO.N,Y9*%
X72395000Y-31565000D03*
%TD*%
%TO.P,D69,1,RK*%
%TO.N,PC*%
X79625000Y-39565000D03*
%TO.P,D69,2,GK*%
%TO.N,PE*%
X79625000Y-38795000D03*
%TO.P,D69,3,BK*%
%TO.N,PF*%
X80395000Y-38795000D03*
%TO.P,D69,4,A*%
%TO.N,YD*%
X80395000Y-39565000D03*
%TD*%
%TO.P,D67,1,RK*%
%TO.N,P6*%
X71625000Y-39565000D03*
%TO.P,D67,2,GK*%
%TO.N,P7*%
X71625000Y-38795000D03*
%TO.P,D67,3,BK*%
%TO.N,P8*%
X72395000Y-38795000D03*
%TO.P,D67,4,A*%
%TO.N,YD*%
X72395000Y-39565000D03*
%TD*%
%TO.P,D43,1,RK*%
%TO.N,PA*%
X55625000Y-31565000D03*
%TO.P,D43,2,GK*%
%TO.N,PB*%
X55625000Y-30795000D03*
%TO.P,D43,3,BK*%
%TO.N,PC*%
X56395000Y-30795000D03*
%TO.P,D43,4,A*%
%TO.N,Y8*%
X56395000Y-31565000D03*
%TD*%
%TO.P,D68,1,RK*%
%TO.N,P9*%
X75625000Y-39565000D03*
%TO.P,D68,2,GK*%
%TO.N,PA*%
X75625000Y-38795000D03*
%TO.P,D68,3,BK*%
%TO.N,PB*%
X76395000Y-38795000D03*
%TO.P,D68,4,A*%
%TO.N,YD*%
X76395000Y-39565000D03*
%TD*%
%TO.P,D58,1,RK*%
%TO.N,P9*%
X75625000Y-35565000D03*
%TO.P,D58,2,GK*%
%TO.N,PA*%
X75625000Y-34795000D03*
%TO.P,D58,3,BK*%
%TO.N,PC*%
X76395000Y-34795000D03*
%TO.P,D58,4,A*%
%TO.N,YB*%
X76395000Y-35565000D03*
%TD*%
%TO.P,D64,1,RK*%
%TO.N,PD*%
X59625000Y-39565000D03*
%TO.P,D64,2,GK*%
%TO.N,PE*%
X59625000Y-38795000D03*
%TO.P,D64,3,BK*%
%TO.N,PF*%
X60395000Y-38795000D03*
%TO.P,D64,4,A*%
%TO.N,YC*%
X60395000Y-39565000D03*
%TD*%
%TO.P,D71,1,RK*%
%TO.N,P3*%
X47625000Y-43565000D03*
%TO.P,D71,2,GK*%
%TO.N,P4*%
X47625000Y-42795000D03*
%TO.P,D71,3,BK*%
%TO.N,P5*%
X48395000Y-42795000D03*
%TO.P,D71,4,A*%
%TO.N,YE*%
X48395000Y-43565000D03*
%TD*%
%TO.P,D0,1,RK*%
%TO.N,P1*%
X43625000Y-15565000D03*
%TO.P,D0,2,GK*%
%TO.N,P2*%
X43625000Y-14795000D03*
%TO.P,D0,3,BK*%
%TO.N,P3*%
X44395000Y-14795000D03*
%TO.P,D0,4,A*%
%TO.N,Y0*%
X44395000Y-15565000D03*
%TD*%
%TO.P,D26,1,RK*%
%TO.N,P3*%
X67625000Y-23565000D03*
%TO.P,D26,2,GK*%
%TO.N,P4*%
X67625000Y-22795000D03*
%TO.P,D26,3,BK*%
%TO.N,P6*%
X68395000Y-22795000D03*
%TO.P,D26,4,A*%
%TO.N,Y5*%
X68395000Y-23565000D03*
%TD*%
%TO.P,D4,1,RK*%
%TO.N,PD*%
X59625000Y-15565000D03*
%TO.P,D4,2,GK*%
%TO.N,PE*%
X59625000Y-14795000D03*
%TO.P,D4,3,BK*%
%TO.N,PF*%
X60395000Y-14795000D03*
%TO.P,D4,4,A*%
%TO.N,Y0*%
X60395000Y-15565000D03*
%TD*%
%TO.P,D40,1,RK*%
%TO.N,P0*%
X43625000Y-31565000D03*
%TO.P,D40,2,GK*%
%TO.N,P1*%
X43625000Y-30795000D03*
%TO.P,D40,3,BK*%
%TO.N,P2*%
X44395000Y-30795000D03*
%TO.P,D40,4,A*%
%TO.N,Y8*%
X44395000Y-31565000D03*
%TD*%
%TO.P,D60,1,RK*%
%TO.N,P0*%
X43625000Y-39565000D03*
%TO.P,D60,2,GK*%
%TO.N,P1*%
X43625000Y-38795000D03*
%TO.P,D60,3,BK*%
%TO.N,P2*%
X44395000Y-38795000D03*
%TO.P,D60,4,A*%
%TO.N,YC*%
X44395000Y-39565000D03*
%TD*%
%TO.P,D31,1,RK*%
%TO.N,P3*%
X47625000Y-27565000D03*
%TO.P,D31,2,GK*%
%TO.N,P4*%
X47625000Y-26795000D03*
%TO.P,D31,3,BK*%
%TO.N,P5*%
X48395000Y-26795000D03*
%TO.P,D31,4,A*%
%TO.N,Y6*%
X48395000Y-27565000D03*
%TD*%
%TO.P,D36,1,RK*%
%TO.N,P3*%
X67625000Y-27565000D03*
%TO.P,D36,2,GK*%
%TO.N,P4*%
X67625000Y-26795000D03*
%TO.P,D36,3,BK*%
%TO.N,P5*%
X68395000Y-26795000D03*
%TO.P,D36,4,A*%
%TO.N,Y7*%
X68395000Y-27565000D03*
%TD*%
%TO.P,D52,1,RK*%
%TO.N,P6*%
X51625000Y-35565000D03*
%TO.P,D52,2,GK*%
%TO.N,P7*%
X51625000Y-34795000D03*
%TO.P,D52,3,BK*%
%TO.N,P8*%
X52395000Y-34795000D03*
%TO.P,D52,4,A*%
%TO.N,YA*%
X52395000Y-35565000D03*
%TD*%
%TO.P,D39,1,RK*%
%TO.N,PD*%
X79625000Y-27565000D03*
%TO.P,D39,2,GK*%
%TO.N,PE*%
X79625000Y-26795000D03*
%TO.P,D39,3,BK*%
%TO.N,PF*%
X80395000Y-26795000D03*
%TO.P,D39,4,A*%
%TO.N,Y7*%
X80395000Y-27565000D03*
%TD*%
%TO.P,D49,1,RK*%
%TO.N,PD*%
X79625000Y-31565000D03*
%TO.P,D49,2,GK*%
%TO.N,PE*%
X79625000Y-30795000D03*
%TO.P,D49,3,BK*%
%TO.N,PF*%
X80395000Y-30795000D03*
%TO.P,D49,4,A*%
%TO.N,Y9*%
X80395000Y-31565000D03*
%TD*%
%TO.P,D38,1,RK*%
%TO.N,PA*%
X75625000Y-27565000D03*
%TO.P,D38,2,GK*%
%TO.N,PB*%
X75625000Y-26795000D03*
%TO.P,D38,3,BK*%
%TO.N,PC*%
X76395000Y-26795000D03*
%TO.P,D38,4,A*%
%TO.N,Y7*%
X76395000Y-27565000D03*
%TD*%
%TO.P,D62,1,RK*%
%TO.N,P6*%
X51625000Y-39565000D03*
%TO.P,D62,2,GK*%
%TO.N,P7*%
X51625000Y-38795000D03*
%TO.P,D62,3,BK*%
%TO.N,P8*%
X52395000Y-38795000D03*
%TO.P,D62,4,A*%
%TO.N,YC*%
X52395000Y-39565000D03*
%TD*%
%TO.P,D8,1,RK*%
%TO.N,PA*%
X75625000Y-15565000D03*
%TO.P,D8,2,GK*%
%TO.N,PB*%
X75625000Y-14795000D03*
%TO.P,D8,3,BK*%
%TO.N,PC*%
X76395000Y-14795000D03*
%TO.P,D8,4,A*%
%TO.N,Y1*%
X76395000Y-15565000D03*
%TD*%
%TO.P,D34,1,RK*%
%TO.N,PD*%
X59625000Y-27565000D03*
%TO.P,D34,2,GK*%
%TO.N,PE*%
X59625000Y-26795000D03*
%TO.P,D34,3,BK*%
%TO.N,PF*%
X60395000Y-26795000D03*
%TO.P,D34,4,A*%
%TO.N,Y6*%
X60395000Y-27565000D03*
%TD*%
%TO.P,D55,1,RK*%
%TO.N,P0*%
X63625000Y-35565000D03*
%TO.P,D55,2,GK*%
%TO.N,P1*%
X63625000Y-34795000D03*
%TO.P,D55,3,BK*%
%TO.N,P2*%
X64395000Y-34795000D03*
%TO.P,D55,4,A*%
%TO.N,YB*%
X64395000Y-35565000D03*
%TD*%
%TO.P,D75,1,RK*%
%TO.N,P0*%
X63625000Y-43565000D03*
%TO.P,D75,2,GK*%
%TO.N,P1*%
X63625000Y-42795000D03*
%TO.P,D75,3,BK*%
%TO.N,P2*%
X64395000Y-42795000D03*
%TO.P,D75,4,A*%
%TO.N,YF*%
X64395000Y-43565000D03*
%TD*%
%TO.P,D74,1,RK*%
%TO.N,PC*%
X59625000Y-43565000D03*
%TO.P,D74,2,GK*%
%TO.N,PD*%
X59625000Y-42795000D03*
%TO.P,D74,3,BK*%
%TO.N,PF*%
X60395000Y-42795000D03*
%TO.P,D74,4,A*%
%TO.N,YE*%
X60395000Y-43565000D03*
%TD*%
%TO.P,D70,1,RK*%
%TO.N,P0*%
X43625000Y-43565000D03*
%TO.P,D70,2,GK*%
%TO.N,P1*%
X43625000Y-42795000D03*
%TO.P,D70,3,BK*%
%TO.N,P2*%
X44395000Y-42795000D03*
%TO.P,D70,4,A*%
%TO.N,YE*%
X44395000Y-43565000D03*
%TD*%
%TO.P,D54,1,RK*%
%TO.N,PD*%
X59625000Y-35565000D03*
%TO.P,D54,2,GK*%
%TO.N,PE*%
X59625000Y-34795000D03*
%TO.P,D54,3,BK*%
%TO.N,PF*%
X60395000Y-34795000D03*
%TO.P,D54,4,A*%
%TO.N,YA*%
X60395000Y-35565000D03*
%TD*%
%TO.P,D25,1,RK*%
%TO.N,P0*%
X63625000Y-23565000D03*
%TO.P,D25,2,GK*%
%TO.N,P1*%
X63625000Y-22795000D03*
%TO.P,D25,3,BK*%
%TO.N,P2*%
X64395000Y-22795000D03*
%TO.P,D25,4,A*%
%TO.N,Y5*%
X64395000Y-23565000D03*
%TD*%
%TO.P,D66,1,RK*%
%TO.N,P3*%
X67625000Y-39565000D03*
%TO.P,D66,2,GK*%
%TO.N,P4*%
X67625000Y-38795000D03*
%TO.P,D66,3,BK*%
%TO.N,P5*%
X68395000Y-38795000D03*
%TO.P,D66,4,A*%
%TO.N,YD*%
X68395000Y-39565000D03*
%TD*%
%TO.P,D12,1,RK*%
%TO.N,P7*%
X51625000Y-19565000D03*
%TO.P,D12,2,GK*%
%TO.N,P8*%
X51625000Y-18795000D03*
%TO.P,D12,3,BK*%
%TO.N,P9*%
X52395000Y-18795000D03*
%TO.P,D12,4,A*%
%TO.N,Y2*%
X52395000Y-19565000D03*
%TD*%
%TO.P,D13,1,RK*%
%TO.N,PA*%
X55625000Y-19565000D03*
%TO.P,D13,2,GK*%
%TO.N,PB*%
X55625000Y-18795000D03*
%TO.P,D13,3,BK*%
%TO.N,PC*%
X56395000Y-18795000D03*
%TO.P,D13,4,A*%
%TO.N,Y2*%
X56395000Y-19565000D03*
%TD*%
%TO.P,D48,1,RK*%
%TO.N,PA*%
X75625000Y-31565000D03*
%TO.P,D48,2,GK*%
%TO.N,PB*%
X75625000Y-30795000D03*
%TO.P,D48,3,BK*%
%TO.N,PC*%
X76395000Y-30795000D03*
%TO.P,D48,4,A*%
%TO.N,Y9*%
X76395000Y-31565000D03*
%TD*%
%TO.P,D63,1,RK*%
%TO.N,P9*%
X55625000Y-39565000D03*
%TO.P,D63,2,GK*%
%TO.N,PA*%
X55625000Y-38795000D03*
%TO.P,D63,3,BK*%
%TO.N,PB*%
X56395000Y-38795000D03*
%TO.P,D63,4,A*%
%TO.N,YC*%
X56395000Y-39565000D03*
%TD*%
%TO.P,D44,1,RK*%
%TO.N,PD*%
X59625000Y-31565000D03*
%TO.P,D44,2,GK*%
%TO.N,PE*%
X59625000Y-30795000D03*
%TO.P,D44,3,BK*%
%TO.N,PF*%
X60395000Y-30795000D03*
%TO.P,D44,4,A*%
%TO.N,Y8*%
X60395000Y-31565000D03*
%TD*%
%TO.P,D16,1,RK*%
%TO.N,P4*%
X67625000Y-19565000D03*
%TO.P,D16,2,GK*%
%TO.N,P5*%
X67625000Y-18795000D03*
%TO.P,D16,3,BK*%
%TO.N,P6*%
X68395000Y-18795000D03*
%TO.P,D16,4,A*%
%TO.N,Y3*%
X68395000Y-19565000D03*
%TD*%
%TO.P,D6,1,RK*%
%TO.N,P4*%
X67625000Y-15565000D03*
%TO.P,D6,2,GK*%
%TO.N,P5*%
X67625000Y-14795000D03*
%TO.P,D6,3,BK*%
%TO.N,P6*%
X68395000Y-14795000D03*
%TO.P,D6,4,A*%
%TO.N,Y1*%
X68395000Y-15565000D03*
%TD*%
%TO.P,D10,1,RK*%
%TO.N,P0*%
X43625000Y-19565000D03*
%TO.P,D10,2,GK*%
%TO.N,P1*%
X43625000Y-18795000D03*
%TO.P,D10,3,BK*%
%TO.N,P3*%
X44395000Y-18795000D03*
%TO.P,D10,4,A*%
%TO.N,Y2*%
X44395000Y-19565000D03*
%TD*%
%TO.P,D79,1,RK*%
%TO.N,PC*%
X79625000Y-43565000D03*
%TO.P,D79,2,GK*%
%TO.N,PD*%
X79625000Y-42795000D03*
%TO.P,D79,3,BK*%
%TO.N,PE*%
X80395000Y-42795000D03*
%TO.P,D79,4,A*%
%TO.N,YF*%
X80395000Y-43565000D03*
%TD*%
%TO.P,D65,1,RK*%
%TO.N,P0*%
X63625000Y-39565000D03*
%TO.P,D65,2,GK*%
%TO.N,P1*%
X63625000Y-38795000D03*
%TO.P,D65,3,BK*%
%TO.N,P2*%
X64395000Y-38795000D03*
%TO.P,D65,4,A*%
%TO.N,YD*%
X64395000Y-39565000D03*
%TD*%
%TO.P,D57,1,RK*%
%TO.N,P6*%
X71625000Y-35565000D03*
%TO.P,D57,2,GK*%
%TO.N,P7*%
X71625000Y-34795000D03*
%TO.P,D57,3,BK*%
%TO.N,P8*%
X72395000Y-34795000D03*
%TO.P,D57,4,A*%
%TO.N,YB*%
X72395000Y-35565000D03*
%TD*%
%TO.P,D78,1,RK*%
%TO.N,P9*%
X75625000Y-43565000D03*
%TO.P,D78,2,GK*%
%TO.N,PA*%
X75625000Y-42795000D03*
%TO.P,D78,3,BK*%
%TO.N,PB*%
X76395000Y-42795000D03*
%TO.P,D78,4,A*%
%TO.N,YF*%
X76395000Y-43565000D03*
%TD*%
%TO.P,D32,1,RK*%
%TO.N,P7*%
X51625000Y-27565000D03*
%TO.P,D32,2,GK*%
%TO.N,P8*%
X51625000Y-26795000D03*
%TO.P,D32,3,BK*%
%TO.N,P9*%
X52395000Y-26795000D03*
%TO.P,D32,4,A*%
%TO.N,Y6*%
X52395000Y-27565000D03*
%TD*%
%TO.P,D27,1,RK*%
%TO.N,P7*%
X71625000Y-23565000D03*
%TO.P,D27,2,GK*%
%TO.N,P8*%
X71625000Y-22795000D03*
%TO.P,D27,3,BK*%
%TO.N,P9*%
X72395000Y-22795000D03*
%TO.P,D27,4,A*%
%TO.N,Y5*%
X72395000Y-23565000D03*
%TD*%
%TO.P,D15,1,RK*%
%TO.N,P0*%
X63625000Y-19565000D03*
%TO.P,D15,2,GK*%
%TO.N,P1*%
X63625000Y-18795000D03*
%TO.P,D15,3,BK*%
%TO.N,P2*%
X64395000Y-18795000D03*
%TO.P,D15,4,A*%
%TO.N,Y3*%
X64395000Y-19565000D03*
%TD*%
%TO.P,D30,1,RK*%
%TO.N,P0*%
X43625000Y-27565000D03*
%TO.P,D30,2,GK*%
%TO.N,P1*%
X43625000Y-26795000D03*
%TO.P,D30,3,BK*%
%TO.N,P2*%
X44395000Y-26795000D03*
%TO.P,D30,4,A*%
%TO.N,Y6*%
X44395000Y-27565000D03*
%TD*%
%TO.P,D41,1,RK*%
%TO.N,P3*%
X47625000Y-31565000D03*
%TO.P,D41,2,GK*%
%TO.N,P4*%
X47625000Y-30795000D03*
%TO.P,D41,3,BK*%
%TO.N,P5*%
X48395000Y-30795000D03*
%TO.P,D41,4,A*%
%TO.N,Y8*%
X48395000Y-31565000D03*
%TD*%
%TO.P,D35,1,RK*%
%TO.N,P0*%
X63625000Y-27565000D03*
%TO.P,D35,2,GK*%
%TO.N,P1*%
X63625000Y-26795000D03*
%TO.P,D35,3,BK*%
%TO.N,P2*%
X64395000Y-26795000D03*
%TO.P,D35,4,A*%
%TO.N,Y7*%
X64395000Y-27565000D03*
%TD*%
%TO.P,D3,1,RK*%
%TO.N,PA*%
X55625000Y-15565000D03*
%TO.P,D3,2,GK*%
%TO.N,PB*%
X55625000Y-14795000D03*
%TO.P,D3,3,BK*%
%TO.N,PC*%
X56395000Y-14795000D03*
%TO.P,D3,4,A*%
%TO.N,Y0*%
X56395000Y-15565000D03*
%TD*%
%TO.P,D21,1,RK*%
%TO.N,P3*%
X47625000Y-23565000D03*
%TO.P,D21,2,GK*%
%TO.N,P5*%
X47625000Y-22795000D03*
%TO.P,D21,3,BK*%
%TO.N,P6*%
X48395000Y-22795000D03*
%TO.P,D21,4,A*%
%TO.N,Y4*%
X48395000Y-23565000D03*
%TD*%
%TO.P,D23,1,RK*%
%TO.N,PA*%
X55625000Y-23565000D03*
%TO.P,D23,2,GK*%
%TO.N,PB*%
X55625000Y-22795000D03*
%TO.P,D23,3,BK*%
%TO.N,PC*%
X56395000Y-22795000D03*
%TO.P,D23,4,A*%
%TO.N,Y4*%
X56395000Y-23565000D03*
%TD*%
%TO.P,D77,1,RK*%
%TO.N,P6*%
X71625000Y-43565000D03*
%TO.P,D77,2,GK*%
%TO.N,P7*%
X71625000Y-42795000D03*
%TO.P,D77,3,BK*%
%TO.N,P8*%
X72395000Y-42795000D03*
%TO.P,D77,4,A*%
%TO.N,YF*%
X72395000Y-43565000D03*
%TD*%
%TO.P,D11,1,RK*%
%TO.N,P4*%
X47625000Y-19565000D03*
%TO.P,D11,2,GK*%
%TO.N,P5*%
X47625000Y-18795000D03*
%TO.P,D11,3,BK*%
%TO.N,P6*%
X48395000Y-18795000D03*
%TO.P,D11,4,A*%
%TO.N,Y2*%
X48395000Y-19565000D03*
%TD*%
%TO.P,D72,1,RK*%
%TO.N,P6*%
X51625000Y-43565000D03*
%TO.P,D72,2,GK*%
%TO.N,P7*%
X51625000Y-42795000D03*
%TO.P,D72,3,BK*%
%TO.N,P8*%
X52395000Y-42795000D03*
%TO.P,D72,4,A*%
%TO.N,YE*%
X52395000Y-43565000D03*
%TD*%
D11*
%TO.P,R7,1*%
%TO.N,Y7*%
X60960000Y-46077500D03*
%TO.P,R7,2*%
%TO.N,P7*%
X60960000Y-47902500D03*
%TD*%
%TO.P,R3,1*%
%TO.N,Y3*%
X50800000Y-46077500D03*
%TO.P,R3,2*%
%TO.N,P3*%
X50800000Y-47902500D03*
%TD*%
%TO.P,R11,1*%
%TO.N,YB*%
X71120000Y-46077500D03*
%TO.P,R11,2*%
%TO.N,PB*%
X71120000Y-47902500D03*
%TD*%
D12*
%TO.P,J0,20,Pin_20*%
%TO.N,PF*%
X86111000Y-50800000D03*
%TO.P,J0,19,Pin_19*%
%TO.N,PE*%
X83571000Y-50800000D03*
%TO.P,J0,18,Pin_18*%
%TO.N,GND*%
X81031000Y-50800000D03*
%TO.P,J0,17,Pin_17*%
%TO.N,PD*%
X78491000Y-50800000D03*
%TO.P,J0,16,Pin_16*%
%TO.N,PC*%
X75951000Y-50800000D03*
%TO.P,J0,15,Pin_15*%
%TO.N,PB*%
X73411000Y-50800000D03*
%TO.P,J0,14,Pin_14*%
%TO.N,PA*%
X70871000Y-50800000D03*
%TO.P,J0,13,Pin_13*%
%TO.N,GND*%
X68331000Y-50800000D03*
%TO.P,J0,12,Pin_12*%
%TO.N,P9*%
X65791000Y-50800000D03*
%TO.P,J0,11,Pin_11*%
%TO.N,P8*%
X63251000Y-50800000D03*
%TO.P,J0,10,Pin_10*%
%TO.N,P7*%
X60711000Y-50800000D03*
%TO.P,J0,9,Pin_9*%
%TO.N,P6*%
X58171000Y-50800000D03*
%TO.P,J0,8,Pin_8*%
%TO.N,GND*%
X55631000Y-50800000D03*
%TO.P,J0,7,Pin_7*%
%TO.N,P5*%
X53091000Y-50800000D03*
%TO.P,J0,6,Pin_6*%
%TO.N,P4*%
X50551000Y-50800000D03*
%TO.P,J0,5,Pin_5*%
%TO.N,P3*%
X48011000Y-50800000D03*
%TO.P,J0,4,Pin_4*%
%TO.N,P2*%
X45471000Y-50800000D03*
%TO.P,J0,3,Pin_3*%
%TO.N,GND*%
X42931000Y-50800000D03*
%TO.P,J0,2,Pin_2*%
%TO.N,P1*%
X40391000Y-50800000D03*
D13*
%TO.P,J0,1,Pin_1*%
%TO.N,P0*%
X37851000Y-50800000D03*
%TD*%
D11*
%TO.P,R6,1*%
%TO.N,Y6*%
X58420000Y-46077500D03*
%TO.P,R6,2*%
%TO.N,P6*%
X58420000Y-47902500D03*
%TD*%
%TO.P,R4,1*%
%TO.N,Y4*%
X53340000Y-46077500D03*
%TO.P,R4,2*%
%TO.N,P4*%
X53340000Y-47902500D03*
%TD*%
%TO.P,R12,1*%
%TO.N,YC*%
X73660000Y-46077500D03*
%TO.P,R12,2*%
%TO.N,PC*%
X73660000Y-47902500D03*
%TD*%
%TO.P,R0,1*%
%TO.N,Y0*%
X43180000Y-46077500D03*
%TO.P,R0,2*%
%TO.N,P0*%
X43180000Y-47902500D03*
%TD*%
%TO.P,R15,1*%
%TO.N,YF*%
X81280000Y-46077500D03*
%TO.P,R15,2*%
%TO.N,PF*%
X81280000Y-47902500D03*
%TD*%
%TO.P,R8,1*%
%TO.N,Y8*%
X63500000Y-46077500D03*
%TO.P,R8,2*%
%TO.N,P8*%
X63500000Y-47902500D03*
%TD*%
%TO.P,R2,1*%
%TO.N,Y2*%
X48260000Y-46077500D03*
%TO.P,R2,2*%
%TO.N,P2*%
X48260000Y-47902500D03*
%TD*%
%TO.P,R10,1*%
%TO.N,YA*%
X68580000Y-46077500D03*
%TO.P,R10,2*%
%TO.N,PA*%
X68580000Y-47902500D03*
%TD*%
%TO.P,R1,1*%
%TO.N,Y1*%
X45720000Y-46077500D03*
%TO.P,R1,2*%
%TO.N,P1*%
X45720000Y-47902500D03*
%TD*%
%TO.P,R5,1*%
%TO.N,Y5*%
X55880000Y-46077500D03*
%TO.P,R5,2*%
%TO.N,P5*%
X55880000Y-47902500D03*
%TD*%
%TO.P,R13,1*%
%TO.N,YD*%
X76200000Y-46077500D03*
%TO.P,R13,2*%
%TO.N,PD*%
X76200000Y-47902500D03*
%TD*%
%TO.P,R14,1*%
%TO.N,YE*%
X78740000Y-46077500D03*
%TO.P,R14,2*%
%TO.N,PE*%
X78740000Y-47902500D03*
%TD*%
%TO.P,R9,1*%
%TO.N,Y9*%
X66040000Y-46077500D03*
%TO.P,R9,2*%
%TO.N,P9*%
X66040000Y-47902500D03*
%TD*%
D14*
%TO.N,GND*%
X85865200Y-32930600D03*
X85839800Y-38645600D03*
%TO.N,Y9*%
X82674000Y-32397200D03*
%TO.N,GND*%
X37960800Y-30949400D03*
%TO.N,P0*%
X62217800Y-48145200D03*
%TO.N,Y8*%
X64707000Y-47688000D03*
%TO.N,Y7*%
X61155003Y-44923995D03*
%TO.N,Y3*%
X57239400Y-45119500D03*
%TO.N,P3*%
X65062600Y-20545500D03*
X46025000Y-21182800D03*
%TO.N,P4*%
X65697600Y-24751800D03*
%TO.N,P3*%
X66220851Y-22880359D03*
%TO.N,Y2*%
X40575500Y-20408400D03*
X40575500Y-44995600D03*
%TO.N,Y3*%
X61815607Y-19601343D03*
%TO.N,Y6*%
X50025800Y-38188400D03*
X54013600Y-38112200D03*
%TO.N,P5*%
X69225000Y-37143800D03*
%TO.N,P6*%
X69228200Y-13345500D03*
X49238400Y-13345500D03*
%TO.N,YC*%
X73647800Y-43573200D03*
%TO.N,P8*%
X73225000Y-41544500D03*
%TO.N,YC*%
X74917800Y-46062400D03*
%TO.N,Y0*%
X44449502Y-16395000D03*
%TO.N,YA*%
X69990200Y-33494500D03*
X69867499Y-45854901D03*
%TO.N,Y9*%
X67247000Y-46113200D03*
%TO.N,Y8*%
X39851000Y-32346400D03*
%TO.N,YB*%
X74044200Y-36395000D03*
X72301600Y-46087800D03*
%TO.N,Y7*%
X66100500Y-28312683D03*
%TO.N,P6*%
X59625000Y-48016200D03*
%TO.N,Y6*%
X59728600Y-45935400D03*
X50000400Y-32434700D03*
%TO.N,YD*%
X77483200Y-46062400D03*
X77962600Y-40395000D03*
%TO.N,Y5*%
X83057000Y-44360600D03*
X81949500Y-24370800D03*
%TO.N,P2*%
X49568600Y-47891200D03*
%TO.N,Y4*%
X46036800Y-24395000D03*
X47130200Y-45989500D03*
%TO.N,Y1*%
X41416172Y-46787675D03*
X41300500Y-18016973D03*
%TO.N,P5*%
X57225000Y-47595000D03*
%TO.N,PD*%
X77225000Y-47995000D03*
%TO.N,PE*%
X80025000Y-47995000D03*
%TO.N,P4*%
X54425000Y-47595000D03*
%TO.N,P3*%
X52025000Y-47595000D03*
%TO.N,P1*%
X46825000Y-47595000D03*
%TO.N,P2*%
X58731018Y-13548009D03*
%TO.N,PF*%
X82332500Y-47902500D03*
X81225000Y-14795000D03*
%TO.N,PE*%
X79625000Y-13995000D03*
%TO.N,PD*%
X78825000Y-15595000D03*
%TO.N,PC*%
X77225000Y-14795000D03*
%TO.N,PB*%
X75625000Y-13995000D03*
%TO.N,PA*%
X74825000Y-15595000D03*
%TO.N,P9*%
X73225000Y-14795000D03*
%TO.N,P8*%
X71625000Y-13995000D03*
%TO.N,P7*%
X70825000Y-15595000D03*
%TO.N,P6*%
X69225000Y-14795000D03*
%TO.N,P5*%
X67625000Y-13995000D03*
%TO.N,P4*%
X66825000Y-15595000D03*
%TO.N,PF*%
X81225000Y-18795000D03*
%TO.N,PE*%
X79625000Y-17995000D03*
%TO.N,PD*%
X78825000Y-19595000D03*
%TO.N,PC*%
X77225000Y-18795000D03*
%TO.N,PB*%
X75625000Y-17995000D03*
%TO.N,PA*%
X74825000Y-19595000D03*
%TO.N,P9*%
X73225000Y-18795000D03*
%TO.N,P8*%
X71625000Y-17995000D03*
%TO.N,P7*%
X70825000Y-19595000D03*
%TO.N,P6*%
X69225000Y-18795000D03*
%TO.N,P5*%
X67625000Y-17995000D03*
%TO.N,P4*%
X66825000Y-19595000D03*
%TO.N,PF*%
X81225000Y-22795000D03*
%TO.N,PE*%
X79625000Y-21995000D03*
%TO.N,PD*%
X78825000Y-23595000D03*
%TO.N,PC*%
X77225000Y-22795000D03*
%TO.N,PB*%
X75625000Y-21995000D03*
%TO.N,PA*%
X74825000Y-23595000D03*
%TO.N,P9*%
X73225000Y-22795000D03*
%TO.N,P8*%
X71625000Y-21995000D03*
%TO.N,P7*%
X70825000Y-23595000D03*
%TO.N,P6*%
X69225000Y-22795000D03*
%TO.N,P4*%
X67625000Y-21995000D03*
%TO.N,PF*%
X81225000Y-26795000D03*
%TO.N,PE*%
X79625000Y-25995000D03*
%TO.N,PD*%
X78825000Y-27595000D03*
%TO.N,PC*%
X77225000Y-26795000D03*
%TO.N,PB*%
X75625000Y-25995000D03*
%TO.N,PA*%
X74825000Y-27595000D03*
%TO.N,P9*%
X73225000Y-26795000D03*
%TO.N,P8*%
X71625000Y-25995000D03*
%TO.N,P6*%
X70825000Y-27595000D03*
%TO.N,P5*%
X69225000Y-26795000D03*
%TO.N,P4*%
X67625000Y-25995000D03*
%TO.N,P3*%
X66825000Y-27595000D03*
%TO.N,PF*%
X81225000Y-30795000D03*
%TO.N,PE*%
X79625000Y-29995000D03*
%TO.N,PD*%
X78825000Y-31595000D03*
%TO.N,PC*%
X77225000Y-30795000D03*
%TO.N,PB*%
X75625000Y-29995000D03*
%TO.N,PA*%
X74825000Y-31595000D03*
%TO.N,P8*%
X73225000Y-30795000D03*
%TO.N,P7*%
X71625000Y-29995000D03*
%TO.N,P6*%
X70825000Y-31595000D03*
%TO.N,P5*%
X69225000Y-30795000D03*
%TO.N,P4*%
X67625000Y-29995000D03*
%TO.N,P3*%
X66825000Y-31595000D03*
%TO.N,PF*%
X81225000Y-34795000D03*
%TO.N,PE*%
X79625000Y-33995000D03*
%TO.N,PD*%
X78825000Y-35595000D03*
%TO.N,PC*%
X77225000Y-34795000D03*
%TO.N,PA*%
X75625000Y-33995000D03*
%TO.N,P9*%
X74825000Y-35595000D03*
%TO.N,P8*%
X73225000Y-34795000D03*
%TO.N,P7*%
X71625000Y-33995000D03*
%TO.N,P6*%
X70825000Y-35595000D03*
%TO.N,P5*%
X69225000Y-34795000D03*
%TO.N,P4*%
X67625000Y-33995000D03*
%TO.N,P3*%
X66825000Y-35595000D03*
%TO.N,PF*%
X81225000Y-38795000D03*
%TO.N,PE*%
X79625000Y-37995000D03*
%TO.N,PC*%
X78825000Y-39595000D03*
%TO.N,PB*%
X77225000Y-38795000D03*
%TO.N,PA*%
X75625000Y-37995000D03*
%TO.N,P9*%
X74825000Y-39595000D03*
%TO.N,P8*%
X73225000Y-38795000D03*
%TO.N,P7*%
X71625000Y-37995000D03*
%TO.N,P6*%
X70825000Y-39595000D03*
%TO.N,P5*%
X69225000Y-38795000D03*
%TO.N,P4*%
X67625000Y-37995000D03*
%TO.N,P3*%
X66825000Y-39595000D03*
%TO.N,PE*%
X81225000Y-42795000D03*
%TO.N,PD*%
X79625000Y-41995000D03*
%TO.N,PC*%
X78825000Y-43595000D03*
%TO.N,PB*%
X77225000Y-42795000D03*
%TO.N,PA*%
X75625000Y-41995000D03*
%TO.N,P9*%
X74825000Y-43595000D03*
%TO.N,P7*%
X71625000Y-41995000D03*
%TO.N,P6*%
X70825000Y-43595000D03*
%TO.N,P5*%
X69225000Y-42795000D03*
%TO.N,P4*%
X67625000Y-41995000D03*
%TO.N,P3*%
X66825000Y-43595000D03*
%TO.N,P2*%
X65225000Y-42795000D03*
%TO.N,P1*%
X63625000Y-41995000D03*
%TO.N,P0*%
X62825000Y-43595000D03*
%TO.N,PF*%
X61225000Y-42795000D03*
%TO.N,PD*%
X59625000Y-41995000D03*
%TO.N,PC*%
X58825000Y-43595000D03*
%TO.N,PB*%
X57225000Y-42795000D03*
%TO.N,PA*%
X55625000Y-41995000D03*
%TO.N,P9*%
X54825000Y-43595000D03*
%TO.N,P8*%
X53225000Y-42795000D03*
%TO.N,P7*%
X51625000Y-41995000D03*
%TO.N,P6*%
X50825000Y-43595000D03*
%TO.N,P2*%
X65225000Y-38795000D03*
%TO.N,P1*%
X63625000Y-37995000D03*
%TO.N,P0*%
X62825000Y-39595000D03*
%TO.N,PF*%
X61225000Y-38795000D03*
%TO.N,PE*%
X59625000Y-37995000D03*
%TO.N,PD*%
X58825000Y-39595000D03*
%TO.N,PB*%
X57225000Y-38795000D03*
%TO.N,PA*%
X55625000Y-37995000D03*
%TO.N,P9*%
X54825000Y-39595000D03*
%TO.N,P8*%
X53225000Y-38795000D03*
%TO.N,P7*%
X51625000Y-37995000D03*
%TO.N,P6*%
X50825000Y-39595000D03*
%TO.N,P2*%
X65225000Y-34795000D03*
%TO.N,P1*%
X63625000Y-33995000D03*
%TO.N,P0*%
X62825000Y-35595000D03*
%TO.N,PF*%
X61225000Y-34795000D03*
%TO.N,PE*%
X59625000Y-33995000D03*
%TO.N,PD*%
X58825000Y-35595000D03*
%TO.N,PC*%
X57225000Y-34795000D03*
%TO.N,PB*%
X55625000Y-33995000D03*
%TO.N,P9*%
X54825000Y-35595000D03*
%TO.N,P8*%
X53225000Y-34795000D03*
%TO.N,P7*%
X51625000Y-33995000D03*
%TO.N,P6*%
X50825000Y-35595000D03*
%TO.N,P2*%
X65225000Y-30795000D03*
%TO.N,P1*%
X63625000Y-29995000D03*
%TO.N,P0*%
X62825000Y-31595000D03*
%TO.N,PF*%
X61225000Y-30795000D03*
%TO.N,PE*%
X59625000Y-29995000D03*
%TO.N,PD*%
X58825000Y-31595000D03*
%TO.N,PC*%
X57225000Y-30795000D03*
%TO.N,PB*%
X55625000Y-29995000D03*
%TO.N,PA*%
X54825000Y-31595000D03*
%TO.N,P9*%
X53225000Y-30795000D03*
%TO.N,P7*%
X51625000Y-29995000D03*
%TO.N,P6*%
X50825000Y-31595000D03*
%TO.N,P2*%
X65225000Y-26795000D03*
%TO.N,P1*%
X63625000Y-25995000D03*
%TO.N,P0*%
X62825000Y-27595000D03*
%TO.N,PF*%
X61225000Y-26795000D03*
%TO.N,PE*%
X59625000Y-25995000D03*
%TO.N,PD*%
X58825000Y-27595000D03*
%TO.N,PC*%
X57225000Y-26795000D03*
%TO.N,PB*%
X55625000Y-25995000D03*
%TO.N,PA*%
X54825000Y-27595000D03*
%TO.N,P9*%
X53225000Y-26795000D03*
%TO.N,P8*%
X51625000Y-25995000D03*
%TO.N,P7*%
X50825000Y-27595000D03*
%TO.N,P2*%
X65225000Y-22795000D03*
%TO.N,P1*%
X63625000Y-21995000D03*
%TO.N,P0*%
X62825000Y-23595000D03*
%TO.N,PF*%
X61225000Y-22795000D03*
%TO.N,PE*%
X59625000Y-21995000D03*
%TO.N,PD*%
X58825000Y-23595000D03*
%TO.N,PC*%
X57225000Y-22795000D03*
%TO.N,PB*%
X55625000Y-21995000D03*
%TO.N,PA*%
X54825000Y-23595000D03*
%TO.N,P9*%
X53225000Y-22795000D03*
%TO.N,P8*%
X51625000Y-21995000D03*
%TO.N,P7*%
X50825000Y-23595000D03*
%TO.N,P2*%
X65225000Y-18795000D03*
%TO.N,P1*%
X63625000Y-17995000D03*
%TO.N,P0*%
X62825000Y-19595000D03*
%TO.N,PF*%
X61225000Y-18795000D03*
%TO.N,PE*%
X59625000Y-17995000D03*
%TO.N,PD*%
X58825000Y-19595000D03*
%TO.N,PC*%
X57225000Y-18795000D03*
%TO.N,PB*%
X55625000Y-17995000D03*
%TO.N,PA*%
X54825000Y-19595000D03*
%TO.N,P9*%
X53225000Y-18795000D03*
%TO.N,P8*%
X51625000Y-17995000D03*
%TO.N,P7*%
X50825000Y-19595000D03*
%TO.N,P3*%
X65225000Y-14795000D03*
%TO.N,P2*%
X63625000Y-13995000D03*
%TO.N,P0*%
X62825000Y-15595000D03*
%TO.N,PF*%
X61225000Y-14795000D03*
%TO.N,PE*%
X59625000Y-13995000D03*
%TO.N,PD*%
X58825000Y-15595000D03*
%TO.N,PC*%
X57225000Y-14795000D03*
%TO.N,PB*%
X55625000Y-13995000D03*
%TO.N,PA*%
X54825000Y-15595000D03*
%TO.N,P9*%
X53225000Y-14795000D03*
%TO.N,P8*%
X51625000Y-13995000D03*
%TO.N,P7*%
X50825000Y-15595000D03*
%TO.N,Y0*%
X42025000Y-45995000D03*
%TO.N,P6*%
X49225000Y-14795000D03*
%TO.N,P5*%
X47625000Y-13995000D03*
%TO.N,P4*%
X46825000Y-15595000D03*
%TO.N,P6*%
X49225000Y-18795000D03*
%TO.N,P5*%
X47625000Y-17995000D03*
%TO.N,P4*%
X46825000Y-19595000D03*
%TO.N,P6*%
X49225000Y-22795000D03*
%TO.N,P5*%
X47625000Y-21995000D03*
%TO.N,P3*%
X46825000Y-23595000D03*
%TO.N,P5*%
X49225000Y-26795000D03*
%TO.N,P4*%
X47625000Y-25995000D03*
%TO.N,P3*%
X46825000Y-27595000D03*
%TO.N,P5*%
X49225000Y-30795000D03*
%TO.N,P4*%
X47625000Y-29995000D03*
%TO.N,P3*%
X46825000Y-31595000D03*
%TO.N,P5*%
X49225000Y-34795000D03*
%TO.N,P4*%
X47625000Y-33995000D03*
%TO.N,P3*%
X46825000Y-35595000D03*
%TO.N,P5*%
X49225000Y-38795000D03*
%TO.N,P4*%
X47625000Y-37995000D03*
%TO.N,P3*%
X46825000Y-39595000D03*
%TO.N,P5*%
X49225000Y-42795000D03*
%TO.N,P4*%
X47625000Y-41995000D03*
%TO.N,P3*%
X46825000Y-43595000D03*
%TO.N,P2*%
X45225000Y-42795000D03*
%TO.N,P1*%
X43625000Y-41995000D03*
%TO.N,P0*%
X42825000Y-43595000D03*
%TO.N,P2*%
X45225000Y-38795000D03*
%TO.N,P1*%
X43625000Y-37995000D03*
%TO.N,P0*%
X42825000Y-39595000D03*
%TO.N,P2*%
X45225000Y-34795000D03*
%TO.N,P1*%
X43625000Y-33995000D03*
%TO.N,P0*%
X42825000Y-35595000D03*
%TO.N,P2*%
X45225000Y-30795000D03*
%TO.N,P1*%
X43625000Y-29995000D03*
%TO.N,P0*%
X42825000Y-31595000D03*
%TO.N,P2*%
X45225000Y-26795000D03*
%TO.N,P1*%
X43625000Y-25995000D03*
%TO.N,P0*%
X42825000Y-27595000D03*
%TO.N,P2*%
X45225000Y-22795000D03*
%TO.N,P1*%
X43625000Y-21995000D03*
%TO.N,P0*%
X42825000Y-23595000D03*
%TO.N,P3*%
X45225000Y-18795000D03*
%TO.N,P1*%
X43625000Y-17995000D03*
%TO.N,P0*%
X42825000Y-19595000D03*
%TO.N,P3*%
X45225000Y-14795000D03*
%TO.N,P2*%
X43625000Y-13995000D03*
%TO.N,P1*%
X42825000Y-15595000D03*
%TD*%
D15*
%TO.N,P0*%
X44902500Y-49625000D02*
X58657701Y-49625000D01*
X43180000Y-47902500D02*
X44902500Y-49625000D01*
X61227200Y-51980600D02*
X60211200Y-51980600D01*
X58657701Y-49625000D02*
X59525400Y-50492699D01*
X59525400Y-50492699D02*
X59525400Y-51294800D01*
X59525400Y-51294800D02*
X60211200Y-51980600D01*
%TO.N,Y9*%
X71970000Y-32320000D02*
X77585800Y-32320000D01*
X77585800Y-32320000D02*
X77150000Y-32320000D01*
X80115000Y-32320000D02*
X77585800Y-32320000D01*
X72395000Y-31895000D02*
X72395000Y-31565000D01*
X71970000Y-32320000D02*
X72395000Y-31895000D01*
X69125600Y-32320000D02*
X71970000Y-32320000D01*
X77150000Y-32320000D02*
X76395000Y-31565000D01*
X80395000Y-31565000D02*
X80395000Y-32040000D01*
X80395000Y-32040000D02*
X80115000Y-32320000D01*
X82674000Y-32397200D02*
X81841800Y-31565000D01*
X81841800Y-31565000D02*
X80395000Y-31565000D01*
%TO.N,P0*%
X62217800Y-48145200D02*
X62076000Y-48287000D01*
X62076000Y-48287000D02*
X62076000Y-51131800D01*
X62076000Y-51131800D02*
X61227200Y-51980600D01*
%TO.N,P7*%
X60711000Y-48151500D02*
X60711000Y-50800000D01*
%TO.N,Y8*%
X63500000Y-46481000D02*
X64707000Y-47688000D01*
X63500000Y-46077500D02*
X63500000Y-46481000D01*
%TO.N,Y5*%
X57745305Y-47090000D02*
X56732805Y-46077500D01*
X61230495Y-47090000D02*
X57745305Y-47090000D01*
X56732805Y-46077500D02*
X55880000Y-46077500D01*
X61880003Y-46440492D02*
X61230495Y-47090000D01*
X61880003Y-45257197D02*
X61880003Y-46440492D01*
X64329000Y-44770000D02*
X62367200Y-44770000D01*
X65683800Y-47090000D02*
X65240000Y-46646200D01*
X82119800Y-47090000D02*
X65683800Y-47090000D01*
X65240000Y-45681000D02*
X64329000Y-44770000D01*
X62367200Y-44770000D02*
X61880003Y-45257197D01*
X83057000Y-46152800D02*
X82119800Y-47090000D01*
X65240000Y-46646200D02*
X65240000Y-45681000D01*
X83057000Y-44360600D02*
X83057000Y-46152800D01*
%TO.N,YE*%
X77927500Y-45265000D02*
X78740000Y-46077500D01*
X71960004Y-45265000D02*
X77927500Y-45265000D01*
X71540004Y-44845000D02*
X71960004Y-45265000D01*
X66391204Y-44845000D02*
X71540004Y-44845000D01*
X65884204Y-44338000D02*
X66391204Y-44845000D01*
X65884204Y-44320000D02*
X65884204Y-44338000D01*
X61576313Y-44320000D02*
X65884204Y-44320000D01*
X61425313Y-44169000D02*
X61576313Y-44320000D01*
X60675502Y-44169000D02*
X61425313Y-44169000D01*
X60449502Y-44395000D02*
X60675502Y-44169000D01*
%TO.N,YF*%
X66577600Y-44377000D02*
X66577600Y-44395000D01*
X65765600Y-43565000D02*
X66577600Y-44377000D01*
X66577600Y-44395000D02*
X68449502Y-44395000D01*
X64395000Y-43565000D02*
X65765600Y-43565000D01*
%TO.N,Y7*%
X60960000Y-45118998D02*
X61155003Y-44923995D01*
X60960000Y-46077500D02*
X60960000Y-45118998D01*
%TO.N,Y3*%
X57239400Y-45119500D02*
X51758000Y-45119500D01*
X51758000Y-45119500D02*
X50800000Y-46077500D01*
%TO.N,P0*%
X40748500Y-47902500D02*
X37851000Y-50800000D01*
X43180000Y-47902500D02*
X40748500Y-47902500D01*
%TO.N,P1*%
X63614200Y-29984200D02*
X63625000Y-29995000D01*
X50491596Y-33609200D02*
X51280796Y-32820000D01*
X48393000Y-33609200D02*
X50491596Y-33609200D01*
X63157600Y-29984200D02*
X63614200Y-29984200D01*
X48053800Y-33270000D02*
X48393000Y-33609200D01*
X60321800Y-32820000D02*
X63157600Y-29984200D01*
X44350000Y-33270000D02*
X48053800Y-33270000D01*
X51280796Y-32820000D02*
X60321800Y-32820000D01*
X43625000Y-33995000D02*
X44350000Y-33270000D01*
%TO.N,P9*%
X74825000Y-35369695D02*
X74825000Y-35595000D01*
X73524852Y-34069548D02*
X74825000Y-35369695D01*
X73524400Y-34070000D02*
X73524852Y-34069548D01*
X72933000Y-34070000D02*
X73524400Y-34070000D01*
X71633000Y-32770000D02*
X72933000Y-34070000D01*
X65826604Y-32320000D02*
X66276604Y-32770000D01*
X60631600Y-33270000D02*
X61581600Y-32320000D01*
X55324695Y-33270000D02*
X60631600Y-33270000D01*
X54825000Y-33769695D02*
X55324695Y-33270000D01*
X54825000Y-35595000D02*
X54825000Y-33769695D01*
X66276604Y-32770000D02*
X71633000Y-32770000D01*
X61581600Y-32320000D02*
X65826604Y-32320000D01*
%TO.N,Y8*%
X55970000Y-32320000D02*
X56395000Y-31895000D01*
X52395000Y-31565000D02*
X53150000Y-32320000D01*
X53150000Y-32320000D02*
X55970000Y-32320000D01*
X56395000Y-31565000D02*
X56395000Y-31895000D01*
X60115000Y-32320000D02*
X58076600Y-32320000D01*
X60395000Y-32040000D02*
X60115000Y-32320000D01*
X57321600Y-31565000D02*
X56395000Y-31565000D01*
X60395000Y-31565000D02*
X60395000Y-32040000D01*
X58076600Y-32320000D02*
X57321600Y-31565000D01*
X52395000Y-31889502D02*
X52169502Y-32115000D01*
X52395000Y-31565000D02*
X52395000Y-31889502D01*
X51349400Y-32115000D02*
X52169502Y-32115000D01*
X50305200Y-33159200D02*
X51349400Y-32115000D01*
X49213000Y-33159200D02*
X50305200Y-33159200D01*
X48449502Y-32395702D02*
X49213000Y-33159200D01*
X48449502Y-32395000D02*
X48449502Y-32395702D01*
%TO.N,P3*%
X46387800Y-20820000D02*
X64788100Y-20820000D01*
X64788100Y-20820000D02*
X65062600Y-20545500D01*
%TO.N,Y3*%
X64395000Y-19565000D02*
X65691400Y-19565000D01*
X66446400Y-20320000D02*
X67780800Y-20320000D01*
X65691400Y-19565000D02*
X66446400Y-20320000D01*
%TO.N,P3*%
X46025000Y-21182800D02*
X46387800Y-20820000D01*
%TO.N,P4*%
X48800000Y-24820000D02*
X47625000Y-25995000D01*
X65697600Y-24751800D02*
X65629400Y-24820000D01*
X65629400Y-24820000D02*
X48800000Y-24820000D01*
%TO.N,Y5*%
X66791000Y-24395000D02*
X68896800Y-24395000D01*
X68896800Y-24395000D02*
X72449502Y-24395000D01*
X68449502Y-24395000D02*
X68896800Y-24395000D01*
X65961000Y-23565000D02*
X66791000Y-24395000D01*
X64395000Y-23565000D02*
X65961000Y-23565000D01*
%TO.N,P3*%
X66905492Y-23565000D02*
X66220851Y-22880359D01*
X67625000Y-23565000D02*
X66905492Y-23565000D01*
%TO.N,PC*%
X77225000Y-26569695D02*
X77225000Y-26795000D01*
X75925305Y-25270000D02*
X77225000Y-26569695D01*
X64755200Y-26070000D02*
X66431800Y-26070000D01*
X66431800Y-26070000D02*
X67231800Y-25270000D01*
X63955200Y-25270000D02*
X64755200Y-26070000D01*
X58750000Y-25270000D02*
X63955200Y-25270000D01*
X57225000Y-26795000D02*
X58750000Y-25270000D01*
X67231800Y-25270000D02*
X75925305Y-25270000D01*
%TO.N,Y2*%
X45061600Y-20408400D02*
X45150000Y-20320000D01*
X40575500Y-20408400D02*
X45061600Y-20408400D01*
X47178100Y-44995600D02*
X40575500Y-44995600D01*
X48260000Y-46077500D02*
X47178100Y-44995600D01*
%TO.N,Y4*%
X52395000Y-23565000D02*
X53150000Y-24320000D01*
X49150000Y-24320000D02*
X53150000Y-24320000D01*
X59970000Y-24320000D02*
X53150000Y-24320000D01*
X60395000Y-23895000D02*
X60395000Y-23565000D01*
X59970000Y-24320000D02*
X60395000Y-23895000D01*
X56395000Y-23565000D02*
X57150000Y-24320000D01*
X57150000Y-24320000D02*
X59970000Y-24320000D01*
X45206800Y-23565000D02*
X46036800Y-24395000D01*
X44395000Y-23565000D02*
X45206800Y-23565000D01*
X48395000Y-23565000D02*
X49150000Y-24320000D01*
X48395000Y-23895000D02*
X48395000Y-23565000D01*
X47895000Y-24395000D02*
X48395000Y-23895000D01*
X46036800Y-24395000D02*
X47895000Y-24395000D01*
%TO.N,Y3*%
X80395000Y-19895000D02*
X80395000Y-19565000D01*
X79970000Y-20320000D02*
X80395000Y-19895000D01*
X77150000Y-20320000D02*
X79970000Y-20320000D01*
X76395000Y-19565000D02*
X77150000Y-20320000D01*
X76395000Y-19896400D02*
X76395000Y-19565000D01*
X75971400Y-20320000D02*
X76395000Y-19896400D01*
X73150000Y-20320000D02*
X75971400Y-20320000D01*
X72395000Y-19565000D02*
X73150000Y-20320000D01*
X72395000Y-19895000D02*
X72395000Y-19565000D01*
X71970000Y-20320000D02*
X72395000Y-19895000D01*
X68395000Y-19565000D02*
X69150000Y-20320000D01*
X69150000Y-20320000D02*
X71970000Y-20320000D01*
X67780800Y-20320000D02*
X68395000Y-19705800D01*
X68395000Y-19705800D02*
X68395000Y-19565000D01*
X64395000Y-19729800D02*
X64395000Y-19565000D01*
X63804800Y-20320000D02*
X64395000Y-19729800D01*
X61815607Y-19601343D02*
X61815607Y-19610912D01*
X62524695Y-20320000D02*
X63804800Y-20320000D01*
X61815607Y-19610912D02*
X62524695Y-20320000D01*
%TO.N,PD*%
X78825000Y-23121800D02*
X78825000Y-23595000D01*
X59324695Y-21270000D02*
X76973200Y-21270000D01*
X58825000Y-21769695D02*
X59324695Y-21270000D01*
X58825000Y-23595000D02*
X58825000Y-21769695D01*
X76973200Y-21270000D02*
X78825000Y-23121800D01*
%TO.N,Y2*%
X45150000Y-20320000D02*
X44395000Y-19565000D01*
X49150000Y-20320000D02*
X45150000Y-20320000D01*
X53150000Y-20320000D02*
X49150000Y-20320000D01*
X49150000Y-20320000D02*
X48395000Y-19565000D01*
X53150000Y-20320000D02*
X52395000Y-19565000D01*
X57150000Y-20320000D02*
X53150000Y-20320000D01*
X57150000Y-20320000D02*
X56395000Y-19565000D01*
X59970000Y-20320000D02*
X57150000Y-20320000D01*
X60395000Y-19895000D02*
X59970000Y-20320000D01*
X60395000Y-19565000D02*
X60395000Y-19895000D01*
%TO.N,P5*%
X48395000Y-38501800D02*
X48395000Y-38795000D01*
X56456000Y-36798600D02*
X50098200Y-36798600D01*
X56477400Y-36820000D02*
X56456000Y-36798600D01*
X68901200Y-36820000D02*
X56477400Y-36820000D01*
X50098200Y-36798600D02*
X48395000Y-38501800D01*
X69225000Y-37143800D02*
X68901200Y-36820000D01*
%TO.N,Y6*%
X50025800Y-38188400D02*
X50965600Y-37248600D01*
X50965600Y-37248600D02*
X53150000Y-37248600D01*
X53150000Y-37248600D02*
X54013600Y-38112200D01*
%TO.N,YA*%
X56422400Y-35565000D02*
X57177400Y-36320000D01*
X57177400Y-36320000D02*
X59970000Y-36320000D01*
X53186600Y-36320000D02*
X57177400Y-36320000D01*
X52431600Y-35565000D02*
X53186600Y-36320000D01*
X49125600Y-36320000D02*
X53186600Y-36320000D01*
X48395000Y-35589400D02*
X49125600Y-36320000D01*
X45150000Y-36320000D02*
X49125600Y-36320000D01*
X59970000Y-36320000D02*
X60395000Y-35895000D01*
X44395000Y-35565000D02*
X45150000Y-36320000D01*
%TO.N,YB*%
X69225000Y-36395000D02*
X72449502Y-36395000D01*
X68395000Y-35565000D02*
X69225000Y-36395000D01*
X68395000Y-35895000D02*
X68395000Y-35565000D01*
X65150000Y-36320000D02*
X67970000Y-36320000D01*
X67970000Y-36320000D02*
X68395000Y-35895000D01*
X64395000Y-35565000D02*
X65150000Y-36320000D01*
%TO.N,PA*%
X74900000Y-37270000D02*
X75625000Y-37995000D01*
X71256200Y-37270000D02*
X74900000Y-37270000D01*
X71256200Y-37278000D02*
X71256200Y-37270000D01*
X70464200Y-38070000D02*
X71256200Y-37278000D01*
X68725305Y-38070000D02*
X70464200Y-38070000D01*
X67925305Y-37270000D02*
X68725305Y-38070000D01*
X56350000Y-37270000D02*
X67925305Y-37270000D01*
X55625000Y-37995000D02*
X56350000Y-37270000D01*
%TO.N,YA*%
X60395000Y-35565000D02*
X60395000Y-35895000D01*
%TO.N,Y6*%
X60040000Y-28395000D02*
X56449502Y-28395000D01*
X60395000Y-27565000D02*
X60395000Y-28040000D01*
X60395000Y-28040000D02*
X60040000Y-28395000D01*
%TO.N,P6*%
X69228200Y-13345500D02*
X68627700Y-12745000D01*
X68627700Y-12745000D02*
X49838900Y-12745000D01*
%TO.N,PE*%
X78825000Y-13195000D02*
X79625000Y-13995000D01*
X71399695Y-13195000D02*
X78825000Y-13195000D01*
X70524695Y-14070000D02*
X71399695Y-13195000D01*
X68725305Y-14070000D02*
X70524695Y-14070000D01*
X67850305Y-13195000D02*
X68725305Y-14070000D01*
X60425000Y-13195000D02*
X67850305Y-13195000D01*
X59625000Y-13995000D02*
X60425000Y-13195000D01*
%TO.N,P6*%
X49238400Y-13345500D02*
X49838900Y-12745000D01*
%TO.N,P2*%
X58453009Y-13270000D02*
X58731018Y-13548009D01*
X51294800Y-13270000D02*
X58453009Y-13270000D01*
X47925305Y-13270000D02*
X48725305Y-14070000D01*
X48725305Y-14070000D02*
X50494800Y-14070000D01*
X50494800Y-14070000D02*
X51294800Y-13270000D01*
X43625000Y-13995000D02*
X44350000Y-13270000D01*
X44350000Y-13270000D02*
X47925305Y-13270000D01*
%TO.N,YC*%
X73950000Y-41244195D02*
X73525805Y-40820000D01*
X73950000Y-43271000D02*
X73950000Y-41244195D01*
X73647800Y-43573200D02*
X73950000Y-43271000D01*
%TO.N,P8*%
X72590194Y-41544500D02*
X73225000Y-41544500D01*
X72395000Y-41739694D02*
X72590194Y-41544500D01*
X71925306Y-41270000D02*
X72395000Y-41739694D01*
X72395000Y-42795000D02*
X72395000Y-41739694D01*
%TO.N,YF*%
X72146400Y-44815000D02*
X71726400Y-44395000D01*
X71378200Y-44395000D02*
X71784600Y-44395000D01*
X71726400Y-44395000D02*
X71378200Y-44395000D01*
X68449502Y-44395000D02*
X71378200Y-44395000D01*
X76408200Y-43565000D02*
X77658200Y-44815000D01*
X77658200Y-44815000D02*
X80017500Y-44815000D01*
X72146400Y-44815000D02*
X77658200Y-44815000D01*
X80017500Y-44525000D02*
X80395000Y-44147500D01*
X80017500Y-44815000D02*
X80017500Y-44525000D01*
%TO.N,YC*%
X74902700Y-46077500D02*
X74917800Y-46062400D01*
X73660000Y-46077500D02*
X74902700Y-46077500D01*
%TO.N,PA*%
X68580000Y-47902500D02*
X68580000Y-48509000D01*
X68580000Y-48509000D02*
X70871000Y-50800000D01*
%TO.N,PB*%
X71120000Y-48509000D02*
X73411000Y-50800000D01*
X71120000Y-47902500D02*
X71120000Y-48509000D01*
%TO.N,PC*%
X73660000Y-48509000D02*
X75951000Y-50800000D01*
X73660000Y-47902500D02*
X73660000Y-48509000D01*
%TO.N,YF*%
X80395000Y-43565000D02*
X80395000Y-44147500D01*
X80017500Y-44815000D02*
X81280000Y-46077500D01*
X72395000Y-43784600D02*
X71784600Y-44395000D01*
X72395000Y-43565000D02*
X72395000Y-43784600D01*
%TO.N,YC*%
X60470000Y-40820000D02*
X73525805Y-40820000D01*
X59970000Y-40320000D02*
X60470000Y-40820000D01*
%TO.N,YD*%
X69150000Y-40320000D02*
X69251600Y-40320000D01*
X68395000Y-39565000D02*
X69150000Y-40320000D01*
X69251600Y-40320000D02*
X73214000Y-40320000D01*
X65150000Y-40320000D02*
X69251600Y-40320000D01*
X72459000Y-39565000D02*
X73214000Y-40320000D01*
X73214000Y-40320000D02*
X75970000Y-40320000D01*
X77132600Y-39565000D02*
X77962600Y-40395000D01*
X76395000Y-39565000D02*
X77132600Y-39565000D01*
X76395000Y-39895000D02*
X76395000Y-39565000D01*
X75970000Y-40320000D02*
X76395000Y-39895000D01*
X64395000Y-39565000D02*
X65150000Y-40320000D01*
%TO.N,YC*%
X56395000Y-39565000D02*
X56395000Y-39676800D01*
X57038200Y-40320000D02*
X59970000Y-40320000D01*
X52999600Y-40320000D02*
X57038200Y-40320000D01*
X56395000Y-39676800D02*
X57038200Y-40320000D01*
X52395000Y-39565000D02*
X52395000Y-39715400D01*
X52395000Y-39715400D02*
X52999600Y-40320000D01*
X49138800Y-40320000D02*
X52999600Y-40320000D01*
X48395000Y-39576200D02*
X49138800Y-40320000D01*
X45150000Y-40320000D02*
X49138800Y-40320000D01*
X60395000Y-39895000D02*
X60395000Y-39565000D01*
X59970000Y-40320000D02*
X60395000Y-39895000D01*
X44395000Y-39565000D02*
X45150000Y-40320000D01*
%TO.N,P8*%
X54750000Y-41270000D02*
X71925306Y-41270000D01*
X53225000Y-42795000D02*
X54750000Y-41270000D01*
%TO.N,Y0*%
X48449502Y-16395000D02*
X52449502Y-16395000D01*
X48395000Y-15565000D02*
X48395000Y-16340498D01*
X48395000Y-16340498D02*
X48449502Y-16395000D01*
%TO.N,YA*%
X63324695Y-33270000D02*
X69765700Y-33270000D01*
X62878200Y-34317105D02*
X62878200Y-33716495D01*
X62878200Y-33716495D02*
X63324695Y-33270000D01*
X69765700Y-33270000D02*
X69990200Y-33494500D01*
%TO.N,Y9*%
X68395000Y-31589400D02*
X69125600Y-32320000D01*
X65708000Y-31565000D02*
X64395000Y-31565000D01*
X69125600Y-32320000D02*
X66463000Y-32320000D01*
X66463000Y-32320000D02*
X65708000Y-31565000D01*
%TO.N,YA*%
X61630305Y-35565000D02*
X62852800Y-34342505D01*
X60395000Y-35565000D02*
X61630305Y-35565000D01*
X62852800Y-34342505D02*
X62878200Y-34317105D01*
X69644900Y-46077500D02*
X69867499Y-45854901D01*
X68580000Y-46077500D02*
X69644900Y-46077500D01*
%TO.N,Y9*%
X67211300Y-46077500D02*
X67247000Y-46113200D01*
X66040000Y-46077500D02*
X67211300Y-46077500D01*
%TO.N,P9*%
X65791000Y-48151500D02*
X65791000Y-50800000D01*
%TO.N,P8*%
X63251000Y-48151500D02*
X63251000Y-50800000D01*
%TO.N,Y8*%
X39899600Y-32395000D02*
X39851000Y-32346400D01*
X44449502Y-32395000D02*
X39899600Y-32395000D01*
%TO.N,YB*%
X72449502Y-36395000D02*
X74044200Y-36395000D01*
X74044200Y-36395000D02*
X76449502Y-36395000D01*
X72291300Y-46077500D02*
X72301600Y-46087800D01*
X71120000Y-46077500D02*
X72291300Y-46077500D01*
%TO.N,P6*%
X59511300Y-47902500D02*
X59625000Y-48016200D01*
X58420000Y-47902500D02*
X59511300Y-47902500D01*
%TO.N,Y6*%
X59728600Y-45935400D02*
X58562100Y-45935400D01*
X50000400Y-30594295D02*
X50000400Y-32434700D01*
X52199695Y-28395000D02*
X50000400Y-30594295D01*
X52449502Y-28395000D02*
X52199695Y-28395000D01*
%TO.N,YD*%
X80449502Y-40395000D02*
X77962600Y-40395000D01*
X77468100Y-46077500D02*
X77483200Y-46062400D01*
X76200000Y-46077500D02*
X77468100Y-46077500D01*
%TO.N,Y5*%
X81925300Y-24395000D02*
X81949500Y-24370800D01*
X80449502Y-24395000D02*
X81925300Y-24395000D01*
%TO.N,P2*%
X49557300Y-47902500D02*
X49568600Y-47891200D01*
X48260000Y-47902500D02*
X49557300Y-47902500D01*
%TO.N,Y4*%
X52517195Y-46077500D02*
X53340000Y-46077500D01*
X51516295Y-47078400D02*
X52517195Y-46077500D01*
X47977905Y-47078400D02*
X51516295Y-47078400D01*
X47130200Y-46230695D02*
X47977905Y-47078400D01*
X47130200Y-45989500D02*
X47130200Y-46230695D01*
%TO.N,Y1*%
X41518497Y-46890000D02*
X41416172Y-46787675D01*
X43650495Y-46890000D02*
X41518497Y-46890000D01*
X44462995Y-46077500D02*
X43650495Y-46890000D01*
X45720000Y-46077500D02*
X44462995Y-46077500D01*
X42197473Y-17120000D02*
X41300500Y-18016973D01*
X60749807Y-17120000D02*
X42197473Y-17120000D01*
X61474807Y-16395000D02*
X60749807Y-17120000D01*
X64449502Y-16395000D02*
X61474807Y-16395000D01*
%TO.N,P5*%
X57225000Y-47595000D02*
X56917500Y-47902500D01*
X56917500Y-47902500D02*
X55880000Y-47902500D01*
%TO.N,PD*%
X77132500Y-47902500D02*
X77225000Y-47995000D01*
X76200000Y-47902500D02*
X77132500Y-47902500D01*
%TO.N,PE*%
X79932500Y-47902500D02*
X80025000Y-47995000D01*
X78740000Y-47902500D02*
X79932500Y-47902500D01*
%TO.N,P4*%
X54117500Y-47902500D02*
X53340000Y-47902500D01*
X54425000Y-47595000D02*
X54117500Y-47902500D01*
%TO.N,P3*%
X51717500Y-47902500D02*
X50800000Y-47902500D01*
X52025000Y-47595000D02*
X51717500Y-47902500D01*
%TO.N,P1*%
X46517500Y-47902500D02*
X45720000Y-47902500D01*
X46825000Y-47595000D02*
X46517500Y-47902500D01*
%TO.N,PB*%
X56500000Y-29120000D02*
X55625000Y-29995000D01*
X74750000Y-29120000D02*
X56500000Y-29120000D01*
X75625000Y-29995000D02*
X74750000Y-29120000D01*
%TO.N,PF*%
X62825000Y-17195000D02*
X80025000Y-17195000D01*
X81225000Y-18395000D02*
X81225000Y-18795000D01*
X61225000Y-18795000D02*
X62825000Y-17195000D01*
X80025000Y-17195000D02*
X81225000Y-18395000D01*
X81280000Y-47902500D02*
X82332500Y-47902500D01*
X80395000Y-14795000D02*
X81225000Y-14795000D01*
%TO.N,PE*%
X79625000Y-14795000D02*
X79625000Y-13995000D01*
%TO.N,PD*%
X78855000Y-15565000D02*
X78825000Y-15595000D01*
X79625000Y-15565000D02*
X78855000Y-15565000D01*
%TO.N,PC*%
X76395000Y-14795000D02*
X77225000Y-14795000D01*
%TO.N,PB*%
X75625000Y-14795000D02*
X75625000Y-13995000D01*
%TO.N,PA*%
X74855000Y-15565000D02*
X74825000Y-15595000D01*
X75625000Y-15565000D02*
X74855000Y-15565000D01*
%TO.N,P9*%
X72395000Y-14795000D02*
X73225000Y-14795000D01*
%TO.N,P8*%
X71625000Y-14795000D02*
X71625000Y-13995000D01*
%TO.N,P7*%
X70855000Y-15565000D02*
X70825000Y-15595000D01*
X71625000Y-15565000D02*
X70855000Y-15565000D01*
%TO.N,P6*%
X68395000Y-14795000D02*
X69225000Y-14795000D01*
%TO.N,P5*%
X67625000Y-14795000D02*
X67625000Y-13995000D01*
%TO.N,P4*%
X66855000Y-15565000D02*
X66825000Y-15595000D01*
X67625000Y-15565000D02*
X66855000Y-15565000D01*
%TO.N,PF*%
X80395000Y-18795000D02*
X81225000Y-18795000D01*
%TO.N,PE*%
X79625000Y-18795000D02*
X79625000Y-17995000D01*
%TO.N,PD*%
X78855000Y-19565000D02*
X78825000Y-19595000D01*
X79625000Y-19565000D02*
X78855000Y-19565000D01*
%TO.N,PC*%
X76395000Y-18795000D02*
X77225000Y-18795000D01*
%TO.N,PB*%
X75625000Y-18795000D02*
X75625000Y-17995000D01*
%TO.N,PA*%
X74855000Y-19565000D02*
X74825000Y-19595000D01*
X75625000Y-19565000D02*
X74855000Y-19565000D01*
%TO.N,P9*%
X72395000Y-18795000D02*
X73225000Y-18795000D01*
%TO.N,P8*%
X71625000Y-18795000D02*
X71625000Y-17995000D01*
%TO.N,P7*%
X70855000Y-19565000D02*
X70825000Y-19595000D01*
X71625000Y-19565000D02*
X70855000Y-19565000D01*
%TO.N,P6*%
X68395000Y-18795000D02*
X69225000Y-18795000D01*
%TO.N,P5*%
X67625000Y-18795000D02*
X67625000Y-17995000D01*
%TO.N,P4*%
X66855000Y-19565000D02*
X66825000Y-19595000D01*
X67625000Y-19565000D02*
X66855000Y-19565000D01*
%TO.N,PF*%
X80395000Y-22795000D02*
X81225000Y-22795000D01*
%TO.N,PE*%
X79625000Y-22795000D02*
X79625000Y-21995000D01*
%TO.N,PD*%
X78855000Y-23565000D02*
X78825000Y-23595000D01*
X79625000Y-23565000D02*
X78855000Y-23565000D01*
%TO.N,PC*%
X76395000Y-22795000D02*
X77225000Y-22795000D01*
%TO.N,PB*%
X75625000Y-22795000D02*
X75625000Y-21995000D01*
%TO.N,PA*%
X74855000Y-23565000D02*
X74825000Y-23595000D01*
X75625000Y-23565000D02*
X74855000Y-23565000D01*
%TO.N,P9*%
X72395000Y-22795000D02*
X73225000Y-22795000D01*
%TO.N,P8*%
X71625000Y-22795000D02*
X71625000Y-21995000D01*
%TO.N,P7*%
X70855000Y-23565000D02*
X70825000Y-23595000D01*
X71625000Y-23565000D02*
X70855000Y-23565000D01*
%TO.N,P6*%
X68395000Y-22795000D02*
X69225000Y-22795000D01*
%TO.N,P4*%
X67625000Y-22795000D02*
X67625000Y-21995000D01*
%TO.N,PF*%
X80395000Y-26795000D02*
X81225000Y-26795000D01*
%TO.N,PE*%
X79625000Y-26795000D02*
X79625000Y-25995000D01*
%TO.N,PD*%
X78855000Y-27565000D02*
X78825000Y-27595000D01*
X79625000Y-27565000D02*
X78855000Y-27565000D01*
%TO.N,PC*%
X76395000Y-26795000D02*
X77225000Y-26795000D01*
%TO.N,PB*%
X75625000Y-26795000D02*
X75625000Y-25995000D01*
%TO.N,PA*%
X74855000Y-27565000D02*
X74825000Y-27595000D01*
X75625000Y-27565000D02*
X74855000Y-27565000D01*
%TO.N,P9*%
X72395000Y-26795000D02*
X73225000Y-26795000D01*
%TO.N,P8*%
X71625000Y-26795000D02*
X71625000Y-25995000D01*
%TO.N,P6*%
X70855000Y-27565000D02*
X70825000Y-27595000D01*
X71625000Y-27565000D02*
X70855000Y-27565000D01*
%TO.N,P5*%
X68395000Y-26795000D02*
X69225000Y-26795000D01*
%TO.N,P4*%
X67625000Y-26795000D02*
X67625000Y-25995000D01*
%TO.N,P3*%
X66855000Y-27565000D02*
X66825000Y-27595000D01*
X67625000Y-27565000D02*
X66855000Y-27565000D01*
%TO.N,PF*%
X80395000Y-30795000D02*
X81225000Y-30795000D01*
%TO.N,PE*%
X79625000Y-30795000D02*
X79625000Y-29995000D01*
%TO.N,PD*%
X78855000Y-31565000D02*
X78825000Y-31595000D01*
X79625000Y-31565000D02*
X78855000Y-31565000D01*
%TO.N,PC*%
X76395000Y-30795000D02*
X77225000Y-30795000D01*
%TO.N,PB*%
X75625000Y-30795000D02*
X75625000Y-29995000D01*
%TO.N,PA*%
X74855000Y-31565000D02*
X74825000Y-31595000D01*
X75625000Y-31565000D02*
X74855000Y-31565000D01*
%TO.N,P8*%
X72395000Y-30795000D02*
X73225000Y-30795000D01*
%TO.N,P7*%
X71625000Y-30795000D02*
X71625000Y-29995000D01*
%TO.N,P6*%
X70855000Y-31565000D02*
X70825000Y-31595000D01*
X71625000Y-31565000D02*
X70855000Y-31565000D01*
%TO.N,P5*%
X68395000Y-30795000D02*
X69225000Y-30795000D01*
%TO.N,P4*%
X67625000Y-30795000D02*
X67625000Y-29995000D01*
%TO.N,P3*%
X66855000Y-31565000D02*
X66825000Y-31595000D01*
X67625000Y-31565000D02*
X66855000Y-31565000D01*
%TO.N,PF*%
X80395000Y-34795000D02*
X81225000Y-34795000D01*
%TO.N,PE*%
X79625000Y-34795000D02*
X79625000Y-33995000D01*
%TO.N,PD*%
X78855000Y-35565000D02*
X78825000Y-35595000D01*
X79625000Y-35565000D02*
X78855000Y-35565000D01*
%TO.N,PC*%
X76395000Y-34795000D02*
X77225000Y-34795000D01*
%TO.N,PA*%
X75625000Y-34795000D02*
X75625000Y-33995000D01*
%TO.N,P9*%
X74855000Y-35565000D02*
X74825000Y-35595000D01*
X75625000Y-35565000D02*
X74855000Y-35565000D01*
%TO.N,P8*%
X72395000Y-34795000D02*
X73225000Y-34795000D01*
%TO.N,P7*%
X71625000Y-34795000D02*
X71625000Y-33995000D01*
%TO.N,P6*%
X70855000Y-35565000D02*
X70825000Y-35595000D01*
X71625000Y-35565000D02*
X70855000Y-35565000D01*
%TO.N,P5*%
X68395000Y-34795000D02*
X69225000Y-34795000D01*
%TO.N,P4*%
X67625000Y-34795000D02*
X67625000Y-33995000D01*
%TO.N,P3*%
X66855000Y-35565000D02*
X66825000Y-35595000D01*
X67625000Y-35565000D02*
X66855000Y-35565000D01*
%TO.N,PF*%
X80395000Y-38795000D02*
X81225000Y-38795000D01*
%TO.N,PE*%
X79625000Y-38795000D02*
X79625000Y-37995000D01*
%TO.N,PC*%
X78855000Y-39565000D02*
X78825000Y-39595000D01*
X79625000Y-39565000D02*
X78855000Y-39565000D01*
%TO.N,PB*%
X76395000Y-38795000D02*
X77225000Y-38795000D01*
%TO.N,PA*%
X75625000Y-38795000D02*
X75625000Y-37995000D01*
%TO.N,P9*%
X74855000Y-39565000D02*
X74825000Y-39595000D01*
X75625000Y-39565000D02*
X74855000Y-39565000D01*
%TO.N,P8*%
X72395000Y-38795000D02*
X73225000Y-38795000D01*
%TO.N,P7*%
X71625000Y-38795000D02*
X71625000Y-37995000D01*
%TO.N,P6*%
X70855000Y-39565000D02*
X70825000Y-39595000D01*
X71625000Y-39565000D02*
X70855000Y-39565000D01*
%TO.N,P5*%
X68395000Y-38795000D02*
X69225000Y-38795000D01*
%TO.N,P4*%
X67625000Y-38795000D02*
X67625000Y-37995000D01*
%TO.N,P3*%
X66855000Y-39565000D02*
X66825000Y-39595000D01*
X67625000Y-39565000D02*
X66855000Y-39565000D01*
%TO.N,PE*%
X80395000Y-42795000D02*
X81225000Y-42795000D01*
%TO.N,PD*%
X79625000Y-42795000D02*
X79625000Y-41995000D01*
%TO.N,PC*%
X78855000Y-43565000D02*
X78825000Y-43595000D01*
X79625000Y-43565000D02*
X78855000Y-43565000D01*
%TO.N,PB*%
X76395000Y-42795000D02*
X77225000Y-42795000D01*
%TO.N,PA*%
X75625000Y-42795000D02*
X75625000Y-41995000D01*
%TO.N,P9*%
X74855000Y-43565000D02*
X74825000Y-43595000D01*
X75625000Y-43565000D02*
X74855000Y-43565000D01*
%TO.N,P7*%
X71625000Y-42795000D02*
X71625000Y-41995000D01*
%TO.N,P6*%
X70855000Y-43565000D02*
X70825000Y-43595000D01*
X71625000Y-43565000D02*
X70855000Y-43565000D01*
%TO.N,P5*%
X68395000Y-42795000D02*
X69225000Y-42795000D01*
%TO.N,P4*%
X67625000Y-42795000D02*
X67625000Y-41995000D01*
%TO.N,P3*%
X66855000Y-43565000D02*
X66825000Y-43595000D01*
X67625000Y-43565000D02*
X66855000Y-43565000D01*
%TO.N,P2*%
X64395000Y-42795000D02*
X65225000Y-42795000D01*
%TO.N,P1*%
X63625000Y-42795000D02*
X63625000Y-41995000D01*
%TO.N,P0*%
X62855000Y-43565000D02*
X62825000Y-43595000D01*
X63625000Y-43565000D02*
X62855000Y-43565000D01*
%TO.N,PF*%
X60395000Y-42795000D02*
X61225000Y-42795000D01*
%TO.N,PD*%
X59625000Y-42795000D02*
X59625000Y-41995000D01*
%TO.N,PC*%
X58855000Y-43565000D02*
X58825000Y-43595000D01*
X59625000Y-43565000D02*
X58855000Y-43565000D01*
%TO.N,PB*%
X56395000Y-42795000D02*
X57225000Y-42795000D01*
%TO.N,PA*%
X55625000Y-42795000D02*
X55625000Y-41995000D01*
%TO.N,P9*%
X54855000Y-43565000D02*
X54825000Y-43595000D01*
X55625000Y-43565000D02*
X54855000Y-43565000D01*
%TO.N,P8*%
X52395000Y-42795000D02*
X53225000Y-42795000D01*
%TO.N,P7*%
X51625000Y-42795000D02*
X51625000Y-41995000D01*
%TO.N,P6*%
X50855000Y-43565000D02*
X50825000Y-43595000D01*
X51625000Y-43565000D02*
X50855000Y-43565000D01*
%TO.N,P2*%
X64395000Y-38795000D02*
X65225000Y-38795000D01*
%TO.N,P1*%
X63625000Y-38795000D02*
X63625000Y-37995000D01*
%TO.N,P0*%
X62855000Y-39565000D02*
X62825000Y-39595000D01*
X63625000Y-39565000D02*
X62855000Y-39565000D01*
%TO.N,PF*%
X60395000Y-38795000D02*
X61225000Y-38795000D01*
%TO.N,PE*%
X59625000Y-38795000D02*
X59625000Y-37995000D01*
%TO.N,PD*%
X58855000Y-39565000D02*
X58825000Y-39595000D01*
X59625000Y-39565000D02*
X58855000Y-39565000D01*
%TO.N,PB*%
X56395000Y-38795000D02*
X57225000Y-38795000D01*
%TO.N,PA*%
X55625000Y-38795000D02*
X55625000Y-37995000D01*
%TO.N,P9*%
X54855000Y-39565000D02*
X54825000Y-39595000D01*
X55625000Y-39565000D02*
X54855000Y-39565000D01*
%TO.N,P8*%
X52395000Y-38795000D02*
X53225000Y-38795000D01*
%TO.N,P7*%
X51625000Y-38795000D02*
X51625000Y-37995000D01*
%TO.N,P6*%
X50855000Y-39565000D02*
X50825000Y-39595000D01*
X51625000Y-39565000D02*
X50855000Y-39565000D01*
%TO.N,P2*%
X64395000Y-34795000D02*
X65225000Y-34795000D01*
%TO.N,P1*%
X63625000Y-34795000D02*
X63625000Y-33995000D01*
%TO.N,P0*%
X62855000Y-35565000D02*
X62825000Y-35595000D01*
X63625000Y-35565000D02*
X62855000Y-35565000D01*
%TO.N,PF*%
X60395000Y-34795000D02*
X61225000Y-34795000D01*
%TO.N,PE*%
X59625000Y-34795000D02*
X59625000Y-33995000D01*
%TO.N,PD*%
X58855000Y-35565000D02*
X58825000Y-35595000D01*
X59625000Y-35565000D02*
X58855000Y-35565000D01*
%TO.N,PC*%
X56395000Y-34795000D02*
X57225000Y-34795000D01*
%TO.N,PB*%
X55625000Y-34795000D02*
X55625000Y-33995000D01*
%TO.N,P9*%
X54855000Y-35565000D02*
X54825000Y-35595000D01*
X55625000Y-35565000D02*
X54855000Y-35565000D01*
%TO.N,P8*%
X52395000Y-34795000D02*
X53225000Y-34795000D01*
%TO.N,P7*%
X51625000Y-34795000D02*
X51625000Y-33995000D01*
%TO.N,P6*%
X50855000Y-35565000D02*
X50825000Y-35595000D01*
X51625000Y-35565000D02*
X50855000Y-35565000D01*
%TO.N,P2*%
X64395000Y-30795000D02*
X65225000Y-30795000D01*
%TO.N,P1*%
X63625000Y-30795000D02*
X63625000Y-29995000D01*
%TO.N,P0*%
X62855000Y-31565000D02*
X62825000Y-31595000D01*
X63625000Y-31565000D02*
X62855000Y-31565000D01*
%TO.N,PF*%
X60395000Y-30795000D02*
X61225000Y-30795000D01*
%TO.N,PE*%
X59625000Y-30795000D02*
X59625000Y-29995000D01*
%TO.N,PD*%
X58855000Y-31565000D02*
X58825000Y-31595000D01*
X59625000Y-31565000D02*
X58855000Y-31565000D01*
%TO.N,PC*%
X56395000Y-30795000D02*
X57225000Y-30795000D01*
%TO.N,PB*%
X55625000Y-30795000D02*
X55625000Y-29995000D01*
%TO.N,PA*%
X54855000Y-31565000D02*
X54825000Y-31595000D01*
X55625000Y-31565000D02*
X54855000Y-31565000D01*
%TO.N,P9*%
X52395000Y-30795000D02*
X53225000Y-30795000D01*
%TO.N,P7*%
X51625000Y-30795000D02*
X51625000Y-29995000D01*
%TO.N,P6*%
X50855000Y-31565000D02*
X50825000Y-31595000D01*
X51625000Y-31565000D02*
X50855000Y-31565000D01*
%TO.N,P2*%
X64395000Y-26795000D02*
X65225000Y-26795000D01*
%TO.N,P1*%
X63625000Y-26795000D02*
X63625000Y-25995000D01*
%TO.N,P0*%
X62855000Y-27565000D02*
X62825000Y-27595000D01*
X63625000Y-27565000D02*
X62855000Y-27565000D01*
%TO.N,PF*%
X60395000Y-26795000D02*
X61225000Y-26795000D01*
%TO.N,PE*%
X59625000Y-26795000D02*
X59625000Y-25995000D01*
%TO.N,PD*%
X58855000Y-27565000D02*
X58825000Y-27595000D01*
X59625000Y-27565000D02*
X58855000Y-27565000D01*
%TO.N,PC*%
X56395000Y-26795000D02*
X57225000Y-26795000D01*
%TO.N,PB*%
X55625000Y-26795000D02*
X55625000Y-25995000D01*
%TO.N,PA*%
X54855000Y-27565000D02*
X54825000Y-27595000D01*
X55625000Y-27565000D02*
X54855000Y-27565000D01*
%TO.N,P9*%
X52395000Y-26795000D02*
X53225000Y-26795000D01*
%TO.N,P8*%
X51625000Y-26795000D02*
X51625000Y-25995000D01*
%TO.N,P7*%
X50855000Y-27565000D02*
X50825000Y-27595000D01*
X51625000Y-27565000D02*
X50855000Y-27565000D01*
%TO.N,P2*%
X64395000Y-22795000D02*
X65225000Y-22795000D01*
%TO.N,P1*%
X63625000Y-22795000D02*
X63625000Y-21995000D01*
%TO.N,P0*%
X62855000Y-23565000D02*
X62825000Y-23595000D01*
X63625000Y-23565000D02*
X62855000Y-23565000D01*
%TO.N,PF*%
X60395000Y-22795000D02*
X61225000Y-22795000D01*
%TO.N,PE*%
X59625000Y-22795000D02*
X59625000Y-21995000D01*
%TO.N,PD*%
X58855000Y-23565000D02*
X58825000Y-23595000D01*
X59625000Y-23565000D02*
X58855000Y-23565000D01*
%TO.N,PC*%
X56395000Y-22795000D02*
X57225000Y-22795000D01*
%TO.N,PB*%
X55625000Y-22795000D02*
X55625000Y-21995000D01*
%TO.N,PA*%
X54855000Y-23565000D02*
X54825000Y-23595000D01*
X55625000Y-23565000D02*
X54855000Y-23565000D01*
%TO.N,P9*%
X52395000Y-22795000D02*
X53225000Y-22795000D01*
%TO.N,P8*%
X51625000Y-22795000D02*
X51625000Y-21995000D01*
%TO.N,P7*%
X50855000Y-23565000D02*
X50825000Y-23595000D01*
X51625000Y-23565000D02*
X50855000Y-23565000D01*
%TO.N,P2*%
X64395000Y-18795000D02*
X65225000Y-18795000D01*
%TO.N,P1*%
X63625000Y-18795000D02*
X63625000Y-17995000D01*
%TO.N,P0*%
X62855000Y-19565000D02*
X62825000Y-19595000D01*
X63625000Y-19565000D02*
X62855000Y-19565000D01*
%TO.N,PF*%
X60395000Y-18795000D02*
X61225000Y-18795000D01*
%TO.N,PE*%
X59625000Y-18795000D02*
X59625000Y-17995000D01*
%TO.N,PD*%
X58855000Y-19565000D02*
X58825000Y-19595000D01*
X59625000Y-19565000D02*
X58855000Y-19565000D01*
%TO.N,PC*%
X56395000Y-18795000D02*
X57225000Y-18795000D01*
%TO.N,PB*%
X55625000Y-18795000D02*
X55625000Y-17995000D01*
%TO.N,PA*%
X54855000Y-19565000D02*
X54825000Y-19595000D01*
X55625000Y-19565000D02*
X54855000Y-19565000D01*
%TO.N,P9*%
X52395000Y-18795000D02*
X53225000Y-18795000D01*
%TO.N,P8*%
X51625000Y-18795000D02*
X51625000Y-17995000D01*
%TO.N,P7*%
X50855000Y-19565000D02*
X50825000Y-19595000D01*
X51625000Y-19565000D02*
X50855000Y-19565000D01*
%TO.N,P3*%
X64395000Y-14795000D02*
X65225000Y-14795000D01*
%TO.N,P2*%
X63625000Y-14795000D02*
X63625000Y-13995000D01*
%TO.N,P0*%
X62855000Y-15565000D02*
X62825000Y-15595000D01*
X63625000Y-15565000D02*
X62855000Y-15565000D01*
%TO.N,PF*%
X60395000Y-14795000D02*
X61225000Y-14795000D01*
%TO.N,PE*%
X59625000Y-14795000D02*
X59625000Y-13995000D01*
%TO.N,PD*%
X58855000Y-15565000D02*
X58825000Y-15595000D01*
X59625000Y-15565000D02*
X58855000Y-15565000D01*
%TO.N,PC*%
X56395000Y-14795000D02*
X57225000Y-14795000D01*
%TO.N,PB*%
X55625000Y-14795000D02*
X55625000Y-13995000D01*
%TO.N,PA*%
X54855000Y-15565000D02*
X54825000Y-15595000D01*
X55625000Y-15565000D02*
X54855000Y-15565000D01*
%TO.N,P9*%
X52395000Y-14795000D02*
X53225000Y-14795000D01*
%TO.N,P8*%
X51625000Y-14795000D02*
X51625000Y-13995000D01*
%TO.N,P7*%
X50855000Y-15565000D02*
X50825000Y-15595000D01*
X51625000Y-15565000D02*
X50855000Y-15565000D01*
%TO.N,Y0*%
X42025000Y-45995000D02*
X43097500Y-45995000D01*
%TO.N,Y1*%
X68449502Y-16395000D02*
X64449502Y-16395000D01*
X72449502Y-16395000D02*
X68449502Y-16395000D01*
X76449502Y-16395000D02*
X72449502Y-16395000D01*
X80449502Y-16395000D02*
X76449502Y-16395000D01*
%TO.N,P6*%
X48395000Y-14795000D02*
X49225000Y-14795000D01*
%TO.N,P5*%
X47625000Y-14795000D02*
X47625000Y-13995000D01*
%TO.N,P4*%
X46855000Y-15565000D02*
X46825000Y-15595000D01*
X47625000Y-15565000D02*
X46855000Y-15565000D01*
%TO.N,P6*%
X48395000Y-18795000D02*
X49225000Y-18795000D01*
%TO.N,P5*%
X47625000Y-18795000D02*
X47625000Y-17995000D01*
%TO.N,P4*%
X46855000Y-19565000D02*
X46825000Y-19595000D01*
X47625000Y-19565000D02*
X46855000Y-19565000D01*
%TO.N,P6*%
X48395000Y-22795000D02*
X49225000Y-22795000D01*
%TO.N,P5*%
X47625000Y-22795000D02*
X47625000Y-21995000D01*
%TO.N,P3*%
X46855000Y-23565000D02*
X46825000Y-23595000D01*
X47625000Y-23565000D02*
X46855000Y-23565000D01*
%TO.N,P5*%
X48395000Y-26795000D02*
X49225000Y-26795000D01*
%TO.N,P4*%
X47625000Y-26795000D02*
X47625000Y-25995000D01*
%TO.N,P3*%
X46855000Y-27565000D02*
X46825000Y-27595000D01*
X47625000Y-27565000D02*
X46855000Y-27565000D01*
%TO.N,P5*%
X48395000Y-30795000D02*
X49225000Y-30795000D01*
%TO.N,P4*%
X47625000Y-30795000D02*
X47625000Y-29995000D01*
%TO.N,P3*%
X46855000Y-31565000D02*
X46825000Y-31595000D01*
X47625000Y-31565000D02*
X46855000Y-31565000D01*
%TO.N,P5*%
X48395000Y-34795000D02*
X49225000Y-34795000D01*
%TO.N,P4*%
X47625000Y-34795000D02*
X47625000Y-33995000D01*
%TO.N,P3*%
X46855000Y-35565000D02*
X46825000Y-35595000D01*
X47625000Y-35565000D02*
X46855000Y-35565000D01*
%TO.N,P5*%
X48395000Y-38795000D02*
X49225000Y-38795000D01*
%TO.N,P4*%
X47625000Y-38795000D02*
X47625000Y-37995000D01*
%TO.N,P5*%
X48395000Y-42795000D02*
X49225000Y-42795000D01*
%TO.N,P4*%
X47625000Y-42795000D02*
X47625000Y-41995000D01*
%TO.N,P3*%
X46855000Y-43565000D02*
X46825000Y-43595000D01*
X47625000Y-43565000D02*
X46855000Y-43565000D01*
%TO.N,P2*%
X44395000Y-42795000D02*
X45225000Y-42795000D01*
%TO.N,P1*%
X43625000Y-42795000D02*
X43625000Y-41995000D01*
%TO.N,P0*%
X42855000Y-43565000D02*
X42825000Y-43595000D01*
X43625000Y-43565000D02*
X42855000Y-43565000D01*
%TO.N,P2*%
X44395000Y-38795000D02*
X45225000Y-38795000D01*
%TO.N,P1*%
X43625000Y-38795000D02*
X43625000Y-37995000D01*
%TO.N,P0*%
X42855000Y-39565000D02*
X42825000Y-39595000D01*
X43625000Y-39565000D02*
X42855000Y-39565000D01*
%TO.N,P2*%
X44395000Y-34795000D02*
X45225000Y-34795000D01*
%TO.N,P1*%
X43625000Y-34795000D02*
X43625000Y-33995000D01*
%TO.N,P0*%
X42855000Y-35565000D02*
X42825000Y-35595000D01*
X43625000Y-35565000D02*
X42855000Y-35565000D01*
%TO.N,P2*%
X44395000Y-30795000D02*
X45225000Y-30795000D01*
%TO.N,P1*%
X43625000Y-30795000D02*
X43625000Y-29995000D01*
%TO.N,P2*%
X44395000Y-26795000D02*
X45225000Y-26795000D01*
%TO.N,P1*%
X43625000Y-26795000D02*
X43625000Y-25995000D01*
%TO.N,P0*%
X42855000Y-27565000D02*
X42825000Y-27595000D01*
X43625000Y-27565000D02*
X42855000Y-27565000D01*
%TO.N,P2*%
X44395000Y-22795000D02*
X45225000Y-22795000D01*
%TO.N,P1*%
X43625000Y-22795000D02*
X43625000Y-21995000D01*
%TO.N,P0*%
X42855000Y-23565000D02*
X42825000Y-23595000D01*
X43625000Y-23565000D02*
X42855000Y-23565000D01*
%TO.N,P3*%
X44395000Y-18795000D02*
X45225000Y-18795000D01*
%TO.N,P1*%
X43625000Y-18795000D02*
X43625000Y-17995000D01*
%TO.N,P0*%
X42855000Y-19565000D02*
X42825000Y-19595000D01*
X43625000Y-19565000D02*
X42855000Y-19565000D01*
%TO.N,P3*%
X44395000Y-14795000D02*
X45225000Y-14795000D01*
%TO.N,P2*%
X43625000Y-14795000D02*
X43625000Y-13995000D01*
%TO.N,P1*%
X42855000Y-15565000D02*
X42825000Y-15595000D01*
X43625000Y-15565000D02*
X42855000Y-15565000D01*
%TO.N,P3*%
X46855000Y-39565000D02*
X46825000Y-39595000D01*
X47625000Y-39565000D02*
X46855000Y-39565000D01*
%TO.N,P0*%
X42855000Y-31565000D02*
X42825000Y-31595000D01*
X43625000Y-31565000D02*
X42855000Y-31565000D01*
%TO.N,Y1*%
X72395000Y-16340498D02*
X72449502Y-16395000D01*
X68395000Y-16340498D02*
X68449502Y-16395000D01*
%TO.N,Y5*%
X76449502Y-24395000D02*
X80449502Y-24395000D01*
X72449502Y-24395000D02*
X76449502Y-24395000D01*
%TO.N,Y7*%
X76449502Y-28395000D02*
X80449502Y-28395000D01*
X72449502Y-28395000D02*
X76449502Y-28395000D01*
X68449502Y-28395000D02*
X72449502Y-28395000D01*
X64449502Y-28395000D02*
X68449502Y-28395000D01*
%TO.N,YB*%
X76449502Y-36395000D02*
X80449502Y-36395000D01*
%TO.N,YE*%
X56449502Y-44395000D02*
X60449502Y-44395000D01*
X52449502Y-44395000D02*
X56449502Y-44395000D01*
X48449502Y-44395000D02*
X52449502Y-44395000D01*
X44449502Y-44395000D02*
X48449502Y-44395000D01*
%TO.N,Y8*%
X44449502Y-32395000D02*
X48449502Y-32395000D01*
%TO.N,Y6*%
X52449502Y-28395000D02*
X56449502Y-28395000D01*
X48449502Y-28395000D02*
X52449502Y-28395000D01*
X44449502Y-28395000D02*
X48449502Y-28395000D01*
%TO.N,Y0*%
X56449502Y-16395000D02*
X60449502Y-16395000D01*
X52449502Y-16395000D02*
X56449502Y-16395000D01*
X44449502Y-16395000D02*
X48449502Y-16395000D01*
%TO.N,YF*%
X68395000Y-44340498D02*
X68449502Y-44395000D01*
X68395000Y-43565000D02*
X68395000Y-44340498D01*
%TO.N,YE*%
X60395000Y-44340498D02*
X60449502Y-44395000D01*
X60395000Y-43565000D02*
X60395000Y-44340498D01*
X56395000Y-43565000D02*
X56395000Y-44340498D01*
X56395000Y-44340498D02*
X56449502Y-44395000D01*
X52395000Y-43565000D02*
X52395000Y-44340498D01*
X52395000Y-44340498D02*
X52449502Y-44395000D01*
X48395000Y-44340498D02*
X48449502Y-44395000D01*
X48395000Y-43565000D02*
X48395000Y-44340498D01*
X44395000Y-43565000D02*
X44395000Y-44340498D01*
X44395000Y-44340498D02*
X44449502Y-44395000D01*
%TO.N,YD*%
X80395000Y-40340498D02*
X80449502Y-40395000D01*
X80395000Y-39565000D02*
X80395000Y-40340498D01*
%TO.N,YB*%
X80395000Y-36340498D02*
X80449502Y-36395000D01*
X80395000Y-35565000D02*
X80395000Y-36340498D01*
X76395000Y-36340498D02*
X76449502Y-36395000D01*
X76395000Y-35565000D02*
X76395000Y-36340498D01*
X72395000Y-35565000D02*
X72395000Y-36340498D01*
X72395000Y-36340498D02*
X72449502Y-36395000D01*
%TO.N,Y8*%
X44395000Y-32340498D02*
X44449502Y-32395000D01*
X44395000Y-31565000D02*
X44395000Y-32340498D01*
X48395000Y-32340498D02*
X48449502Y-32395000D01*
X48395000Y-31565000D02*
X48395000Y-32340498D01*
%TO.N,Y7*%
X80395000Y-27565000D02*
X80395000Y-28340498D01*
X80395000Y-28340498D02*
X80449502Y-28395000D01*
X76395000Y-28340498D02*
X76449502Y-28395000D01*
X76395000Y-27565000D02*
X76395000Y-28340498D01*
X72395000Y-28340498D02*
X72449502Y-28395000D01*
X72395000Y-27565000D02*
X72395000Y-28340498D01*
X68395000Y-28340498D02*
X68449502Y-28395000D01*
X68395000Y-27565000D02*
X68395000Y-28340498D01*
X64395000Y-28340498D02*
X64449502Y-28395000D01*
X64395000Y-27565000D02*
X64395000Y-28340498D01*
%TO.N,Y6*%
X56395000Y-28340498D02*
X56449502Y-28395000D01*
X56395000Y-27565000D02*
X56395000Y-28340498D01*
X52395000Y-28340498D02*
X52449502Y-28395000D01*
X52395000Y-27565000D02*
X52395000Y-28340498D01*
X48395000Y-28340498D02*
X48449502Y-28395000D01*
X48395000Y-27565000D02*
X48395000Y-28340498D01*
X44395000Y-28340498D02*
X44449502Y-28395000D01*
X44395000Y-27565000D02*
X44395000Y-28340498D01*
%TO.N,Y5*%
X80395000Y-24340498D02*
X80449502Y-24395000D01*
X80395000Y-23565000D02*
X80395000Y-24340498D01*
X76395000Y-23565000D02*
X76395000Y-24340498D01*
X76395000Y-24340498D02*
X76449502Y-24395000D01*
X72395000Y-24340498D02*
X72449502Y-24395000D01*
X72395000Y-23565000D02*
X72395000Y-24340498D01*
X68395000Y-24340498D02*
X68449502Y-24395000D01*
X68395000Y-23565000D02*
X68395000Y-24340498D01*
%TO.N,Y1*%
X80395000Y-16340498D02*
X80449502Y-16395000D01*
X80395000Y-15565000D02*
X80395000Y-16340498D01*
X76395000Y-16340498D02*
X76449502Y-16395000D01*
X76395000Y-15565000D02*
X76395000Y-16340498D01*
X72395000Y-15565000D02*
X72395000Y-16340498D01*
X68395000Y-15565000D02*
X68395000Y-16340498D01*
X64395000Y-16340498D02*
X64449502Y-16395000D01*
X64395000Y-15565000D02*
X64395000Y-16340498D01*
%TO.N,Y0*%
X60395000Y-16340498D02*
X60449502Y-16395000D01*
X60395000Y-15565000D02*
X60395000Y-16340498D01*
X56395000Y-16340498D02*
X56449502Y-16395000D01*
X56395000Y-15565000D02*
X56395000Y-16340498D01*
X52395000Y-16340498D02*
X52449502Y-16395000D01*
X52395000Y-15565000D02*
X52395000Y-16340498D01*
X44395000Y-16340498D02*
X44449502Y-16395000D01*
X44395000Y-15565000D02*
X44395000Y-16340498D01*
%TD*%
%TA.AperFunction,Conductor*%
%TO.N,GND*%
G36*
X43262103Y-12948502D02*
G01*
X43308596Y-13002158D01*
X43318700Y-13072432D01*
X43289206Y-13137012D01*
X43245231Y-13169607D01*
X43174278Y-13201197D01*
X43174276Y-13201198D01*
X43168248Y-13203882D01*
X43162907Y-13207762D01*
X43162906Y-13207763D01*
X43112843Y-13244136D01*
X43013747Y-13316134D01*
X43009326Y-13321044D01*
X43009325Y-13321045D01*
X42900230Y-13442208D01*
X42885960Y-13458056D01*
X42790473Y-13623444D01*
X42731458Y-13805072D01*
X42730768Y-13811633D01*
X42730768Y-13811635D01*
X42718871Y-13924834D01*
X42711496Y-13995000D01*
X42712186Y-14001565D01*
X42724514Y-14118856D01*
X42731458Y-14184928D01*
X42790473Y-14366556D01*
X42858366Y-14484149D01*
X42866074Y-14497500D01*
X42882812Y-14566495D01*
X42859592Y-14633587D01*
X42803785Y-14677474D01*
X42756955Y-14686500D01*
X42729513Y-14686500D01*
X42723061Y-14687872D01*
X42723056Y-14687872D01*
X42646472Y-14704151D01*
X42542712Y-14726206D01*
X42536682Y-14728891D01*
X42536681Y-14728891D01*
X42374278Y-14801197D01*
X42374276Y-14801198D01*
X42368248Y-14803882D01*
X42213747Y-14916134D01*
X42209326Y-14921044D01*
X42209325Y-14921045D01*
X42094228Y-15048874D01*
X42085960Y-15058056D01*
X41990473Y-15223444D01*
X41931458Y-15405072D01*
X41930768Y-15411633D01*
X41930768Y-15411635D01*
X41922463Y-15490655D01*
X41911496Y-15595000D01*
X41912186Y-15601565D01*
X41930178Y-15772745D01*
X41931458Y-15784928D01*
X41990473Y-15966556D01*
X42085960Y-16131944D01*
X42090378Y-16136851D01*
X42090379Y-16136852D01*
X42213747Y-16273866D01*
X42212791Y-16274726D01*
X42246363Y-16329222D01*
X42245009Y-16400205D01*
X42205494Y-16459189D01*
X42140363Y-16487446D01*
X42128770Y-16488347D01*
X42115001Y-16488780D01*
X42097583Y-16489327D01*
X42085756Y-16492763D01*
X42078131Y-16494978D01*
X42058779Y-16498986D01*
X42046541Y-16500532D01*
X42046539Y-16500533D01*
X42038676Y-16501526D01*
X41997559Y-16517806D01*
X41986358Y-16521641D01*
X41943879Y-16533982D01*
X41937060Y-16538015D01*
X41937055Y-16538017D01*
X41926444Y-16544293D01*
X41908694Y-16552990D01*
X41889856Y-16560448D01*
X41883440Y-16565109D01*
X41883439Y-16565110D01*
X41854098Y-16586428D01*
X41844174Y-16592947D01*
X41812933Y-16611422D01*
X41812928Y-16611426D01*
X41806110Y-16615458D01*
X41791786Y-16629782D01*
X41776754Y-16642621D01*
X41760366Y-16654528D01*
X41742999Y-16675521D01*
X41732185Y-16688593D01*
X41724195Y-16697373D01*
X41350000Y-17071568D01*
X41287688Y-17105594D01*
X41260905Y-17108473D01*
X41205013Y-17108473D01*
X41198561Y-17109845D01*
X41198556Y-17109845D01*
X41117564Y-17127061D01*
X41018212Y-17148179D01*
X41012182Y-17150864D01*
X41012181Y-17150864D01*
X40849778Y-17223170D01*
X40849776Y-17223171D01*
X40843748Y-17225855D01*
X40689247Y-17338107D01*
X40561460Y-17480029D01*
X40465973Y-17645417D01*
X40406958Y-17827045D01*
X40406268Y-17833606D01*
X40406268Y-17833608D01*
X40399063Y-17902158D01*
X40386996Y-18016973D01*
X40387686Y-18023538D01*
X40404649Y-18184928D01*
X40406958Y-18206901D01*
X40465973Y-18388529D01*
X40561460Y-18553917D01*
X40689247Y-18695839D01*
X40843748Y-18808091D01*
X40849776Y-18810775D01*
X40849778Y-18810776D01*
X41012181Y-18883082D01*
X41018212Y-18885767D01*
X41111613Y-18905620D01*
X41198556Y-18924101D01*
X41198561Y-18924101D01*
X41205013Y-18925473D01*
X41395987Y-18925473D01*
X41402439Y-18924101D01*
X41402444Y-18924101D01*
X41489387Y-18905620D01*
X41582788Y-18885767D01*
X41588819Y-18883082D01*
X41751222Y-18810776D01*
X41751224Y-18810775D01*
X41757252Y-18808091D01*
X41911753Y-18695839D01*
X42039540Y-18553917D01*
X42135027Y-18388529D01*
X42194042Y-18206901D01*
X42196352Y-18184928D01*
X42209856Y-18056436D01*
X42211407Y-18041679D01*
X42238420Y-17976023D01*
X42247622Y-17965755D01*
X42422972Y-17790405D01*
X42485284Y-17756379D01*
X42512067Y-17753500D01*
X42596941Y-17753500D01*
X42665062Y-17773502D01*
X42711555Y-17827158D01*
X42722251Y-17892670D01*
X42711496Y-17995000D01*
X42712186Y-18001565D01*
X42724228Y-18116134D01*
X42731458Y-18184928D01*
X42790473Y-18366556D01*
X42793776Y-18372278D01*
X42793777Y-18372279D01*
X42866074Y-18497500D01*
X42882812Y-18566495D01*
X42859592Y-18633587D01*
X42803785Y-18677474D01*
X42756955Y-18686500D01*
X42729513Y-18686500D01*
X42723061Y-18687872D01*
X42723056Y-18687872D01*
X42636113Y-18706353D01*
X42542712Y-18726206D01*
X42536682Y-18728891D01*
X42536681Y-18728891D01*
X42374278Y-18801197D01*
X42374276Y-18801198D01*
X42368248Y-18803882D01*
X42362907Y-18807762D01*
X42362906Y-18807763D01*
X42358759Y-18810776D01*
X42213747Y-18916134D01*
X42085960Y-19058056D01*
X41990473Y-19223444D01*
X41931458Y-19405072D01*
X41930768Y-19411633D01*
X41930768Y-19411635D01*
X41923819Y-19477749D01*
X41911496Y-19595000D01*
X41912186Y-19601564D01*
X41915777Y-19635729D01*
X41903005Y-19705567D01*
X41854503Y-19757414D01*
X41790467Y-19774900D01*
X41283700Y-19774900D01*
X41215579Y-19754898D01*
X41196353Y-19738557D01*
X41196080Y-19738860D01*
X41191168Y-19734437D01*
X41186753Y-19729534D01*
X41150920Y-19703500D01*
X41037594Y-19621163D01*
X41037593Y-19621162D01*
X41032252Y-19617282D01*
X41026224Y-19614598D01*
X41026222Y-19614597D01*
X40863819Y-19542291D01*
X40863818Y-19542291D01*
X40857788Y-19539606D01*
X40764388Y-19519753D01*
X40677444Y-19501272D01*
X40677439Y-19501272D01*
X40670987Y-19499900D01*
X40480013Y-19499900D01*
X40473561Y-19501272D01*
X40473556Y-19501272D01*
X40386612Y-19519753D01*
X40293212Y-19539606D01*
X40287182Y-19542291D01*
X40287181Y-19542291D01*
X40124778Y-19614597D01*
X40124776Y-19614598D01*
X40118748Y-19617282D01*
X39964247Y-19729534D01*
X39959826Y-19734444D01*
X39959825Y-19734445D01*
X39863405Y-19841531D01*
X39836460Y-19871456D01*
X39819798Y-19900316D01*
X39745908Y-20028297D01*
X39740973Y-20036844D01*
X39681958Y-20218472D01*
X39681268Y-20225033D01*
X39681268Y-20225035D01*
X39671837Y-20314770D01*
X39661996Y-20408400D01*
X39662686Y-20414965D01*
X39674914Y-20531304D01*
X39681958Y-20598328D01*
X39740973Y-20779956D01*
X39744276Y-20785678D01*
X39744277Y-20785679D01*
X39751032Y-20797379D01*
X39836460Y-20945344D01*
X39840878Y-20950251D01*
X39840879Y-20950252D01*
X39925382Y-21044102D01*
X39964247Y-21087266D01*
X40017843Y-21126206D01*
X40111989Y-21194607D01*
X40118748Y-21199518D01*
X40124776Y-21202202D01*
X40124778Y-21202203D01*
X40287181Y-21274509D01*
X40293212Y-21277194D01*
X40386613Y-21297047D01*
X40473556Y-21315528D01*
X40473561Y-21315528D01*
X40480013Y-21316900D01*
X40670987Y-21316900D01*
X40677439Y-21315528D01*
X40677444Y-21315528D01*
X40764387Y-21297047D01*
X40857788Y-21277194D01*
X40863819Y-21274509D01*
X41026222Y-21202203D01*
X41026224Y-21202202D01*
X41032252Y-21199518D01*
X41039012Y-21194607D01*
X41172761Y-21097432D01*
X41186753Y-21087266D01*
X41191168Y-21082363D01*
X41196080Y-21077940D01*
X41197205Y-21079189D01*
X41250514Y-21046349D01*
X41283700Y-21041900D01*
X43003409Y-21041900D01*
X43071530Y-21061902D01*
X43118023Y-21115558D01*
X43128127Y-21185832D01*
X43098633Y-21250412D01*
X43077470Y-21269836D01*
X43049953Y-21289828D01*
X43013747Y-21316134D01*
X43009326Y-21321044D01*
X43009325Y-21321045D01*
X42962790Y-21372728D01*
X42885960Y-21458056D01*
X42790473Y-21623444D01*
X42731458Y-21805072D01*
X42711496Y-21995000D01*
X42712186Y-22001565D01*
X42724228Y-22116134D01*
X42731458Y-22184928D01*
X42790473Y-22366556D01*
X42793776Y-22372278D01*
X42793777Y-22372279D01*
X42866074Y-22497500D01*
X42882812Y-22566495D01*
X42859592Y-22633587D01*
X42803785Y-22677474D01*
X42756955Y-22686500D01*
X42729513Y-22686500D01*
X42723061Y-22687872D01*
X42723056Y-22687872D01*
X42636113Y-22706353D01*
X42542712Y-22726206D01*
X42536682Y-22728891D01*
X42536681Y-22728891D01*
X42374278Y-22801197D01*
X42374276Y-22801198D01*
X42368248Y-22803882D01*
X42213747Y-22916134D01*
X42085960Y-23058056D01*
X41990473Y-23223444D01*
X41931458Y-23405072D01*
X41930768Y-23411633D01*
X41930768Y-23411635D01*
X41921414Y-23500634D01*
X41911496Y-23595000D01*
X41912186Y-23601565D01*
X41928996Y-23761500D01*
X41931458Y-23784928D01*
X41990473Y-23966556D01*
X42085960Y-24131944D01*
X42090378Y-24136851D01*
X42090379Y-24136852D01*
X42123837Y-24174011D01*
X42213747Y-24273866D01*
X42280774Y-24322564D01*
X42356201Y-24377365D01*
X42368248Y-24386118D01*
X42374276Y-24388802D01*
X42374278Y-24388803D01*
X42443690Y-24419707D01*
X42542712Y-24463794D01*
X42636112Y-24483647D01*
X42723056Y-24502128D01*
X42723061Y-24502128D01*
X42729513Y-24503500D01*
X42920487Y-24503500D01*
X42926939Y-24502128D01*
X42926944Y-24502128D01*
X43013888Y-24483647D01*
X43107288Y-24463794D01*
X43206310Y-24419707D01*
X43275722Y-24388803D01*
X43275724Y-24388802D01*
X43281752Y-24386118D01*
X43293800Y-24377365D01*
X43369226Y-24322564D01*
X43436093Y-24298706D01*
X43443287Y-24298500D01*
X43898134Y-24298500D01*
X43960316Y-24291745D01*
X43967716Y-24288971D01*
X43975400Y-24287144D01*
X43975833Y-24288965D01*
X44036570Y-24284515D01*
X44049448Y-24288297D01*
X44052287Y-24288972D01*
X44059684Y-24291745D01*
X44121866Y-24298500D01*
X44668134Y-24298500D01*
X44730316Y-24291745D01*
X44866705Y-24240615D01*
X44866925Y-24241203D01*
X44929716Y-24227471D01*
X44996263Y-24252208D01*
X45009961Y-24264065D01*
X45089678Y-24343782D01*
X45123704Y-24406094D01*
X45125892Y-24419703D01*
X45130671Y-24465166D01*
X45140715Y-24560728D01*
X45143258Y-24584928D01*
X45202273Y-24766556D01*
X45297760Y-24931944D01*
X45302178Y-24936851D01*
X45302179Y-24936852D01*
X45407328Y-25053632D01*
X45425547Y-25073866D01*
X45580048Y-25186118D01*
X45586076Y-25188802D01*
X45586078Y-25188803D01*
X45748481Y-25261109D01*
X45754512Y-25263794D01*
X45827462Y-25279300D01*
X45934856Y-25302128D01*
X45934861Y-25302128D01*
X45941313Y-25303500D01*
X46132287Y-25303500D01*
X46138739Y-25302128D01*
X46138744Y-25302128D01*
X46246138Y-25279300D01*
X46319088Y-25263794D01*
X46325119Y-25261109D01*
X46487522Y-25188803D01*
X46487524Y-25188802D01*
X46493552Y-25186118D01*
X46526861Y-25161918D01*
X46630664Y-25086500D01*
X46648053Y-25073866D01*
X46652468Y-25068963D01*
X46657380Y-25064540D01*
X46658505Y-25065789D01*
X46711814Y-25032949D01*
X46745000Y-25028500D01*
X47021853Y-25028500D01*
X47089974Y-25048502D01*
X47136467Y-25102158D01*
X47146571Y-25172432D01*
X47117077Y-25237012D01*
X47095914Y-25256436D01*
X47033025Y-25302128D01*
X47013747Y-25316134D01*
X46885960Y-25458056D01*
X46790473Y-25623444D01*
X46731458Y-25805072D01*
X46711496Y-25995000D01*
X46712186Y-26001565D01*
X46724228Y-26116134D01*
X46731458Y-26184928D01*
X46790473Y-26366556D01*
X46793776Y-26372278D01*
X46793777Y-26372279D01*
X46866074Y-26497500D01*
X46882812Y-26566495D01*
X46859592Y-26633587D01*
X46803785Y-26677474D01*
X46756955Y-26686500D01*
X46729513Y-26686500D01*
X46723061Y-26687872D01*
X46723056Y-26687872D01*
X46639175Y-26705702D01*
X46542712Y-26726206D01*
X46536682Y-26728891D01*
X46536681Y-26728891D01*
X46374278Y-26801197D01*
X46374276Y-26801198D01*
X46368248Y-26803882D01*
X46344616Y-26821052D01*
X46332228Y-26830052D01*
X46265360Y-26853910D01*
X46196209Y-26837829D01*
X46146729Y-26786914D01*
X46132858Y-26741285D01*
X46131988Y-26733002D01*
X46118542Y-26605072D01*
X46059527Y-26423444D01*
X46026753Y-26366677D01*
X46012742Y-26342411D01*
X45964040Y-26258056D01*
X45836253Y-26116134D01*
X45681752Y-26003882D01*
X45675724Y-26001198D01*
X45675722Y-26001197D01*
X45513319Y-25928891D01*
X45513318Y-25928891D01*
X45507288Y-25926206D01*
X45405001Y-25904464D01*
X45326944Y-25887872D01*
X45326939Y-25887872D01*
X45320487Y-25886500D01*
X45129513Y-25886500D01*
X45123061Y-25887872D01*
X45123056Y-25887872D01*
X45044999Y-25904464D01*
X44942712Y-25926206D01*
X44936682Y-25928891D01*
X44936681Y-25928891D01*
X44774278Y-26001197D01*
X44774276Y-26001198D01*
X44768248Y-26003882D01*
X44751115Y-26016330D01*
X44732228Y-26030052D01*
X44665360Y-26053910D01*
X44596209Y-26037829D01*
X44546729Y-25986914D01*
X44532858Y-25941285D01*
X44531988Y-25933000D01*
X44518542Y-25805072D01*
X44459527Y-25623444D01*
X44364040Y-25458056D01*
X44236253Y-25316134D01*
X44081752Y-25203882D01*
X44075724Y-25201198D01*
X44075722Y-25201197D01*
X43913319Y-25128891D01*
X43913318Y-25128891D01*
X43907288Y-25126206D01*
X43794152Y-25102158D01*
X43726944Y-25087872D01*
X43726939Y-25087872D01*
X43720487Y-25086500D01*
X43529513Y-25086500D01*
X43523061Y-25087872D01*
X43523056Y-25087872D01*
X43455848Y-25102158D01*
X43342712Y-25126206D01*
X43336682Y-25128891D01*
X43336681Y-25128891D01*
X43174278Y-25201197D01*
X43174276Y-25201198D01*
X43168248Y-25203882D01*
X43013747Y-25316134D01*
X42885960Y-25458056D01*
X42790473Y-25623444D01*
X42731458Y-25805072D01*
X42711496Y-25995000D01*
X42712186Y-26001565D01*
X42724228Y-26116134D01*
X42731458Y-26184928D01*
X42790473Y-26366556D01*
X42793776Y-26372278D01*
X42793777Y-26372279D01*
X42866074Y-26497500D01*
X42882812Y-26566495D01*
X42859592Y-26633587D01*
X42803785Y-26677474D01*
X42756955Y-26686500D01*
X42729513Y-26686500D01*
X42723061Y-26687872D01*
X42723056Y-26687872D01*
X42639175Y-26705702D01*
X42542712Y-26726206D01*
X42536682Y-26728891D01*
X42536681Y-26728891D01*
X42374278Y-26801197D01*
X42374276Y-26801198D01*
X42368248Y-26803882D01*
X42213747Y-26916134D01*
X42085960Y-27058056D01*
X41990473Y-27223444D01*
X41931458Y-27405072D01*
X41930768Y-27411633D01*
X41930768Y-27411635D01*
X41923819Y-27477749D01*
X41911496Y-27595000D01*
X41912186Y-27601565D01*
X41928996Y-27761500D01*
X41931458Y-27784928D01*
X41990473Y-27966556D01*
X42085960Y-28131944D01*
X42090378Y-28136851D01*
X42090379Y-28136852D01*
X42208296Y-28267812D01*
X42213747Y-28273866D01*
X42308307Y-28342568D01*
X42360315Y-28380354D01*
X42368248Y-28386118D01*
X42374276Y-28388802D01*
X42374278Y-28388803D01*
X42528079Y-28457279D01*
X42542712Y-28463794D01*
X42615182Y-28479198D01*
X42723056Y-28502128D01*
X42723061Y-28502128D01*
X42729513Y-28503500D01*
X42920487Y-28503500D01*
X42926939Y-28502128D01*
X42926944Y-28502128D01*
X43034818Y-28479198D01*
X43107288Y-28463794D01*
X43121921Y-28457279D01*
X43275722Y-28388803D01*
X43275724Y-28388802D01*
X43281752Y-28386118D01*
X43289686Y-28380354D01*
X43369226Y-28322564D01*
X43436093Y-28298706D01*
X43443287Y-28298500D01*
X43637765Y-28298500D01*
X43705886Y-28318502D01*
X43752379Y-28372158D01*
X43763703Y-28420540D01*
X43764327Y-28440387D01*
X43769978Y-28459837D01*
X43773987Y-28479198D01*
X43774910Y-28486500D01*
X43776526Y-28499295D01*
X43779445Y-28506666D01*
X43779445Y-28506668D01*
X43792804Y-28540410D01*
X43796649Y-28551640D01*
X43806771Y-28586481D01*
X43808982Y-28594091D01*
X43813015Y-28600910D01*
X43813017Y-28600915D01*
X43819293Y-28611526D01*
X43827988Y-28629274D01*
X43835448Y-28648115D01*
X43840110Y-28654531D01*
X43840110Y-28654532D01*
X43861436Y-28683885D01*
X43867952Y-28693805D01*
X43890458Y-28731860D01*
X43904779Y-28746181D01*
X43917619Y-28761214D01*
X43929528Y-28777605D01*
X43935637Y-28782659D01*
X43935639Y-28782661D01*
X43949083Y-28793784D01*
X43957413Y-28802113D01*
X43957502Y-28802018D01*
X44007169Y-28848658D01*
X44010011Y-28851413D01*
X44029732Y-28871134D01*
X44032927Y-28873612D01*
X44041949Y-28881318D01*
X44074181Y-28911586D01*
X44081130Y-28915406D01*
X44091934Y-28921346D01*
X44108458Y-28932199D01*
X44124461Y-28944613D01*
X44165045Y-28962176D01*
X44175675Y-28967383D01*
X44214442Y-28988695D01*
X44222119Y-28990666D01*
X44222124Y-28990668D01*
X44234060Y-28993732D01*
X44252768Y-29000137D01*
X44271357Y-29008181D01*
X44279182Y-29009420D01*
X44279184Y-29009421D01*
X44315021Y-29015097D01*
X44326642Y-29017504D01*
X44361791Y-29026528D01*
X44369472Y-29028500D01*
X44389733Y-29028500D01*
X44409442Y-29030051D01*
X44429445Y-29033219D01*
X44437337Y-29032473D01*
X44442564Y-29031979D01*
X44473456Y-29029059D01*
X44485313Y-29028500D01*
X47021853Y-29028500D01*
X47089974Y-29048502D01*
X47136467Y-29102158D01*
X47146571Y-29172432D01*
X47117077Y-29237012D01*
X47095914Y-29256436D01*
X47024293Y-29308472D01*
X47013747Y-29316134D01*
X46885960Y-29458056D01*
X46790473Y-29623444D01*
X46731458Y-29805072D01*
X46711496Y-29995000D01*
X46712186Y-30001565D01*
X46724228Y-30116134D01*
X46731458Y-30184928D01*
X46790473Y-30366556D01*
X46793776Y-30372278D01*
X46793777Y-30372279D01*
X46866074Y-30497500D01*
X46882812Y-30566495D01*
X46859592Y-30633587D01*
X46803785Y-30677474D01*
X46756955Y-30686500D01*
X46729513Y-30686500D01*
X46723061Y-30687872D01*
X46723056Y-30687872D01*
X46636113Y-30706353D01*
X46542712Y-30726206D01*
X46536682Y-30728891D01*
X46536681Y-30728891D01*
X46374278Y-30801197D01*
X46374276Y-30801198D01*
X46368248Y-30803882D01*
X46344616Y-30821052D01*
X46332228Y-30830052D01*
X46265360Y-30853910D01*
X46196209Y-30837829D01*
X46146729Y-30786914D01*
X46132858Y-30741285D01*
X46131556Y-30728891D01*
X46118542Y-30605072D01*
X46059527Y-30423444D01*
X45964040Y-30258056D01*
X45836253Y-30116134D01*
X45681752Y-30003882D01*
X45675724Y-30001198D01*
X45675722Y-30001197D01*
X45513319Y-29928891D01*
X45513318Y-29928891D01*
X45507288Y-29926206D01*
X45413888Y-29906353D01*
X45326944Y-29887872D01*
X45326939Y-29887872D01*
X45320487Y-29886500D01*
X45129513Y-29886500D01*
X45123061Y-29887872D01*
X45123056Y-29887872D01*
X45036112Y-29906353D01*
X44942712Y-29926206D01*
X44936682Y-29928891D01*
X44936681Y-29928891D01*
X44774278Y-30001197D01*
X44774276Y-30001198D01*
X44768248Y-30003882D01*
X44749386Y-30017586D01*
X44732228Y-30030052D01*
X44665360Y-30053910D01*
X44596209Y-30037829D01*
X44546729Y-29986914D01*
X44532858Y-29941285D01*
X44531556Y-29928891D01*
X44518542Y-29805072D01*
X44459527Y-29623444D01*
X44364040Y-29458056D01*
X44236253Y-29316134D01*
X44081752Y-29203882D01*
X44075724Y-29201198D01*
X44075722Y-29201197D01*
X43913319Y-29128891D01*
X43913318Y-29128891D01*
X43907288Y-29126206D01*
X43794152Y-29102158D01*
X43726944Y-29087872D01*
X43726939Y-29087872D01*
X43720487Y-29086500D01*
X43529513Y-29086500D01*
X43523061Y-29087872D01*
X43523056Y-29087872D01*
X43455848Y-29102158D01*
X43342712Y-29126206D01*
X43336682Y-29128891D01*
X43336681Y-29128891D01*
X43174278Y-29201197D01*
X43174276Y-29201198D01*
X43168248Y-29203882D01*
X43013747Y-29316134D01*
X42885960Y-29458056D01*
X42790473Y-29623444D01*
X42731458Y-29805072D01*
X42711496Y-29995000D01*
X42712186Y-30001565D01*
X42724228Y-30116134D01*
X42731458Y-30184928D01*
X42790473Y-30366556D01*
X42793776Y-30372278D01*
X42793777Y-30372279D01*
X42866074Y-30497500D01*
X42882812Y-30566495D01*
X42859592Y-30633587D01*
X42803785Y-30677474D01*
X42756955Y-30686500D01*
X42729513Y-30686500D01*
X42723061Y-30687872D01*
X42723056Y-30687872D01*
X42636113Y-30706353D01*
X42542712Y-30726206D01*
X42536682Y-30728891D01*
X42536681Y-30728891D01*
X42374278Y-30801197D01*
X42374276Y-30801198D01*
X42368248Y-30803882D01*
X42213747Y-30916134D01*
X42085960Y-31058056D01*
X41990473Y-31223444D01*
X41931458Y-31405072D01*
X41930768Y-31411633D01*
X41930768Y-31411635D01*
X41923979Y-31476234D01*
X41911496Y-31595000D01*
X41912186Y-31601565D01*
X41912186Y-31601568D01*
X41914368Y-31622331D01*
X41901595Y-31692169D01*
X41853092Y-31744015D01*
X41789058Y-31761500D01*
X40602958Y-31761500D01*
X40534837Y-31741498D01*
X40509327Y-31719815D01*
X40462253Y-31667534D01*
X40307752Y-31555282D01*
X40301724Y-31552598D01*
X40301722Y-31552597D01*
X40139319Y-31480291D01*
X40139318Y-31480291D01*
X40133288Y-31477606D01*
X40039887Y-31457753D01*
X39952944Y-31439272D01*
X39952939Y-31439272D01*
X39946487Y-31437900D01*
X39755513Y-31437900D01*
X39749061Y-31439272D01*
X39749056Y-31439272D01*
X39662113Y-31457753D01*
X39568712Y-31477606D01*
X39562682Y-31480291D01*
X39562681Y-31480291D01*
X39400278Y-31552597D01*
X39400276Y-31552598D01*
X39394248Y-31555282D01*
X39239747Y-31667534D01*
X39235326Y-31672444D01*
X39235325Y-31672445D01*
X39173150Y-31741498D01*
X39111960Y-31809456D01*
X39016473Y-31974844D01*
X38957458Y-32156472D01*
X38956768Y-32163033D01*
X38956768Y-32163035D01*
X38940922Y-32313802D01*
X38937496Y-32346400D01*
X38938186Y-32352965D01*
X38956396Y-32526219D01*
X38957458Y-32536328D01*
X39016473Y-32717956D01*
X39111960Y-32883344D01*
X39116378Y-32888251D01*
X39116379Y-32888252D01*
X39208358Y-32990405D01*
X39239747Y-33025266D01*
X39394248Y-33137518D01*
X39400276Y-33140202D01*
X39400278Y-33140203D01*
X39562681Y-33212509D01*
X39568712Y-33215194D01*
X39662112Y-33235047D01*
X39749056Y-33253528D01*
X39749061Y-33253528D01*
X39755513Y-33254900D01*
X39946487Y-33254900D01*
X39952939Y-33253528D01*
X39952944Y-33253528D01*
X40039888Y-33235047D01*
X40133288Y-33215194D01*
X40139319Y-33212509D01*
X40301722Y-33140203D01*
X40301724Y-33140202D01*
X40307752Y-33137518D01*
X40362926Y-33097432D01*
X40424681Y-33052564D01*
X40491549Y-33028705D01*
X40498742Y-33028500D01*
X43021853Y-33028500D01*
X43089974Y-33048502D01*
X43136467Y-33102158D01*
X43146571Y-33172432D01*
X43117077Y-33237012D01*
X43095914Y-33256436D01*
X43036072Y-33299914D01*
X43013747Y-33316134D01*
X43009326Y-33321044D01*
X43009325Y-33321045D01*
X42907526Y-33434105D01*
X42885960Y-33458056D01*
X42790473Y-33623444D01*
X42731458Y-33805072D01*
X42711496Y-33995000D01*
X42712186Y-34001564D01*
X42712186Y-34001565D01*
X42730650Y-34177237D01*
X42731458Y-34184928D01*
X42790473Y-34366556D01*
X42793776Y-34372277D01*
X42793777Y-34372279D01*
X42866074Y-34497500D01*
X42882812Y-34566495D01*
X42859592Y-34633587D01*
X42803785Y-34677474D01*
X42756955Y-34686500D01*
X42729513Y-34686500D01*
X42723061Y-34687872D01*
X42723056Y-34687872D01*
X42636113Y-34706353D01*
X42542712Y-34726206D01*
X42536682Y-34728891D01*
X42536681Y-34728891D01*
X42374278Y-34801197D01*
X42374276Y-34801198D01*
X42368248Y-34803882D01*
X42213747Y-34916134D01*
X42085960Y-35058056D01*
X41990473Y-35223444D01*
X41931458Y-35405072D01*
X41930768Y-35411633D01*
X41930768Y-35411635D01*
X41923819Y-35477749D01*
X41911496Y-35595000D01*
X41912186Y-35601565D01*
X41928996Y-35761500D01*
X41931458Y-35784928D01*
X41990473Y-35966556D01*
X42085960Y-36131944D01*
X42090378Y-36136851D01*
X42090379Y-36136852D01*
X42156761Y-36210577D01*
X42213747Y-36273866D01*
X42368248Y-36386118D01*
X42374276Y-36388802D01*
X42374278Y-36388803D01*
X42536681Y-36461109D01*
X42542712Y-36463794D01*
X42636112Y-36483647D01*
X42723056Y-36502128D01*
X42723061Y-36502128D01*
X42729513Y-36503500D01*
X42920487Y-36503500D01*
X42926939Y-36502128D01*
X42926944Y-36502128D01*
X43013888Y-36483647D01*
X43107288Y-36463794D01*
X43113319Y-36461109D01*
X43275722Y-36388803D01*
X43275724Y-36388802D01*
X43281752Y-36386118D01*
X43307883Y-36367133D01*
X43369226Y-36322564D01*
X43436093Y-36298706D01*
X43443287Y-36298500D01*
X43898134Y-36298500D01*
X43960316Y-36291745D01*
X43967716Y-36288971D01*
X43975400Y-36287144D01*
X43975833Y-36288965D01*
X44036570Y-36284515D01*
X44049448Y-36288297D01*
X44052287Y-36288972D01*
X44059684Y-36291745D01*
X44121866Y-36298500D01*
X44180406Y-36298500D01*
X44248527Y-36318502D01*
X44269501Y-36335405D01*
X44646343Y-36712247D01*
X44653887Y-36720537D01*
X44658000Y-36727018D01*
X44663777Y-36732443D01*
X44707667Y-36773658D01*
X44710509Y-36776413D01*
X44730230Y-36796134D01*
X44733425Y-36798612D01*
X44742447Y-36806318D01*
X44774679Y-36836586D01*
X44781628Y-36840406D01*
X44792432Y-36846346D01*
X44808956Y-36857199D01*
X44824959Y-36869613D01*
X44865543Y-36887176D01*
X44876173Y-36892383D01*
X44914940Y-36913695D01*
X44922617Y-36915666D01*
X44922622Y-36915668D01*
X44934558Y-36918732D01*
X44953266Y-36925137D01*
X44971855Y-36933181D01*
X44979683Y-36934421D01*
X44979690Y-36934423D01*
X45015524Y-36940099D01*
X45027144Y-36942505D01*
X45055909Y-36949890D01*
X45069970Y-36953500D01*
X45090224Y-36953500D01*
X45109934Y-36955051D01*
X45129943Y-36958220D01*
X45137835Y-36957474D01*
X45173961Y-36954059D01*
X45185819Y-36953500D01*
X47137831Y-36953500D01*
X47205952Y-36973502D01*
X47252445Y-37027158D01*
X47262549Y-37097432D01*
X47233055Y-37162012D01*
X47189080Y-37194607D01*
X47174278Y-37201197D01*
X47174276Y-37201198D01*
X47168248Y-37203882D01*
X47013747Y-37316134D01*
X46885960Y-37458056D01*
X46790473Y-37623444D01*
X46731458Y-37805072D01*
X46711496Y-37995000D01*
X46712186Y-38001565D01*
X46724228Y-38116134D01*
X46731458Y-38184928D01*
X46790473Y-38366556D01*
X46793776Y-38372278D01*
X46793777Y-38372279D01*
X46866074Y-38497500D01*
X46882812Y-38566495D01*
X46859592Y-38633587D01*
X46803785Y-38677474D01*
X46756955Y-38686500D01*
X46729513Y-38686500D01*
X46723061Y-38687872D01*
X46723056Y-38687872D01*
X46639175Y-38705702D01*
X46542712Y-38726206D01*
X46536682Y-38728891D01*
X46536681Y-38728891D01*
X46374278Y-38801197D01*
X46374276Y-38801198D01*
X46368248Y-38803882D01*
X46344616Y-38821052D01*
X46332228Y-38830052D01*
X46265360Y-38853910D01*
X46196209Y-38837829D01*
X46146729Y-38786914D01*
X46132858Y-38741285D01*
X46131556Y-38728891D01*
X46118542Y-38605072D01*
X46059527Y-38423444D01*
X45964040Y-38258056D01*
X45836253Y-38116134D01*
X45681752Y-38003882D01*
X45675724Y-38001198D01*
X45675722Y-38001197D01*
X45513319Y-37928891D01*
X45513318Y-37928891D01*
X45507288Y-37926206D01*
X45405001Y-37904464D01*
X45326944Y-37887872D01*
X45326939Y-37887872D01*
X45320487Y-37886500D01*
X45129513Y-37886500D01*
X45123061Y-37887872D01*
X45123056Y-37887872D01*
X45044999Y-37904464D01*
X44942712Y-37926206D01*
X44936682Y-37928891D01*
X44936681Y-37928891D01*
X44774278Y-38001197D01*
X44774276Y-38001198D01*
X44768248Y-38003882D01*
X44751115Y-38016330D01*
X44732228Y-38030052D01*
X44665360Y-38053910D01*
X44596209Y-38037829D01*
X44546729Y-37986914D01*
X44532858Y-37941285D01*
X44531556Y-37928891D01*
X44518542Y-37805072D01*
X44459527Y-37623444D01*
X44364040Y-37458056D01*
X44236253Y-37316134D01*
X44081752Y-37203882D01*
X44075724Y-37201198D01*
X44075722Y-37201197D01*
X43913319Y-37128891D01*
X43913318Y-37128891D01*
X43907288Y-37126206D01*
X43794152Y-37102158D01*
X43726944Y-37087872D01*
X43726939Y-37087872D01*
X43720487Y-37086500D01*
X43529513Y-37086500D01*
X43523061Y-37087872D01*
X43523056Y-37087872D01*
X43455848Y-37102158D01*
X43342712Y-37126206D01*
X43336682Y-37128891D01*
X43336681Y-37128891D01*
X43174278Y-37201197D01*
X43174276Y-37201198D01*
X43168248Y-37203882D01*
X43013747Y-37316134D01*
X42885960Y-37458056D01*
X42790473Y-37623444D01*
X42731458Y-37805072D01*
X42711496Y-37995000D01*
X42712186Y-38001565D01*
X42724228Y-38116134D01*
X42731458Y-38184928D01*
X42790473Y-38366556D01*
X42793776Y-38372278D01*
X42793777Y-38372279D01*
X42866074Y-38497500D01*
X42882812Y-38566495D01*
X42859592Y-38633587D01*
X42803785Y-38677474D01*
X42756955Y-38686500D01*
X42729513Y-38686500D01*
X42723061Y-38687872D01*
X42723056Y-38687872D01*
X42639175Y-38705702D01*
X42542712Y-38726206D01*
X42536682Y-38728891D01*
X42536681Y-38728891D01*
X42374278Y-38801197D01*
X42374276Y-38801198D01*
X42368248Y-38803882D01*
X42213747Y-38916134D01*
X42085960Y-39058056D01*
X41990473Y-39223444D01*
X41931458Y-39405072D01*
X41930768Y-39411633D01*
X41930768Y-39411635D01*
X41923819Y-39477749D01*
X41911496Y-39595000D01*
X41931458Y-39784928D01*
X41990473Y-39966556D01*
X42085960Y-40131944D01*
X42090378Y-40136851D01*
X42090379Y-40136852D01*
X42156761Y-40210577D01*
X42213747Y-40273866D01*
X42368248Y-40386118D01*
X42374276Y-40388802D01*
X42374278Y-40388803D01*
X42536681Y-40461109D01*
X42542712Y-40463794D01*
X42636112Y-40483647D01*
X42723056Y-40502128D01*
X42723061Y-40502128D01*
X42729513Y-40503500D01*
X42920487Y-40503500D01*
X42926939Y-40502128D01*
X42926944Y-40502128D01*
X43013888Y-40483647D01*
X43107288Y-40463794D01*
X43113319Y-40461109D01*
X43275722Y-40388803D01*
X43275724Y-40388802D01*
X43281752Y-40386118D01*
X43307883Y-40367133D01*
X43369226Y-40322564D01*
X43436093Y-40298706D01*
X43443287Y-40298500D01*
X43898134Y-40298500D01*
X43960316Y-40291745D01*
X43967716Y-40288971D01*
X43975400Y-40287144D01*
X43975833Y-40288965D01*
X44036570Y-40284515D01*
X44049448Y-40288297D01*
X44052287Y-40288972D01*
X44059684Y-40291745D01*
X44121866Y-40298500D01*
X44180406Y-40298500D01*
X44248527Y-40318502D01*
X44269501Y-40335405D01*
X44646343Y-40712247D01*
X44653887Y-40720537D01*
X44658000Y-40727018D01*
X44663777Y-40732443D01*
X44707667Y-40773658D01*
X44710509Y-40776413D01*
X44730230Y-40796134D01*
X44733425Y-40798612D01*
X44742447Y-40806318D01*
X44774679Y-40836586D01*
X44781628Y-40840406D01*
X44792432Y-40846346D01*
X44808956Y-40857199D01*
X44824959Y-40869613D01*
X44865543Y-40887176D01*
X44876173Y-40892383D01*
X44914940Y-40913695D01*
X44922617Y-40915666D01*
X44922622Y-40915668D01*
X44934558Y-40918732D01*
X44953266Y-40925137D01*
X44971855Y-40933181D01*
X44979683Y-40934421D01*
X44979690Y-40934423D01*
X45015524Y-40940099D01*
X45027144Y-40942505D01*
X45062289Y-40951528D01*
X45069970Y-40953500D01*
X45090224Y-40953500D01*
X45109934Y-40955051D01*
X45129943Y-40958220D01*
X45137835Y-40957474D01*
X45173961Y-40954059D01*
X45185819Y-40953500D01*
X47137831Y-40953500D01*
X47205952Y-40973502D01*
X47252445Y-41027158D01*
X47262549Y-41097432D01*
X47233055Y-41162012D01*
X47189080Y-41194607D01*
X47174278Y-41201197D01*
X47174276Y-41201198D01*
X47168248Y-41203882D01*
X47013747Y-41316134D01*
X47009326Y-41321044D01*
X47009325Y-41321045D01*
X46898403Y-41444237D01*
X46885960Y-41458056D01*
X46790473Y-41623444D01*
X46731458Y-41805072D01*
X46730768Y-41811633D01*
X46730768Y-41811635D01*
X46721113Y-41903500D01*
X46711496Y-41995000D01*
X46712186Y-42001565D01*
X46724228Y-42116134D01*
X46731458Y-42184928D01*
X46790473Y-42366556D01*
X46793776Y-42372278D01*
X46793777Y-42372279D01*
X46866074Y-42497500D01*
X46882812Y-42566495D01*
X46859592Y-42633587D01*
X46803785Y-42677474D01*
X46756955Y-42686500D01*
X46729513Y-42686500D01*
X46723061Y-42687872D01*
X46723056Y-42687872D01*
X46651793Y-42703020D01*
X46542712Y-42726206D01*
X46536682Y-42728891D01*
X46536681Y-42728891D01*
X46374278Y-42801197D01*
X46374276Y-42801198D01*
X46368248Y-42803882D01*
X46344616Y-42821052D01*
X46332228Y-42830052D01*
X46265360Y-42853910D01*
X46196209Y-42837829D01*
X46146729Y-42786914D01*
X46132858Y-42741285D01*
X46131988Y-42733002D01*
X46118542Y-42605072D01*
X46059527Y-42423444D01*
X46026753Y-42366677D01*
X46012742Y-42342411D01*
X45964040Y-42258056D01*
X45859845Y-42142335D01*
X45840675Y-42121045D01*
X45840674Y-42121044D01*
X45836253Y-42116134D01*
X45681752Y-42003882D01*
X45675724Y-42001198D01*
X45675722Y-42001197D01*
X45513319Y-41928891D01*
X45513318Y-41928891D01*
X45507288Y-41926206D01*
X45405001Y-41904464D01*
X45326944Y-41887872D01*
X45326939Y-41887872D01*
X45320487Y-41886500D01*
X45129513Y-41886500D01*
X45123061Y-41887872D01*
X45123056Y-41887872D01*
X45044999Y-41904464D01*
X44942712Y-41926206D01*
X44936682Y-41928891D01*
X44936681Y-41928891D01*
X44774278Y-42001197D01*
X44774276Y-42001198D01*
X44768248Y-42003882D01*
X44751115Y-42016330D01*
X44732228Y-42030052D01*
X44665360Y-42053910D01*
X44596209Y-42037829D01*
X44546729Y-41986914D01*
X44532858Y-41941285D01*
X44531556Y-41928891D01*
X44518542Y-41805072D01*
X44459527Y-41623444D01*
X44364040Y-41458056D01*
X44351598Y-41444237D01*
X44240675Y-41321045D01*
X44240674Y-41321044D01*
X44236253Y-41316134D01*
X44081752Y-41203882D01*
X44075724Y-41201198D01*
X44075722Y-41201197D01*
X43913319Y-41128891D01*
X43913318Y-41128891D01*
X43907288Y-41126206D01*
X43813888Y-41106353D01*
X43726944Y-41087872D01*
X43726939Y-41087872D01*
X43720487Y-41086500D01*
X43529513Y-41086500D01*
X43523061Y-41087872D01*
X43523056Y-41087872D01*
X43436112Y-41106353D01*
X43342712Y-41126206D01*
X43336682Y-41128891D01*
X43336681Y-41128891D01*
X43174278Y-41201197D01*
X43174276Y-41201198D01*
X43168248Y-41203882D01*
X43013747Y-41316134D01*
X43009326Y-41321044D01*
X43009325Y-41321045D01*
X42898403Y-41444237D01*
X42885960Y-41458056D01*
X42790473Y-41623444D01*
X42731458Y-41805072D01*
X42730768Y-41811633D01*
X42730768Y-41811635D01*
X42721113Y-41903500D01*
X42711496Y-41995000D01*
X42712186Y-42001565D01*
X42724228Y-42116134D01*
X42731458Y-42184928D01*
X42790473Y-42366556D01*
X42793776Y-42372278D01*
X42793777Y-42372279D01*
X42866074Y-42497500D01*
X42882812Y-42566495D01*
X42859592Y-42633587D01*
X42803785Y-42677474D01*
X42756955Y-42686500D01*
X42729513Y-42686500D01*
X42723061Y-42687872D01*
X42723056Y-42687872D01*
X42651793Y-42703020D01*
X42542712Y-42726206D01*
X42536682Y-42728891D01*
X42536681Y-42728891D01*
X42374278Y-42801197D01*
X42374276Y-42801198D01*
X42368248Y-42803882D01*
X42213747Y-42916134D01*
X42209326Y-42921044D01*
X42209325Y-42921045D01*
X42173313Y-42961041D01*
X42085960Y-43058056D01*
X41990473Y-43223444D01*
X41931458Y-43405072D01*
X41930768Y-43411633D01*
X41930768Y-43411635D01*
X41923819Y-43477749D01*
X41911496Y-43595000D01*
X41912186Y-43601565D01*
X41928996Y-43761500D01*
X41931458Y-43784928D01*
X41990473Y-43966556D01*
X42085960Y-44131944D01*
X42090378Y-44136851D01*
X42090379Y-44136852D01*
X42103830Y-44151791D01*
X42134547Y-44215799D01*
X42125782Y-44286252D01*
X42080318Y-44340783D01*
X42010193Y-44362100D01*
X41283700Y-44362100D01*
X41215579Y-44342098D01*
X41196353Y-44325757D01*
X41196080Y-44326060D01*
X41191168Y-44321637D01*
X41186753Y-44316734D01*
X41138913Y-44281976D01*
X41037594Y-44208363D01*
X41037593Y-44208362D01*
X41032252Y-44204482D01*
X41026224Y-44201798D01*
X41026222Y-44201797D01*
X40863819Y-44129491D01*
X40863818Y-44129491D01*
X40857788Y-44126806D01*
X40764388Y-44106953D01*
X40677444Y-44088472D01*
X40677439Y-44088472D01*
X40670987Y-44087100D01*
X40480013Y-44087100D01*
X40473561Y-44088472D01*
X40473556Y-44088472D01*
X40386612Y-44106953D01*
X40293212Y-44126806D01*
X40287182Y-44129491D01*
X40287181Y-44129491D01*
X40124778Y-44201797D01*
X40124776Y-44201798D01*
X40118748Y-44204482D01*
X40113407Y-44208362D01*
X40113406Y-44208363D01*
X40091201Y-44224496D01*
X39964247Y-44316734D01*
X39959826Y-44321644D01*
X39959825Y-44321645D01*
X39860484Y-44431975D01*
X39836460Y-44458656D01*
X39740973Y-44624044D01*
X39681958Y-44805672D01*
X39661996Y-44995600D01*
X39662686Y-45002165D01*
X39680582Y-45172432D01*
X39681958Y-45185528D01*
X39740973Y-45367156D01*
X39836460Y-45532544D01*
X39840878Y-45537451D01*
X39840879Y-45537452D01*
X39920765Y-45626174D01*
X39964247Y-45674466D01*
X39972917Y-45680765D01*
X40106650Y-45777928D01*
X40118748Y-45786718D01*
X40124776Y-45789402D01*
X40124778Y-45789403D01*
X40194408Y-45820404D01*
X40293212Y-45864394D01*
X40386613Y-45884247D01*
X40473556Y-45902728D01*
X40473561Y-45902728D01*
X40480013Y-45904100D01*
X40670987Y-45904100D01*
X40677445Y-45902727D01*
X40677448Y-45902727D01*
X40685300Y-45901058D01*
X40756091Y-45906459D01*
X40812724Y-45949274D01*
X40837219Y-46015911D01*
X40821799Y-46085213D01*
X40803850Y-46107846D01*
X40804919Y-46108809D01*
X40677132Y-46250731D01*
X40673831Y-46256449D01*
X40600858Y-46382842D01*
X40581645Y-46416119D01*
X40522630Y-46597747D01*
X40521940Y-46604308D01*
X40521940Y-46604310D01*
X40506505Y-46751172D01*
X40502668Y-46787675D01*
X40503358Y-46794240D01*
X40516168Y-46916116D01*
X40522630Y-46977603D01*
X40524670Y-46983881D01*
X40580671Y-47156234D01*
X40582699Y-47227201D01*
X40546036Y-47287999D01*
X40508848Y-47308940D01*
X40509793Y-47311123D01*
X40502522Y-47314269D01*
X40494907Y-47316482D01*
X40488081Y-47320519D01*
X40477472Y-47326793D01*
X40459724Y-47335488D01*
X40440883Y-47342948D01*
X40434467Y-47347610D01*
X40434466Y-47347610D01*
X40405113Y-47368936D01*
X40395193Y-47375452D01*
X40363965Y-47393920D01*
X40363962Y-47393922D01*
X40357138Y-47397958D01*
X40342817Y-47412279D01*
X40327784Y-47425119D01*
X40311393Y-47437028D01*
X40306342Y-47443134D01*
X40283202Y-47471105D01*
X40275212Y-47479884D01*
X38350500Y-49404595D01*
X38288188Y-49438621D01*
X38261405Y-49441500D01*
X36952866Y-49441500D01*
X36890684Y-49448255D01*
X36754295Y-49499385D01*
X36637739Y-49586739D01*
X36550385Y-49703295D01*
X36499255Y-49839684D01*
X36492500Y-49901866D01*
X36492500Y-51698134D01*
X36499255Y-51760316D01*
X36550385Y-51896705D01*
X36637739Y-52013261D01*
X36754295Y-52100615D01*
X36890684Y-52151745D01*
X36952866Y-52158500D01*
X38749134Y-52158500D01*
X38811316Y-52151745D01*
X38947705Y-52100615D01*
X39064261Y-52013261D01*
X39151615Y-51896705D01*
X39172433Y-51841173D01*
X39195598Y-51779382D01*
X39238240Y-51722618D01*
X39304802Y-51697918D01*
X39374150Y-51713126D01*
X39408817Y-51741114D01*
X39437250Y-51773938D01*
X39609126Y-51916632D01*
X39802000Y-52029338D01*
X39806825Y-52031180D01*
X39806826Y-52031181D01*
X39859971Y-52051475D01*
X40010692Y-52109030D01*
X40015760Y-52110061D01*
X40015763Y-52110062D01*
X40110862Y-52129410D01*
X40229597Y-52153567D01*
X40234772Y-52153757D01*
X40234774Y-52153757D01*
X40447673Y-52161564D01*
X40447677Y-52161564D01*
X40452837Y-52161753D01*
X40457957Y-52161097D01*
X40457959Y-52161097D01*
X40669288Y-52134025D01*
X40669289Y-52134025D01*
X40674416Y-52133368D01*
X40679366Y-52131883D01*
X40883429Y-52070661D01*
X40883434Y-52070659D01*
X40888384Y-52069174D01*
X41088994Y-51970896D01*
X41270860Y-51841173D01*
X41312829Y-51799351D01*
X41414616Y-51697918D01*
X41429096Y-51683489D01*
X41559453Y-51502077D01*
X41560640Y-51502930D01*
X41607960Y-51459362D01*
X41677897Y-51447145D01*
X41743338Y-51474678D01*
X41771166Y-51506511D01*
X41828694Y-51600388D01*
X41834777Y-51608699D01*
X41974213Y-51769667D01*
X41981580Y-51776883D01*
X42145434Y-51912916D01*
X42153881Y-51918831D01*
X42337756Y-52026279D01*
X42347042Y-52030729D01*
X42546001Y-52106703D01*
X42555899Y-52109579D01*
X42659250Y-52130606D01*
X42673299Y-52129410D01*
X42677000Y-52119065D01*
X42677000Y-49483102D01*
X42673082Y-49469758D01*
X42658806Y-49467771D01*
X42620324Y-49473660D01*
X42610288Y-49476051D01*
X42407868Y-49542212D01*
X42398359Y-49546209D01*
X42209463Y-49644542D01*
X42200738Y-49650036D01*
X42030433Y-49777905D01*
X42022726Y-49784748D01*
X41875590Y-49938717D01*
X41869109Y-49946722D01*
X41764498Y-50100074D01*
X41709587Y-50145076D01*
X41639062Y-50153247D01*
X41575315Y-50121993D01*
X41554618Y-50097509D01*
X41473822Y-49972617D01*
X41473820Y-49972614D01*
X41471014Y-49968277D01*
X41320670Y-49803051D01*
X41316619Y-49799852D01*
X41316615Y-49799848D01*
X41149414Y-49667800D01*
X41149410Y-49667798D01*
X41145359Y-49664598D01*
X41140831Y-49662098D01*
X41024988Y-49598150D01*
X40949789Y-49556638D01*
X40944920Y-49554914D01*
X40944916Y-49554912D01*
X40744087Y-49483795D01*
X40744083Y-49483794D01*
X40739212Y-49482069D01*
X40734119Y-49481162D01*
X40734116Y-49481161D01*
X40524373Y-49443800D01*
X40524367Y-49443799D01*
X40519284Y-49442894D01*
X40408011Y-49441535D01*
X40340141Y-49420702D01*
X40294307Y-49366483D01*
X40285062Y-49296091D01*
X40315341Y-49231875D01*
X40320456Y-49226449D01*
X40974000Y-48572905D01*
X41036312Y-48538879D01*
X41063095Y-48536000D01*
X42232301Y-48536000D01*
X42300422Y-48556002D01*
X42339445Y-48595698D01*
X42353884Y-48619031D01*
X42359066Y-48624204D01*
X42471816Y-48736758D01*
X42471821Y-48736762D01*
X42476997Y-48741929D01*
X42483227Y-48745769D01*
X42483228Y-48745770D01*
X42617926Y-48828799D01*
X42625080Y-48833209D01*
X42790191Y-48887974D01*
X42797027Y-48888674D01*
X42797030Y-48888675D01*
X42844468Y-48893535D01*
X42892928Y-48898500D01*
X43227906Y-48898500D01*
X43296027Y-48918502D01*
X43317001Y-48935405D01*
X43882554Y-49500958D01*
X43916579Y-49563269D01*
X43911514Y-49634084D01*
X43868967Y-49690920D01*
X43802447Y-49715731D01*
X43733073Y-49700640D01*
X43715367Y-49688935D01*
X43689138Y-49668221D01*
X43680552Y-49662517D01*
X43494117Y-49559599D01*
X43484705Y-49555369D01*
X43283959Y-49484280D01*
X43273988Y-49481646D01*
X43202837Y-49468972D01*
X43189540Y-49470432D01*
X43185000Y-49484989D01*
X43185000Y-52118517D01*
X43189064Y-52132359D01*
X43202478Y-52134393D01*
X43209184Y-52133534D01*
X43219262Y-52131392D01*
X43423255Y-52070191D01*
X43432842Y-52066433D01*
X43624095Y-51972739D01*
X43632945Y-51967464D01*
X43806328Y-51843792D01*
X43814200Y-51837139D01*
X43965052Y-51686812D01*
X43971730Y-51678965D01*
X44099022Y-51501819D01*
X44100279Y-51502722D01*
X44147373Y-51459362D01*
X44217311Y-51447145D01*
X44282751Y-51474678D01*
X44310579Y-51506511D01*
X44370987Y-51605088D01*
X44517250Y-51773938D01*
X44689126Y-51916632D01*
X44882000Y-52029338D01*
X44886825Y-52031180D01*
X44886826Y-52031181D01*
X44939971Y-52051475D01*
X45090692Y-52109030D01*
X45095760Y-52110061D01*
X45095763Y-52110062D01*
X45190862Y-52129410D01*
X45309597Y-52153567D01*
X45314772Y-52153757D01*
X45314774Y-52153757D01*
X45527673Y-52161564D01*
X45527677Y-52161564D01*
X45532837Y-52161753D01*
X45537957Y-52161097D01*
X45537959Y-52161097D01*
X45749288Y-52134025D01*
X45749289Y-52134025D01*
X45754416Y-52133368D01*
X45759366Y-52131883D01*
X45963429Y-52070661D01*
X45963434Y-52070659D01*
X45968384Y-52069174D01*
X46168994Y-51970896D01*
X46350860Y-51841173D01*
X46392829Y-51799351D01*
X46494616Y-51697918D01*
X46509096Y-51683489D01*
X46639453Y-51502077D01*
X46640776Y-51503028D01*
X46687645Y-51459857D01*
X46757580Y-51447625D01*
X46823026Y-51475144D01*
X46850875Y-51506994D01*
X46910987Y-51605088D01*
X47057250Y-51773938D01*
X47229126Y-51916632D01*
X47422000Y-52029338D01*
X47426825Y-52031180D01*
X47426826Y-52031181D01*
X47479971Y-52051475D01*
X47630692Y-52109030D01*
X47635760Y-52110061D01*
X47635763Y-52110062D01*
X47730862Y-52129410D01*
X47849597Y-52153567D01*
X47854772Y-52153757D01*
X47854774Y-52153757D01*
X48067673Y-52161564D01*
X48067677Y-52161564D01*
X48072837Y-52161753D01*
X48077957Y-52161097D01*
X48077959Y-52161097D01*
X48289288Y-52134025D01*
X48289289Y-52134025D01*
X48294416Y-52133368D01*
X48299366Y-52131883D01*
X48503429Y-52070661D01*
X48503434Y-52070659D01*
X48508384Y-52069174D01*
X48708994Y-51970896D01*
X48890860Y-51841173D01*
X48932829Y-51799351D01*
X49034616Y-51697918D01*
X49049096Y-51683489D01*
X49179453Y-51502077D01*
X49180776Y-51503028D01*
X49227645Y-51459857D01*
X49297580Y-51447625D01*
X49363026Y-51475144D01*
X49390875Y-51506994D01*
X49450987Y-51605088D01*
X49597250Y-51773938D01*
X49769126Y-51916632D01*
X49962000Y-52029338D01*
X49966825Y-52031180D01*
X49966826Y-52031181D01*
X50019971Y-52051475D01*
X50170692Y-52109030D01*
X50175760Y-52110061D01*
X50175763Y-52110062D01*
X50270862Y-52129410D01*
X50389597Y-52153567D01*
X50394772Y-52153757D01*
X50394774Y-52153757D01*
X50607673Y-52161564D01*
X50607677Y-52161564D01*
X50612837Y-52161753D01*
X50617957Y-52161097D01*
X50617959Y-52161097D01*
X50829288Y-52134025D01*
X50829289Y-52134025D01*
X50834416Y-52133368D01*
X50839366Y-52131883D01*
X51043429Y-52070661D01*
X51043434Y-52070659D01*
X51048384Y-52069174D01*
X51248994Y-51970896D01*
X51430860Y-51841173D01*
X51472829Y-51799351D01*
X51574616Y-51697918D01*
X51589096Y-51683489D01*
X51719453Y-51502077D01*
X51720776Y-51503028D01*
X51767645Y-51459857D01*
X51837580Y-51447625D01*
X51903026Y-51475144D01*
X51930875Y-51506994D01*
X51990987Y-51605088D01*
X52137250Y-51773938D01*
X52309126Y-51916632D01*
X52502000Y-52029338D01*
X52506825Y-52031180D01*
X52506826Y-52031181D01*
X52559971Y-52051475D01*
X52710692Y-52109030D01*
X52715760Y-52110061D01*
X52715763Y-52110062D01*
X52810862Y-52129410D01*
X52929597Y-52153567D01*
X52934772Y-52153757D01*
X52934774Y-52153757D01*
X53147673Y-52161564D01*
X53147677Y-52161564D01*
X53152837Y-52161753D01*
X53157957Y-52161097D01*
X53157959Y-52161097D01*
X53369288Y-52134025D01*
X53369289Y-52134025D01*
X53374416Y-52133368D01*
X53379366Y-52131883D01*
X53583429Y-52070661D01*
X53583434Y-52070659D01*
X53588384Y-52069174D01*
X53788994Y-51970896D01*
X53970860Y-51841173D01*
X54012829Y-51799351D01*
X54114616Y-51697918D01*
X54129096Y-51683489D01*
X54259453Y-51502077D01*
X54260640Y-51502930D01*
X54307960Y-51459362D01*
X54377897Y-51447145D01*
X54443338Y-51474678D01*
X54471166Y-51506511D01*
X54528694Y-51600388D01*
X54534777Y-51608699D01*
X54674213Y-51769667D01*
X54681580Y-51776883D01*
X54845434Y-51912916D01*
X54853881Y-51918831D01*
X55037756Y-52026279D01*
X55047042Y-52030729D01*
X55246001Y-52106703D01*
X55255899Y-52109579D01*
X55359250Y-52130606D01*
X55373299Y-52129410D01*
X55377000Y-52119065D01*
X55377000Y-50672000D01*
X55397002Y-50603879D01*
X55450658Y-50557386D01*
X55503000Y-50546000D01*
X55759000Y-50546000D01*
X55827121Y-50566002D01*
X55873614Y-50619658D01*
X55885000Y-50672000D01*
X55885000Y-52118517D01*
X55889064Y-52132359D01*
X55902478Y-52134393D01*
X55909184Y-52133534D01*
X55919262Y-52131392D01*
X56123255Y-52070191D01*
X56132842Y-52066433D01*
X56324095Y-51972739D01*
X56332945Y-51967464D01*
X56506328Y-51843792D01*
X56514200Y-51837139D01*
X56665052Y-51686812D01*
X56671730Y-51678965D01*
X56799022Y-51501819D01*
X56800279Y-51502722D01*
X56847373Y-51459362D01*
X56917311Y-51447145D01*
X56982751Y-51474678D01*
X57010579Y-51506511D01*
X57070987Y-51605088D01*
X57217250Y-51773938D01*
X57389126Y-51916632D01*
X57582000Y-52029338D01*
X57586825Y-52031180D01*
X57586826Y-52031181D01*
X57639971Y-52051475D01*
X57790692Y-52109030D01*
X57795760Y-52110061D01*
X57795763Y-52110062D01*
X57890862Y-52129410D01*
X58009597Y-52153567D01*
X58014772Y-52153757D01*
X58014774Y-52153757D01*
X58227673Y-52161564D01*
X58227677Y-52161564D01*
X58232837Y-52161753D01*
X58237957Y-52161097D01*
X58237959Y-52161097D01*
X58449288Y-52134025D01*
X58449289Y-52134025D01*
X58454416Y-52133368D01*
X58459366Y-52131883D01*
X58663429Y-52070661D01*
X58663434Y-52070659D01*
X58668384Y-52069174D01*
X58868994Y-51970896D01*
X58873199Y-51967896D01*
X58873205Y-51967893D01*
X59018082Y-51864553D01*
X59036986Y-51851069D01*
X59104059Y-51827795D01*
X59173068Y-51844479D01*
X59199249Y-51864553D01*
X59707543Y-52372847D01*
X59715087Y-52381137D01*
X59719200Y-52387618D01*
X59724977Y-52393043D01*
X59768867Y-52434258D01*
X59771709Y-52437013D01*
X59791431Y-52456735D01*
X59794555Y-52459158D01*
X59794559Y-52459162D01*
X59794624Y-52459212D01*
X59803645Y-52466917D01*
X59835879Y-52497186D01*
X59842827Y-52501005D01*
X59842829Y-52501007D01*
X59853632Y-52506946D01*
X59870159Y-52517802D01*
X59879898Y-52525357D01*
X59879900Y-52525358D01*
X59886160Y-52530214D01*
X59926740Y-52547774D01*
X59937388Y-52552991D01*
X59962176Y-52566618D01*
X59976140Y-52574295D01*
X59983816Y-52576266D01*
X59983819Y-52576267D01*
X59995762Y-52579333D01*
X60014467Y-52585737D01*
X60033055Y-52593781D01*
X60040878Y-52595020D01*
X60040888Y-52595023D01*
X60076724Y-52600699D01*
X60088344Y-52603105D01*
X60120159Y-52611273D01*
X60131170Y-52614100D01*
X60151424Y-52614100D01*
X60171134Y-52615651D01*
X60191143Y-52618820D01*
X60199035Y-52618074D01*
X60217780Y-52616302D01*
X60235162Y-52614659D01*
X60247019Y-52614100D01*
X61148433Y-52614100D01*
X61159616Y-52614627D01*
X61167109Y-52616302D01*
X61175035Y-52616053D01*
X61175036Y-52616053D01*
X61235186Y-52614162D01*
X61239145Y-52614100D01*
X61267056Y-52614100D01*
X61270991Y-52613603D01*
X61271056Y-52613595D01*
X61282893Y-52612662D01*
X61315151Y-52611648D01*
X61319170Y-52611522D01*
X61327089Y-52611273D01*
X61346543Y-52605621D01*
X61365900Y-52601613D01*
X61378130Y-52600068D01*
X61378131Y-52600068D01*
X61385997Y-52599074D01*
X61393368Y-52596155D01*
X61393370Y-52596155D01*
X61427112Y-52582796D01*
X61438342Y-52578951D01*
X61473183Y-52568829D01*
X61473184Y-52568829D01*
X61480793Y-52566618D01*
X61487612Y-52562585D01*
X61487617Y-52562583D01*
X61498228Y-52556307D01*
X61515976Y-52547612D01*
X61534817Y-52540152D01*
X61570587Y-52514164D01*
X61580507Y-52507648D01*
X61611735Y-52489180D01*
X61611738Y-52489178D01*
X61618562Y-52485142D01*
X61632883Y-52470821D01*
X61647917Y-52457980D01*
X61649631Y-52456735D01*
X61664307Y-52446072D01*
X61692498Y-52411995D01*
X61700488Y-52403216D01*
X62233803Y-51869901D01*
X62296115Y-51835875D01*
X62366930Y-51840940D01*
X62403383Y-51862052D01*
X62465147Y-51913330D01*
X62465158Y-51913338D01*
X62469126Y-51916632D01*
X62662000Y-52029338D01*
X62666825Y-52031180D01*
X62666826Y-52031181D01*
X62719971Y-52051475D01*
X62870692Y-52109030D01*
X62875760Y-52110061D01*
X62875763Y-52110062D01*
X62970862Y-52129410D01*
X63089597Y-52153567D01*
X63094772Y-52153757D01*
X63094774Y-52153757D01*
X63307673Y-52161564D01*
X63307677Y-52161564D01*
X63312837Y-52161753D01*
X63317957Y-52161097D01*
X63317959Y-52161097D01*
X63529288Y-52134025D01*
X63529289Y-52134025D01*
X63534416Y-52133368D01*
X63539366Y-52131883D01*
X63743429Y-52070661D01*
X63743434Y-52070659D01*
X63748384Y-52069174D01*
X63948994Y-51970896D01*
X64130860Y-51841173D01*
X64172829Y-51799351D01*
X64274616Y-51697918D01*
X64289096Y-51683489D01*
X64419453Y-51502077D01*
X64420776Y-51503028D01*
X64467645Y-51459857D01*
X64537580Y-51447625D01*
X64603026Y-51475144D01*
X64630875Y-51506994D01*
X64690987Y-51605088D01*
X64837250Y-51773938D01*
X65009126Y-51916632D01*
X65202000Y-52029338D01*
X65206825Y-52031180D01*
X65206826Y-52031181D01*
X65259971Y-52051475D01*
X65410692Y-52109030D01*
X65415760Y-52110061D01*
X65415763Y-52110062D01*
X65510862Y-52129410D01*
X65629597Y-52153567D01*
X65634772Y-52153757D01*
X65634774Y-52153757D01*
X65847673Y-52161564D01*
X65847677Y-52161564D01*
X65852837Y-52161753D01*
X65857957Y-52161097D01*
X65857959Y-52161097D01*
X66069288Y-52134025D01*
X66069289Y-52134025D01*
X66074416Y-52133368D01*
X66079366Y-52131883D01*
X66283429Y-52070661D01*
X66283434Y-52070659D01*
X66288384Y-52069174D01*
X66488994Y-51970896D01*
X66670860Y-51841173D01*
X66712829Y-51799351D01*
X66814616Y-51697918D01*
X66829096Y-51683489D01*
X66959453Y-51502077D01*
X66960640Y-51502930D01*
X67007960Y-51459362D01*
X67077897Y-51447145D01*
X67143338Y-51474678D01*
X67171166Y-51506511D01*
X67228694Y-51600388D01*
X67234777Y-51608699D01*
X67374213Y-51769667D01*
X67381580Y-51776883D01*
X67545434Y-51912916D01*
X67553881Y-51918831D01*
X67737756Y-52026279D01*
X67747042Y-52030729D01*
X67946001Y-52106703D01*
X67955899Y-52109579D01*
X68059250Y-52130606D01*
X68073299Y-52129410D01*
X68077000Y-52119065D01*
X68077000Y-49483102D01*
X68073082Y-49469758D01*
X68058806Y-49467771D01*
X68020324Y-49473660D01*
X68010288Y-49476051D01*
X67807868Y-49542212D01*
X67798359Y-49546209D01*
X67609463Y-49644542D01*
X67600738Y-49650036D01*
X67430433Y-49777905D01*
X67422726Y-49784748D01*
X67275590Y-49938717D01*
X67269109Y-49946722D01*
X67164498Y-50100074D01*
X67109587Y-50145076D01*
X67039062Y-50153247D01*
X66975315Y-50121993D01*
X66954618Y-50097509D01*
X66873822Y-49972617D01*
X66873820Y-49972614D01*
X66871014Y-49968277D01*
X66720670Y-49803051D01*
X66716619Y-49799852D01*
X66716615Y-49799848D01*
X66549414Y-49667800D01*
X66549410Y-49667798D01*
X66545359Y-49664598D01*
X66540835Y-49662101D01*
X66540831Y-49662098D01*
X66489608Y-49633822D01*
X66439636Y-49583390D01*
X66424500Y-49523513D01*
X66424500Y-48980697D01*
X66444502Y-48912576D01*
X66498158Y-48866083D01*
X66510618Y-48861175D01*
X66596107Y-48832654D01*
X66744031Y-48741116D01*
X66749324Y-48735814D01*
X66861758Y-48623184D01*
X66861762Y-48623179D01*
X66866929Y-48618003D01*
X66870770Y-48611772D01*
X66954369Y-48476150D01*
X66954370Y-48476148D01*
X66958209Y-48469920D01*
X67012974Y-48304809D01*
X67015539Y-48279779D01*
X67023172Y-48205271D01*
X67023500Y-48202072D01*
X67023500Y-47849500D01*
X67043502Y-47781379D01*
X67097158Y-47734886D01*
X67149500Y-47723500D01*
X67470500Y-47723500D01*
X67538621Y-47743502D01*
X67585114Y-47797158D01*
X67596500Y-47849500D01*
X67596500Y-48202072D01*
X67596837Y-48205318D01*
X67596837Y-48205322D01*
X67604563Y-48279779D01*
X67607293Y-48306093D01*
X67609474Y-48312629D01*
X67609474Y-48312631D01*
X67627934Y-48367962D01*
X67662346Y-48471107D01*
X67753884Y-48619031D01*
X67759066Y-48624204D01*
X67871816Y-48736758D01*
X67871821Y-48736762D01*
X67876997Y-48741929D01*
X67883227Y-48745769D01*
X67883228Y-48745770D01*
X68015367Y-48827222D01*
X68057704Y-48870342D01*
X68068395Y-48888419D01*
X68075458Y-48900362D01*
X68089779Y-48914683D01*
X68102619Y-48929716D01*
X68114528Y-48946107D01*
X68120634Y-48951158D01*
X68148605Y-48974298D01*
X68157384Y-48982288D01*
X68548975Y-49373879D01*
X68583001Y-49436191D01*
X68581694Y-49465795D01*
X68585000Y-49465795D01*
X68585000Y-52118517D01*
X68589064Y-52132359D01*
X68602478Y-52134393D01*
X68609184Y-52133534D01*
X68619262Y-52131392D01*
X68823255Y-52070191D01*
X68832842Y-52066433D01*
X69024095Y-51972739D01*
X69032945Y-51967464D01*
X69206328Y-51843792D01*
X69214200Y-51837139D01*
X69365052Y-51686812D01*
X69371730Y-51678965D01*
X69499022Y-51501819D01*
X69500279Y-51502722D01*
X69547373Y-51459362D01*
X69617311Y-51447145D01*
X69682751Y-51474678D01*
X69710579Y-51506511D01*
X69770987Y-51605088D01*
X69917250Y-51773938D01*
X70089126Y-51916632D01*
X70282000Y-52029338D01*
X70286825Y-52031180D01*
X70286826Y-52031181D01*
X70339971Y-52051475D01*
X70490692Y-52109030D01*
X70495760Y-52110061D01*
X70495763Y-52110062D01*
X70590862Y-52129410D01*
X70709597Y-52153567D01*
X70714772Y-52153757D01*
X70714774Y-52153757D01*
X70927673Y-52161564D01*
X70927677Y-52161564D01*
X70932837Y-52161753D01*
X70937957Y-52161097D01*
X70937959Y-52161097D01*
X71149288Y-52134025D01*
X71149289Y-52134025D01*
X71154416Y-52133368D01*
X71159366Y-52131883D01*
X71363429Y-52070661D01*
X71363434Y-52070659D01*
X71368384Y-52069174D01*
X71568994Y-51970896D01*
X71750860Y-51841173D01*
X71792829Y-51799351D01*
X71894616Y-51697918D01*
X71909096Y-51683489D01*
X72039453Y-51502077D01*
X72040776Y-51503028D01*
X72087645Y-51459857D01*
X72157580Y-51447625D01*
X72223026Y-51475144D01*
X72250875Y-51506994D01*
X72310987Y-51605088D01*
X72457250Y-51773938D01*
X72629126Y-51916632D01*
X72822000Y-52029338D01*
X72826825Y-52031180D01*
X72826826Y-52031181D01*
X72879971Y-52051475D01*
X73030692Y-52109030D01*
X73035760Y-52110061D01*
X73035763Y-52110062D01*
X73130862Y-52129410D01*
X73249597Y-52153567D01*
X73254772Y-52153757D01*
X73254774Y-52153757D01*
X73467673Y-52161564D01*
X73467677Y-52161564D01*
X73472837Y-52161753D01*
X73477957Y-52161097D01*
X73477959Y-52161097D01*
X73689288Y-52134025D01*
X73689289Y-52134025D01*
X73694416Y-52133368D01*
X73699366Y-52131883D01*
X73903429Y-52070661D01*
X73903434Y-52070659D01*
X73908384Y-52069174D01*
X74108994Y-51970896D01*
X74290860Y-51841173D01*
X74332829Y-51799351D01*
X74434616Y-51697918D01*
X74449096Y-51683489D01*
X74579453Y-51502077D01*
X74580776Y-51503028D01*
X74627645Y-51459857D01*
X74697580Y-51447625D01*
X74763026Y-51475144D01*
X74790875Y-51506994D01*
X74850987Y-51605088D01*
X74997250Y-51773938D01*
X75169126Y-51916632D01*
X75362000Y-52029338D01*
X75366825Y-52031180D01*
X75366826Y-52031181D01*
X75419971Y-52051475D01*
X75570692Y-52109030D01*
X75575760Y-52110061D01*
X75575763Y-52110062D01*
X75670862Y-52129410D01*
X75789597Y-52153567D01*
X75794772Y-52153757D01*
X75794774Y-52153757D01*
X76007673Y-52161564D01*
X76007677Y-52161564D01*
X76012837Y-52161753D01*
X76017957Y-52161097D01*
X76017959Y-52161097D01*
X76229288Y-52134025D01*
X76229289Y-52134025D01*
X76234416Y-52133368D01*
X76239366Y-52131883D01*
X76443429Y-52070661D01*
X76443434Y-52070659D01*
X76448384Y-52069174D01*
X76648994Y-51970896D01*
X76830860Y-51841173D01*
X76872829Y-51799351D01*
X76974616Y-51697918D01*
X76989096Y-51683489D01*
X77119453Y-51502077D01*
X77120776Y-51503028D01*
X77167645Y-51459857D01*
X77237580Y-51447625D01*
X77303026Y-51475144D01*
X77330875Y-51506994D01*
X77390987Y-51605088D01*
X77537250Y-51773938D01*
X77709126Y-51916632D01*
X77902000Y-52029338D01*
X77906825Y-52031180D01*
X77906826Y-52031181D01*
X77959971Y-52051475D01*
X78110692Y-52109030D01*
X78115760Y-52110061D01*
X78115763Y-52110062D01*
X78210862Y-52129410D01*
X78329597Y-52153567D01*
X78334772Y-52153757D01*
X78334774Y-52153757D01*
X78547673Y-52161564D01*
X78547677Y-52161564D01*
X78552837Y-52161753D01*
X78557957Y-52161097D01*
X78557959Y-52161097D01*
X78769288Y-52134025D01*
X78769289Y-52134025D01*
X78774416Y-52133368D01*
X78779366Y-52131883D01*
X78983429Y-52070661D01*
X78983434Y-52070659D01*
X78988384Y-52069174D01*
X79188994Y-51970896D01*
X79370860Y-51841173D01*
X79412829Y-51799351D01*
X79514616Y-51697918D01*
X79529096Y-51683489D01*
X79659453Y-51502077D01*
X79660640Y-51502930D01*
X79707960Y-51459362D01*
X79777897Y-51447145D01*
X79843338Y-51474678D01*
X79871166Y-51506511D01*
X79928694Y-51600388D01*
X79934777Y-51608699D01*
X80074213Y-51769667D01*
X80081580Y-51776883D01*
X80245434Y-51912916D01*
X80253881Y-51918831D01*
X80437756Y-52026279D01*
X80447042Y-52030729D01*
X80646001Y-52106703D01*
X80655899Y-52109579D01*
X80759250Y-52130606D01*
X80773299Y-52129410D01*
X80777000Y-52119065D01*
X80777000Y-52118517D01*
X81285000Y-52118517D01*
X81289064Y-52132359D01*
X81302478Y-52134393D01*
X81309184Y-52133534D01*
X81319262Y-52131392D01*
X81523255Y-52070191D01*
X81532842Y-52066433D01*
X81724095Y-51972739D01*
X81732945Y-51967464D01*
X81906328Y-51843792D01*
X81914200Y-51837139D01*
X82065052Y-51686812D01*
X82071730Y-51678965D01*
X82199022Y-51501819D01*
X82200279Y-51502722D01*
X82247373Y-51459362D01*
X82317311Y-51447145D01*
X82382751Y-51474678D01*
X82410579Y-51506511D01*
X82470987Y-51605088D01*
X82617250Y-51773938D01*
X82789126Y-51916632D01*
X82982000Y-52029338D01*
X82986825Y-52031180D01*
X82986826Y-52031181D01*
X83039971Y-52051475D01*
X83190692Y-52109030D01*
X83195760Y-52110061D01*
X83195763Y-52110062D01*
X83290862Y-52129410D01*
X83409597Y-52153567D01*
X83414772Y-52153757D01*
X83414774Y-52153757D01*
X83627673Y-52161564D01*
X83627677Y-52161564D01*
X83632837Y-52161753D01*
X83637957Y-52161097D01*
X83637959Y-52161097D01*
X83849288Y-52134025D01*
X83849289Y-52134025D01*
X83854416Y-52133368D01*
X83859366Y-52131883D01*
X84063429Y-52070661D01*
X84063434Y-52070659D01*
X84068384Y-52069174D01*
X84268994Y-51970896D01*
X84450860Y-51841173D01*
X84492829Y-51799351D01*
X84594616Y-51697918D01*
X84609096Y-51683489D01*
X84739453Y-51502077D01*
X84740776Y-51503028D01*
X84787645Y-51459857D01*
X84857580Y-51447625D01*
X84923026Y-51475144D01*
X84950875Y-51506994D01*
X85010987Y-51605088D01*
X85157250Y-51773938D01*
X85329126Y-51916632D01*
X85522000Y-52029338D01*
X85526825Y-52031180D01*
X85526826Y-52031181D01*
X85579971Y-52051475D01*
X85730692Y-52109030D01*
X85735760Y-52110061D01*
X85735763Y-52110062D01*
X85830862Y-52129410D01*
X85949597Y-52153567D01*
X85954772Y-52153757D01*
X85954774Y-52153757D01*
X86167673Y-52161564D01*
X86167677Y-52161564D01*
X86172837Y-52161753D01*
X86177957Y-52161097D01*
X86177959Y-52161097D01*
X86389288Y-52134025D01*
X86389289Y-52134025D01*
X86394416Y-52133368D01*
X86399366Y-52131883D01*
X86603429Y-52070661D01*
X86603434Y-52070659D01*
X86608384Y-52069174D01*
X86808994Y-51970896D01*
X86990860Y-51841173D01*
X87032829Y-51799351D01*
X87134616Y-51697918D01*
X87149096Y-51683489D01*
X87279453Y-51502077D01*
X87292995Y-51474678D01*
X87376136Y-51306453D01*
X87376137Y-51306451D01*
X87378430Y-51301811D01*
X87443370Y-51088069D01*
X87472529Y-50866590D01*
X87474156Y-50800000D01*
X87455852Y-50577361D01*
X87401431Y-50360702D01*
X87312354Y-50155840D01*
X87272906Y-50094862D01*
X87193822Y-49972617D01*
X87193820Y-49972614D01*
X87191014Y-49968277D01*
X87040670Y-49803051D01*
X87036619Y-49799852D01*
X87036615Y-49799848D01*
X86869414Y-49667800D01*
X86869410Y-49667798D01*
X86865359Y-49664598D01*
X86860831Y-49662098D01*
X86744988Y-49598150D01*
X86669789Y-49556638D01*
X86664920Y-49554914D01*
X86664916Y-49554912D01*
X86464087Y-49483795D01*
X86464083Y-49483794D01*
X86459212Y-49482069D01*
X86454119Y-49481162D01*
X86454116Y-49481161D01*
X86244373Y-49443800D01*
X86244367Y-49443799D01*
X86239284Y-49442894D01*
X86165452Y-49441992D01*
X86021081Y-49440228D01*
X86021079Y-49440228D01*
X86015911Y-49440165D01*
X85795091Y-49473955D01*
X85582756Y-49543357D01*
X85509757Y-49581358D01*
X85408975Y-49633822D01*
X85384607Y-49646507D01*
X85380474Y-49649610D01*
X85380471Y-49649612D01*
X85210100Y-49777530D01*
X85205965Y-49780635D01*
X85051629Y-49942138D01*
X84944201Y-50099621D01*
X84889293Y-50144621D01*
X84818768Y-50152792D01*
X84755021Y-50121538D01*
X84734324Y-50097054D01*
X84653822Y-49972617D01*
X84653820Y-49972614D01*
X84651014Y-49968277D01*
X84500670Y-49803051D01*
X84496619Y-49799852D01*
X84496615Y-49799848D01*
X84329414Y-49667800D01*
X84329410Y-49667798D01*
X84325359Y-49664598D01*
X84320831Y-49662098D01*
X84204988Y-49598150D01*
X84129789Y-49556638D01*
X84124920Y-49554914D01*
X84124916Y-49554912D01*
X83924087Y-49483795D01*
X83924083Y-49483794D01*
X83919212Y-49482069D01*
X83914119Y-49481162D01*
X83914116Y-49481161D01*
X83704373Y-49443800D01*
X83704367Y-49443799D01*
X83699284Y-49442894D01*
X83625452Y-49441992D01*
X83481081Y-49440228D01*
X83481079Y-49440228D01*
X83475911Y-49440165D01*
X83255091Y-49473955D01*
X83042756Y-49543357D01*
X82969757Y-49581358D01*
X82868975Y-49633822D01*
X82844607Y-49646507D01*
X82840474Y-49649610D01*
X82840471Y-49649612D01*
X82670100Y-49777530D01*
X82665965Y-49780635D01*
X82511629Y-49942138D01*
X82404204Y-50099618D01*
X82403898Y-50100066D01*
X82348987Y-50145069D01*
X82278462Y-50153240D01*
X82214715Y-50121986D01*
X82194018Y-50097502D01*
X82113426Y-49972926D01*
X82107136Y-49964757D01*
X81963806Y-49807240D01*
X81956273Y-49800215D01*
X81789139Y-49668222D01*
X81780552Y-49662517D01*
X81594117Y-49559599D01*
X81584705Y-49555369D01*
X81383959Y-49484280D01*
X81373988Y-49481646D01*
X81302837Y-49468972D01*
X81289540Y-49470432D01*
X81285000Y-49484989D01*
X81285000Y-52118517D01*
X80777000Y-52118517D01*
X80777000Y-49483102D01*
X80773082Y-49469758D01*
X80758806Y-49467771D01*
X80720324Y-49473660D01*
X80710288Y-49476051D01*
X80507868Y-49542212D01*
X80498359Y-49546209D01*
X80309463Y-49644542D01*
X80300738Y-49650036D01*
X80130433Y-49777905D01*
X80122726Y-49784748D01*
X79975590Y-49938717D01*
X79969109Y-49946722D01*
X79864498Y-50100074D01*
X79809587Y-50145076D01*
X79739062Y-50153247D01*
X79675315Y-50121993D01*
X79654618Y-50097509D01*
X79573822Y-49972617D01*
X79573820Y-49972614D01*
X79571014Y-49968277D01*
X79420670Y-49803051D01*
X79416619Y-49799852D01*
X79416615Y-49799848D01*
X79249414Y-49667800D01*
X79249410Y-49667798D01*
X79245359Y-49664598D01*
X79240831Y-49662098D01*
X79124988Y-49598150D01*
X79049789Y-49556638D01*
X79044920Y-49554914D01*
X79044916Y-49554912D01*
X78844087Y-49483795D01*
X78844083Y-49483794D01*
X78839212Y-49482069D01*
X78834119Y-49481162D01*
X78834116Y-49481161D01*
X78624373Y-49443800D01*
X78624367Y-49443799D01*
X78619284Y-49442894D01*
X78545452Y-49441992D01*
X78401081Y-49440228D01*
X78401079Y-49440228D01*
X78395911Y-49440165D01*
X78175091Y-49473955D01*
X77962756Y-49543357D01*
X77889757Y-49581358D01*
X77788975Y-49633822D01*
X77764607Y-49646507D01*
X77760474Y-49649610D01*
X77760471Y-49649612D01*
X77590100Y-49777530D01*
X77585965Y-49780635D01*
X77431629Y-49942138D01*
X77324201Y-50099621D01*
X77269293Y-50144621D01*
X77198768Y-50152792D01*
X77135021Y-50121538D01*
X77114324Y-50097054D01*
X77033822Y-49972617D01*
X77033820Y-49972614D01*
X77031014Y-49968277D01*
X76880670Y-49803051D01*
X76876619Y-49799852D01*
X76876615Y-49799848D01*
X76709414Y-49667800D01*
X76709410Y-49667798D01*
X76705359Y-49664598D01*
X76700831Y-49662098D01*
X76584988Y-49598150D01*
X76509789Y-49556638D01*
X76504920Y-49554914D01*
X76504916Y-49554912D01*
X76304087Y-49483795D01*
X76304083Y-49483794D01*
X76299212Y-49482069D01*
X76294119Y-49481162D01*
X76294116Y-49481161D01*
X76084373Y-49443800D01*
X76084367Y-49443799D01*
X76079284Y-49442894D01*
X76005452Y-49441992D01*
X75861081Y-49440228D01*
X75861079Y-49440228D01*
X75855911Y-49440165D01*
X75635091Y-49473955D01*
X75622532Y-49478060D01*
X75551568Y-49480210D01*
X75494294Y-49447389D01*
X74617893Y-48570988D01*
X74583867Y-48508676D01*
X74587395Y-48442226D01*
X74606005Y-48386118D01*
X74632974Y-48304809D01*
X74635539Y-48279779D01*
X74643172Y-48205271D01*
X74643500Y-48202072D01*
X74643500Y-47849500D01*
X74663502Y-47781379D01*
X74717158Y-47734886D01*
X74769500Y-47723500D01*
X75090500Y-47723500D01*
X75158621Y-47743502D01*
X75205114Y-47797158D01*
X75216500Y-47849500D01*
X75216500Y-48202072D01*
X75216837Y-48205318D01*
X75216837Y-48205322D01*
X75224563Y-48279779D01*
X75227293Y-48306093D01*
X75229474Y-48312629D01*
X75229474Y-48312631D01*
X75247934Y-48367962D01*
X75282346Y-48471107D01*
X75373884Y-48619031D01*
X75379066Y-48624204D01*
X75491816Y-48736758D01*
X75491821Y-48736762D01*
X75496997Y-48741929D01*
X75503227Y-48745769D01*
X75503228Y-48745770D01*
X75637926Y-48828799D01*
X75645080Y-48833209D01*
X75810191Y-48887974D01*
X75817027Y-48888674D01*
X75817030Y-48888675D01*
X75864468Y-48893535D01*
X75912928Y-48898500D01*
X76487072Y-48898500D01*
X76490318Y-48898163D01*
X76490322Y-48898163D01*
X76584235Y-48888419D01*
X76584239Y-48888418D01*
X76591093Y-48887707D01*
X76597629Y-48885526D01*
X76597631Y-48885526D01*
X76749164Y-48834971D01*
X76749169Y-48834969D01*
X76756107Y-48832654D01*
X76760627Y-48829857D01*
X76829986Y-48819199D01*
X76864510Y-48828977D01*
X76936677Y-48861108D01*
X76936685Y-48861111D01*
X76942712Y-48863794D01*
X77029818Y-48882309D01*
X77123056Y-48902128D01*
X77123061Y-48902128D01*
X77129513Y-48903500D01*
X77320487Y-48903500D01*
X77326939Y-48902128D01*
X77326944Y-48902128D01*
X77420182Y-48882309D01*
X77507288Y-48863794D01*
X77522074Y-48857211D01*
X77675722Y-48788803D01*
X77675724Y-48788802D01*
X77681752Y-48786118D01*
X77702156Y-48771294D01*
X77750824Y-48735934D01*
X77825991Y-48681321D01*
X77892857Y-48657464D01*
X77962009Y-48673544D01*
X77989068Y-48694084D01*
X78036997Y-48741929D01*
X78043227Y-48745769D01*
X78043228Y-48745770D01*
X78177926Y-48828799D01*
X78185080Y-48833209D01*
X78350191Y-48887974D01*
X78357027Y-48888674D01*
X78357030Y-48888675D01*
X78404468Y-48893535D01*
X78452928Y-48898500D01*
X79027072Y-48898500D01*
X79030318Y-48898163D01*
X79030322Y-48898163D01*
X79124235Y-48888419D01*
X79124239Y-48888418D01*
X79131093Y-48887707D01*
X79137629Y-48885526D01*
X79137631Y-48885526D01*
X79284720Y-48836453D01*
X79296107Y-48832654D01*
X79405732Y-48764816D01*
X79474184Y-48745978D01*
X79546095Y-48770023D01*
X79562907Y-48782238D01*
X79562910Y-48782240D01*
X79568248Y-48786118D01*
X79574276Y-48788802D01*
X79574278Y-48788803D01*
X79727926Y-48857211D01*
X79742712Y-48863794D01*
X79829818Y-48882309D01*
X79923056Y-48902128D01*
X79923061Y-48902128D01*
X79929513Y-48903500D01*
X80120487Y-48903500D01*
X80126939Y-48902128D01*
X80126944Y-48902128D01*
X80220182Y-48882309D01*
X80307288Y-48863794D01*
X80322074Y-48857211D01*
X80475722Y-48788803D01*
X80475724Y-48788802D01*
X80481752Y-48786118D01*
X80490069Y-48780075D01*
X80492081Y-48779357D01*
X80492811Y-48778936D01*
X80492888Y-48779069D01*
X80556935Y-48756218D01*
X80630245Y-48774752D01*
X80718214Y-48828977D01*
X80725080Y-48833209D01*
X80890191Y-48887974D01*
X80897027Y-48888674D01*
X80897030Y-48888675D01*
X80944468Y-48893535D01*
X80992928Y-48898500D01*
X81567072Y-48898500D01*
X81570318Y-48898163D01*
X81570322Y-48898163D01*
X81664235Y-48888419D01*
X81664239Y-48888418D01*
X81671093Y-48887707D01*
X81677629Y-48885526D01*
X81677631Y-48885526D01*
X81824720Y-48836453D01*
X81836107Y-48832654D01*
X81842339Y-48828798D01*
X81916366Y-48782988D01*
X81926691Y-48776599D01*
X81995141Y-48757761D01*
X82037699Y-48767187D01*
X82037900Y-48766568D01*
X82044180Y-48768608D01*
X82050212Y-48771294D01*
X82132585Y-48788803D01*
X82230556Y-48809628D01*
X82230561Y-48809628D01*
X82237013Y-48811000D01*
X82427987Y-48811000D01*
X82434439Y-48809628D01*
X82434444Y-48809628D01*
X82532415Y-48788803D01*
X82614788Y-48771294D01*
X82629338Y-48764816D01*
X82783222Y-48696303D01*
X82783224Y-48696302D01*
X82789252Y-48693618D01*
X82816882Y-48673544D01*
X82884792Y-48624204D01*
X82943753Y-48581366D01*
X82951371Y-48572905D01*
X83067121Y-48444352D01*
X83067122Y-48444351D01*
X83071540Y-48439444D01*
X83167027Y-48274056D01*
X83226042Y-48092428D01*
X83246004Y-47902500D01*
X83226042Y-47712572D01*
X83167027Y-47530944D01*
X83071540Y-47365556D01*
X82994533Y-47280031D01*
X82963818Y-47216027D01*
X82972581Y-47145574D01*
X82999076Y-47106628D01*
X83188776Y-46916929D01*
X83449258Y-46656447D01*
X83457537Y-46648913D01*
X83464018Y-46644800D01*
X83510644Y-46595148D01*
X83513398Y-46592307D01*
X83533135Y-46572570D01*
X83535615Y-46569373D01*
X83543320Y-46560351D01*
X83568159Y-46533900D01*
X83573586Y-46528121D01*
X83577405Y-46521175D01*
X83577407Y-46521172D01*
X83583348Y-46510366D01*
X83594199Y-46493847D01*
X83599020Y-46487631D01*
X83606614Y-46477841D01*
X83609759Y-46470572D01*
X83609762Y-46470568D01*
X83624174Y-46437263D01*
X83629391Y-46426613D01*
X83650695Y-46387860D01*
X83655733Y-46368237D01*
X83662137Y-46349534D01*
X83667033Y-46338220D01*
X83667033Y-46338219D01*
X83670181Y-46330945D01*
X83671420Y-46323122D01*
X83671423Y-46323112D01*
X83677099Y-46287276D01*
X83679505Y-46275656D01*
X83688528Y-46240511D01*
X83688528Y-46240510D01*
X83690500Y-46232830D01*
X83690500Y-46212576D01*
X83692051Y-46192865D01*
X83693980Y-46180686D01*
X83695220Y-46172857D01*
X83691059Y-46128838D01*
X83690500Y-46116981D01*
X83690500Y-45063124D01*
X83710502Y-44995003D01*
X83722858Y-44978821D01*
X83796040Y-44897544D01*
X83891527Y-44732156D01*
X83950542Y-44550528D01*
X83970504Y-44360600D01*
X83955285Y-44215799D01*
X83951232Y-44177235D01*
X83951232Y-44177233D01*
X83950542Y-44170672D01*
X83891527Y-43989044D01*
X83796040Y-43823656D01*
X83668253Y-43681734D01*
X83540345Y-43588803D01*
X83519094Y-43573363D01*
X83519093Y-43573362D01*
X83513752Y-43569482D01*
X83507724Y-43566798D01*
X83507722Y-43566797D01*
X83345319Y-43494491D01*
X83345318Y-43494491D01*
X83339288Y-43491806D01*
X83231783Y-43468955D01*
X83158944Y-43453472D01*
X83158939Y-43453472D01*
X83152487Y-43452100D01*
X82961513Y-43452100D01*
X82955061Y-43453472D01*
X82955056Y-43453472D01*
X82882217Y-43468955D01*
X82774712Y-43491806D01*
X82768682Y-43494491D01*
X82768681Y-43494491D01*
X82606278Y-43566797D01*
X82606276Y-43566798D01*
X82600248Y-43569482D01*
X82594907Y-43573362D01*
X82594906Y-43573363D01*
X82573655Y-43588803D01*
X82445747Y-43681734D01*
X82317960Y-43823656D01*
X82222473Y-43989044D01*
X82163458Y-44170672D01*
X82162768Y-44177233D01*
X82162768Y-44177235D01*
X82158715Y-44215799D01*
X82143496Y-44360600D01*
X82163458Y-44550528D01*
X82222473Y-44732156D01*
X82317960Y-44897544D01*
X82391137Y-44978815D01*
X82421853Y-45042821D01*
X82423500Y-45063124D01*
X82423500Y-45430797D01*
X82403498Y-45498918D01*
X82349842Y-45545411D01*
X82279568Y-45555515D01*
X82214988Y-45526021D01*
X82190360Y-45497106D01*
X82106116Y-45360969D01*
X81991325Y-45246378D01*
X81988184Y-45243242D01*
X81988179Y-45243238D01*
X81983003Y-45238071D01*
X81897763Y-45185528D01*
X81841150Y-45150631D01*
X81841148Y-45150630D01*
X81834920Y-45146791D01*
X81669809Y-45092026D01*
X81662973Y-45091326D01*
X81662970Y-45091325D01*
X81611474Y-45086049D01*
X81567072Y-45081500D01*
X81232094Y-45081500D01*
X81163973Y-45061498D01*
X81142999Y-45044595D01*
X80857499Y-44759095D01*
X80823473Y-44696783D01*
X80828538Y-44625968D01*
X80857499Y-44580905D01*
X80871135Y-44567269D01*
X80873612Y-44564076D01*
X80881317Y-44555055D01*
X80906159Y-44528600D01*
X80911586Y-44522821D01*
X80915407Y-44515871D01*
X80921346Y-44505068D01*
X80932202Y-44488541D01*
X80939757Y-44478802D01*
X80939758Y-44478800D01*
X80944614Y-44472540D01*
X80962174Y-44431960D01*
X80967391Y-44421312D01*
X80984875Y-44389509D01*
X80984876Y-44389507D01*
X80988695Y-44382560D01*
X80993733Y-44362937D01*
X81000137Y-44344234D01*
X81005033Y-44332920D01*
X81005033Y-44332919D01*
X81008181Y-44325645D01*
X81009420Y-44317822D01*
X81009423Y-44317812D01*
X81015099Y-44281976D01*
X81017505Y-44270356D01*
X81026528Y-44235211D01*
X81026528Y-44235210D01*
X81028500Y-44227530D01*
X81028500Y-44207276D01*
X81030051Y-44187565D01*
X81031980Y-44175386D01*
X81033220Y-44167557D01*
X81031006Y-44144134D01*
X81044509Y-44074434D01*
X81055620Y-44056713D01*
X81058115Y-44053383D01*
X81070615Y-44036705D01*
X81121745Y-43900316D01*
X81128500Y-43838134D01*
X81128500Y-43829500D01*
X81148502Y-43761379D01*
X81202158Y-43714886D01*
X81254500Y-43703500D01*
X81320487Y-43703500D01*
X81326939Y-43702128D01*
X81326944Y-43702128D01*
X81441155Y-43677851D01*
X81507288Y-43663794D01*
X81513319Y-43661109D01*
X81675722Y-43588803D01*
X81675724Y-43588802D01*
X81681752Y-43586118D01*
X81704650Y-43569482D01*
X81807865Y-43494491D01*
X81836253Y-43473866D01*
X81892286Y-43411635D01*
X81959621Y-43336852D01*
X81959622Y-43336851D01*
X81964040Y-43331944D01*
X82059527Y-43166556D01*
X82118542Y-42984928D01*
X82124828Y-42925126D01*
X82137814Y-42801565D01*
X82138504Y-42795000D01*
X82124489Y-42661655D01*
X84049858Y-42661655D01*
X84085104Y-42920638D01*
X84086412Y-42925124D01*
X84086412Y-42925126D01*
X84101930Y-42978365D01*
X84158243Y-43171567D01*
X84267668Y-43408928D01*
X84270231Y-43412837D01*
X84408410Y-43623596D01*
X84408414Y-43623601D01*
X84410976Y-43627509D01*
X84585018Y-43822506D01*
X84785970Y-43989637D01*
X84789973Y-43992066D01*
X85005422Y-44122804D01*
X85005426Y-44122806D01*
X85009419Y-44125229D01*
X85250455Y-44226303D01*
X85503783Y-44290641D01*
X85508434Y-44291109D01*
X85508438Y-44291110D01*
X85701308Y-44310531D01*
X85720867Y-44312500D01*
X85876354Y-44312500D01*
X85878679Y-44312327D01*
X85878685Y-44312327D01*
X86066000Y-44298407D01*
X86066004Y-44298406D01*
X86070652Y-44298061D01*
X86075200Y-44297032D01*
X86075206Y-44297031D01*
X86261601Y-44254853D01*
X86325577Y-44240377D01*
X86329931Y-44238684D01*
X86564824Y-44147340D01*
X86564827Y-44147339D01*
X86569177Y-44145647D01*
X86593153Y-44131944D01*
X86661467Y-44092899D01*
X86796098Y-44015951D01*
X87001357Y-43854138D01*
X87180443Y-43663763D01*
X87297872Y-43494491D01*
X87326759Y-43452851D01*
X87326761Y-43452848D01*
X87329424Y-43449009D01*
X87349190Y-43408928D01*
X87442960Y-43218781D01*
X87442961Y-43218778D01*
X87445025Y-43214593D01*
X87524707Y-42965665D01*
X87566721Y-42707693D01*
X87569063Y-42528800D01*
X87570081Y-42451022D01*
X87570081Y-42451019D01*
X87570142Y-42446345D01*
X87534896Y-42187362D01*
X87520473Y-42137877D01*
X87482547Y-42007762D01*
X87461757Y-41936433D01*
X87352332Y-41699072D01*
X87306869Y-41629729D01*
X87211590Y-41484404D01*
X87211586Y-41484399D01*
X87209024Y-41480491D01*
X87034982Y-41285494D01*
X86834030Y-41118363D01*
X86747391Y-41065789D01*
X86614578Y-40985196D01*
X86614574Y-40985194D01*
X86610581Y-40982771D01*
X86369545Y-40881697D01*
X86116217Y-40817359D01*
X86111566Y-40816891D01*
X86111562Y-40816890D01*
X85902271Y-40795816D01*
X85899133Y-40795500D01*
X85743646Y-40795500D01*
X85741321Y-40795673D01*
X85741315Y-40795673D01*
X85554000Y-40809593D01*
X85553996Y-40809594D01*
X85549348Y-40809939D01*
X85544800Y-40810968D01*
X85544794Y-40810969D01*
X85388453Y-40846346D01*
X85294423Y-40867623D01*
X85290071Y-40869315D01*
X85290069Y-40869316D01*
X85055176Y-40960660D01*
X85055173Y-40960661D01*
X85050823Y-40962353D01*
X85046769Y-40964670D01*
X85046767Y-40964671D01*
X85033321Y-40972356D01*
X84823902Y-41092049D01*
X84618643Y-41253862D01*
X84439557Y-41444237D01*
X84290576Y-41658991D01*
X84288510Y-41663181D01*
X84288508Y-41663184D01*
X84177705Y-41887872D01*
X84174975Y-41893407D01*
X84173553Y-41897850D01*
X84173552Y-41897852D01*
X84135627Y-42016330D01*
X84095293Y-42142335D01*
X84053279Y-42400307D01*
X84053218Y-42404980D01*
X84050911Y-42581248D01*
X84049858Y-42661655D01*
X82124489Y-42661655D01*
X82119232Y-42611635D01*
X82119232Y-42611633D01*
X82118542Y-42605072D01*
X82059527Y-42423444D01*
X82026753Y-42366677D01*
X82012742Y-42342411D01*
X81964040Y-42258056D01*
X81859845Y-42142335D01*
X81840675Y-42121045D01*
X81840674Y-42121044D01*
X81836253Y-42116134D01*
X81681752Y-42003882D01*
X81675724Y-42001198D01*
X81675722Y-42001197D01*
X81513319Y-41928891D01*
X81513318Y-41928891D01*
X81507288Y-41926206D01*
X81405001Y-41904464D01*
X81326944Y-41887872D01*
X81326939Y-41887872D01*
X81320487Y-41886500D01*
X81129513Y-41886500D01*
X81123061Y-41887872D01*
X81123056Y-41887872D01*
X81044999Y-41904464D01*
X80942712Y-41926206D01*
X80936682Y-41928891D01*
X80936681Y-41928891D01*
X80774278Y-42001197D01*
X80774276Y-42001198D01*
X80768248Y-42003882D01*
X80751115Y-42016330D01*
X80732228Y-42030052D01*
X80665360Y-42053910D01*
X80596209Y-42037829D01*
X80546729Y-41986914D01*
X80532858Y-41941285D01*
X80531556Y-41928891D01*
X80518542Y-41805072D01*
X80459527Y-41623444D01*
X80364040Y-41458056D01*
X80351598Y-41444237D01*
X80240675Y-41321045D01*
X80240674Y-41321044D01*
X80236253Y-41316134D01*
X80216976Y-41302128D01*
X80154086Y-41256436D01*
X80110732Y-41200214D01*
X80104657Y-41129477D01*
X80137789Y-41066686D01*
X80199609Y-41031774D01*
X80228147Y-41028500D01*
X80389733Y-41028500D01*
X80409442Y-41030051D01*
X80429445Y-41033219D01*
X80437337Y-41032473D01*
X80442564Y-41031979D01*
X80473456Y-41029059D01*
X80485313Y-41028500D01*
X80489358Y-41028500D01*
X80517097Y-41024995D01*
X80520986Y-41024566D01*
X80557281Y-41021135D01*
X80580903Y-41018903D01*
X80580904Y-41018903D01*
X80588794Y-41018157D01*
X80596015Y-41015557D01*
X80596596Y-41015456D01*
X80600121Y-41014611D01*
X80600690Y-41014436D01*
X80608299Y-41013474D01*
X80615664Y-41010558D01*
X80615668Y-41010557D01*
X80671618Y-40988405D01*
X80675319Y-40987006D01*
X80716009Y-40972356D01*
X80739391Y-40963938D01*
X80745735Y-40959627D01*
X80746265Y-40959387D01*
X80749488Y-40957681D01*
X80749984Y-40957377D01*
X80757119Y-40954552D01*
X80770236Y-40945022D01*
X80812210Y-40914526D01*
X80815449Y-40912250D01*
X80865214Y-40878430D01*
X80865220Y-40878425D01*
X80871772Y-40873972D01*
X80876845Y-40868218D01*
X80877303Y-40867851D01*
X80879992Y-40865404D01*
X80880401Y-40864983D01*
X80886609Y-40860472D01*
X80894344Y-40851123D01*
X80930028Y-40807988D01*
X80932598Y-40804979D01*
X80972379Y-40759856D01*
X80977622Y-40753909D01*
X80981106Y-40747071D01*
X80981458Y-40746602D01*
X80983457Y-40743559D01*
X80983744Y-40743057D01*
X80988635Y-40737144D01*
X80992009Y-40729973D01*
X80992012Y-40729969D01*
X81017633Y-40675521D01*
X81019374Y-40671966D01*
X81046689Y-40618357D01*
X81050287Y-40611296D01*
X81051961Y-40603808D01*
X81052188Y-40603259D01*
X81053360Y-40599837D01*
X81053517Y-40599263D01*
X81056785Y-40592318D01*
X81069549Y-40525406D01*
X81070352Y-40521530D01*
X81083473Y-40462833D01*
X81083473Y-40462829D01*
X81085203Y-40455091D01*
X81084962Y-40447421D01*
X81085046Y-40446832D01*
X81085330Y-40443215D01*
X81085339Y-40442631D01*
X81086777Y-40435094D01*
X81082500Y-40367104D01*
X81082314Y-40363178D01*
X81081957Y-40351797D01*
X81080175Y-40295110D01*
X81078034Y-40287741D01*
X81077968Y-40287141D01*
X81077347Y-40283584D01*
X81077209Y-40283011D01*
X81076727Y-40275350D01*
X81055666Y-40210532D01*
X81054531Y-40206842D01*
X81040948Y-40160090D01*
X81041152Y-40089093D01*
X81061118Y-40049377D01*
X81070615Y-40036705D01*
X81121745Y-39900316D01*
X81128500Y-39838134D01*
X81128500Y-39829500D01*
X81148502Y-39761379D01*
X81202158Y-39714886D01*
X81254500Y-39703500D01*
X81320487Y-39703500D01*
X81326939Y-39702128D01*
X81326944Y-39702128D01*
X81413888Y-39683647D01*
X81507288Y-39663794D01*
X81513319Y-39661109D01*
X81675722Y-39588803D01*
X81675724Y-39588802D01*
X81681752Y-39586118D01*
X81836253Y-39473866D01*
X81840675Y-39468955D01*
X81959621Y-39336852D01*
X81959622Y-39336851D01*
X81964040Y-39331944D01*
X82059527Y-39166556D01*
X82118542Y-38984928D01*
X82125773Y-38916134D01*
X82137814Y-38801565D01*
X82138504Y-38795000D01*
X82118542Y-38605072D01*
X82059527Y-38423444D01*
X81964040Y-38258056D01*
X81836253Y-38116134D01*
X81681752Y-38003882D01*
X81675724Y-38001198D01*
X81675722Y-38001197D01*
X81513319Y-37928891D01*
X81513318Y-37928891D01*
X81507288Y-37926206D01*
X81405001Y-37904464D01*
X81326944Y-37887872D01*
X81326939Y-37887872D01*
X81320487Y-37886500D01*
X81129513Y-37886500D01*
X81123061Y-37887872D01*
X81123056Y-37887872D01*
X81044999Y-37904464D01*
X80942712Y-37926206D01*
X80936682Y-37928891D01*
X80936681Y-37928891D01*
X80774278Y-38001197D01*
X80774276Y-38001198D01*
X80768248Y-38003882D01*
X80751115Y-38016330D01*
X80732228Y-38030052D01*
X80665360Y-38053910D01*
X80596209Y-38037829D01*
X80546729Y-37986914D01*
X80532858Y-37941285D01*
X80531556Y-37928891D01*
X80518542Y-37805072D01*
X80459527Y-37623444D01*
X80364040Y-37458056D01*
X80236253Y-37316134D01*
X80154086Y-37256436D01*
X80110732Y-37200214D01*
X80104657Y-37129477D01*
X80137789Y-37066686D01*
X80199609Y-37031774D01*
X80228147Y-37028500D01*
X80389733Y-37028500D01*
X80409442Y-37030051D01*
X80429445Y-37033219D01*
X80437337Y-37032473D01*
X80442564Y-37031979D01*
X80473456Y-37029059D01*
X80485313Y-37028500D01*
X80489358Y-37028500D01*
X80517097Y-37024995D01*
X80520986Y-37024566D01*
X80557281Y-37021135D01*
X80580903Y-37018903D01*
X80580904Y-37018903D01*
X80588794Y-37018157D01*
X80596015Y-37015557D01*
X80596596Y-37015456D01*
X80600121Y-37014611D01*
X80600690Y-37014436D01*
X80608299Y-37013474D01*
X80615664Y-37010558D01*
X80615668Y-37010557D01*
X80671618Y-36988405D01*
X80675319Y-36987006D01*
X80712826Y-36973502D01*
X80739391Y-36963938D01*
X80745735Y-36959627D01*
X80746265Y-36959387D01*
X80749488Y-36957681D01*
X80749984Y-36957377D01*
X80757119Y-36954552D01*
X80763536Y-36949890D01*
X80812210Y-36914526D01*
X80815449Y-36912250D01*
X80865214Y-36878430D01*
X80865220Y-36878425D01*
X80871772Y-36873972D01*
X80876845Y-36868218D01*
X80877303Y-36867851D01*
X80879992Y-36865404D01*
X80880401Y-36864983D01*
X80886609Y-36860472D01*
X80894344Y-36851123D01*
X80930028Y-36807988D01*
X80932598Y-36804979D01*
X80972379Y-36759856D01*
X80977622Y-36753909D01*
X80981106Y-36747071D01*
X80981458Y-36746602D01*
X80983457Y-36743559D01*
X80983744Y-36743057D01*
X80988635Y-36737144D01*
X80992009Y-36729973D01*
X80992012Y-36729969D01*
X81017633Y-36675521D01*
X81019374Y-36671966D01*
X81046689Y-36618357D01*
X81050287Y-36611296D01*
X81051961Y-36603808D01*
X81052188Y-36603259D01*
X81053360Y-36599837D01*
X81053517Y-36599263D01*
X81056785Y-36592318D01*
X81069549Y-36525406D01*
X81070352Y-36521530D01*
X81083473Y-36462833D01*
X81083473Y-36462829D01*
X81085203Y-36455091D01*
X81084962Y-36447421D01*
X81085046Y-36446832D01*
X81085330Y-36443215D01*
X81085339Y-36442631D01*
X81086777Y-36435094D01*
X81082500Y-36367104D01*
X81082314Y-36363178D01*
X81080424Y-36303033D01*
X81080175Y-36295110D01*
X81078034Y-36287741D01*
X81077968Y-36287141D01*
X81077347Y-36283584D01*
X81077209Y-36283011D01*
X81076727Y-36275350D01*
X81055666Y-36210532D01*
X81054531Y-36206842D01*
X81040948Y-36160090D01*
X81041152Y-36089093D01*
X81061118Y-36049377D01*
X81070615Y-36036705D01*
X81121745Y-35900316D01*
X81128500Y-35838134D01*
X81128500Y-35829500D01*
X81148502Y-35761379D01*
X81202158Y-35714886D01*
X81254500Y-35703500D01*
X81320487Y-35703500D01*
X81326939Y-35702128D01*
X81326944Y-35702128D01*
X81432908Y-35679604D01*
X81507288Y-35663794D01*
X81513319Y-35661109D01*
X81675722Y-35588803D01*
X81675724Y-35588802D01*
X81681752Y-35586118D01*
X81836253Y-35473866D01*
X81964040Y-35331944D01*
X82059527Y-35166556D01*
X82118542Y-34984928D01*
X82125773Y-34916134D01*
X82137814Y-34801565D01*
X82138504Y-34795000D01*
X82118542Y-34605072D01*
X82059527Y-34423444D01*
X82052253Y-34410844D01*
X81992335Y-34307065D01*
X81964040Y-34258056D01*
X81950214Y-34242700D01*
X81840675Y-34121045D01*
X81840674Y-34121044D01*
X81836253Y-34116134D01*
X81681752Y-34003882D01*
X81675724Y-34001198D01*
X81675722Y-34001197D01*
X81513319Y-33928891D01*
X81513318Y-33928891D01*
X81507288Y-33926206D01*
X81405001Y-33904464D01*
X81326944Y-33887872D01*
X81326939Y-33887872D01*
X81320487Y-33886500D01*
X81129513Y-33886500D01*
X81123061Y-33887872D01*
X81123056Y-33887872D01*
X81044999Y-33904464D01*
X80942712Y-33926206D01*
X80936682Y-33928891D01*
X80936681Y-33928891D01*
X80774278Y-34001197D01*
X80774276Y-34001198D01*
X80768248Y-34003882D01*
X80751115Y-34016330D01*
X80732228Y-34030052D01*
X80665360Y-34053910D01*
X80596209Y-34037829D01*
X80546729Y-33986914D01*
X80532858Y-33941285D01*
X80531556Y-33928891D01*
X80518542Y-33805072D01*
X80459527Y-33623444D01*
X80364040Y-33458056D01*
X80342475Y-33434105D01*
X80240675Y-33321045D01*
X80240674Y-33321044D01*
X80236253Y-33316134D01*
X80081752Y-33203882D01*
X80075721Y-33201197D01*
X80075716Y-33201194D01*
X80061896Y-33195041D01*
X80007799Y-33149062D01*
X79987149Y-33081135D01*
X80006500Y-33012827D01*
X80059710Y-32965825D01*
X80109183Y-32953996D01*
X80120738Y-32953633D01*
X80122986Y-32953562D01*
X80126945Y-32953500D01*
X80154856Y-32953500D01*
X80158791Y-32953003D01*
X80158856Y-32952995D01*
X80170693Y-32952062D01*
X80202951Y-32951048D01*
X80206970Y-32950922D01*
X80214889Y-32950673D01*
X80234343Y-32945021D01*
X80253700Y-32941013D01*
X80265930Y-32939468D01*
X80265931Y-32939468D01*
X80273797Y-32938474D01*
X80281168Y-32935555D01*
X80281170Y-32935555D01*
X80314912Y-32922196D01*
X80326142Y-32918351D01*
X80360983Y-32908229D01*
X80360984Y-32908229D01*
X80368593Y-32906018D01*
X80375412Y-32901985D01*
X80375417Y-32901983D01*
X80386028Y-32895707D01*
X80403776Y-32887012D01*
X80422617Y-32879552D01*
X80458387Y-32853564D01*
X80468307Y-32847048D01*
X80499535Y-32828580D01*
X80499538Y-32828578D01*
X80506362Y-32824542D01*
X80520686Y-32810218D01*
X80535713Y-32797383D01*
X80552107Y-32785472D01*
X80580289Y-32751406D01*
X80588278Y-32742628D01*
X80787258Y-32543648D01*
X80795538Y-32536113D01*
X80802018Y-32532000D01*
X80848645Y-32482347D01*
X80851399Y-32479506D01*
X80871135Y-32459770D01*
X80873615Y-32456573D01*
X80881320Y-32447551D01*
X80906159Y-32421100D01*
X80911586Y-32415321D01*
X80915405Y-32408375D01*
X80915407Y-32408372D01*
X80921348Y-32397566D01*
X80932199Y-32381047D01*
X80939758Y-32371301D01*
X80944614Y-32365041D01*
X80947759Y-32357772D01*
X80947762Y-32357768D01*
X80962174Y-32324463D01*
X80967391Y-32313813D01*
X80988695Y-32275060D01*
X80988695Y-32275059D01*
X80988770Y-32275100D01*
X81030089Y-32222143D01*
X81103568Y-32198500D01*
X81527206Y-32198500D01*
X81595327Y-32218502D01*
X81616301Y-32235405D01*
X81726878Y-32345982D01*
X81760904Y-32408294D01*
X81763093Y-32421907D01*
X81775779Y-32542606D01*
X81780458Y-32587128D01*
X81839473Y-32768756D01*
X81842776Y-32774478D01*
X81842777Y-32774479D01*
X81849124Y-32785472D01*
X81934960Y-32934144D01*
X81939378Y-32939051D01*
X81939379Y-32939052D01*
X82037928Y-33048502D01*
X82062747Y-33076066D01*
X82217248Y-33188318D01*
X82223276Y-33191002D01*
X82223278Y-33191003D01*
X82366794Y-33254900D01*
X82391712Y-33265994D01*
X82485112Y-33285847D01*
X82572056Y-33304328D01*
X82572061Y-33304328D01*
X82578513Y-33305700D01*
X82769487Y-33305700D01*
X82775939Y-33304328D01*
X82775944Y-33304328D01*
X82862888Y-33285847D01*
X82956288Y-33265994D01*
X82981206Y-33254900D01*
X83124722Y-33191003D01*
X83124724Y-33191002D01*
X83130752Y-33188318D01*
X83285253Y-33076066D01*
X83310072Y-33048502D01*
X83408621Y-32939052D01*
X83408622Y-32939051D01*
X83413040Y-32934144D01*
X83498876Y-32785472D01*
X83505223Y-32774479D01*
X83505224Y-32774478D01*
X83508527Y-32768756D01*
X83567542Y-32587128D01*
X83572222Y-32542606D01*
X83586814Y-32403765D01*
X83587504Y-32397200D01*
X83569105Y-32222143D01*
X83568232Y-32213835D01*
X83568232Y-32213833D01*
X83567542Y-32207272D01*
X83508527Y-32025644D01*
X83413040Y-31860256D01*
X83362881Y-31804548D01*
X83289675Y-31723245D01*
X83289674Y-31723244D01*
X83285253Y-31718334D01*
X83130752Y-31606082D01*
X83124724Y-31603398D01*
X83124722Y-31603397D01*
X82962319Y-31531091D01*
X82962318Y-31531091D01*
X82956288Y-31528406D01*
X82862887Y-31508553D01*
X82775944Y-31490072D01*
X82775939Y-31490072D01*
X82769487Y-31488700D01*
X82713595Y-31488700D01*
X82645474Y-31468698D01*
X82624500Y-31451795D01*
X82345452Y-31172747D01*
X82337912Y-31164461D01*
X82333800Y-31157982D01*
X82284148Y-31111356D01*
X82281307Y-31108602D01*
X82261570Y-31088865D01*
X82258373Y-31086385D01*
X82249351Y-31078680D01*
X82222900Y-31053841D01*
X82217121Y-31048414D01*
X82210175Y-31044595D01*
X82210172Y-31044593D01*
X82199366Y-31038652D01*
X82182851Y-31027804D01*
X82181474Y-31026736D01*
X82174643Y-31021438D01*
X82133073Y-30963886D01*
X82126553Y-30908703D01*
X82134003Y-30837829D01*
X82138504Y-30795000D01*
X82118542Y-30605072D01*
X82059527Y-30423444D01*
X81964040Y-30258056D01*
X81836253Y-30116134D01*
X81681752Y-30003882D01*
X81675724Y-30001198D01*
X81675722Y-30001197D01*
X81513319Y-29928891D01*
X81513318Y-29928891D01*
X81507288Y-29926206D01*
X81413888Y-29906353D01*
X81326944Y-29887872D01*
X81326939Y-29887872D01*
X81320487Y-29886500D01*
X81129513Y-29886500D01*
X81123061Y-29887872D01*
X81123056Y-29887872D01*
X81036112Y-29906353D01*
X80942712Y-29926206D01*
X80936682Y-29928891D01*
X80936681Y-29928891D01*
X80774278Y-30001197D01*
X80774276Y-30001198D01*
X80768248Y-30003882D01*
X80749386Y-30017586D01*
X80732228Y-30030052D01*
X80665360Y-30053910D01*
X80596209Y-30037829D01*
X80546729Y-29986914D01*
X80532858Y-29941285D01*
X80531556Y-29928891D01*
X80518542Y-29805072D01*
X80459527Y-29623444D01*
X80364040Y-29458056D01*
X80236253Y-29316134D01*
X80225708Y-29308472D01*
X80154086Y-29256436D01*
X80110732Y-29200214D01*
X80104657Y-29129477D01*
X80137789Y-29066686D01*
X80199609Y-29031774D01*
X80228147Y-29028500D01*
X80389733Y-29028500D01*
X80409442Y-29030051D01*
X80429445Y-29033219D01*
X80437337Y-29032473D01*
X80442564Y-29031979D01*
X80473456Y-29029059D01*
X80485313Y-29028500D01*
X80489358Y-29028500D01*
X80517097Y-29024995D01*
X80520986Y-29024566D01*
X80557281Y-29021135D01*
X80580903Y-29018903D01*
X80580904Y-29018903D01*
X80588794Y-29018157D01*
X80596015Y-29015557D01*
X80596596Y-29015456D01*
X80600121Y-29014611D01*
X80600690Y-29014436D01*
X80608299Y-29013474D01*
X80615664Y-29010558D01*
X80615668Y-29010557D01*
X80671618Y-28988405D01*
X80675319Y-28987006D01*
X80700358Y-28977991D01*
X80739391Y-28963938D01*
X80745735Y-28959627D01*
X80746265Y-28959387D01*
X80749488Y-28957681D01*
X80749984Y-28957377D01*
X80757119Y-28954552D01*
X80802823Y-28921346D01*
X80812210Y-28914526D01*
X80815449Y-28912250D01*
X80865214Y-28878430D01*
X80865220Y-28878425D01*
X80871772Y-28873972D01*
X80876845Y-28868218D01*
X80877303Y-28867851D01*
X80879992Y-28865404D01*
X80880401Y-28864983D01*
X80886609Y-28860472D01*
X80894104Y-28851413D01*
X80930028Y-28807988D01*
X80932598Y-28804979D01*
X80935209Y-28802018D01*
X80977622Y-28753909D01*
X80981106Y-28747071D01*
X80981458Y-28746602D01*
X80983457Y-28743559D01*
X80983744Y-28743057D01*
X80988635Y-28737144D01*
X80992009Y-28729973D01*
X80992012Y-28729969D01*
X81017633Y-28675521D01*
X81019374Y-28671966D01*
X81035283Y-28640744D01*
X81050287Y-28611296D01*
X81051961Y-28603808D01*
X81052188Y-28603259D01*
X81053360Y-28599837D01*
X81053517Y-28599263D01*
X81056785Y-28592318D01*
X81069549Y-28525406D01*
X81070352Y-28521530D01*
X81083473Y-28462833D01*
X81083473Y-28462829D01*
X81085203Y-28455091D01*
X81084962Y-28447421D01*
X81085046Y-28446832D01*
X81085330Y-28443215D01*
X81085339Y-28442631D01*
X81086777Y-28435094D01*
X81082500Y-28367104D01*
X81082314Y-28363178D01*
X81081915Y-28350456D01*
X81080175Y-28295110D01*
X81078034Y-28287741D01*
X81077968Y-28287141D01*
X81077347Y-28283584D01*
X81077209Y-28283011D01*
X81076727Y-28275350D01*
X81055666Y-28210532D01*
X81054531Y-28206842D01*
X81040948Y-28160090D01*
X81041152Y-28089093D01*
X81061118Y-28049377D01*
X81070615Y-28036705D01*
X81121745Y-27900316D01*
X81128500Y-27838134D01*
X81128500Y-27829500D01*
X81148502Y-27761379D01*
X81202158Y-27714886D01*
X81254500Y-27703500D01*
X81320487Y-27703500D01*
X81326939Y-27702128D01*
X81326944Y-27702128D01*
X81413888Y-27683647D01*
X81507288Y-27663794D01*
X81513319Y-27661109D01*
X81675722Y-27588803D01*
X81675724Y-27588802D01*
X81681752Y-27586118D01*
X81836253Y-27473866D01*
X81964040Y-27331944D01*
X82059527Y-27166556D01*
X82118542Y-26984928D01*
X82125773Y-26916134D01*
X82137814Y-26801565D01*
X82138504Y-26795000D01*
X82118542Y-26605072D01*
X82059527Y-26423444D01*
X82026753Y-26366677D01*
X82012742Y-26342411D01*
X81964040Y-26258056D01*
X81836253Y-26116134D01*
X81681752Y-26003882D01*
X81675724Y-26001198D01*
X81675722Y-26001197D01*
X81513319Y-25928891D01*
X81513318Y-25928891D01*
X81507288Y-25926206D01*
X81405001Y-25904464D01*
X81326944Y-25887872D01*
X81326939Y-25887872D01*
X81320487Y-25886500D01*
X81129513Y-25886500D01*
X81123061Y-25887872D01*
X81123056Y-25887872D01*
X81044999Y-25904464D01*
X80942712Y-25926206D01*
X80936682Y-25928891D01*
X80936681Y-25928891D01*
X80774278Y-26001197D01*
X80774276Y-26001198D01*
X80768248Y-26003882D01*
X80751115Y-26016330D01*
X80732228Y-26030052D01*
X80665360Y-26053910D01*
X80596209Y-26037829D01*
X80546729Y-25986914D01*
X80532858Y-25941285D01*
X80531988Y-25933000D01*
X80518542Y-25805072D01*
X80459527Y-25623444D01*
X80364040Y-25458056D01*
X80236253Y-25316134D01*
X80216976Y-25302128D01*
X80154086Y-25256436D01*
X80110732Y-25200214D01*
X80104657Y-25129477D01*
X80137789Y-25066686D01*
X80199609Y-25031774D01*
X80228147Y-25028500D01*
X80389733Y-25028500D01*
X80409442Y-25030051D01*
X80429445Y-25033219D01*
X80437337Y-25032473D01*
X80442564Y-25031979D01*
X80473456Y-25029059D01*
X80485313Y-25028500D01*
X81268175Y-25028500D01*
X81336296Y-25048502D01*
X81342232Y-25052561D01*
X81492748Y-25161918D01*
X81498776Y-25164602D01*
X81498778Y-25164603D01*
X81587001Y-25203882D01*
X81667212Y-25239594D01*
X81746447Y-25256436D01*
X81847556Y-25277928D01*
X81847561Y-25277928D01*
X81854013Y-25279300D01*
X82044987Y-25279300D01*
X82051439Y-25277928D01*
X82051444Y-25277928D01*
X82152553Y-25256436D01*
X82231788Y-25239594D01*
X82311999Y-25203882D01*
X82400222Y-25164603D01*
X82400224Y-25164602D01*
X82406252Y-25161918D01*
X82560753Y-25049666D01*
X82576234Y-25032473D01*
X82684121Y-24912652D01*
X82684122Y-24912651D01*
X82688540Y-24907744D01*
X82784027Y-24742356D01*
X82843042Y-24560728D01*
X82859295Y-24406094D01*
X82862314Y-24377365D01*
X82863004Y-24370800D01*
X82852816Y-24273866D01*
X82843732Y-24187435D01*
X82843732Y-24187433D01*
X82843042Y-24180872D01*
X82784027Y-23999244D01*
X82688540Y-23833856D01*
X82623391Y-23761500D01*
X82565175Y-23696845D01*
X82565174Y-23696844D01*
X82560753Y-23691934D01*
X82436371Y-23601565D01*
X82411594Y-23583563D01*
X82411593Y-23583562D01*
X82406252Y-23579682D01*
X82400224Y-23576998D01*
X82400222Y-23576997D01*
X82237819Y-23504691D01*
X82237818Y-23504691D01*
X82231788Y-23502006D01*
X82122788Y-23478837D01*
X82075488Y-23468783D01*
X82013014Y-23435054D01*
X81978693Y-23372905D01*
X81983421Y-23302066D01*
X81992566Y-23282536D01*
X82056223Y-23172279D01*
X82056224Y-23172278D01*
X82059527Y-23166556D01*
X82118542Y-22984928D01*
X82125773Y-22916134D01*
X82137814Y-22801565D01*
X82138504Y-22795000D01*
X82118542Y-22605072D01*
X82059527Y-22423444D01*
X81964040Y-22258056D01*
X81897824Y-22184515D01*
X81840675Y-22121045D01*
X81840674Y-22121044D01*
X81836253Y-22116134D01*
X81728476Y-22037829D01*
X81687094Y-22007763D01*
X81687093Y-22007762D01*
X81681752Y-22003882D01*
X81675724Y-22001198D01*
X81675722Y-22001197D01*
X81513319Y-21928891D01*
X81513318Y-21928891D01*
X81507288Y-21926206D01*
X81403594Y-21904165D01*
X81326944Y-21887872D01*
X81326939Y-21887872D01*
X81320487Y-21886500D01*
X81129513Y-21886500D01*
X81123061Y-21887872D01*
X81123056Y-21887872D01*
X81046406Y-21904165D01*
X80942712Y-21926206D01*
X80936682Y-21928891D01*
X80936681Y-21928891D01*
X80774278Y-22001197D01*
X80774276Y-22001198D01*
X80768248Y-22003882D01*
X80751115Y-22016330D01*
X80732228Y-22030052D01*
X80665360Y-22053910D01*
X80596209Y-22037829D01*
X80546729Y-21986914D01*
X80532858Y-21941285D01*
X80531556Y-21928891D01*
X80518542Y-21805072D01*
X80459527Y-21623444D01*
X80364040Y-21458056D01*
X80287211Y-21372728D01*
X80240675Y-21321045D01*
X80240674Y-21321044D01*
X80236253Y-21316134D01*
X80081752Y-21203882D01*
X80075724Y-21201198D01*
X80075722Y-21201197D01*
X80046078Y-21187999D01*
X79991982Y-21142019D01*
X79971333Y-21074092D01*
X79990685Y-21005784D01*
X80043896Y-20958782D01*
X80069925Y-20950801D01*
X80069888Y-20950673D01*
X80069889Y-20950673D01*
X80089343Y-20945021D01*
X80108700Y-20941013D01*
X80120930Y-20939468D01*
X80120931Y-20939468D01*
X80128797Y-20938474D01*
X80136168Y-20935555D01*
X80136170Y-20935555D01*
X80169912Y-20922196D01*
X80181142Y-20918351D01*
X80215983Y-20908229D01*
X80215984Y-20908229D01*
X80223593Y-20906018D01*
X80230412Y-20901985D01*
X80230417Y-20901983D01*
X80241028Y-20895707D01*
X80258776Y-20887012D01*
X80277617Y-20879552D01*
X80313387Y-20853564D01*
X80323307Y-20847048D01*
X80326687Y-20845049D01*
X80361362Y-20824542D01*
X80366969Y-20818936D01*
X80375685Y-20810220D01*
X80390719Y-20797379D01*
X80400695Y-20790131D01*
X80400696Y-20790130D01*
X80407107Y-20785472D01*
X80435288Y-20751407D01*
X80443278Y-20742626D01*
X80787259Y-20398646D01*
X80795537Y-20391113D01*
X80802018Y-20387000D01*
X80848630Y-20337362D01*
X80851385Y-20334519D01*
X80868334Y-20317571D01*
X80871135Y-20314770D01*
X80873615Y-20311573D01*
X80881320Y-20302551D01*
X80906159Y-20276100D01*
X80911586Y-20270321D01*
X80915405Y-20263375D01*
X80915407Y-20263372D01*
X80921348Y-20252566D01*
X80932199Y-20236047D01*
X80939758Y-20226301D01*
X80944614Y-20220041D01*
X80957904Y-20189331D01*
X80981542Y-20154549D01*
X80983261Y-20153261D01*
X81070615Y-20036705D01*
X81121745Y-19900316D01*
X81128500Y-19838134D01*
X81128500Y-19829500D01*
X81148502Y-19761379D01*
X81202158Y-19714886D01*
X81254500Y-19703500D01*
X81320487Y-19703500D01*
X81326939Y-19702128D01*
X81326944Y-19702128D01*
X81413888Y-19683647D01*
X81507288Y-19663794D01*
X81513319Y-19661109D01*
X81675722Y-19588803D01*
X81675724Y-19588802D01*
X81681752Y-19586118D01*
X81836253Y-19473866D01*
X81964040Y-19331944D01*
X82059527Y-19166556D01*
X82118542Y-18984928D01*
X82125773Y-18916134D01*
X82137814Y-18801565D01*
X82138504Y-18795000D01*
X82118542Y-18605072D01*
X82059527Y-18423444D01*
X82026753Y-18366677D01*
X82012742Y-18342411D01*
X81964040Y-18258056D01*
X81836253Y-18116134D01*
X81787139Y-18080451D01*
X81759226Y-18052523D01*
X81758530Y-18051564D01*
X81752051Y-18041696D01*
X81733578Y-18010460D01*
X81733574Y-18010455D01*
X81729542Y-18003637D01*
X81715218Y-17989313D01*
X81702376Y-17974278D01*
X81690472Y-17957893D01*
X81656406Y-17929711D01*
X81647627Y-17921722D01*
X80817589Y-17091684D01*
X80783563Y-17029372D01*
X80788628Y-16958557D01*
X80835862Y-16898376D01*
X80871772Y-16873972D01*
X80876845Y-16868218D01*
X80877303Y-16867851D01*
X80879992Y-16865404D01*
X80880401Y-16864983D01*
X80886609Y-16860472D01*
X80930030Y-16807986D01*
X80932598Y-16804979D01*
X80972379Y-16759856D01*
X80977622Y-16753909D01*
X80981106Y-16747071D01*
X80981458Y-16746602D01*
X80983457Y-16743559D01*
X80983744Y-16743057D01*
X80988635Y-16737144D01*
X80992009Y-16729973D01*
X80992012Y-16729969D01*
X81017633Y-16675521D01*
X81019374Y-16671966D01*
X81025147Y-16660637D01*
X81050287Y-16611296D01*
X81051961Y-16603808D01*
X81052188Y-16603259D01*
X81053360Y-16599837D01*
X81053517Y-16599263D01*
X81056785Y-16592318D01*
X81069549Y-16525406D01*
X81070352Y-16521530D01*
X81083473Y-16462833D01*
X81083473Y-16462829D01*
X81085203Y-16455091D01*
X81084962Y-16447421D01*
X81085046Y-16446832D01*
X81085330Y-16443215D01*
X81085339Y-16442631D01*
X81086777Y-16435094D01*
X81082500Y-16367104D01*
X81082314Y-16363178D01*
X81080424Y-16303033D01*
X81080175Y-16295110D01*
X81078034Y-16287741D01*
X81077968Y-16287141D01*
X81077347Y-16283584D01*
X81077209Y-16283011D01*
X81076727Y-16275350D01*
X81055666Y-16210532D01*
X81054531Y-16206842D01*
X81040948Y-16160090D01*
X81041152Y-16089093D01*
X81061118Y-16049377D01*
X81070615Y-16036705D01*
X81121745Y-15900316D01*
X81128500Y-15838134D01*
X81128500Y-15829500D01*
X81148502Y-15761379D01*
X81202158Y-15714886D01*
X81254500Y-15703500D01*
X81320487Y-15703500D01*
X81326939Y-15702128D01*
X81326944Y-15702128D01*
X81413888Y-15683647D01*
X81507288Y-15663794D01*
X81513319Y-15661109D01*
X81675722Y-15588803D01*
X81675724Y-15588802D01*
X81681752Y-15586118D01*
X81692502Y-15578308D01*
X81762219Y-15527655D01*
X84049858Y-15527655D01*
X84085104Y-15786638D01*
X84086412Y-15791124D01*
X84086412Y-15791126D01*
X84100114Y-15838134D01*
X84158243Y-16037567D01*
X84160203Y-16041820D01*
X84160204Y-16041821D01*
X84162952Y-16047781D01*
X84267668Y-16274928D01*
X84291197Y-16310816D01*
X84408410Y-16489596D01*
X84408414Y-16489601D01*
X84410976Y-16493509D01*
X84585018Y-16688506D01*
X84785970Y-16855637D01*
X84806098Y-16867851D01*
X85005422Y-16988804D01*
X85005426Y-16988806D01*
X85009419Y-16991229D01*
X85250455Y-17092303D01*
X85503783Y-17156641D01*
X85508434Y-17157109D01*
X85508438Y-17157110D01*
X85701308Y-17176531D01*
X85720867Y-17178500D01*
X85876354Y-17178500D01*
X85878679Y-17178327D01*
X85878685Y-17178327D01*
X86066000Y-17164407D01*
X86066004Y-17164406D01*
X86070652Y-17164061D01*
X86075200Y-17163032D01*
X86075206Y-17163031D01*
X86272050Y-17118489D01*
X86325577Y-17106377D01*
X86329931Y-17104684D01*
X86564824Y-17013340D01*
X86564827Y-17013339D01*
X86569177Y-17011647D01*
X86630952Y-16976340D01*
X86666473Y-16956038D01*
X86796098Y-16881951D01*
X87001357Y-16720138D01*
X87180443Y-16529763D01*
X87329424Y-16315009D01*
X87335330Y-16303033D01*
X87442960Y-16084781D01*
X87442961Y-16084778D01*
X87445025Y-16080593D01*
X87505247Y-15892460D01*
X87523280Y-15836123D01*
X87524707Y-15831665D01*
X87566721Y-15573693D01*
X87569821Y-15336852D01*
X87570081Y-15317022D01*
X87570081Y-15317019D01*
X87570142Y-15312345D01*
X87534896Y-15053362D01*
X87531797Y-15042728D01*
X87469807Y-14830052D01*
X87461757Y-14802433D01*
X87352332Y-14565072D01*
X87304545Y-14492184D01*
X87211590Y-14350404D01*
X87211586Y-14350399D01*
X87209024Y-14346491D01*
X87034982Y-14151494D01*
X86834030Y-13984363D01*
X86786844Y-13955730D01*
X86614578Y-13851196D01*
X86614574Y-13851194D01*
X86610581Y-13848771D01*
X86369545Y-13747697D01*
X86116217Y-13683359D01*
X86111566Y-13682891D01*
X86111562Y-13682890D01*
X85902271Y-13661816D01*
X85899133Y-13661500D01*
X85743646Y-13661500D01*
X85741321Y-13661673D01*
X85741315Y-13661673D01*
X85554000Y-13675593D01*
X85553996Y-13675594D01*
X85549348Y-13675939D01*
X85544800Y-13676968D01*
X85544794Y-13676969D01*
X85387755Y-13712504D01*
X85294423Y-13733623D01*
X85290071Y-13735315D01*
X85290069Y-13735316D01*
X85055176Y-13826660D01*
X85055173Y-13826661D01*
X85050823Y-13828353D01*
X85046769Y-13830670D01*
X85046767Y-13830671D01*
X85015099Y-13848771D01*
X84823902Y-13958049D01*
X84618643Y-14119862D01*
X84439557Y-14310237D01*
X84361022Y-14423444D01*
X84302313Y-14508073D01*
X84290576Y-14524991D01*
X84288510Y-14529181D01*
X84288508Y-14529184D01*
X84177552Y-14754182D01*
X84174975Y-14759407D01*
X84173553Y-14763850D01*
X84173552Y-14763852D01*
X84124807Y-14916134D01*
X84095293Y-15008335D01*
X84053279Y-15266307D01*
X84052737Y-15307711D01*
X84050282Y-15495289D01*
X84049858Y-15527655D01*
X81762219Y-15527655D01*
X81768656Y-15522978D01*
X81836253Y-15473866D01*
X81964040Y-15331944D01*
X82059527Y-15166556D01*
X82118542Y-14984928D01*
X82125773Y-14916134D01*
X82137814Y-14801565D01*
X82138504Y-14795000D01*
X82131556Y-14728891D01*
X82119232Y-14611635D01*
X82119232Y-14611633D01*
X82118542Y-14605072D01*
X82059527Y-14423444D01*
X81964040Y-14258056D01*
X81934158Y-14224868D01*
X81840675Y-14121045D01*
X81840674Y-14121044D01*
X81836253Y-14116134D01*
X81681752Y-14003882D01*
X81675724Y-14001198D01*
X81675722Y-14001197D01*
X81513319Y-13928891D01*
X81513318Y-13928891D01*
X81507288Y-13926206D01*
X81405001Y-13904464D01*
X81326944Y-13887872D01*
X81326939Y-13887872D01*
X81320487Y-13886500D01*
X81129513Y-13886500D01*
X81123061Y-13887872D01*
X81123056Y-13887872D01*
X81044999Y-13904464D01*
X80942712Y-13926206D01*
X80936682Y-13928891D01*
X80936681Y-13928891D01*
X80774278Y-14001197D01*
X80774276Y-14001198D01*
X80768248Y-14003882D01*
X80751115Y-14016330D01*
X80732228Y-14030052D01*
X80665360Y-14053910D01*
X80596209Y-14037829D01*
X80546729Y-13986914D01*
X80532858Y-13941285D01*
X80531556Y-13928891D01*
X80522945Y-13846962D01*
X80519232Y-13811635D01*
X80519232Y-13811633D01*
X80518542Y-13805072D01*
X80459527Y-13623444D01*
X80364040Y-13458056D01*
X80349771Y-13442208D01*
X80240675Y-13321045D01*
X80240674Y-13321044D01*
X80236253Y-13316134D01*
X80137157Y-13244136D01*
X80087094Y-13207763D01*
X80087093Y-13207762D01*
X80081752Y-13203882D01*
X80075724Y-13201198D01*
X80075722Y-13201197D01*
X80004769Y-13169607D01*
X79950673Y-13123627D01*
X79930024Y-13055700D01*
X79949376Y-12987391D01*
X80002587Y-12940390D01*
X80056018Y-12928500D01*
X86559467Y-12928500D01*
X86580874Y-12930332D01*
X86590524Y-12931996D01*
X86590526Y-12931996D01*
X86599371Y-12933521D01*
X86613288Y-12931931D01*
X86614654Y-12931775D01*
X86639987Y-12931445D01*
X86847868Y-12949715D01*
X86865619Y-12952562D01*
X87093493Y-13006028D01*
X87110657Y-13011372D01*
X87328602Y-13096724D01*
X87344831Y-13104457D01*
X87548415Y-13219959D01*
X87563372Y-13229919D01*
X87748443Y-13373216D01*
X87761834Y-13385207D01*
X87832353Y-13458056D01*
X87924629Y-13553383D01*
X87936180Y-13567160D01*
X88073380Y-13756790D01*
X88082848Y-13772061D01*
X88191677Y-13979309D01*
X88198872Y-13995769D01*
X88255324Y-14154984D01*
X88277089Y-14216370D01*
X88281873Y-14233698D01*
X88325958Y-14453498D01*
X88327902Y-14463193D01*
X88330170Y-14481022D01*
X88340601Y-14670010D01*
X88341279Y-14682296D01*
X88340238Y-14700273D01*
X88340003Y-14708529D01*
X88338479Y-14717371D01*
X88339498Y-14726290D01*
X88339498Y-14726291D01*
X88342685Y-14754182D01*
X88343500Y-14768486D01*
X88343500Y-51262001D01*
X88342198Y-51280065D01*
X88339766Y-51296857D01*
X88338271Y-51307174D01*
X88340413Y-51322308D01*
X88340428Y-51322411D01*
X88341438Y-51347722D01*
X88328876Y-51554138D01*
X88326508Y-51571953D01*
X88279562Y-51799351D01*
X88274680Y-51816652D01*
X88197913Y-52029338D01*
X88195853Y-52035044D01*
X88188563Y-52051465D01*
X88079455Y-52256423D01*
X88069901Y-52271642D01*
X87932734Y-52458987D01*
X87921111Y-52472693D01*
X87760527Y-52636721D01*
X87758685Y-52638603D01*
X87745224Y-52650520D01*
X87560835Y-52791628D01*
X87545815Y-52801507D01*
X87343228Y-52914935D01*
X87326955Y-52922576D01*
X87110284Y-53006018D01*
X87093091Y-53011265D01*
X87042440Y-53022848D01*
X86866754Y-53063023D01*
X86848998Y-53065769D01*
X86649963Y-53082129D01*
X86631989Y-53081572D01*
X86623714Y-53081559D01*
X86614826Y-53080271D01*
X86586679Y-53084256D01*
X86569016Y-53085500D01*
X37398756Y-53085500D01*
X37374929Y-53083227D01*
X37371461Y-53082559D01*
X37371460Y-53082559D01*
X37362648Y-53080862D01*
X37347330Y-53082310D01*
X37321997Y-53082146D01*
X37162935Y-53065032D01*
X37124002Y-53060843D01*
X37106311Y-53057650D01*
X36888771Y-53002108D01*
X36871714Y-52996429D01*
X36664295Y-52910494D01*
X36648225Y-52902449D01*
X36455134Y-52787862D01*
X36440368Y-52777607D01*
X36265568Y-52636721D01*
X36252411Y-52624470D01*
X36099434Y-52460135D01*
X36088155Y-52446136D01*
X35960119Y-52261698D01*
X35950947Y-52246237D01*
X35850465Y-52045459D01*
X35843587Y-52028850D01*
X35823304Y-51967893D01*
X35772701Y-51815815D01*
X35768258Y-51798403D01*
X35763142Y-51770031D01*
X35728411Y-51577443D01*
X35726491Y-51559569D01*
X35719653Y-51367667D01*
X35721043Y-51349722D01*
X35721440Y-51341466D01*
X35723138Y-51332648D01*
X35719059Y-51289498D01*
X35718500Y-51277640D01*
X35718500Y-42661655D01*
X36449858Y-42661655D01*
X36485104Y-42920638D01*
X36486412Y-42925124D01*
X36486412Y-42925126D01*
X36501930Y-42978365D01*
X36558243Y-43171567D01*
X36667668Y-43408928D01*
X36670231Y-43412837D01*
X36808410Y-43623596D01*
X36808414Y-43623601D01*
X36810976Y-43627509D01*
X36985018Y-43822506D01*
X37185970Y-43989637D01*
X37189973Y-43992066D01*
X37405422Y-44122804D01*
X37405426Y-44122806D01*
X37409419Y-44125229D01*
X37650455Y-44226303D01*
X37903783Y-44290641D01*
X37908434Y-44291109D01*
X37908438Y-44291110D01*
X38101308Y-44310531D01*
X38120867Y-44312500D01*
X38276354Y-44312500D01*
X38278679Y-44312327D01*
X38278685Y-44312327D01*
X38466000Y-44298407D01*
X38466004Y-44298406D01*
X38470652Y-44298061D01*
X38475200Y-44297032D01*
X38475206Y-44297031D01*
X38661601Y-44254853D01*
X38725577Y-44240377D01*
X38729931Y-44238684D01*
X38964824Y-44147340D01*
X38964827Y-44147339D01*
X38969177Y-44145647D01*
X38993153Y-44131944D01*
X39061467Y-44092899D01*
X39196098Y-44015951D01*
X39401357Y-43854138D01*
X39580443Y-43663763D01*
X39697872Y-43494491D01*
X39726759Y-43452851D01*
X39726761Y-43452848D01*
X39729424Y-43449009D01*
X39749190Y-43408928D01*
X39842960Y-43218781D01*
X39842961Y-43218778D01*
X39845025Y-43214593D01*
X39924707Y-42965665D01*
X39966721Y-42707693D01*
X39969063Y-42528800D01*
X39970081Y-42451022D01*
X39970081Y-42451019D01*
X39970142Y-42446345D01*
X39934896Y-42187362D01*
X39920473Y-42137877D01*
X39882547Y-42007762D01*
X39861757Y-41936433D01*
X39752332Y-41699072D01*
X39706869Y-41629729D01*
X39611590Y-41484404D01*
X39611586Y-41484399D01*
X39609024Y-41480491D01*
X39434982Y-41285494D01*
X39234030Y-41118363D01*
X39147391Y-41065789D01*
X39014578Y-40985196D01*
X39014574Y-40985194D01*
X39010581Y-40982771D01*
X38769545Y-40881697D01*
X38516217Y-40817359D01*
X38511566Y-40816891D01*
X38511562Y-40816890D01*
X38302271Y-40795816D01*
X38299133Y-40795500D01*
X38143646Y-40795500D01*
X38141321Y-40795673D01*
X38141315Y-40795673D01*
X37954000Y-40809593D01*
X37953996Y-40809594D01*
X37949348Y-40809939D01*
X37944800Y-40810968D01*
X37944794Y-40810969D01*
X37788453Y-40846346D01*
X37694423Y-40867623D01*
X37690071Y-40869315D01*
X37690069Y-40869316D01*
X37455176Y-40960660D01*
X37455173Y-40960661D01*
X37450823Y-40962353D01*
X37446769Y-40964670D01*
X37446767Y-40964671D01*
X37433321Y-40972356D01*
X37223902Y-41092049D01*
X37018643Y-41253862D01*
X36839557Y-41444237D01*
X36690576Y-41658991D01*
X36688510Y-41663181D01*
X36688508Y-41663184D01*
X36577705Y-41887872D01*
X36574975Y-41893407D01*
X36573553Y-41897850D01*
X36573552Y-41897852D01*
X36535627Y-42016330D01*
X36495293Y-42142335D01*
X36453279Y-42400307D01*
X36453218Y-42404980D01*
X36450911Y-42581248D01*
X36449858Y-42661655D01*
X35718500Y-42661655D01*
X35718500Y-15490655D01*
X36449858Y-15490655D01*
X36485104Y-15749638D01*
X36486412Y-15754124D01*
X36486412Y-15754126D01*
X36502401Y-15808982D01*
X36558243Y-16000567D01*
X36667668Y-16237928D01*
X36691197Y-16273816D01*
X36808410Y-16452596D01*
X36808414Y-16452601D01*
X36810976Y-16456509D01*
X36985018Y-16651506D01*
X37185970Y-16818637D01*
X37189973Y-16821066D01*
X37405422Y-16951804D01*
X37405426Y-16951806D01*
X37409419Y-16954229D01*
X37650455Y-17055303D01*
X37903783Y-17119641D01*
X37908434Y-17120109D01*
X37908438Y-17120110D01*
X38101308Y-17139531D01*
X38120867Y-17141500D01*
X38276354Y-17141500D01*
X38278679Y-17141327D01*
X38278685Y-17141327D01*
X38466000Y-17127407D01*
X38466004Y-17127406D01*
X38470652Y-17127061D01*
X38475200Y-17126032D01*
X38475206Y-17126031D01*
X38715894Y-17071568D01*
X38725577Y-17069377D01*
X38761769Y-17055303D01*
X38964824Y-16976340D01*
X38964827Y-16976339D01*
X38969177Y-16974647D01*
X39196098Y-16844951D01*
X39401357Y-16683138D01*
X39580443Y-16492763D01*
X39717561Y-16295110D01*
X39726759Y-16281851D01*
X39726761Y-16281848D01*
X39729424Y-16278009D01*
X39731492Y-16273816D01*
X39842960Y-16047781D01*
X39842961Y-16047778D01*
X39845025Y-16043593D01*
X39871697Y-15960271D01*
X39923280Y-15799123D01*
X39924707Y-15794665D01*
X39966721Y-15536693D01*
X39968526Y-15398794D01*
X39970081Y-15280022D01*
X39970081Y-15280019D01*
X39970142Y-15275345D01*
X39934896Y-15016362D01*
X39920473Y-14966877D01*
X39904550Y-14912251D01*
X39861757Y-14765433D01*
X39839590Y-14717348D01*
X39821207Y-14677474D01*
X39752332Y-14528072D01*
X39715589Y-14472030D01*
X39611590Y-14313404D01*
X39611586Y-14313399D01*
X39609024Y-14309491D01*
X39434982Y-14114494D01*
X39234030Y-13947363D01*
X39161746Y-13903500D01*
X39014578Y-13814196D01*
X39014574Y-13814194D01*
X39010581Y-13811771D01*
X38769545Y-13710697D01*
X38516217Y-13646359D01*
X38511566Y-13645891D01*
X38511562Y-13645890D01*
X38302271Y-13624816D01*
X38299133Y-13624500D01*
X38143646Y-13624500D01*
X38141321Y-13624673D01*
X38141315Y-13624673D01*
X37954000Y-13638593D01*
X37953996Y-13638594D01*
X37949348Y-13638939D01*
X37944800Y-13639968D01*
X37944794Y-13639969D01*
X37758399Y-13682147D01*
X37694423Y-13696623D01*
X37690071Y-13698315D01*
X37690069Y-13698316D01*
X37455176Y-13789660D01*
X37455173Y-13789661D01*
X37450823Y-13791353D01*
X37446769Y-13793670D01*
X37446767Y-13793671D01*
X37386086Y-13828353D01*
X37223902Y-13921049D01*
X37018643Y-14082862D01*
X36839557Y-14273237D01*
X36788739Y-14346491D01*
X36694312Y-14482606D01*
X36690576Y-14487991D01*
X36688510Y-14492181D01*
X36688508Y-14492184D01*
X36592006Y-14687872D01*
X36574975Y-14722407D01*
X36573553Y-14726850D01*
X36573552Y-14726852D01*
X36561708Y-14763852D01*
X36495293Y-14971335D01*
X36453279Y-15229307D01*
X36449858Y-15490655D01*
X35718500Y-15490655D01*
X35718500Y-14786103D01*
X35720303Y-14764863D01*
X35721952Y-14755219D01*
X35723540Y-14745935D01*
X35722509Y-14737016D01*
X35722509Y-14737012D01*
X35721654Y-14729618D01*
X35721227Y-14705034D01*
X35737089Y-14508073D01*
X35739483Y-14491766D01*
X35786457Y-14272735D01*
X35790960Y-14256882D01*
X35866118Y-14045862D01*
X35872647Y-14030741D01*
X35974712Y-13831327D01*
X35983160Y-13817185D01*
X36110379Y-13632801D01*
X36120601Y-13619883D01*
X36270802Y-13453678D01*
X36282619Y-13442208D01*
X36453222Y-13297036D01*
X36466446Y-13287199D01*
X36654534Y-13165540D01*
X36668929Y-13157513D01*
X36871281Y-13061448D01*
X36886600Y-13055368D01*
X37099771Y-12986533D01*
X37115754Y-12982505D01*
X37336085Y-12942085D01*
X37352454Y-12940178D01*
X37542623Y-12930558D01*
X37565711Y-12931931D01*
X37569213Y-12932026D01*
X37578065Y-12933540D01*
X37586983Y-12932509D01*
X37586985Y-12932509D01*
X37614442Y-12929334D01*
X37628914Y-12928500D01*
X43193982Y-12928500D01*
X43262103Y-12948502D01*
G37*
%TD.AperFunction*%
%TD*%
M02*
