%TF.GenerationSoftware,KiCad,Pcbnew,(6.0.10)*%
%TF.CreationDate,2023-01-20T23:09:19-08:00*%
%TF.ProjectId,pico8t,7069636f-3874-42e6-9b69-6361645f7063,rev?*%
%TF.SameCoordinates,Original*%
%TF.FileFunction,Copper,L1,Top*%
%TF.FilePolarity,Positive*%
%FSLAX46Y46*%
G04 Gerber Fmt 4.6, Leading zero omitted, Abs format (unit mm)*
G04 Created by KiCad (PCBNEW (6.0.10)) date 2023-01-20 23:09:19*
%MOMM*%
%LPD*%
G01*
G04 APERTURE LIST*
G04 Aperture macros list*
%AMRoundRect*
0 Rectangle with rounded corners*
0 $1 Rounding radius*
0 $2 $3 $4 $5 $6 $7 $8 $9 X,Y pos of 4 corners*
0 Add a 4 corners polygon primitive as box body*
4,1,4,$2,$3,$4,$5,$6,$7,$8,$9,$2,$3,0*
0 Add four circle primitives for the rounded corners*
1,1,$1+$1,$2,$3*
1,1,$1+$1,$4,$5*
1,1,$1+$1,$6,$7*
1,1,$1+$1,$8,$9*
0 Add four rect primitives between the rounded corners*
20,1,$1+$1,$2,$3,$4,$5,0*
20,1,$1+$1,$4,$5,$6,$7,0*
20,1,$1+$1,$6,$7,$8,$9,0*
20,1,$1+$1,$8,$9,$2,$3,0*%
G04 Aperture macros list end*
%TA.AperFunction,ComponentPad*%
%ADD10R,1.700000X1.700000*%
%TD*%
%TA.AperFunction,ComponentPad*%
%ADD11O,1.700000X1.700000*%
%TD*%
%TA.AperFunction,SMDPad,CuDef*%
%ADD12RoundRect,0.237500X-0.237500X0.250000X-0.237500X-0.250000X0.237500X-0.250000X0.237500X0.250000X0*%
%TD*%
%TA.AperFunction,SMDPad,CuDef*%
%ADD13R,0.550000X0.500000*%
%TD*%
%TA.AperFunction,ViaPad*%
%ADD14C,0.800000*%
%TD*%
%TA.AperFunction,Conductor*%
%ADD15C,0.250000*%
%TD*%
G04 APERTURE END LIST*
D10*
%TO.P,J0,1,Pin_1*%
%TO.N,P0*%
X37851000Y-50800000D03*
D11*
%TO.P,J0,2,Pin_2*%
%TO.N,P1*%
X40391000Y-50800000D03*
%TO.P,J0,3,Pin_3*%
%TO.N,GND*%
X42931000Y-50800000D03*
%TO.P,J0,4,Pin_4*%
%TO.N,P2*%
X45471000Y-50800000D03*
%TO.P,J0,5,Pin_5*%
%TO.N,P3*%
X48011000Y-50800000D03*
%TO.P,J0,6,Pin_6*%
%TO.N,P4*%
X50551000Y-50800000D03*
%TO.P,J0,7,Pin_7*%
%TO.N,P5*%
X53091000Y-50800000D03*
%TO.P,J0,8,Pin_8*%
%TO.N,GND*%
X55631000Y-50800000D03*
%TO.P,J0,9,Pin_9*%
%TO.N,P6*%
X58171000Y-50800000D03*
%TO.P,J0,10,Pin_10*%
%TO.N,P7*%
X60711000Y-50800000D03*
%TO.P,J0,11,Pin_11*%
%TO.N,P8*%
X63251000Y-50800000D03*
%TO.P,J0,12,Pin_12*%
%TO.N,P9*%
X65791000Y-50800000D03*
%TO.P,J0,13,Pin_13*%
%TO.N,GND*%
X68331000Y-50800000D03*
%TO.P,J0,14,Pin_14*%
%TO.N,PA*%
X70871000Y-50800000D03*
%TO.P,J0,15,Pin_15*%
%TO.N,PB*%
X73411000Y-50800000D03*
%TO.P,J0,16,Pin_16*%
%TO.N,PC*%
X75951000Y-50800000D03*
%TO.P,J0,17,Pin_17*%
%TO.N,PD*%
X78491000Y-50800000D03*
%TO.P,J0,18,Pin_18*%
%TO.N,GND*%
X81031000Y-50800000D03*
%TO.P,J0,19,Pin_19*%
%TO.N,PE*%
X83571000Y-50800000D03*
%TO.P,J0,20,Pin_20*%
%TO.N,PF*%
X86111000Y-50800000D03*
%TD*%
D12*
%TO.P,R7,1*%
%TO.N,Y7*%
X60960000Y-46077500D03*
%TO.P,R7,2*%
%TO.N,P7*%
X60960000Y-47902500D03*
%TD*%
%TO.P,R3,1*%
%TO.N,Y3*%
X50800000Y-46077500D03*
%TO.P,R3,2*%
%TO.N,P3*%
X50800000Y-47902500D03*
%TD*%
D13*
%TO.P,D42,1,RK*%
%TO.N,P6*%
X51535000Y-31830000D03*
%TO.P,D42,2,GK*%
%TO.N,P7*%
X51535000Y-30530000D03*
%TO.P,D42,3,BK*%
%TO.N,P9*%
X52485000Y-30530000D03*
%TO.P,D42,4,A*%
%TO.N,Y8*%
X52485000Y-31830000D03*
%TD*%
%TO.P,D45,1,RK*%
%TO.N,P0*%
X63535000Y-31830000D03*
%TO.P,D45,2,GK*%
%TO.N,P1*%
X63535000Y-30530000D03*
%TO.P,D45,3,BK*%
%TO.N,P2*%
X64485000Y-30530000D03*
%TO.P,D45,4,A*%
%TO.N,Y9*%
X64485000Y-31830000D03*
%TD*%
%TO.P,D51,1,RK*%
%TO.N,P3*%
X47535000Y-35830000D03*
%TO.P,D51,2,GK*%
%TO.N,P4*%
X47535000Y-34530000D03*
%TO.P,D51,3,BK*%
%TO.N,P5*%
X48485000Y-34530000D03*
%TO.P,D51,4,A*%
%TO.N,YA*%
X48485000Y-35830000D03*
%TD*%
D12*
%TO.P,R11,1*%
%TO.N,YB*%
X71120000Y-46077500D03*
%TO.P,R11,2*%
%TO.N,PB*%
X71120000Y-47902500D03*
%TD*%
D13*
%TO.P,D76,1,RK*%
%TO.N,P3*%
X67535000Y-43830000D03*
%TO.P,D76,2,GK*%
%TO.N,P4*%
X67535000Y-42530000D03*
%TO.P,D76,3,BK*%
%TO.N,P5*%
X68485000Y-42530000D03*
%TO.P,D76,4,A*%
%TO.N,YF*%
X68485000Y-43830000D03*
%TD*%
%TO.P,D73,1,RK*%
%TO.N,P9*%
X55535000Y-43830000D03*
%TO.P,D73,2,GK*%
%TO.N,PA*%
X55535000Y-42530000D03*
%TO.P,D73,3,BK*%
%TO.N,PB*%
X56485000Y-42530000D03*
%TO.P,D73,4,A*%
%TO.N,YE*%
X56485000Y-43830000D03*
%TD*%
%TO.P,D61,1,RK*%
%TO.N,P3*%
X47535000Y-39830000D03*
%TO.P,D61,2,GK*%
%TO.N,P4*%
X47535000Y-38530000D03*
%TO.P,D61,3,BK*%
%TO.N,P5*%
X48485000Y-38530000D03*
%TO.P,D61,4,A*%
%TO.N,YC*%
X48485000Y-39830000D03*
%TD*%
%TO.P,D14,1,RK*%
%TO.N,PD*%
X59535000Y-19830000D03*
%TO.P,D14,2,GK*%
%TO.N,PE*%
X59535000Y-18530000D03*
%TO.P,D14,3,BK*%
%TO.N,PF*%
X60485000Y-18530000D03*
%TO.P,D14,4,A*%
%TO.N,Y2*%
X60485000Y-19830000D03*
%TD*%
D12*
%TO.P,R6,1*%
%TO.N,Y6*%
X58420000Y-46077500D03*
%TO.P,R6,2*%
%TO.N,P6*%
X58420000Y-47902500D03*
%TD*%
D13*
%TO.P,D1,1,RK*%
%TO.N,P4*%
X47535000Y-15830000D03*
%TO.P,D1,2,GK*%
%TO.N,P5*%
X47535000Y-14530000D03*
%TO.P,D1,3,BK*%
%TO.N,P6*%
X48485000Y-14530000D03*
%TO.P,D1,4,A*%
%TO.N,Y0*%
X48485000Y-15830000D03*
%TD*%
%TO.P,D24,1,RK*%
%TO.N,PD*%
X59535000Y-23830000D03*
%TO.P,D24,2,GK*%
%TO.N,PE*%
X59535000Y-22530000D03*
%TO.P,D24,3,BK*%
%TO.N,PF*%
X60485000Y-22530000D03*
%TO.P,D24,4,A*%
%TO.N,Y4*%
X60485000Y-23830000D03*
%TD*%
%TO.P,D20,1,RK*%
%TO.N,P0*%
X43535000Y-23830000D03*
%TO.P,D20,2,GK*%
%TO.N,P1*%
X43535000Y-22530000D03*
%TO.P,D20,3,BK*%
%TO.N,P2*%
X44485000Y-22530000D03*
%TO.P,D20,4,A*%
%TO.N,Y4*%
X44485000Y-23830000D03*
%TD*%
%TO.P,D33,1,RK*%
%TO.N,PA*%
X55535000Y-27830000D03*
%TO.P,D33,2,GK*%
%TO.N,PB*%
X55535000Y-26530000D03*
%TO.P,D33,3,BK*%
%TO.N,PC*%
X56485000Y-26530000D03*
%TO.P,D33,4,A*%
%TO.N,Y6*%
X56485000Y-27830000D03*
%TD*%
%TO.P,D7,1,RK*%
%TO.N,P7*%
X71535000Y-15830000D03*
%TO.P,D7,2,GK*%
%TO.N,P8*%
X71535000Y-14530000D03*
%TO.P,D7,3,BK*%
%TO.N,P9*%
X72485000Y-14530000D03*
%TO.P,D7,4,A*%
%TO.N,Y1*%
X72485000Y-15830000D03*
%TD*%
%TO.P,D59,1,RK*%
%TO.N,PD*%
X79535000Y-35830000D03*
%TO.P,D59,2,GK*%
%TO.N,PE*%
X79535000Y-34530000D03*
%TO.P,D59,3,BK*%
%TO.N,PF*%
X80485000Y-34530000D03*
%TO.P,D59,4,A*%
%TO.N,YB*%
X80485000Y-35830000D03*
%TD*%
%TO.P,D2,1,RK*%
%TO.N,P7*%
X51535000Y-15830000D03*
%TO.P,D2,2,GK*%
%TO.N,P8*%
X51535000Y-14530000D03*
%TO.P,D2,3,BK*%
%TO.N,P9*%
X52485000Y-14530000D03*
%TO.P,D2,4,A*%
%TO.N,Y0*%
X52485000Y-15830000D03*
%TD*%
%TO.P,D5,1,RK*%
%TO.N,P0*%
X63535000Y-15830000D03*
%TO.P,D5,2,GK*%
%TO.N,P2*%
X63535000Y-14530000D03*
%TO.P,D5,3,BK*%
%TO.N,P3*%
X64485000Y-14530000D03*
%TO.P,D5,4,A*%
%TO.N,Y1*%
X64485000Y-15830000D03*
%TD*%
%TO.P,D50,1,RK*%
%TO.N,P0*%
X43535000Y-35830000D03*
%TO.P,D50,2,GK*%
%TO.N,P1*%
X43535000Y-34530000D03*
%TO.P,D50,3,BK*%
%TO.N,P2*%
X44485000Y-34530000D03*
%TO.P,D50,4,A*%
%TO.N,YA*%
X44485000Y-35830000D03*
%TD*%
%TO.P,D9,1,RK*%
%TO.N,PD*%
X79535000Y-15830000D03*
%TO.P,D9,2,GK*%
%TO.N,PE*%
X79535000Y-14530000D03*
%TO.P,D9,3,BK*%
%TO.N,PF*%
X80485000Y-14530000D03*
%TO.P,D9,4,A*%
%TO.N,Y1*%
X80485000Y-15830000D03*
%TD*%
%TO.P,D22,1,RK*%
%TO.N,P7*%
X51535000Y-23830000D03*
%TO.P,D22,2,GK*%
%TO.N,P8*%
X51535000Y-22530000D03*
%TO.P,D22,3,BK*%
%TO.N,P9*%
X52485000Y-22530000D03*
%TO.P,D22,4,A*%
%TO.N,Y4*%
X52485000Y-23830000D03*
%TD*%
%TO.P,D28,1,RK*%
%TO.N,PA*%
X75535000Y-23830000D03*
%TO.P,D28,2,GK*%
%TO.N,PB*%
X75535000Y-22530000D03*
%TO.P,D28,3,BK*%
%TO.N,PC*%
X76485000Y-22530000D03*
%TO.P,D28,4,A*%
%TO.N,Y5*%
X76485000Y-23830000D03*
%TD*%
%TO.P,D46,1,RK*%
%TO.N,P3*%
X67535000Y-31830000D03*
%TO.P,D46,2,GK*%
%TO.N,P4*%
X67535000Y-30530000D03*
%TO.P,D46,3,BK*%
%TO.N,P5*%
X68485000Y-30530000D03*
%TO.P,D46,4,A*%
%TO.N,Y9*%
X68485000Y-31830000D03*
%TD*%
%TO.P,D17,1,RK*%
%TO.N,P7*%
X71535000Y-19830000D03*
%TO.P,D17,2,GK*%
%TO.N,P8*%
X71535000Y-18530000D03*
%TO.P,D17,3,BK*%
%TO.N,P9*%
X72485000Y-18530000D03*
%TO.P,D17,4,A*%
%TO.N,Y3*%
X72485000Y-19830000D03*
%TD*%
%TO.P,D29,1,RK*%
%TO.N,PD*%
X79535000Y-23830000D03*
%TO.P,D29,2,GK*%
%TO.N,PE*%
X79535000Y-22530000D03*
%TO.P,D29,3,BK*%
%TO.N,PF*%
X80485000Y-22530000D03*
%TO.P,D29,4,A*%
%TO.N,Y5*%
X80485000Y-23830000D03*
%TD*%
%TO.P,D18,1,RK*%
%TO.N,PA*%
X75535000Y-19830000D03*
%TO.P,D18,2,GK*%
%TO.N,PB*%
X75535000Y-18530000D03*
%TO.P,D18,3,BK*%
%TO.N,PC*%
X76485000Y-18530000D03*
%TO.P,D18,4,A*%
%TO.N,Y3*%
X76485000Y-19830000D03*
%TD*%
%TO.P,D37,1,RK*%
%TO.N,P6*%
X71535000Y-27830000D03*
%TO.P,D37,2,GK*%
%TO.N,P8*%
X71535000Y-26530000D03*
%TO.P,D37,3,BK*%
%TO.N,P9*%
X72485000Y-26530000D03*
%TO.P,D37,4,A*%
%TO.N,Y7*%
X72485000Y-27830000D03*
%TD*%
%TO.P,D56,1,RK*%
%TO.N,P3*%
X67535000Y-35830000D03*
%TO.P,D56,2,GK*%
%TO.N,P4*%
X67535000Y-34530000D03*
%TO.P,D56,3,BK*%
%TO.N,P5*%
X68485000Y-34530000D03*
%TO.P,D56,4,A*%
%TO.N,YB*%
X68485000Y-35830000D03*
%TD*%
%TO.P,D19,1,RK*%
%TO.N,PD*%
X79535000Y-19830000D03*
%TO.P,D19,2,GK*%
%TO.N,PE*%
X79535000Y-18530000D03*
%TO.P,D19,3,BK*%
%TO.N,PF*%
X80485000Y-18530000D03*
%TO.P,D19,4,A*%
%TO.N,Y3*%
X80485000Y-19830000D03*
%TD*%
D12*
%TO.P,R4,1*%
%TO.N,Y4*%
X53340000Y-46077500D03*
%TO.P,R4,2*%
%TO.N,P4*%
X53340000Y-47902500D03*
%TD*%
D13*
%TO.P,D53,1,RK*%
%TO.N,P9*%
X55535000Y-35830000D03*
%TO.P,D53,2,GK*%
%TO.N,PB*%
X55535000Y-34530000D03*
%TO.P,D53,3,BK*%
%TO.N,PC*%
X56485000Y-34530000D03*
%TO.P,D53,4,A*%
%TO.N,YA*%
X56485000Y-35830000D03*
%TD*%
%TO.P,D47,1,RK*%
%TO.N,P6*%
X71535000Y-31830000D03*
%TO.P,D47,2,GK*%
%TO.N,P7*%
X71535000Y-30530000D03*
%TO.P,D47,3,BK*%
%TO.N,P8*%
X72485000Y-30530000D03*
%TO.P,D47,4,A*%
%TO.N,Y9*%
X72485000Y-31830000D03*
%TD*%
%TO.P,D69,1,RK*%
%TO.N,PC*%
X79535000Y-39830000D03*
%TO.P,D69,2,GK*%
%TO.N,PE*%
X79535000Y-38530000D03*
%TO.P,D69,3,BK*%
%TO.N,PF*%
X80485000Y-38530000D03*
%TO.P,D69,4,A*%
%TO.N,YD*%
X80485000Y-39830000D03*
%TD*%
%TO.P,D67,1,RK*%
%TO.N,P6*%
X71535000Y-39830000D03*
%TO.P,D67,2,GK*%
%TO.N,P7*%
X71535000Y-38530000D03*
%TO.P,D67,3,BK*%
%TO.N,P8*%
X72485000Y-38530000D03*
%TO.P,D67,4,A*%
%TO.N,YD*%
X72485000Y-39830000D03*
%TD*%
%TO.P,D43,1,RK*%
%TO.N,PA*%
X55535000Y-31830000D03*
%TO.P,D43,2,GK*%
%TO.N,PB*%
X55535000Y-30530000D03*
%TO.P,D43,3,BK*%
%TO.N,PC*%
X56485000Y-30530000D03*
%TO.P,D43,4,A*%
%TO.N,Y8*%
X56485000Y-31830000D03*
%TD*%
%TO.P,D68,1,RK*%
%TO.N,P9*%
X75535000Y-39830000D03*
%TO.P,D68,2,GK*%
%TO.N,PA*%
X75535000Y-38530000D03*
%TO.P,D68,3,BK*%
%TO.N,PB*%
X76485000Y-38530000D03*
%TO.P,D68,4,A*%
%TO.N,YD*%
X76485000Y-39830000D03*
%TD*%
%TO.P,D58,1,RK*%
%TO.N,P9*%
X75535000Y-35830000D03*
%TO.P,D58,2,GK*%
%TO.N,PA*%
X75535000Y-34530000D03*
%TO.P,D58,3,BK*%
%TO.N,PC*%
X76485000Y-34530000D03*
%TO.P,D58,4,A*%
%TO.N,YB*%
X76485000Y-35830000D03*
%TD*%
%TO.P,D64,1,RK*%
%TO.N,PD*%
X59535000Y-39830000D03*
%TO.P,D64,2,GK*%
%TO.N,PE*%
X59535000Y-38530000D03*
%TO.P,D64,3,BK*%
%TO.N,PF*%
X60485000Y-38530000D03*
%TO.P,D64,4,A*%
%TO.N,YC*%
X60485000Y-39830000D03*
%TD*%
%TO.P,D71,1,RK*%
%TO.N,P3*%
X47535000Y-43830000D03*
%TO.P,D71,2,GK*%
%TO.N,P4*%
X47535000Y-42530000D03*
%TO.P,D71,3,BK*%
%TO.N,P5*%
X48485000Y-42530000D03*
%TO.P,D71,4,A*%
%TO.N,YE*%
X48485000Y-43830000D03*
%TD*%
%TO.P,D0,1,RK*%
%TO.N,P1*%
X43535000Y-15830000D03*
%TO.P,D0,2,GK*%
%TO.N,P2*%
X43535000Y-14530000D03*
%TO.P,D0,3,BK*%
%TO.N,P3*%
X44485000Y-14530000D03*
%TO.P,D0,4,A*%
%TO.N,Y0*%
X44485000Y-15830000D03*
%TD*%
%TO.P,D26,1,RK*%
%TO.N,P3*%
X67535000Y-23830000D03*
%TO.P,D26,2,GK*%
%TO.N,P4*%
X67535000Y-22530000D03*
%TO.P,D26,3,BK*%
%TO.N,P6*%
X68485000Y-22530000D03*
%TO.P,D26,4,A*%
%TO.N,Y5*%
X68485000Y-23830000D03*
%TD*%
%TO.P,D4,1,RK*%
%TO.N,PD*%
X59535000Y-15830000D03*
%TO.P,D4,2,GK*%
%TO.N,PE*%
X59535000Y-14530000D03*
%TO.P,D4,3,BK*%
%TO.N,PF*%
X60485000Y-14530000D03*
%TO.P,D4,4,A*%
%TO.N,Y0*%
X60485000Y-15830000D03*
%TD*%
%TO.P,D40,1,RK*%
%TO.N,P0*%
X43535000Y-31830000D03*
%TO.P,D40,2,GK*%
%TO.N,P1*%
X43535000Y-30530000D03*
%TO.P,D40,3,BK*%
%TO.N,P2*%
X44485000Y-30530000D03*
%TO.P,D40,4,A*%
%TO.N,Y8*%
X44485000Y-31830000D03*
%TD*%
D12*
%TO.P,R12,1*%
%TO.N,YC*%
X73660000Y-46077500D03*
%TO.P,R12,2*%
%TO.N,PC*%
X73660000Y-47902500D03*
%TD*%
D13*
%TO.P,D60,1,RK*%
%TO.N,P0*%
X43535000Y-39830000D03*
%TO.P,D60,2,GK*%
%TO.N,P1*%
X43535000Y-38530000D03*
%TO.P,D60,3,BK*%
%TO.N,P2*%
X44485000Y-38530000D03*
%TO.P,D60,4,A*%
%TO.N,YC*%
X44485000Y-39830000D03*
%TD*%
%TO.P,D31,1,RK*%
%TO.N,P3*%
X47535000Y-27830000D03*
%TO.P,D31,2,GK*%
%TO.N,P4*%
X47535000Y-26530000D03*
%TO.P,D31,3,BK*%
%TO.N,P5*%
X48485000Y-26530000D03*
%TO.P,D31,4,A*%
%TO.N,Y6*%
X48485000Y-27830000D03*
%TD*%
%TO.P,D36,1,RK*%
%TO.N,P3*%
X67535000Y-27830000D03*
%TO.P,D36,2,GK*%
%TO.N,P4*%
X67535000Y-26530000D03*
%TO.P,D36,3,BK*%
%TO.N,P5*%
X68485000Y-26530000D03*
%TO.P,D36,4,A*%
%TO.N,Y7*%
X68485000Y-27830000D03*
%TD*%
%TO.P,D52,1,RK*%
%TO.N,P6*%
X51535000Y-35830000D03*
%TO.P,D52,2,GK*%
%TO.N,P7*%
X51535000Y-34530000D03*
%TO.P,D52,3,BK*%
%TO.N,P8*%
X52485000Y-34530000D03*
%TO.P,D52,4,A*%
%TO.N,YA*%
X52485000Y-35830000D03*
%TD*%
D12*
%TO.P,R0,1*%
%TO.N,Y0*%
X43180000Y-46077500D03*
%TO.P,R0,2*%
%TO.N,P0*%
X43180000Y-47902500D03*
%TD*%
D13*
%TO.P,D39,1,RK*%
%TO.N,PD*%
X79535000Y-27830000D03*
%TO.P,D39,2,GK*%
%TO.N,PE*%
X79535000Y-26530000D03*
%TO.P,D39,3,BK*%
%TO.N,PF*%
X80485000Y-26530000D03*
%TO.P,D39,4,A*%
%TO.N,Y7*%
X80485000Y-27830000D03*
%TD*%
%TO.P,D49,1,RK*%
%TO.N,PD*%
X79535000Y-31830000D03*
%TO.P,D49,2,GK*%
%TO.N,PE*%
X79535000Y-30530000D03*
%TO.P,D49,3,BK*%
%TO.N,PF*%
X80485000Y-30530000D03*
%TO.P,D49,4,A*%
%TO.N,Y9*%
X80485000Y-31830000D03*
%TD*%
%TO.P,D38,1,RK*%
%TO.N,PA*%
X75535000Y-27830000D03*
%TO.P,D38,2,GK*%
%TO.N,PB*%
X75535000Y-26530000D03*
%TO.P,D38,3,BK*%
%TO.N,PC*%
X76485000Y-26530000D03*
%TO.P,D38,4,A*%
%TO.N,Y7*%
X76485000Y-27830000D03*
%TD*%
D12*
%TO.P,R15,1*%
%TO.N,YF*%
X81280000Y-46077500D03*
%TO.P,R15,2*%
%TO.N,PF*%
X81280000Y-47902500D03*
%TD*%
D13*
%TO.P,D62,1,RK*%
%TO.N,P6*%
X51535000Y-39830000D03*
%TO.P,D62,2,GK*%
%TO.N,P7*%
X51535000Y-38530000D03*
%TO.P,D62,3,BK*%
%TO.N,P8*%
X52485000Y-38530000D03*
%TO.P,D62,4,A*%
%TO.N,YC*%
X52485000Y-39830000D03*
%TD*%
D12*
%TO.P,R8,1*%
%TO.N,Y8*%
X63500000Y-46077500D03*
%TO.P,R8,2*%
%TO.N,P8*%
X63500000Y-47902500D03*
%TD*%
D13*
%TO.P,D8,1,RK*%
%TO.N,PA*%
X75535000Y-15830000D03*
%TO.P,D8,2,GK*%
%TO.N,PB*%
X75535000Y-14530000D03*
%TO.P,D8,3,BK*%
%TO.N,PC*%
X76485000Y-14530000D03*
%TO.P,D8,4,A*%
%TO.N,Y1*%
X76485000Y-15830000D03*
%TD*%
%TO.P,D34,1,RK*%
%TO.N,PD*%
X59535000Y-27830000D03*
%TO.P,D34,2,GK*%
%TO.N,PE*%
X59535000Y-26530000D03*
%TO.P,D34,3,BK*%
%TO.N,PF*%
X60485000Y-26530000D03*
%TO.P,D34,4,A*%
%TO.N,Y6*%
X60485000Y-27830000D03*
%TD*%
D12*
%TO.P,R2,1*%
%TO.N,Y2*%
X48260000Y-46077500D03*
%TO.P,R2,2*%
%TO.N,P2*%
X48260000Y-47902500D03*
%TD*%
D13*
%TO.P,D55,1,RK*%
%TO.N,P0*%
X63535000Y-35830000D03*
%TO.P,D55,2,GK*%
%TO.N,P1*%
X63535000Y-34530000D03*
%TO.P,D55,3,BK*%
%TO.N,P2*%
X64485000Y-34530000D03*
%TO.P,D55,4,A*%
%TO.N,YB*%
X64485000Y-35830000D03*
%TD*%
%TO.P,D75,1,RK*%
%TO.N,P0*%
X63535000Y-43830000D03*
%TO.P,D75,2,GK*%
%TO.N,P1*%
X63535000Y-42530000D03*
%TO.P,D75,3,BK*%
%TO.N,P2*%
X64485000Y-42530000D03*
%TO.P,D75,4,A*%
%TO.N,YF*%
X64485000Y-43830000D03*
%TD*%
%TO.P,D74,1,RK*%
%TO.N,PC*%
X59535000Y-43830000D03*
%TO.P,D74,2,GK*%
%TO.N,PD*%
X59535000Y-42530000D03*
%TO.P,D74,3,BK*%
%TO.N,PF*%
X60485000Y-42530000D03*
%TO.P,D74,4,A*%
%TO.N,YE*%
X60485000Y-43830000D03*
%TD*%
%TO.P,D70,1,RK*%
%TO.N,P0*%
X43535000Y-43830000D03*
%TO.P,D70,2,GK*%
%TO.N,P1*%
X43535000Y-42530000D03*
%TO.P,D70,3,BK*%
%TO.N,P2*%
X44485000Y-42530000D03*
%TO.P,D70,4,A*%
%TO.N,YE*%
X44485000Y-43830000D03*
%TD*%
%TO.P,D54,1,RK*%
%TO.N,PD*%
X59535000Y-35830000D03*
%TO.P,D54,2,GK*%
%TO.N,PE*%
X59535000Y-34530000D03*
%TO.P,D54,3,BK*%
%TO.N,PF*%
X60485000Y-34530000D03*
%TO.P,D54,4,A*%
%TO.N,YA*%
X60485000Y-35830000D03*
%TD*%
%TO.P,D25,1,RK*%
%TO.N,P0*%
X63535000Y-23830000D03*
%TO.P,D25,2,GK*%
%TO.N,P1*%
X63535000Y-22530000D03*
%TO.P,D25,3,BK*%
%TO.N,P2*%
X64485000Y-22530000D03*
%TO.P,D25,4,A*%
%TO.N,Y5*%
X64485000Y-23830000D03*
%TD*%
%TO.P,D66,1,RK*%
%TO.N,P3*%
X67535000Y-39830000D03*
%TO.P,D66,2,GK*%
%TO.N,P4*%
X67535000Y-38530000D03*
%TO.P,D66,3,BK*%
%TO.N,P5*%
X68485000Y-38530000D03*
%TO.P,D66,4,A*%
%TO.N,YD*%
X68485000Y-39830000D03*
%TD*%
%TO.P,D12,1,RK*%
%TO.N,P7*%
X51535000Y-19830000D03*
%TO.P,D12,2,GK*%
%TO.N,P8*%
X51535000Y-18530000D03*
%TO.P,D12,3,BK*%
%TO.N,P9*%
X52485000Y-18530000D03*
%TO.P,D12,4,A*%
%TO.N,Y2*%
X52485000Y-19830000D03*
%TD*%
D12*
%TO.P,R10,1*%
%TO.N,YA*%
X68580000Y-46077500D03*
%TO.P,R10,2*%
%TO.N,PA*%
X68580000Y-47902500D03*
%TD*%
D13*
%TO.P,D13,1,RK*%
%TO.N,PA*%
X55535000Y-19830000D03*
%TO.P,D13,2,GK*%
%TO.N,PB*%
X55535000Y-18530000D03*
%TO.P,D13,3,BK*%
%TO.N,PC*%
X56485000Y-18530000D03*
%TO.P,D13,4,A*%
%TO.N,Y2*%
X56485000Y-19830000D03*
%TD*%
%TO.P,D48,1,RK*%
%TO.N,PA*%
X75535000Y-31830000D03*
%TO.P,D48,2,GK*%
%TO.N,PB*%
X75535000Y-30530000D03*
%TO.P,D48,3,BK*%
%TO.N,PC*%
X76485000Y-30530000D03*
%TO.P,D48,4,A*%
%TO.N,Y9*%
X76485000Y-31830000D03*
%TD*%
%TO.P,D63,1,RK*%
%TO.N,P9*%
X55535000Y-39830000D03*
%TO.P,D63,2,GK*%
%TO.N,PA*%
X55535000Y-38530000D03*
%TO.P,D63,3,BK*%
%TO.N,PB*%
X56485000Y-38530000D03*
%TO.P,D63,4,A*%
%TO.N,YC*%
X56485000Y-39830000D03*
%TD*%
D12*
%TO.P,R1,1*%
%TO.N,Y1*%
X45720000Y-46077500D03*
%TO.P,R1,2*%
%TO.N,P1*%
X45720000Y-47902500D03*
%TD*%
D13*
%TO.P,D44,1,RK*%
%TO.N,PD*%
X59535000Y-31830000D03*
%TO.P,D44,2,GK*%
%TO.N,PE*%
X59535000Y-30530000D03*
%TO.P,D44,3,BK*%
%TO.N,PF*%
X60485000Y-30530000D03*
%TO.P,D44,4,A*%
%TO.N,Y8*%
X60485000Y-31830000D03*
%TD*%
%TO.P,D16,1,RK*%
%TO.N,P4*%
X67535000Y-19830000D03*
%TO.P,D16,2,GK*%
%TO.N,P5*%
X67535000Y-18530000D03*
%TO.P,D16,3,BK*%
%TO.N,P6*%
X68485000Y-18530000D03*
%TO.P,D16,4,A*%
%TO.N,Y3*%
X68485000Y-19830000D03*
%TD*%
%TO.P,D6,1,RK*%
%TO.N,P4*%
X67535000Y-15830000D03*
%TO.P,D6,2,GK*%
%TO.N,P5*%
X67535000Y-14530000D03*
%TO.P,D6,3,BK*%
%TO.N,P6*%
X68485000Y-14530000D03*
%TO.P,D6,4,A*%
%TO.N,Y1*%
X68485000Y-15830000D03*
%TD*%
%TO.P,D10,1,RK*%
%TO.N,P0*%
X43535000Y-19830000D03*
%TO.P,D10,2,GK*%
%TO.N,P1*%
X43535000Y-18530000D03*
%TO.P,D10,3,BK*%
%TO.N,P3*%
X44485000Y-18530000D03*
%TO.P,D10,4,A*%
%TO.N,Y2*%
X44485000Y-19830000D03*
%TD*%
%TO.P,D79,1,RK*%
%TO.N,PC*%
X79535000Y-43830000D03*
%TO.P,D79,2,GK*%
%TO.N,PD*%
X79535000Y-42530000D03*
%TO.P,D79,3,BK*%
%TO.N,PE*%
X80485000Y-42530000D03*
%TO.P,D79,4,A*%
%TO.N,YF*%
X80485000Y-43830000D03*
%TD*%
%TO.P,D65,1,RK*%
%TO.N,P0*%
X63535000Y-39830000D03*
%TO.P,D65,2,GK*%
%TO.N,P1*%
X63535000Y-38530000D03*
%TO.P,D65,3,BK*%
%TO.N,P2*%
X64485000Y-38530000D03*
%TO.P,D65,4,A*%
%TO.N,YD*%
X64485000Y-39830000D03*
%TD*%
%TO.P,D57,1,RK*%
%TO.N,P6*%
X71535000Y-35830000D03*
%TO.P,D57,2,GK*%
%TO.N,P7*%
X71535000Y-34530000D03*
%TO.P,D57,3,BK*%
%TO.N,P8*%
X72485000Y-34530000D03*
%TO.P,D57,4,A*%
%TO.N,YB*%
X72485000Y-35830000D03*
%TD*%
%TO.P,D78,1,RK*%
%TO.N,P9*%
X75535000Y-43830000D03*
%TO.P,D78,2,GK*%
%TO.N,PA*%
X75535000Y-42530000D03*
%TO.P,D78,3,BK*%
%TO.N,PB*%
X76485000Y-42530000D03*
%TO.P,D78,4,A*%
%TO.N,YF*%
X76485000Y-43830000D03*
%TD*%
%TO.P,D32,1,RK*%
%TO.N,P7*%
X51535000Y-27830000D03*
%TO.P,D32,2,GK*%
%TO.N,P8*%
X51535000Y-26530000D03*
%TO.P,D32,3,BK*%
%TO.N,P9*%
X52485000Y-26530000D03*
%TO.P,D32,4,A*%
%TO.N,Y6*%
X52485000Y-27830000D03*
%TD*%
%TO.P,D27,1,RK*%
%TO.N,P7*%
X71535000Y-23830000D03*
%TO.P,D27,2,GK*%
%TO.N,P8*%
X71535000Y-22530000D03*
%TO.P,D27,3,BK*%
%TO.N,P9*%
X72485000Y-22530000D03*
%TO.P,D27,4,A*%
%TO.N,Y5*%
X72485000Y-23830000D03*
%TD*%
%TO.P,D15,1,RK*%
%TO.N,P0*%
X63535000Y-19830000D03*
%TO.P,D15,2,GK*%
%TO.N,P1*%
X63535000Y-18530000D03*
%TO.P,D15,3,BK*%
%TO.N,P2*%
X64485000Y-18530000D03*
%TO.P,D15,4,A*%
%TO.N,Y3*%
X64485000Y-19830000D03*
%TD*%
D12*
%TO.P,R5,1*%
%TO.N,Y5*%
X55880000Y-46077500D03*
%TO.P,R5,2*%
%TO.N,P5*%
X55880000Y-47902500D03*
%TD*%
D13*
%TO.P,D30,1,RK*%
%TO.N,P0*%
X43535000Y-27830000D03*
%TO.P,D30,2,GK*%
%TO.N,P1*%
X43535000Y-26530000D03*
%TO.P,D30,3,BK*%
%TO.N,P2*%
X44485000Y-26530000D03*
%TO.P,D30,4,A*%
%TO.N,Y6*%
X44485000Y-27830000D03*
%TD*%
%TO.P,D41,1,RK*%
%TO.N,P3*%
X47535000Y-31830000D03*
%TO.P,D41,2,GK*%
%TO.N,P4*%
X47535000Y-30530000D03*
%TO.P,D41,3,BK*%
%TO.N,P5*%
X48485000Y-30530000D03*
%TO.P,D41,4,A*%
%TO.N,Y8*%
X48485000Y-31830000D03*
%TD*%
%TO.P,D35,1,RK*%
%TO.N,P0*%
X63535000Y-27830000D03*
%TO.P,D35,2,GK*%
%TO.N,P1*%
X63535000Y-26530000D03*
%TO.P,D35,3,BK*%
%TO.N,P2*%
X64485000Y-26530000D03*
%TO.P,D35,4,A*%
%TO.N,Y7*%
X64485000Y-27830000D03*
%TD*%
%TO.P,D3,1,RK*%
%TO.N,PA*%
X55535000Y-15830000D03*
%TO.P,D3,2,GK*%
%TO.N,PB*%
X55535000Y-14530000D03*
%TO.P,D3,3,BK*%
%TO.N,PC*%
X56485000Y-14530000D03*
%TO.P,D3,4,A*%
%TO.N,Y0*%
X56485000Y-15830000D03*
%TD*%
%TO.P,D21,1,RK*%
%TO.N,P3*%
X47535000Y-23830000D03*
%TO.P,D21,2,GK*%
%TO.N,P5*%
X47535000Y-22530000D03*
%TO.P,D21,3,BK*%
%TO.N,P6*%
X48485000Y-22530000D03*
%TO.P,D21,4,A*%
%TO.N,Y4*%
X48485000Y-23830000D03*
%TD*%
%TO.P,D23,1,RK*%
%TO.N,PA*%
X55535000Y-23830000D03*
%TO.P,D23,2,GK*%
%TO.N,PB*%
X55535000Y-22530000D03*
%TO.P,D23,3,BK*%
%TO.N,PC*%
X56485000Y-22530000D03*
%TO.P,D23,4,A*%
%TO.N,Y4*%
X56485000Y-23830000D03*
%TD*%
%TO.P,D77,1,RK*%
%TO.N,P6*%
X71535000Y-43830000D03*
%TO.P,D77,2,GK*%
%TO.N,P7*%
X71535000Y-42530000D03*
%TO.P,D77,3,BK*%
%TO.N,P8*%
X72485000Y-42530000D03*
%TO.P,D77,4,A*%
%TO.N,YF*%
X72485000Y-43830000D03*
%TD*%
D12*
%TO.P,R13,1*%
%TO.N,YD*%
X76200000Y-46077500D03*
%TO.P,R13,2*%
%TO.N,PD*%
X76200000Y-47902500D03*
%TD*%
D13*
%TO.P,D11,1,RK*%
%TO.N,P4*%
X47535000Y-19830000D03*
%TO.P,D11,2,GK*%
%TO.N,P5*%
X47535000Y-18530000D03*
%TO.P,D11,3,BK*%
%TO.N,P6*%
X48485000Y-18530000D03*
%TO.P,D11,4,A*%
%TO.N,Y2*%
X48485000Y-19830000D03*
%TD*%
D12*
%TO.P,R14,1*%
%TO.N,YE*%
X78740000Y-46077500D03*
%TO.P,R14,2*%
%TO.N,PE*%
X78740000Y-47902500D03*
%TD*%
%TO.P,R9,1*%
%TO.N,Y9*%
X66040000Y-46077500D03*
%TO.P,R9,2*%
%TO.N,P9*%
X66040000Y-47902500D03*
%TD*%
D13*
%TO.P,D72,1,RK*%
%TO.N,P6*%
X51535000Y-43830000D03*
%TO.P,D72,2,GK*%
%TO.N,P7*%
X51535000Y-42530000D03*
%TO.P,D72,3,BK*%
%TO.N,P8*%
X52485000Y-42530000D03*
%TO.P,D72,4,A*%
%TO.N,YE*%
X52485000Y-43830000D03*
%TD*%
D14*
%TO.N,GND*%
X87630000Y-45720000D03*
X36322000Y-45720000D03*
%TO.N,P1*%
X44704000Y-25654000D03*
X64770000Y-21590000D03*
%TO.N,P2*%
X45405248Y-18147700D03*
X62261940Y-17144826D03*
%TO.N,P3*%
X65985000Y-16916503D03*
X45981519Y-15023500D03*
X44532019Y-17661415D03*
X45992200Y-16922500D03*
%TO.N,Y0*%
X44500800Y-16662400D03*
X55765301Y-16700101D03*
X58709500Y-16510000D03*
X44195500Y-46075600D03*
X47854755Y-16677829D03*
X51668519Y-16796883D03*
%TO.N,P4*%
X46761400Y-19786600D03*
X47659500Y-25704800D03*
X66908998Y-19266003D03*
%TO.N,P5*%
X70332600Y-27762200D03*
X68575700Y-17521700D03*
X69392800Y-19050000D03*
X48810500Y-17526000D03*
%TO.N,P6*%
X50038000Y-14478000D03*
X66562647Y-14813700D03*
%TO.N,P7*%
X52269846Y-29629370D03*
X71772974Y-29869622D03*
X70713600Y-23850600D03*
%TO.N,P8*%
X70358000Y-14478000D03*
X52819799Y-33769799D03*
X53517800Y-27127200D03*
X82804000Y-13208000D03*
%TO.N,P9*%
X54102000Y-14528800D03*
X73423509Y-14715510D03*
%TO.N,PA*%
X74422000Y-14528300D03*
X83071800Y-16242200D03*
%TO.N,PB*%
X78319001Y-39638599D03*
X75772266Y-29821128D03*
X57200800Y-37871400D03*
X56810500Y-28702000D03*
X74709500Y-22606000D03*
X56388000Y-33629600D03*
%TO.N,PC*%
X77535000Y-21626600D03*
X57535000Y-26801000D03*
%TO.N,PD*%
X82132251Y-37890112D03*
X77258489Y-46490432D03*
%TO.N,PE*%
X58709500Y-18612100D03*
X79659500Y-41605368D03*
X79904657Y-21675968D03*
X79756000Y-47752000D03*
%TO.N,PF*%
X81260500Y-38552077D03*
X82346800Y-47828200D03*
X62255400Y-14528800D03*
X78559299Y-14404701D03*
%TO.N,P0*%
X42879499Y-19308299D03*
X62306200Y-18872200D03*
%TO.N,Y1*%
X71780400Y-16713200D03*
X79855101Y-16685301D03*
X75996800Y-16713200D03*
X64451900Y-16713200D03*
X46863000Y-49022000D03*
X67716400Y-16713200D03*
%TO.N,Y2*%
X59659500Y-20777200D03*
X55829699Y-20700501D03*
X51714899Y-20700501D03*
X49209047Y-43177190D03*
X48057299Y-20700501D03*
X43839901Y-20700501D03*
%TO.N,Y3*%
X71739899Y-20716101D03*
X79832330Y-20679086D03*
X49784000Y-45974000D03*
X75808701Y-20716101D03*
X62563948Y-44878052D03*
X63837153Y-20678887D03*
X68417301Y-20716101D03*
X62202011Y-20923837D03*
%TO.N,Y4*%
X55696067Y-24835067D03*
X51695133Y-24835067D03*
X53307137Y-43025037D03*
X48469333Y-24835067D03*
X43705335Y-24835067D03*
X59720601Y-24744801D03*
%TO.N,Y5*%
X79766301Y-24699101D03*
X71831200Y-24688800D03*
X67741800Y-24688800D03*
X54102000Y-43942000D03*
X75742800Y-24688800D03*
X63779400Y-24688800D03*
%TO.N,Y6*%
X52580902Y-28679502D03*
X60860500Y-28982701D03*
X58724700Y-29664898D03*
X60378252Y-45064569D03*
X43738800Y-28679502D03*
X47850698Y-28679502D03*
X55750098Y-28679502D03*
%TO.N,Y7*%
X79785101Y-28680301D03*
X72163002Y-28827398D03*
X67667202Y-28827398D03*
X66259500Y-28048772D03*
X62230000Y-46341700D03*
X63713003Y-28827398D03*
X75664998Y-28827398D03*
X67310000Y-46736000D03*
%TO.N,Y8*%
X43806097Y-32734305D03*
X61351301Y-43111503D03*
X59766200Y-32689800D03*
X51682705Y-32734305D03*
X55797505Y-32734305D03*
X47796505Y-32734305D03*
%TO.N,Y9*%
X67758101Y-32782301D03*
X63680595Y-32859806D03*
X76588794Y-32859806D03*
X64770000Y-45974000D03*
X71915194Y-32859806D03*
X79790601Y-32749801D03*
%TO.N,YA*%
X60028201Y-36787201D03*
X58114473Y-34560074D03*
X43763301Y-36702101D03*
X57874500Y-42971998D03*
X56007899Y-36702101D03*
X51674901Y-36790501D03*
X47776501Y-36702101D03*
X69850000Y-45974000D03*
%TO.N,YB*%
X75768200Y-36753800D03*
X68046600Y-36753800D03*
X79730600Y-36679502D03*
X71780400Y-36753800D03*
X63703200Y-36753800D03*
X70259500Y-39902111D03*
%TO.N,YC*%
X46259500Y-39878000D03*
X60528200Y-40919400D03*
X72644000Y-46736000D03*
X55884600Y-40797000D03*
X47699801Y-40765601D03*
X46506299Y-44425701D03*
X51693600Y-40797000D03*
X43743400Y-40797000D03*
%TO.N,YD*%
X71706599Y-40764601D03*
X77724000Y-45479300D03*
X75694399Y-40764601D03*
X80162400Y-40741600D03*
X67693399Y-40764601D03*
X63700801Y-40764601D03*
%TO.N,YE*%
X52527200Y-44754800D03*
X57023000Y-44754800D03*
X44385900Y-44754800D03*
X77470000Y-47752000D03*
X48564800Y-44754800D03*
%TO.N,YF*%
X64490600Y-44754800D03*
X80485000Y-44848800D03*
X68580000Y-44754800D03*
X74472800Y-44754800D03*
%TD*%
D15*
%TO.N,P8*%
X64971000Y-52520000D02*
X63251000Y-50800000D01*
X87736000Y-50126903D02*
X87736000Y-51473097D01*
X87736000Y-51473097D02*
X86689097Y-52520000D01*
X83796800Y-46187703D02*
X87736000Y-50126903D01*
X83796800Y-15394008D02*
X83796800Y-46187703D01*
X83096396Y-14693604D02*
X83796800Y-15394008D01*
X86689097Y-52520000D02*
X64971000Y-52520000D01*
%TO.N,PA*%
X86502701Y-52070000D02*
X72141000Y-52070000D01*
X72141000Y-52070000D02*
X70871000Y-50800000D01*
X87286000Y-51286701D02*
X86502701Y-52070000D01*
X87286000Y-50313299D02*
X87286000Y-51286701D01*
X83071800Y-46099099D02*
X87286000Y-50313299D01*
X83071800Y-16242200D02*
X83071800Y-46099099D01*
%TO.N,PB*%
X71120000Y-47902500D02*
X73411000Y-50193500D01*
%TO.N,PC*%
X73660000Y-48509000D02*
X73660000Y-47902500D01*
X75951000Y-50800000D02*
X73660000Y-48509000D01*
%TO.N,PD*%
X78491000Y-50800000D02*
X76200000Y-48509000D01*
X76200000Y-48509000D02*
X76200000Y-47902500D01*
%TO.N,PE*%
X82804000Y-50800000D02*
X79756000Y-47752000D01*
X83571000Y-50800000D02*
X82804000Y-50800000D01*
%TO.N,PF*%
X83139200Y-47828200D02*
X82346800Y-47828200D01*
X86111000Y-50800000D02*
X83139200Y-47828200D01*
%TO.N,PA*%
X68580000Y-47902500D02*
X68580000Y-48509000D01*
X68580000Y-48509000D02*
X70871000Y-50800000D01*
%TO.N,P9*%
X65791000Y-48151500D02*
X65791000Y-50800000D01*
%TO.N,P8*%
X63251000Y-48151500D02*
X63251000Y-50800000D01*
%TO.N,P7*%
X60711000Y-48151500D02*
X60711000Y-50800000D01*
%TO.N,P6*%
X58171000Y-48151500D02*
X58171000Y-50800000D01*
%TO.N,P5*%
X55880000Y-48011000D02*
X53091000Y-50800000D01*
%TO.N,P4*%
X53340000Y-48011000D02*
X50551000Y-50800000D01*
%TO.N,P3*%
X50800000Y-48011000D02*
X48011000Y-50800000D01*
%TO.N,P2*%
X46228000Y-50800000D02*
X45471000Y-50800000D01*
X48260000Y-48768000D02*
X46228000Y-50800000D01*
X48260000Y-47902500D02*
X48260000Y-48768000D01*
%TO.N,P5*%
X51451396Y-52425000D02*
X52890000Y-50986396D01*
X36226000Y-49243604D02*
X36226000Y-52161396D01*
X36489604Y-52425000D02*
X51451396Y-52425000D01*
X42748604Y-13505000D02*
X41460000Y-14793604D01*
X41460000Y-14793604D02*
X41460000Y-44009604D01*
X46510000Y-13505000D02*
X42748604Y-13505000D01*
X41460000Y-44009604D02*
X36226000Y-49243604D01*
X47535000Y-14530000D02*
X46510000Y-13505000D01*
X36226000Y-52161396D02*
X36489604Y-52425000D01*
%TO.N,P4*%
X49376000Y-51975000D02*
X50551000Y-50800000D01*
X36676000Y-51975000D02*
X49376000Y-51975000D01*
%TO.N,P1*%
X42423000Y-48768000D02*
X40391000Y-50800000D01*
X44854500Y-48768000D02*
X42423000Y-48768000D01*
X45720000Y-47902500D02*
X44854500Y-48768000D01*
%TO.N,P0*%
X42912396Y-43830000D02*
X43535000Y-43830000D01*
X38839896Y-47902500D02*
X42912396Y-43830000D01*
X37851000Y-48891396D02*
X37851000Y-50800000D01*
X38839896Y-47902500D02*
X37851000Y-48891396D01*
X43180000Y-47902500D02*
X38839896Y-47902500D01*
%TO.N,P7*%
X50763000Y-15058000D02*
X51535000Y-15830000D01*
X50763000Y-14177695D02*
X50763000Y-15058000D01*
X49640305Y-13055000D02*
X50763000Y-14177695D01*
X42562208Y-13055000D02*
X49640305Y-13055000D01*
X41010000Y-43823208D02*
X41010000Y-14607208D01*
X41010000Y-14607208D02*
X42562208Y-13055000D01*
X35776000Y-49057208D02*
X41010000Y-43823208D01*
X35776000Y-52347792D02*
X35776000Y-49057208D01*
X58885000Y-52875000D02*
X36303208Y-52875000D01*
X36303208Y-52875000D02*
X35776000Y-52347792D01*
X60960000Y-50800000D02*
X58885000Y-52875000D01*
%TO.N,P4*%
X47535000Y-15531000D02*
X47535000Y-15830000D01*
X45959000Y-13955000D02*
X47535000Y-15531000D01*
X36676000Y-49430000D02*
X41910000Y-44196000D01*
X36676000Y-51975000D02*
X36676000Y-49430000D01*
X41910000Y-44196000D02*
X41910000Y-14980000D01*
X41910000Y-14980000D02*
X42935000Y-13955000D01*
X42935000Y-13955000D02*
X45959000Y-13955000D01*
%TO.N,P1*%
X63535000Y-26030000D02*
X65085000Y-24480000D01*
X65085000Y-32480000D02*
X65085000Y-31255000D01*
X43535000Y-29955000D02*
X45085000Y-28405000D01*
X63535000Y-30530000D02*
X63535000Y-30030000D01*
X63535000Y-34755000D02*
X63535000Y-34530000D01*
X43535000Y-26030000D02*
X44180500Y-25384500D01*
X65085000Y-28480000D02*
X65085000Y-27417600D01*
X43535000Y-42530000D02*
X43535000Y-43030000D01*
X65085000Y-40405000D02*
X65085000Y-39255000D01*
X45110400Y-43280400D02*
X45110400Y-45404105D01*
X45085000Y-20480000D02*
X45085000Y-19255000D01*
X45085000Y-31445200D02*
X44744800Y-31105000D01*
X64035000Y-23255000D02*
X63535000Y-22755000D01*
X44035000Y-19255000D02*
X43535000Y-18755000D01*
X43535000Y-34530000D02*
X43535000Y-34030000D01*
X65085000Y-24480000D02*
X65085000Y-23255000D01*
X65085000Y-31255000D02*
X64035000Y-31255000D01*
X63535000Y-42530000D02*
X63535000Y-41955000D01*
X44935000Y-39105000D02*
X43885000Y-39105000D01*
X63535000Y-22755000D02*
X63535000Y-22530000D01*
X44984600Y-43154600D02*
X45110400Y-43280400D01*
X43535000Y-26530000D02*
X43535000Y-26030000D01*
X44920000Y-47102500D02*
X45720000Y-47902500D01*
X44744800Y-31105000D02*
X44033600Y-31105000D01*
X44450000Y-25654000D02*
X44704000Y-25654000D01*
X63885000Y-27105000D02*
X63535000Y-26755000D01*
X43659600Y-43154600D02*
X44984600Y-43154600D01*
X44920000Y-45594505D02*
X44920000Y-47102500D01*
X65085000Y-23255000D02*
X64035000Y-23255000D01*
X44033600Y-31105000D02*
X43535000Y-30606400D01*
X44859600Y-27105000D02*
X44066000Y-27105000D01*
X63535000Y-30030000D02*
X65085000Y-28480000D01*
X43535000Y-43030000D02*
X43659600Y-43154600D01*
X63535000Y-22530000D02*
X63535000Y-22305000D01*
X43535000Y-22530000D02*
X43535000Y-22030000D01*
X45085000Y-24480000D02*
X45085000Y-23418800D01*
X65085000Y-19255000D02*
X64213000Y-19255000D01*
X43535000Y-15830000D02*
X43535000Y-18530000D01*
X45110400Y-45404105D02*
X44920000Y-45594505D01*
X65085000Y-20755000D02*
X65085000Y-19255000D01*
X63535000Y-26530000D02*
X63535000Y-26030000D01*
X45085000Y-39255000D02*
X44935000Y-39105000D01*
X43535000Y-38530000D02*
X43535000Y-37955000D01*
X63535000Y-37955000D02*
X65085000Y-36405000D01*
X64035000Y-31255000D02*
X63535000Y-30755000D01*
X63535000Y-26755000D02*
X63535000Y-26530000D01*
X43535000Y-38755000D02*
X43535000Y-38530000D01*
X64770000Y-21590000D02*
X64770000Y-21070000D01*
X44066000Y-27105000D02*
X43535000Y-26574000D01*
X45085000Y-27330400D02*
X44859600Y-27105000D01*
X64213000Y-19255000D02*
X63535000Y-18577000D01*
X63535000Y-34030000D02*
X65085000Y-32480000D01*
X43535000Y-22755000D02*
X43535000Y-22530000D01*
X43535000Y-18755000D02*
X43535000Y-18530000D01*
X45085000Y-32480000D02*
X45085000Y-31445200D01*
X63535000Y-38530000D02*
X63535000Y-37955000D01*
X43535000Y-30530000D02*
X43535000Y-29955000D01*
X64035000Y-39255000D02*
X63535000Y-38755000D01*
X44180500Y-25384500D02*
X45085000Y-24480000D01*
X45085000Y-40480000D02*
X45085000Y-39255000D01*
X44180500Y-25384500D02*
X44450000Y-25654000D01*
X65085000Y-36405000D02*
X65085000Y-35255000D01*
X45085000Y-28405000D02*
X45085000Y-27330400D01*
X44045200Y-35255000D02*
X43535000Y-34744800D01*
X43535000Y-22030000D02*
X45085000Y-20480000D01*
X43535000Y-34744800D02*
X43535000Y-34530000D01*
X63535000Y-34530000D02*
X63535000Y-34030000D01*
X43535000Y-42030000D02*
X45085000Y-40480000D01*
X45085000Y-36405000D02*
X45085000Y-35255000D01*
X65085000Y-39255000D02*
X64035000Y-39255000D01*
X43885000Y-23105000D02*
X43535000Y-22755000D01*
X64035000Y-35255000D02*
X63535000Y-34755000D01*
X63535000Y-41955000D02*
X65085000Y-40405000D01*
X63535000Y-30755000D02*
X63535000Y-30530000D01*
X43885000Y-39105000D02*
X43535000Y-38755000D01*
X45085000Y-19255000D02*
X44035000Y-19255000D01*
X63535000Y-22305000D02*
X64256000Y-21584000D01*
X63535000Y-38755000D02*
X63535000Y-38530000D01*
X45085000Y-23418800D02*
X44771200Y-23105000D01*
X64256000Y-21584000D02*
X65085000Y-20755000D01*
X65085000Y-35255000D02*
X64035000Y-35255000D01*
X45085000Y-35255000D02*
X44045200Y-35255000D01*
X65085000Y-27417600D02*
X64772400Y-27105000D01*
X43535000Y-34030000D02*
X45085000Y-32480000D01*
X64770000Y-21070000D02*
X65085000Y-20755000D01*
X43535000Y-37955000D02*
X45085000Y-36405000D01*
X64772400Y-27105000D02*
X63885000Y-27105000D01*
X43535000Y-42530000D02*
X43535000Y-42030000D01*
X44771200Y-23105000D02*
X43885000Y-23105000D01*
%TO.N,P2*%
X44485000Y-30530000D02*
X45010000Y-30530000D01*
X65535000Y-19068604D02*
X64996396Y-18530000D01*
X64485000Y-34504800D02*
X65535000Y-33454800D01*
X65535000Y-29410200D02*
X65535000Y-25498600D01*
X47010000Y-47086200D02*
X47826300Y-47902500D01*
X45542200Y-19075804D02*
X45542200Y-23190200D01*
X45560400Y-44504400D02*
X47010000Y-45954000D01*
X45535000Y-39439000D02*
X45535000Y-39068604D01*
X45535000Y-24492800D02*
X45542200Y-24485600D01*
X44485000Y-34530000D02*
X45010000Y-34530000D01*
X64485000Y-42530000D02*
X65535000Y-41480000D01*
X63535000Y-15030000D02*
X63745000Y-15240000D01*
X45010000Y-34530000D02*
X45535000Y-35055000D01*
X43535000Y-14530000D02*
X43535000Y-14755000D01*
X43535000Y-14755000D02*
X44035000Y-15255000D01*
X65535000Y-33454800D02*
X65535000Y-29410200D01*
X45021200Y-26530000D02*
X45535000Y-27043800D01*
X45257019Y-18790623D02*
X45542200Y-19075804D01*
X45257019Y-15427019D02*
X45257019Y-18790623D01*
X65176400Y-17838600D02*
X64485000Y-18530000D01*
X64549200Y-38530000D02*
X65535000Y-37544200D01*
X45535000Y-43055000D02*
X45560400Y-43080400D01*
X64485000Y-30460200D02*
X65535000Y-29410200D01*
X45085000Y-15255000D02*
X45257019Y-15427019D01*
X64485000Y-22530000D02*
X65202000Y-22530000D01*
X44485000Y-42530000D02*
X45010000Y-42530000D01*
X62261940Y-15716060D02*
X62261940Y-17144826D01*
X64503600Y-26530000D02*
X65535000Y-25498600D01*
X45010000Y-42530000D02*
X45560400Y-43080400D01*
X65535000Y-37544200D02*
X65535000Y-33454800D01*
X45535000Y-35055000D02*
X45535000Y-35465600D01*
X47010000Y-45954000D02*
X47010000Y-47086200D01*
X44882000Y-22530000D02*
X45542200Y-23190200D01*
X65535000Y-25498600D02*
X65535000Y-22863000D01*
X45535000Y-35465600D02*
X45535000Y-39439000D01*
X45535000Y-31768200D02*
X45535000Y-28556800D01*
X45535000Y-27043800D02*
X45535000Y-28556800D01*
X65535000Y-41480000D02*
X65535000Y-37544200D01*
X45535000Y-39068604D02*
X44996396Y-38530000D01*
X63745000Y-15240000D02*
X65176400Y-15240000D01*
X45010000Y-30530000D02*
X45535000Y-31055000D01*
X65535000Y-22863000D02*
X65535000Y-19068604D01*
X64996396Y-18530000D02*
X64485000Y-18530000D01*
X45560400Y-43080400D02*
X45560400Y-44504400D01*
X45535000Y-31768200D02*
X45535000Y-35465600D01*
X47826300Y-47902500D02*
X48260000Y-47902500D01*
X44485000Y-22530000D02*
X44882000Y-22530000D01*
X63448000Y-14530000D02*
X62261940Y-15716060D01*
X45535000Y-43055000D02*
X41919000Y-43055000D01*
X65176400Y-15240000D02*
X65176400Y-17838600D01*
X65202000Y-22530000D02*
X65535000Y-22863000D01*
X45535000Y-31055000D02*
X45535000Y-31768200D01*
X44485000Y-26530000D02*
X45021200Y-26530000D01*
X63535000Y-14530000D02*
X63535000Y-15030000D01*
X44035000Y-15255000D02*
X45085000Y-15255000D01*
X45535000Y-28556800D02*
X45535000Y-24492800D01*
X45542200Y-23190200D02*
X45542200Y-24485600D01*
X44996396Y-38530000D02*
X44485000Y-38530000D01*
%TO.N,P3*%
X45992200Y-15034181D02*
X45981519Y-15023500D01*
X66935000Y-24430000D02*
X66935000Y-27230000D01*
X65985000Y-22479000D02*
X67336000Y-23830000D01*
X46485000Y-17021000D02*
X46485000Y-19037695D01*
X47535000Y-43830000D02*
X46935000Y-43230000D01*
X66935000Y-31230000D02*
X67535000Y-31830000D01*
X47535000Y-35830000D02*
X46935000Y-35230000D01*
X46935000Y-43230000D02*
X46935000Y-40430000D01*
X44485000Y-17708434D02*
X44532019Y-17661415D01*
X47460000Y-43905000D02*
X47460000Y-46560495D01*
X47460000Y-46560495D02*
X47965705Y-47066200D01*
X46485000Y-19037695D02*
X45992200Y-19530495D01*
X49963700Y-47066200D02*
X50800000Y-47902500D01*
X66935000Y-43230000D02*
X67535000Y-43830000D01*
X44485000Y-18530000D02*
X44485000Y-17708434D01*
X67535000Y-31830000D02*
X66935000Y-32430000D01*
X45992200Y-16922500D02*
X45992200Y-15034181D01*
X67336000Y-23830000D02*
X67535000Y-23830000D01*
X66935000Y-35230000D02*
X67535000Y-35830000D01*
X66935000Y-39230000D02*
X67535000Y-39830000D01*
X65102796Y-14530000D02*
X65985000Y-15412204D01*
X46935000Y-24430000D02*
X47535000Y-23830000D01*
X45992200Y-22162200D02*
X47535000Y-23705000D01*
X66935000Y-32430000D02*
X66935000Y-35230000D01*
X67535000Y-27830000D02*
X66935000Y-28430000D01*
X66935000Y-40430000D02*
X66935000Y-43230000D01*
X47535000Y-27830000D02*
X46935000Y-27230000D01*
X46935000Y-28430000D02*
X47535000Y-27830000D01*
X47965705Y-47066200D02*
X49963700Y-47066200D01*
X47535000Y-39830000D02*
X46935000Y-39230000D01*
X67535000Y-39830000D02*
X66935000Y-40430000D01*
X66935000Y-28430000D02*
X66935000Y-31230000D01*
X46935000Y-31230000D02*
X46935000Y-28430000D01*
X66935000Y-36430000D02*
X66935000Y-39230000D01*
X44485000Y-14530000D02*
X45488019Y-14530000D01*
X45992200Y-19530495D02*
X45992200Y-22162200D01*
X46935000Y-35230000D02*
X46935000Y-32430000D01*
X46935000Y-36430000D02*
X47535000Y-35830000D01*
X46935000Y-40430000D02*
X47535000Y-39830000D01*
X47535000Y-31830000D02*
X46935000Y-31230000D01*
X66935000Y-27230000D02*
X67535000Y-27830000D01*
X65985000Y-15412204D02*
X65985000Y-22479000D01*
X46935000Y-39230000D02*
X46935000Y-36430000D01*
X67535000Y-35830000D02*
X66935000Y-36430000D01*
X45488019Y-14530000D02*
X45981519Y-15023500D01*
X46386500Y-16922500D02*
X46485000Y-17021000D01*
X67535000Y-23830000D02*
X66935000Y-24430000D01*
X45992200Y-16922500D02*
X46386500Y-16922500D01*
X46935000Y-32430000D02*
X47535000Y-31830000D01*
X64485000Y-14530000D02*
X65102796Y-14530000D01*
X46935000Y-27230000D02*
X46935000Y-24430000D01*
%TO.N,Y0*%
X60485000Y-15830000D02*
X60485000Y-16330000D01*
X56485000Y-15980402D02*
X55765301Y-16700101D01*
X52485000Y-15830000D02*
X52485000Y-15980402D01*
X60182701Y-16632299D02*
X58927410Y-16632299D01*
X56485000Y-15830000D02*
X56485000Y-15980402D01*
X58927410Y-16632299D02*
X58831799Y-16632299D01*
X48485000Y-15830000D02*
X48485000Y-16047584D01*
X52485000Y-15980402D02*
X51668519Y-16796883D01*
X44485000Y-16646600D02*
X44500800Y-16662400D01*
X44195500Y-46075600D02*
X43181900Y-46075600D01*
X58831799Y-16632299D02*
X58709500Y-16510000D01*
X44485000Y-15830000D02*
X44485000Y-16646600D01*
X60485000Y-16330000D02*
X60182701Y-16632299D01*
X48485000Y-16047584D02*
X47854755Y-16677829D01*
%TO.N,P4*%
X67535000Y-38755000D02*
X67535000Y-38530000D01*
X68760200Y-35105000D02*
X67998000Y-35105000D01*
X68097000Y-27255000D02*
X67535000Y-26693000D01*
X46761400Y-19786600D02*
X47491600Y-19786600D01*
X66935000Y-19240001D02*
X66908998Y-19266003D01*
X67535000Y-22755000D02*
X67535000Y-22530000D01*
X47968200Y-31255000D02*
X47535000Y-30821800D01*
X48020400Y-39105000D02*
X47535000Y-38619600D01*
X69085000Y-36755000D02*
X69085000Y-35429800D01*
X67885000Y-31105000D02*
X67535000Y-30755000D01*
X47535000Y-41955000D02*
X49085000Y-40405000D01*
X69085000Y-40480000D02*
X69085000Y-39255000D01*
X49085000Y-27255000D02*
X48216000Y-27255000D01*
X47535000Y-30530000D02*
X47535000Y-30030000D01*
X67535000Y-15830000D02*
X66935000Y-16430000D01*
X46935000Y-19230000D02*
X46935000Y-16430000D01*
X67535000Y-38305000D02*
X69085000Y-36755000D01*
X67535000Y-34530000D02*
X67535000Y-34030000D01*
X69085000Y-35429800D02*
X68760200Y-35105000D01*
X66935000Y-19230000D02*
X66935000Y-19240001D01*
X49085000Y-32480000D02*
X49085000Y-31255000D01*
X69085000Y-31432200D02*
X68757800Y-31105000D01*
X67998000Y-35105000D02*
X67535000Y-34642000D01*
X46935000Y-16430000D02*
X47535000Y-15830000D01*
X67535000Y-42530000D02*
X67535000Y-42030000D01*
X47535000Y-34030000D02*
X49085000Y-32480000D01*
X67535000Y-34030000D02*
X69085000Y-32480000D01*
X69085000Y-28480000D02*
X69085000Y-27255000D01*
X67535000Y-30530000D02*
X67535000Y-30030000D01*
X47535000Y-42530000D02*
X47535000Y-41955000D01*
X49085000Y-35255000D02*
X48215000Y-35255000D01*
X69085000Y-23255000D02*
X68035000Y-23255000D01*
X47535000Y-38530000D02*
X47535000Y-38030000D01*
X49085000Y-31255000D02*
X47968200Y-31255000D01*
X47535000Y-30030000D02*
X49085000Y-28480000D01*
X49085000Y-28480000D02*
X49085000Y-27255000D01*
X69085000Y-32480000D02*
X69085000Y-31432200D01*
X66935000Y-16430000D02*
X66935000Y-19230000D01*
X49085000Y-40405000D02*
X49085000Y-39105000D01*
X67535000Y-42030000D02*
X69085000Y-40480000D01*
X67535000Y-26030000D02*
X69085000Y-24480000D01*
X47535000Y-38030000D02*
X49085000Y-36480000D01*
X47535000Y-25829300D02*
X47659500Y-25704800D01*
X67535000Y-26530000D02*
X67535000Y-26030000D01*
X69085000Y-24480000D02*
X69085000Y-23255000D01*
X69085000Y-39255000D02*
X68035000Y-39255000D01*
X67535000Y-30030000D02*
X69085000Y-28480000D01*
X67535000Y-38530000D02*
X67535000Y-38305000D01*
X68035000Y-39255000D02*
X67535000Y-38755000D01*
X48216000Y-27255000D02*
X47535000Y-26574000D01*
X66935000Y-19230000D02*
X67535000Y-19830000D01*
X49085000Y-39105000D02*
X48020400Y-39105000D01*
X69085000Y-27255000D02*
X68097000Y-27255000D01*
X47535000Y-30821800D02*
X47535000Y-30530000D01*
X48215000Y-35255000D02*
X47535000Y-34575000D01*
X47535000Y-34530000D02*
X47535000Y-34030000D01*
X67535000Y-22530000D02*
X67535000Y-19830000D01*
X67535000Y-26693000D02*
X67535000Y-26530000D01*
X47535000Y-19830000D02*
X46935000Y-19230000D01*
X68757800Y-31105000D02*
X67885000Y-31105000D01*
X67535000Y-30755000D02*
X67535000Y-30530000D01*
X47535000Y-26530000D02*
X47535000Y-25829300D01*
X68035000Y-23255000D02*
X67535000Y-22755000D01*
X49085000Y-36480000D02*
X49085000Y-35255000D01*
%TO.N,P5*%
X68555400Y-30530000D02*
X69227700Y-29857700D01*
X49199800Y-23545800D02*
X49199800Y-25815200D01*
X48485000Y-38530000D02*
X49555400Y-37459600D01*
X70332600Y-28752800D02*
X69227700Y-29857700D01*
X47535000Y-14692800D02*
X47535000Y-14530000D01*
X48485000Y-42530000D02*
X49555400Y-41459600D01*
X69227700Y-29857700D02*
X69535000Y-29550400D01*
X68055500Y-17509500D02*
X69085000Y-16480000D01*
X48260000Y-17526000D02*
X48810500Y-17526000D01*
X69085000Y-15255000D02*
X68163200Y-15255000D01*
X48485000Y-26530000D02*
X49010000Y-26530000D01*
X68163200Y-15255000D02*
X67535000Y-14626800D01*
X67885000Y-19105000D02*
X69337800Y-19105000D01*
X69100400Y-26530000D02*
X70332600Y-27762200D01*
X47947200Y-15105000D02*
X47535000Y-14692800D01*
X67535000Y-18755000D02*
X67885000Y-19105000D01*
X49555400Y-29459600D02*
X48485000Y-30530000D01*
X49555400Y-36855400D02*
X49555400Y-32791400D01*
X49555400Y-28295600D02*
X49555400Y-29459600D01*
X69085000Y-16480000D02*
X69085000Y-15255000D01*
X68522800Y-34530000D02*
X69535000Y-33517800D01*
X49085000Y-20755000D02*
X49085000Y-19255000D01*
X49555400Y-32791400D02*
X49555400Y-28295600D01*
X49085000Y-15445000D02*
X48745000Y-15105000D01*
X68563500Y-17509500D02*
X68575700Y-17521700D01*
X47535000Y-18030000D02*
X48149500Y-17415500D01*
X47535000Y-22755000D02*
X47535000Y-22530000D01*
X48908398Y-23254398D02*
X48034398Y-23254398D01*
X47535000Y-18530000D02*
X47535000Y-18030000D01*
X49555400Y-37459600D02*
X49555400Y-36855400D01*
X67535000Y-18030000D02*
X68055500Y-17509500D01*
X48035000Y-19255000D02*
X47535000Y-18755000D01*
X70332600Y-27762200D02*
X70332600Y-28752800D01*
X49085000Y-19255000D02*
X48035000Y-19255000D01*
X47535000Y-22530000D02*
X47535000Y-22305000D01*
X68485200Y-38530000D02*
X69535000Y-37480200D01*
X68485000Y-26530000D02*
X69100400Y-26530000D01*
X47535000Y-18755000D02*
X47535000Y-18530000D01*
X48485000Y-34530000D02*
X49555400Y-33459600D01*
X49085000Y-16480000D02*
X49085000Y-15445000D01*
X68055500Y-17509500D02*
X68563500Y-17509500D01*
X49010000Y-26530000D02*
X49555400Y-27075400D01*
X68485000Y-42530000D02*
X69535000Y-41480000D01*
X48745000Y-15105000D02*
X47947200Y-15105000D01*
X69535000Y-41480000D02*
X69535000Y-37480200D01*
X47535000Y-22305000D02*
X49085000Y-20755000D01*
X48149500Y-17415500D02*
X49085000Y-16480000D01*
X69337800Y-19105000D02*
X69392800Y-19050000D01*
X69535000Y-33517800D02*
X69535000Y-29550400D01*
X49555400Y-41459600D02*
X49555400Y-36855400D01*
X48149500Y-17415500D02*
X48260000Y-17526000D01*
X67535000Y-18530000D02*
X67535000Y-18030000D01*
X48034398Y-23254398D02*
X47535000Y-22755000D01*
X49555400Y-33459600D02*
X49555400Y-32791400D01*
X49199800Y-25815200D02*
X48485000Y-26530000D01*
X67535000Y-18530000D02*
X67535000Y-18755000D01*
X48908398Y-23254398D02*
X49199800Y-23545800D01*
X69535000Y-37480200D02*
X69535000Y-33517800D01*
X49555400Y-27075400D02*
X49555400Y-28295600D01*
%TO.N,P6*%
X50935000Y-39230000D02*
X50935000Y-36430000D01*
X49535000Y-21480000D02*
X49535000Y-15245000D01*
X50005400Y-30300400D02*
X51535000Y-31830000D01*
X70935000Y-40430000D02*
X71535000Y-39830000D01*
X53045705Y-47066200D02*
X56362600Y-47066200D01*
X67071000Y-13955000D02*
X66562647Y-14463353D01*
X71535000Y-31830000D02*
X70935000Y-32430000D01*
X69799200Y-23319200D02*
X69799200Y-26094200D01*
X57198900Y-47902500D02*
X56362600Y-47066200D01*
X50038000Y-14478000D02*
X49535000Y-14981000D01*
X49535000Y-15245000D02*
X49535000Y-15055000D01*
X51535000Y-45555495D02*
X53045705Y-47066200D01*
X70935000Y-35230000D02*
X71535000Y-35830000D01*
X49649800Y-26533404D02*
X49982396Y-26866000D01*
X50935000Y-40430000D02*
X51535000Y-39830000D01*
X70935000Y-36430000D02*
X71535000Y-35830000D01*
X51535000Y-43830000D02*
X50935000Y-43230000D01*
X68996396Y-14530000D02*
X68485000Y-14530000D01*
X50935000Y-43230000D02*
X50935000Y-40430000D01*
X68592000Y-18530000D02*
X70485000Y-16637000D01*
X71535000Y-31830000D02*
X70935000Y-31230000D01*
X68485000Y-14030000D02*
X68410000Y-13955000D01*
X68485000Y-22530000D02*
X70485000Y-20530000D01*
X49535000Y-14981000D02*
X49535000Y-15245000D01*
X69010000Y-22530000D02*
X69799200Y-23319200D01*
X71535000Y-43830000D02*
X70935000Y-43230000D01*
X48485000Y-22530000D02*
X49535000Y-21480000D01*
X68410000Y-13955000D02*
X67071000Y-13955000D01*
X50935000Y-36430000D02*
X51535000Y-35830000D01*
X68485000Y-22530000D02*
X69010000Y-22530000D01*
X69799200Y-26094200D02*
X71535000Y-27830000D01*
X66562647Y-14463353D02*
X66562647Y-14813700D01*
X58420000Y-47902500D02*
X57198900Y-47902500D01*
X51535000Y-39830000D02*
X50935000Y-39230000D01*
X68485000Y-14530000D02*
X68485000Y-14030000D01*
X49010000Y-14530000D02*
X48485000Y-14530000D01*
X70935000Y-31230000D02*
X70935000Y-28430000D01*
X70485000Y-16637000D02*
X70485000Y-16018604D01*
X49982396Y-26866000D02*
X50005400Y-26866000D01*
X70935000Y-32430000D02*
X70935000Y-35230000D01*
X70935000Y-43230000D02*
X70935000Y-40430000D01*
X48485000Y-18530000D02*
X49010000Y-18530000D01*
X50935000Y-35230000D02*
X50935000Y-32430000D01*
X48820396Y-22530000D02*
X49649800Y-23359404D01*
X48485000Y-22530000D02*
X48820396Y-22530000D01*
X70935000Y-39230000D02*
X70935000Y-36430000D01*
X70935000Y-28430000D02*
X71535000Y-27830000D01*
X71535000Y-39830000D02*
X70935000Y-39230000D01*
X49649800Y-23359404D02*
X49649800Y-26533404D01*
X50935000Y-32430000D02*
X51535000Y-31830000D01*
X49535000Y-15055000D02*
X49010000Y-14530000D01*
X50005400Y-26866000D02*
X50005400Y-30300400D01*
X51535000Y-35830000D02*
X50935000Y-35230000D01*
X51535000Y-43830000D02*
X51535000Y-45555495D01*
X68996396Y-14530000D02*
X70485000Y-16018604D01*
X70485000Y-20530000D02*
X70485000Y-16637000D01*
X49010000Y-18530000D02*
X49535000Y-19055000D01*
%TO.N,P7*%
X70935000Y-20430000D02*
X71535000Y-19830000D01*
X71535000Y-42030000D02*
X73085000Y-40480000D01*
X73085000Y-32755000D02*
X73085000Y-31255000D01*
X51535000Y-37955000D02*
X53085000Y-36405000D01*
X52035000Y-39255000D02*
X51535000Y-38755000D01*
X50099800Y-24065200D02*
X50099800Y-26278000D01*
X53085000Y-31408800D02*
X52781200Y-31105000D01*
X53085000Y-35255000D02*
X52197600Y-35255000D01*
X70734200Y-23830000D02*
X70713600Y-23850600D01*
X71535000Y-38030000D02*
X73085000Y-36480000D01*
X51535000Y-19830000D02*
X50935000Y-20430000D01*
X50935000Y-16430000D02*
X50935000Y-19230000D01*
X51535000Y-38755000D02*
X51535000Y-38530000D01*
X50935000Y-23230000D02*
X50099800Y-24065200D01*
X72161200Y-35255000D02*
X71535000Y-34628800D01*
X50935000Y-20430000D02*
X50935000Y-23230000D01*
X50935000Y-23230000D02*
X51535000Y-23830000D01*
X70935000Y-19230000D02*
X70935000Y-16430000D01*
X71535000Y-42530000D02*
X71535000Y-42030000D01*
X73085000Y-36480000D02*
X73085000Y-35255000D01*
X73085000Y-31255000D02*
X72202800Y-31255000D01*
X53085000Y-40480000D02*
X53085000Y-39255000D01*
X71772974Y-29869622D02*
X71772974Y-30292026D01*
X73085000Y-40480000D02*
X73085000Y-39255000D01*
X71535000Y-34530000D02*
X71535000Y-34305000D01*
X53085000Y-39255000D02*
X52035000Y-39255000D01*
X51535000Y-30530000D02*
X51535000Y-30364216D01*
X71535000Y-38530000D02*
X71535000Y-38030000D01*
X73085000Y-35255000D02*
X72161200Y-35255000D01*
X51535000Y-34030000D02*
X53085000Y-32480000D01*
X71535000Y-23830000D02*
X70734200Y-23830000D01*
X72198800Y-39255000D02*
X71535000Y-38591200D01*
X72202800Y-31255000D02*
X71535000Y-30587200D01*
X51535000Y-30364216D02*
X52269846Y-29629370D01*
X70935000Y-16430000D02*
X71535000Y-15830000D01*
X71535000Y-23830000D02*
X70935000Y-23230000D01*
X51535000Y-15830000D02*
X50935000Y-16430000D01*
X73085000Y-39255000D02*
X72198800Y-39255000D01*
X52781200Y-31105000D02*
X51885000Y-31105000D01*
X53085000Y-36405000D02*
X53085000Y-35255000D01*
X51885000Y-31105000D02*
X51535000Y-30755000D01*
X53085000Y-32480000D02*
X53085000Y-31408800D01*
X51535000Y-42530000D02*
X51535000Y-42030000D01*
X51535000Y-30755000D02*
X51535000Y-30530000D01*
X51535000Y-38530000D02*
X51535000Y-37955000D01*
X51535000Y-34530000D02*
X51535000Y-34030000D01*
X51535000Y-30530000D02*
X51535000Y-27830000D01*
X70935000Y-23230000D02*
X70935000Y-20430000D01*
X71535000Y-19830000D02*
X70935000Y-19230000D01*
X52197600Y-35255000D02*
X51535000Y-34592400D01*
X71772974Y-30292026D02*
X71535000Y-30530000D01*
X50099800Y-26278000D02*
X51535000Y-27713200D01*
X50935000Y-19230000D02*
X51535000Y-19830000D01*
X71535000Y-34305000D02*
X73085000Y-32755000D01*
X51535000Y-42030000D02*
X53085000Y-40480000D01*
%TO.N,P8*%
X51535000Y-22530000D02*
X51535000Y-21955000D01*
X51535000Y-26530000D02*
X51535000Y-27030000D01*
X72505600Y-34530000D02*
X73535000Y-33500600D01*
X51535000Y-18030000D02*
X53085000Y-16480000D01*
X53085000Y-15255000D02*
X52085000Y-15255000D01*
X71848600Y-15105000D02*
X71535000Y-14791400D01*
X82804000Y-14401208D02*
X83096396Y-14693604D01*
X52485000Y-38530000D02*
X53380400Y-37634600D01*
X71535000Y-14791400D02*
X71535000Y-14530000D01*
X72035000Y-19255000D02*
X71535000Y-18755000D01*
X73085000Y-29930000D02*
X72485000Y-30530000D01*
X71535000Y-26530000D02*
X71535000Y-27030000D01*
X73535000Y-41480000D02*
X73535000Y-37463000D01*
X73085000Y-24480000D02*
X73085000Y-23255000D01*
X53085000Y-19255000D02*
X52217000Y-19255000D01*
X70410000Y-14530000D02*
X70358000Y-14478000D01*
X73085000Y-15401600D02*
X72788400Y-15105000D01*
X51535000Y-14305000D02*
X53235000Y-12605000D01*
X73535000Y-33500600D02*
X73535000Y-30133400D01*
X73085000Y-19255000D02*
X72035000Y-19255000D01*
X72974200Y-27254200D02*
X73085000Y-27365000D01*
X52996396Y-34530000D02*
X52485000Y-34530000D01*
X51535000Y-27030000D02*
X51632200Y-27127200D01*
X81007792Y-12605000D02*
X83096396Y-14693604D01*
X73085000Y-16480000D02*
X73085000Y-15401600D01*
X71535000Y-18030000D02*
X73085000Y-16480000D01*
X72788400Y-15105000D02*
X71848600Y-15105000D01*
X73535000Y-37463000D02*
X73535000Y-33500600D01*
X51535000Y-26030000D02*
X53085000Y-24480000D01*
X51535000Y-26530000D02*
X51535000Y-26030000D01*
X73085000Y-29683400D02*
X73085000Y-29930000D01*
X53085000Y-20405000D02*
X53085000Y-19255000D01*
X51632200Y-27127200D02*
X53517800Y-27127200D01*
X73535000Y-30133400D02*
X73085000Y-29683400D01*
X52085000Y-15255000D02*
X51535000Y-14705000D01*
X71535000Y-14530000D02*
X70410000Y-14530000D01*
X71535000Y-22530000D02*
X71535000Y-21955000D01*
X71535000Y-26530000D02*
X71535000Y-26030000D01*
X53535000Y-37634600D02*
X53535000Y-35068604D01*
X53380400Y-37634600D02*
X53535000Y-37634600D01*
X71759200Y-27254200D02*
X72974200Y-27254200D01*
X73085000Y-23255000D02*
X72035000Y-23255000D01*
X52217000Y-19255000D02*
X51535000Y-18573000D01*
X52485000Y-34104598D02*
X52819799Y-33769799D01*
X52211000Y-23255000D02*
X51535000Y-22579000D01*
X71535000Y-18530000D02*
X71535000Y-18030000D01*
X71535000Y-27030000D02*
X71759200Y-27254200D01*
X71535000Y-22755000D02*
X71535000Y-22530000D01*
X51535000Y-21955000D02*
X53085000Y-20405000D01*
X73085000Y-27365000D02*
X73085000Y-29683400D01*
X53085000Y-24480000D02*
X53085000Y-23255000D01*
X71535000Y-21955000D02*
X73085000Y-20405000D01*
X53085000Y-23255000D02*
X52211000Y-23255000D01*
X51535000Y-14705000D02*
X51535000Y-14530000D01*
X72485000Y-42530000D02*
X73535000Y-41480000D01*
X72035000Y-23255000D02*
X71535000Y-22755000D01*
X51535000Y-14530000D02*
X51535000Y-14305000D01*
X71535000Y-26030000D02*
X73085000Y-24480000D01*
X53085000Y-16480000D02*
X53085000Y-15255000D01*
X53535000Y-41480000D02*
X53535000Y-37634600D01*
X72485000Y-38513000D02*
X73535000Y-37463000D01*
X71535000Y-18755000D02*
X71535000Y-18530000D01*
X52485000Y-34530000D02*
X52485000Y-34104598D01*
X51535000Y-18530000D02*
X51535000Y-18030000D01*
X52485000Y-42530000D02*
X53535000Y-41480000D01*
X82804000Y-13208000D02*
X82804000Y-14401208D01*
X73085000Y-20405000D02*
X73085000Y-19255000D01*
X53235000Y-12605000D02*
X81007792Y-12605000D01*
X53535000Y-35068604D02*
X52996396Y-34530000D01*
%TO.N,P9*%
X52485000Y-30530000D02*
X53010000Y-30530000D01*
X52996396Y-14530000D02*
X52485000Y-14530000D01*
X53535000Y-15068604D02*
X53523198Y-15056802D01*
X55535000Y-43830000D02*
X55535000Y-44330000D01*
X55535000Y-35830000D02*
X54935000Y-36430000D01*
X65203700Y-47066200D02*
X66040000Y-47902500D01*
X73237999Y-14530000D02*
X73423509Y-14715510D01*
X53535000Y-21454800D02*
X53535000Y-17619400D01*
X52489400Y-26530000D02*
X53535000Y-25484400D01*
X72485000Y-14530000D02*
X73237999Y-14530000D01*
X72609200Y-18530000D02*
X73535000Y-17604200D01*
X54935000Y-40430000D02*
X54935000Y-43230000D01*
X72485000Y-26530000D02*
X73535000Y-25480000D01*
X54935000Y-39230000D02*
X55535000Y-39830000D01*
X52624400Y-18530000D02*
X53535000Y-17619400D01*
X54935000Y-43230000D02*
X55535000Y-43830000D01*
X52485000Y-22504800D02*
X53535000Y-21454800D01*
X73535000Y-21435600D02*
X73535000Y-17604200D01*
X53771000Y-31291000D02*
X53771000Y-34391796D01*
X53535000Y-17619400D02*
X53535000Y-15068604D01*
X55535000Y-39830000D02*
X54935000Y-40430000D01*
X73985000Y-27505000D02*
X73985000Y-34280000D01*
X53535000Y-25484400D02*
X53535000Y-21454800D01*
X74935000Y-39230000D02*
X75535000Y-39830000D01*
X72485000Y-22485600D02*
X73535000Y-21435600D01*
X53010000Y-30530000D02*
X53771000Y-31291000D01*
X73010000Y-26530000D02*
X73985000Y-27505000D01*
X73535000Y-14827001D02*
X73423509Y-14715510D01*
X53523198Y-15056802D02*
X54051200Y-14528800D01*
X57620000Y-46415000D02*
X57620000Y-46560495D01*
X74935000Y-43230000D02*
X74935000Y-40430000D01*
X54051200Y-14528800D02*
X54102000Y-14528800D01*
X72485000Y-26530000D02*
X73010000Y-26530000D01*
X54935000Y-36430000D02*
X54935000Y-39230000D01*
X73985000Y-34280000D02*
X75535000Y-35830000D01*
X75535000Y-35830000D02*
X74935000Y-36430000D01*
X52485000Y-30530000D02*
X54485000Y-28530000D01*
X74935000Y-40430000D02*
X75535000Y-39830000D01*
X58125705Y-47066200D02*
X65203700Y-47066200D01*
X53523198Y-15056802D02*
X52996396Y-14530000D01*
X73535000Y-17604200D02*
X73535000Y-14827001D01*
X73535000Y-25480000D02*
X73535000Y-21435600D01*
X55535000Y-44330000D02*
X57620000Y-46415000D01*
X53771000Y-34391796D02*
X55209204Y-35830000D01*
X75535000Y-43830000D02*
X74935000Y-43230000D01*
X55209204Y-35830000D02*
X55535000Y-35830000D01*
X54485000Y-26434400D02*
X53535000Y-25484400D01*
X74935000Y-36430000D02*
X74935000Y-39230000D01*
X54485000Y-28530000D02*
X54485000Y-26434400D01*
X57620000Y-46560495D02*
X58125705Y-47066200D01*
%TO.N,PA*%
X54935000Y-27230000D02*
X55535000Y-27830000D01*
X55535000Y-38305000D02*
X57085000Y-36755000D01*
X55535000Y-15830000D02*
X54935000Y-15230000D01*
X75535000Y-19830000D02*
X73985000Y-21380000D01*
X55535000Y-38530000D02*
X55535000Y-38305000D01*
X55535000Y-31830000D02*
X54935000Y-32430000D01*
X75510000Y-23830000D02*
X74011000Y-25329000D01*
X54935000Y-20430000D02*
X54935000Y-23230000D01*
X75535000Y-31830000D02*
X74935000Y-31230000D01*
X75535000Y-42530000D02*
X75535000Y-41955000D01*
X57085000Y-36755000D02*
X57085000Y-35255000D01*
X56021400Y-39105000D02*
X55535000Y-38618600D01*
X54935000Y-31230000D02*
X55535000Y-31830000D01*
X54935000Y-34919400D02*
X55270600Y-35255000D01*
X55535000Y-23830000D02*
X54935000Y-24430000D01*
X57085000Y-40755000D02*
X57085000Y-39432000D01*
X80821396Y-13055000D02*
X83071800Y-15305404D01*
X75535000Y-41955000D02*
X77085000Y-40405000D01*
X55535000Y-15830000D02*
X54935000Y-16430000D01*
X54935000Y-13955000D02*
X55835000Y-13055000D01*
X75535000Y-15641300D02*
X74422000Y-14528300D01*
X75535000Y-15830000D02*
X75535000Y-15641300D01*
X73985000Y-25329000D02*
X73985000Y-26280000D01*
X76225200Y-35255000D02*
X75535000Y-34564800D01*
X55835000Y-13055000D02*
X80821396Y-13055000D01*
X56758000Y-39105000D02*
X56021400Y-39105000D01*
X75535000Y-15830000D02*
X74935000Y-16430000D01*
X74011000Y-25329000D02*
X73985000Y-25329000D01*
X55535000Y-42530000D02*
X55535000Y-42305000D01*
X54935000Y-19230000D02*
X55535000Y-19830000D01*
X77085000Y-35255000D02*
X76225200Y-35255000D01*
X55535000Y-42305000D02*
X57085000Y-40755000D01*
X54935000Y-24430000D02*
X54935000Y-27230000D01*
X77085000Y-40405000D02*
X77085000Y-39255000D01*
X55535000Y-19830000D02*
X54935000Y-20430000D01*
X74935000Y-31230000D02*
X74935000Y-28430000D01*
X54935000Y-16430000D02*
X54935000Y-19230000D01*
X74935000Y-19230000D02*
X75535000Y-19830000D01*
X75535000Y-34530000D02*
X75535000Y-31830000D01*
X54935000Y-15230000D02*
X54935000Y-13955000D01*
X76201800Y-39255000D02*
X75535000Y-38588200D01*
X54935000Y-23230000D02*
X55535000Y-23830000D01*
X54935000Y-32430000D02*
X54935000Y-34919400D01*
X57085000Y-39432000D02*
X56758000Y-39105000D01*
X73985000Y-21380000D02*
X73985000Y-25329000D01*
X74935000Y-28430000D02*
X75535000Y-27830000D01*
X77085000Y-36480000D02*
X77085000Y-35255000D01*
X55535000Y-27830000D02*
X54935000Y-28430000D01*
X74935000Y-16430000D02*
X74935000Y-19230000D01*
X75535000Y-38030000D02*
X77085000Y-36480000D01*
X75535000Y-38530000D02*
X75535000Y-38030000D01*
X57085000Y-35255000D02*
X55270600Y-35255000D01*
X73985000Y-26280000D02*
X75535000Y-27830000D01*
X54935000Y-28430000D02*
X54935000Y-31230000D01*
X83071800Y-15305404D02*
X83071800Y-16242200D01*
X77085000Y-39255000D02*
X76201800Y-39255000D01*
%TO.N,PB*%
X57085000Y-24480000D02*
X57085000Y-23252200D01*
X55535000Y-26530000D02*
X55535000Y-26030000D01*
X56388000Y-33629600D02*
X57085000Y-32932600D01*
X56035000Y-19255000D02*
X55535000Y-18755000D01*
X55535000Y-17955000D02*
X57085000Y-16405000D01*
X77535000Y-40117800D02*
X77535000Y-39068604D01*
X56035000Y-15255000D02*
X55535000Y-14755000D01*
X55885000Y-27105000D02*
X55535000Y-26755000D01*
X57085000Y-19255000D02*
X56035000Y-19255000D01*
X56810500Y-28702000D02*
X57085000Y-28427500D01*
X57085000Y-31444000D02*
X56746000Y-31105000D01*
X78014201Y-39638599D02*
X78319001Y-39638599D01*
X76214000Y-23255000D02*
X75535000Y-22576000D01*
X57085000Y-28427500D02*
X57085000Y-28405000D01*
X75535000Y-18755000D02*
X75535000Y-18530000D01*
X55535000Y-22030000D02*
X57085000Y-20480000D01*
X57085000Y-15255000D02*
X56035000Y-15255000D01*
X75535000Y-18530000D02*
X75535000Y-18305000D01*
X75535000Y-30030000D02*
X77085000Y-28480000D01*
X77085000Y-23255000D02*
X76214000Y-23255000D01*
X77085000Y-20480000D02*
X77085000Y-19255000D01*
X75535000Y-14755000D02*
X75535000Y-14530000D01*
X77085000Y-19255000D02*
X76035000Y-19255000D01*
X55535000Y-22530000D02*
X55535000Y-22030000D01*
X75535000Y-25955000D02*
X77085000Y-24405000D01*
X76996396Y-38530000D02*
X76485000Y-38530000D01*
X77085000Y-28480000D02*
X77085000Y-27255000D01*
X76175400Y-27255000D02*
X75535000Y-26614600D01*
X75535000Y-22530000D02*
X74785500Y-22530000D01*
X55535000Y-26030000D02*
X57085000Y-24480000D01*
X75535000Y-18305000D02*
X77085000Y-16755000D01*
X56032200Y-23252200D02*
X55535000Y-22755000D01*
X76485000Y-42530000D02*
X77535000Y-41480000D01*
X57085000Y-23252200D02*
X56032200Y-23252200D01*
X56794400Y-27105000D02*
X55885000Y-27105000D01*
X55535000Y-26755000D02*
X55535000Y-26530000D01*
X74785500Y-22530000D02*
X74709500Y-22606000D01*
X56485000Y-42530000D02*
X57535000Y-41480000D01*
X57535000Y-41480000D02*
X57535000Y-39245604D01*
X55535000Y-34482600D02*
X56388000Y-33629600D01*
X76035000Y-19255000D02*
X75535000Y-18755000D01*
X76035000Y-15255000D02*
X75535000Y-14755000D01*
X56948196Y-38658800D02*
X56845200Y-38658800D01*
X75535000Y-26530000D02*
X75535000Y-25955000D01*
X77535000Y-41480000D02*
X77535000Y-40117800D01*
X77535000Y-39068604D02*
X76996396Y-38530000D01*
X77085000Y-16755000D02*
X77085000Y-15255000D01*
X57085000Y-16405000D02*
X57085000Y-15255000D01*
X57085000Y-28405000D02*
X57085000Y-27395600D01*
X55535000Y-29955000D02*
X57085000Y-28405000D01*
X75535000Y-22030000D02*
X77085000Y-20480000D01*
X57085000Y-32932600D02*
X57085000Y-31444000D01*
X57535000Y-39245604D02*
X56948196Y-38658800D01*
X77535000Y-40117800D02*
X78014201Y-39638599D01*
X55535000Y-30755000D02*
X55535000Y-30530000D01*
X56746000Y-31105000D02*
X55885000Y-31105000D01*
X57085000Y-27395600D02*
X56794400Y-27105000D01*
X55535000Y-18755000D02*
X55535000Y-18530000D01*
X57085000Y-20480000D02*
X57085000Y-19255000D01*
X56542200Y-38530000D02*
X57200800Y-37871400D01*
X77085000Y-27255000D02*
X76175400Y-27255000D01*
X55885000Y-31105000D02*
X55535000Y-30755000D01*
X77085000Y-24405000D02*
X77085000Y-23255000D01*
X77085000Y-15255000D02*
X76035000Y-15255000D01*
X55535000Y-18530000D02*
X55535000Y-17955000D01*
X55535000Y-22755000D02*
X55535000Y-22530000D01*
X55535000Y-14755000D02*
X55535000Y-14530000D01*
X75535000Y-30530000D02*
X75535000Y-30030000D01*
X75535000Y-22530000D02*
X75535000Y-22030000D01*
X55535000Y-30530000D02*
X55535000Y-29955000D01*
%TO.N,PC*%
X75400000Y-45620495D02*
X75400000Y-45496800D01*
X76531000Y-30530000D02*
X77535000Y-29526000D01*
X76996396Y-14530000D02*
X76485000Y-14530000D01*
X76485000Y-26530000D02*
X76644800Y-26530000D01*
X57535000Y-16591396D02*
X56485000Y-17641396D01*
X57535000Y-19068604D02*
X56996396Y-18530000D01*
X76485000Y-34530000D02*
X77535000Y-33480000D01*
X79535000Y-39830000D02*
X78935000Y-40430000D01*
X57535000Y-29442600D02*
X57535000Y-26801000D01*
X76485000Y-34530000D02*
X77010000Y-34530000D01*
X73660000Y-47360495D02*
X75400000Y-45620495D01*
X75692000Y-45204800D02*
X76426101Y-45204800D01*
X78935000Y-40430000D02*
X78935000Y-43230000D01*
X57535000Y-34054800D02*
X57059800Y-34530000D01*
X59535000Y-44097000D02*
X59327200Y-44304800D01*
X59327200Y-44304800D02*
X57766800Y-44304800D01*
X57766800Y-44304800D02*
X57150000Y-43688000D01*
X56485000Y-30492600D02*
X57535000Y-29442600D01*
X77535000Y-29526000D02*
X77535000Y-25639800D01*
X58013600Y-41637796D02*
X58013600Y-35483800D01*
X77535000Y-21626600D02*
X77535000Y-17562600D01*
X73660000Y-47902500D02*
X73660000Y-47360495D01*
X59535000Y-43830000D02*
X59535000Y-44097000D01*
X57535000Y-21517800D02*
X57535000Y-19173000D01*
X75400000Y-45496800D02*
X75692000Y-45204800D01*
X76644800Y-26530000D02*
X77535000Y-25639800D01*
X77010000Y-34530000D02*
X77535000Y-35055000D01*
X77535000Y-35055000D02*
X77535000Y-37830000D01*
X57535000Y-26801000D02*
X57535000Y-25497600D01*
X56485000Y-34530000D02*
X57059800Y-34530000D01*
X56996396Y-18530000D02*
X56485000Y-18530000D01*
X77535000Y-15068604D02*
X76996396Y-14530000D01*
X57535000Y-25497600D02*
X57535000Y-21517800D01*
X76567600Y-18530000D02*
X77535000Y-17562600D01*
X56996396Y-14530000D02*
X57535000Y-15068604D01*
X57150000Y-43688000D02*
X57150000Y-42501396D01*
X56485000Y-14530000D02*
X56996396Y-14530000D01*
X77535000Y-37830000D02*
X79535000Y-39830000D01*
X58013600Y-35483800D02*
X57059800Y-34530000D01*
X77535000Y-25639800D02*
X77535000Y-21626600D01*
X57535000Y-19173000D02*
X57535000Y-19068604D01*
X77535000Y-17562600D02*
X77535000Y-15068604D01*
X57535000Y-29442600D02*
X57535000Y-34054800D01*
X77535000Y-33480000D02*
X77535000Y-29526000D01*
X56502600Y-26530000D02*
X57535000Y-25497600D01*
X57150000Y-42501396D02*
X58013600Y-41637796D01*
X56485000Y-17641396D02*
X56485000Y-18530000D01*
X57535000Y-15068604D02*
X57535000Y-16591396D01*
X76426101Y-45204800D02*
X77800901Y-43830000D01*
X77800901Y-43830000D02*
X79535000Y-43830000D01*
X56522800Y-22530000D02*
X57535000Y-21517800D01*
X78935000Y-43230000D02*
X79535000Y-43830000D01*
X76631600Y-22530000D02*
X77535000Y-21626600D01*
%TO.N,PD*%
X58935000Y-35230000D02*
X59535000Y-35830000D01*
X78935000Y-23230000D02*
X78935000Y-20430000D01*
X58935000Y-24430000D02*
X58935000Y-27230000D01*
X79659600Y-43154600D02*
X81035400Y-43154600D01*
X58935000Y-39230000D02*
X58935000Y-36430000D01*
X57985000Y-29380000D02*
X57985000Y-30280000D01*
X57985000Y-30280000D02*
X59535000Y-31830000D01*
X58935000Y-15230000D02*
X58935000Y-13955000D01*
X79535000Y-31830000D02*
X78935000Y-31230000D01*
X58935000Y-23230000D02*
X59535000Y-23830000D01*
X59535000Y-39830000D02*
X58935000Y-39230000D01*
X79535000Y-35830000D02*
X78935000Y-35230000D01*
X81985000Y-14855000D02*
X80635000Y-13505000D01*
X79535000Y-23830000D02*
X78935000Y-23230000D01*
X78935000Y-27230000D02*
X78935000Y-24430000D01*
X81985000Y-42205000D02*
X81985000Y-14855000D01*
X79535000Y-15830000D02*
X78935000Y-16430000D01*
X58935000Y-20430000D02*
X58935000Y-23230000D01*
X78935000Y-19230000D02*
X79535000Y-19830000D01*
X59535000Y-19830000D02*
X58935000Y-20430000D01*
X78935000Y-24430000D02*
X79535000Y-23830000D01*
X79535000Y-27830000D02*
X78935000Y-27230000D01*
X78935000Y-35230000D02*
X78935000Y-32430000D01*
X59535000Y-31830000D02*
X58935000Y-32430000D01*
X79535000Y-42530000D02*
X79535000Y-43030000D01*
X59086200Y-13803800D02*
X58935000Y-13955000D01*
X58935000Y-27230000D02*
X59535000Y-27830000D01*
X59535000Y-15830000D02*
X58935000Y-15230000D01*
X76635000Y-13505000D02*
X76497000Y-13505000D01*
X81035400Y-43154600D02*
X81985000Y-42205000D01*
X78935000Y-16430000D02*
X78935000Y-19230000D01*
X58935000Y-32430000D02*
X58935000Y-35230000D01*
X76200000Y-47548921D02*
X77258489Y-46490432D01*
X59535000Y-23830000D02*
X58935000Y-24430000D01*
X76497000Y-13505000D02*
X59385000Y-13505000D01*
X59385000Y-13505000D02*
X58670000Y-14220000D01*
X79535000Y-43030000D02*
X79659600Y-43154600D01*
X78935000Y-20430000D02*
X79535000Y-19830000D01*
X78935000Y-28430000D02*
X79535000Y-27830000D01*
X58935000Y-20430000D02*
X57985000Y-19480000D01*
X78935000Y-15805000D02*
X76635000Y-13505000D01*
X78935000Y-16430000D02*
X78935000Y-15805000D01*
X58935000Y-36430000D02*
X59535000Y-35830000D01*
X58670000Y-14220000D02*
X59086200Y-13803800D01*
X59535000Y-27830000D02*
X57985000Y-29380000D01*
X59535000Y-39830000D02*
X59535000Y-42530000D01*
X78935000Y-31230000D02*
X78935000Y-28430000D01*
X78935000Y-32430000D02*
X79535000Y-31830000D01*
X57985000Y-19480000D02*
X57985000Y-14905000D01*
X80635000Y-13505000D02*
X76497000Y-13505000D01*
X57985000Y-14905000D02*
X58670000Y-14220000D01*
%TO.N,PE*%
X80035000Y-31255000D02*
X79535000Y-30755000D01*
X60211000Y-31255000D02*
X59535000Y-30579000D01*
X59535000Y-26530000D02*
X59535000Y-25955000D01*
X59535000Y-38530000D02*
X59535000Y-38305000D01*
X80177400Y-15255000D02*
X79535000Y-14612600D01*
X81085000Y-36405000D02*
X81085000Y-35255000D01*
X79535000Y-38530000D02*
X79535000Y-37955000D01*
X60035000Y-15255000D02*
X59535000Y-14755000D01*
X79535000Y-18530000D02*
X79535000Y-18030000D01*
X80035000Y-23255000D02*
X79535000Y-22755000D01*
X59535000Y-21955000D02*
X61085000Y-20405000D01*
X81085000Y-27255000D02*
X80035000Y-27255000D01*
X80213000Y-35255000D02*
X79535000Y-34577000D01*
X59535000Y-30530000D02*
X59535000Y-30305000D01*
X81085000Y-32480000D02*
X81085000Y-31255000D01*
X60067000Y-19105000D02*
X59535000Y-18573000D01*
X79756000Y-47752000D02*
X78890500Y-47752000D01*
X58709500Y-18612100D02*
X59452900Y-18612100D01*
X81085000Y-24405000D02*
X81085000Y-23255000D01*
X79535000Y-26530000D02*
X79535000Y-25955000D01*
X81085000Y-41930000D02*
X81085000Y-39255000D01*
X60960000Y-29955000D02*
X61585000Y-29330000D01*
X81085000Y-28405000D02*
X81085000Y-27255000D01*
X61585000Y-27432000D02*
X61408000Y-27255000D01*
X79535000Y-18030000D02*
X81085000Y-16480000D01*
X79535000Y-29955000D02*
X81085000Y-28405000D01*
X79535000Y-22755000D02*
X79535000Y-22530000D01*
X80485000Y-42430868D02*
X79659500Y-41605368D01*
X59885000Y-29955000D02*
X60960000Y-29955000D01*
X60761000Y-19105000D02*
X60067000Y-19105000D01*
X59535000Y-38305000D02*
X61085000Y-36755000D01*
X61085000Y-15255000D02*
X60035000Y-15255000D01*
X79535000Y-34030000D02*
X81085000Y-32480000D01*
X59535000Y-30305000D02*
X59885000Y-29955000D01*
X61085000Y-31255000D02*
X60211000Y-31255000D01*
X79535000Y-22530000D02*
X79535000Y-22030000D01*
X61408000Y-27255000D02*
X60035000Y-27255000D01*
X81085000Y-16480000D02*
X81085000Y-15255000D01*
X59535000Y-22679800D02*
X59535000Y-22530000D01*
X61085000Y-16755000D02*
X61085000Y-15255000D01*
X61085000Y-20405000D02*
X61085000Y-19429000D01*
X59535000Y-34755000D02*
X59535000Y-34530000D01*
X79535000Y-34530000D02*
X79535000Y-34030000D01*
X81085000Y-35255000D02*
X80213000Y-35255000D01*
X59535000Y-18305000D02*
X61085000Y-16755000D01*
X60759200Y-35105000D02*
X59885000Y-35105000D01*
X59885000Y-35105000D02*
X59535000Y-34755000D01*
X60110200Y-23255000D02*
X59535000Y-22679800D01*
X80485000Y-42530000D02*
X81085000Y-41930000D01*
X61585000Y-29330000D02*
X61585000Y-27432000D01*
X59535000Y-14755000D02*
X59535000Y-14530000D01*
X79535000Y-25955000D02*
X81085000Y-24405000D01*
X59535000Y-26755000D02*
X59535000Y-26530000D01*
X81085000Y-31255000D02*
X80035000Y-31255000D01*
X79535000Y-37955000D02*
X81085000Y-36405000D01*
X61085000Y-23255000D02*
X60110200Y-23255000D01*
X61085000Y-32405000D02*
X61085000Y-31255000D01*
X80035000Y-27255000D02*
X79535000Y-26755000D01*
X79535000Y-22030000D02*
X81085000Y-20480000D01*
X61085000Y-24405000D02*
X61085000Y-23255000D01*
X61085000Y-19429000D02*
X60761000Y-19105000D01*
X59535000Y-25955000D02*
X61085000Y-24405000D01*
X80035000Y-19255000D02*
X79535000Y-18755000D01*
X79535000Y-30755000D02*
X79535000Y-30530000D01*
X81085000Y-23255000D02*
X80035000Y-23255000D01*
X59535000Y-18530000D02*
X59535000Y-18305000D01*
X61085000Y-35430800D02*
X60759200Y-35105000D01*
X59535000Y-34530000D02*
X59535000Y-33955000D01*
X81085000Y-19255000D02*
X80035000Y-19255000D01*
X59535000Y-22530000D02*
X59535000Y-21955000D01*
X81085000Y-39255000D02*
X80022000Y-39255000D01*
X60035000Y-27255000D02*
X59535000Y-26755000D01*
X81085000Y-15255000D02*
X80177400Y-15255000D01*
X59535000Y-33955000D02*
X61085000Y-32405000D01*
X79535000Y-30530000D02*
X79535000Y-29955000D01*
X61085000Y-36755000D02*
X61085000Y-35430800D01*
X79535000Y-26755000D02*
X79535000Y-26530000D01*
X79535000Y-38768000D02*
X79535000Y-38530000D01*
X79535000Y-18755000D02*
X79535000Y-18530000D01*
X81085000Y-20480000D02*
X81085000Y-19255000D01*
X80022000Y-39255000D02*
X79535000Y-38768000D01*
%TO.N,PF*%
X62035000Y-31555000D02*
X62035000Y-26103000D01*
X80485000Y-38530000D02*
X81535000Y-37480000D01*
X80485000Y-14030000D02*
X80410000Y-13955000D01*
X60485000Y-30530000D02*
X61010000Y-30530000D01*
X60584000Y-34530000D02*
X62035000Y-33079000D01*
X61010000Y-30530000D02*
X62035000Y-31555000D01*
X61535000Y-25587000D02*
X61535000Y-25603000D01*
X81535000Y-15068604D02*
X80996396Y-14530000D01*
X60530000Y-38530000D02*
X61341000Y-37719000D01*
X80545200Y-22530000D02*
X81535000Y-21540200D01*
X60592000Y-26530000D02*
X61535000Y-25587000D01*
X80571600Y-30530000D02*
X81535000Y-29566600D01*
X62255400Y-14528800D02*
X61535000Y-15249200D01*
X81535000Y-21540200D02*
X81535000Y-17550400D01*
X60996396Y-14530000D02*
X60485000Y-14530000D01*
X60485000Y-22530000D02*
X61010000Y-22530000D01*
X60485000Y-22530000D02*
X60485000Y-21691000D01*
X81238423Y-38530000D02*
X81260500Y-38552077D01*
X82346800Y-47828200D02*
X81354300Y-47828200D01*
X62035000Y-33079000D02*
X62035000Y-31555000D01*
X61535000Y-15068604D02*
X60996396Y-14530000D01*
X61535000Y-15713400D02*
X61535000Y-15068604D01*
X61341000Y-37719000D02*
X62035000Y-37025000D01*
X60485000Y-21691000D02*
X61535000Y-20641000D01*
X81535000Y-17550400D02*
X81535000Y-15068604D01*
X81535000Y-25500600D02*
X81535000Y-21540200D01*
X61535000Y-17535200D02*
X61535000Y-15713400D01*
X81535000Y-37480000D02*
X81535000Y-33552400D01*
X80485000Y-38530000D02*
X81238423Y-38530000D01*
X61253200Y-41761800D02*
X61253200Y-37806800D01*
X80505600Y-26530000D02*
X81535000Y-25500600D01*
X61535000Y-15249200D02*
X61535000Y-15713400D01*
X80485000Y-14530000D02*
X80485000Y-14030000D01*
X61535000Y-20641000D02*
X61535000Y-17535200D01*
X81535000Y-33552400D02*
X81535000Y-29566600D01*
X61535000Y-25603000D02*
X62035000Y-26103000D01*
X79009000Y-13955000D02*
X78559299Y-14404701D01*
X61535000Y-23055000D02*
X61535000Y-25587000D01*
X80555400Y-18530000D02*
X81535000Y-17550400D01*
X60540200Y-18530000D02*
X61535000Y-17535200D01*
X81535000Y-29566600D02*
X81535000Y-25500600D01*
X60485000Y-42530000D02*
X61253200Y-41761800D01*
X80410000Y-13955000D02*
X79009000Y-13955000D01*
X80996396Y-14530000D02*
X80485000Y-14530000D01*
X61253200Y-37806800D02*
X61341000Y-37719000D01*
X61010000Y-22530000D02*
X61535000Y-23055000D01*
X80557400Y-34530000D02*
X81535000Y-33552400D01*
X62035000Y-37025000D02*
X62035000Y-33079000D01*
%TO.N,P0*%
X42935000Y-40430000D02*
X42935000Y-43230000D01*
X63535000Y-39830000D02*
X62935000Y-39230000D01*
X42935000Y-35230000D02*
X43535000Y-35830000D01*
X62935000Y-32430000D02*
X63535000Y-31830000D01*
X62935000Y-20430000D02*
X63535000Y-19830000D01*
X43535000Y-39830000D02*
X42935000Y-40430000D01*
X63535000Y-17491000D02*
X62935000Y-18091000D01*
X42935000Y-39230000D02*
X43535000Y-39830000D01*
X63535000Y-23830000D02*
X62935000Y-23230000D01*
X42935000Y-43230000D02*
X43535000Y-43830000D01*
X43535000Y-27830000D02*
X42935000Y-28430000D01*
X43535000Y-35830000D02*
X42935000Y-36430000D01*
X42935000Y-32430000D02*
X42935000Y-35230000D01*
X63535000Y-35830000D02*
X62935000Y-35230000D01*
X62935000Y-19230000D02*
X62935000Y-18091000D01*
X62935000Y-23230000D02*
X62935000Y-20430000D01*
X62577200Y-18872200D02*
X63089400Y-19384400D01*
X42935000Y-27230000D02*
X42935000Y-24430000D01*
X63535000Y-19830000D02*
X63089400Y-19384400D01*
X62935000Y-31230000D02*
X62935000Y-28430000D01*
X62935000Y-36430000D02*
X63535000Y-35830000D01*
X62935000Y-28430000D02*
X63535000Y-27830000D01*
X62935000Y-24430000D02*
X63535000Y-23830000D01*
X63535000Y-31830000D02*
X62935000Y-31230000D01*
X43535000Y-31830000D02*
X42935000Y-32430000D01*
X43535000Y-23830000D02*
X42935000Y-23230000D01*
X63535000Y-43830000D02*
X62935000Y-43230000D01*
X62935000Y-39230000D02*
X62935000Y-36430000D01*
X42935000Y-31230000D02*
X43535000Y-31830000D01*
X42935000Y-24430000D02*
X43535000Y-23830000D01*
X62935000Y-27230000D02*
X62935000Y-24430000D01*
X43401200Y-19830000D02*
X42879499Y-19308299D01*
X62935000Y-43230000D02*
X62935000Y-40430000D01*
X63535000Y-15830000D02*
X63535000Y-17491000D01*
X42935000Y-23230000D02*
X42935000Y-20430000D01*
X63535000Y-27830000D02*
X62935000Y-27230000D01*
X43535000Y-27830000D02*
X42935000Y-27230000D01*
X63089400Y-19384400D02*
X62935000Y-19230000D01*
X62306200Y-18872200D02*
X62577200Y-18872200D01*
X62935000Y-35230000D02*
X62935000Y-32430000D01*
X62935000Y-40430000D02*
X63535000Y-39830000D01*
X42935000Y-36430000D02*
X42935000Y-39230000D01*
X42935000Y-28430000D02*
X42935000Y-31230000D01*
X42935000Y-20430000D02*
X43535000Y-19830000D01*
%TO.N,Y1*%
X79855101Y-16685301D02*
X79855101Y-16537899D01*
X76485000Y-15830000D02*
X76485000Y-16225000D01*
X72485000Y-16008600D02*
X71780400Y-16713200D01*
X64485000Y-15830000D02*
X64485000Y-16680100D01*
X79855101Y-16537899D02*
X80289400Y-16103600D01*
X45720000Y-46432596D02*
X46863000Y-47575596D01*
X68485000Y-15944600D02*
X67716400Y-16713200D01*
X64485000Y-16680100D02*
X64451900Y-16713200D01*
X76485000Y-16225000D02*
X75996800Y-16713200D01*
X72485000Y-15830000D02*
X72485000Y-16008600D01*
X46863000Y-47575596D02*
X46863000Y-49022000D01*
%TO.N,Y2*%
X56485000Y-19830000D02*
X56485000Y-20045200D01*
X49289800Y-43257943D02*
X49289800Y-45325200D01*
X59762800Y-20777200D02*
X60485000Y-20055000D01*
X44485000Y-19830000D02*
X44485000Y-20055402D01*
X49289800Y-45325200D02*
X48537500Y-46077500D01*
X44485000Y-20055402D02*
X43839901Y-20700501D01*
X56485000Y-20045200D02*
X55829699Y-20700501D01*
X48485000Y-19830000D02*
X48485000Y-20272800D01*
X52485000Y-19930400D02*
X51714899Y-20700501D01*
X49209047Y-43177190D02*
X49289800Y-43257943D01*
X60485000Y-20055000D02*
X60485000Y-19830000D01*
X48485000Y-20272800D02*
X48057299Y-20700501D01*
%TO.N,Y3*%
X64485000Y-20055000D02*
X64485000Y-19830000D01*
X62202011Y-20923837D02*
X61985000Y-21140848D01*
X76485000Y-19830000D02*
X76485000Y-20039802D01*
X68485000Y-20648402D02*
X68417301Y-20716101D01*
X62563948Y-44878052D02*
X62485000Y-44799104D01*
X49784000Y-45974000D02*
X50696500Y-45974000D01*
X63861113Y-20678887D02*
X64485000Y-20055000D01*
X72485000Y-19971000D02*
X71739899Y-20716101D01*
X62485000Y-44799104D02*
X62485000Y-25909000D01*
X79832330Y-20679086D02*
X79930314Y-20679086D01*
X79930314Y-20679086D02*
X80492600Y-20116800D01*
X68485000Y-19830000D02*
X68485000Y-20648402D01*
X61985000Y-21140848D02*
X61985000Y-25409000D01*
X76485000Y-20039802D02*
X75808701Y-20716101D01*
X61985000Y-25409000D02*
X62485000Y-25909000D01*
X72485000Y-19830000D02*
X72485000Y-19971000D01*
%TO.N,Y4*%
X44485000Y-23830000D02*
X44485000Y-24055402D01*
X59720601Y-24708999D02*
X60350400Y-24079200D01*
X59720601Y-24744801D02*
X59720601Y-24708999D01*
X53252200Y-43079974D02*
X53252200Y-45989700D01*
X56485000Y-23830000D02*
X56485000Y-24046134D01*
X48485000Y-24819400D02*
X48469333Y-24835067D01*
X52485000Y-24045200D02*
X51695133Y-24835067D01*
X44485000Y-24055402D02*
X43705335Y-24835067D01*
X48485000Y-23830000D02*
X48485000Y-24819400D01*
X53307137Y-43025037D02*
X53252200Y-43079974D01*
X52485000Y-23830000D02*
X52485000Y-24045200D01*
X56485000Y-24046134D02*
X55696067Y-24835067D01*
%TO.N,Y5*%
X68485000Y-23945600D02*
X67741800Y-24688800D01*
X76485000Y-23946600D02*
X75742800Y-24688800D01*
X72485000Y-23830000D02*
X72485000Y-24035000D01*
X64485000Y-23830000D02*
X64485000Y-23983200D01*
X79872699Y-24699101D02*
X80492600Y-24079200D01*
X79766301Y-24699101D02*
X79872699Y-24699101D01*
X54102000Y-43942000D02*
X55880000Y-45720000D01*
X64485000Y-23983200D02*
X63779400Y-24688800D01*
X72485000Y-24035000D02*
X71831200Y-24688800D01*
%TO.N,Y6*%
X56485000Y-27944600D02*
X55750098Y-28679502D01*
X60485000Y-28607201D02*
X60860500Y-28982701D01*
X52485000Y-27830000D02*
X52485000Y-28583600D01*
X60485000Y-27830000D02*
X60485000Y-28607201D01*
X48485000Y-27830000D02*
X48485000Y-28045200D01*
X60485000Y-27904598D02*
X58724700Y-29664898D01*
X59365321Y-46077500D02*
X60378252Y-45064569D01*
X58420000Y-46077500D02*
X59365321Y-46077500D01*
X44485000Y-27933302D02*
X43738800Y-28679502D01*
X52485000Y-28583600D02*
X52580902Y-28679502D01*
X48485000Y-28045200D02*
X47850698Y-28679502D01*
%TO.N,Y7*%
X76485000Y-27830000D02*
X76485000Y-28007396D01*
X61965800Y-46077500D02*
X62230000Y-46341700D01*
X67310000Y-46736000D02*
X67310000Y-44780000D01*
X72485000Y-27830000D02*
X72485000Y-28505400D01*
X67310000Y-44780000D02*
X66259500Y-43729500D01*
X64485000Y-28055401D02*
X63713003Y-28827398D01*
X76485000Y-28007396D02*
X75664998Y-28827398D01*
X64485000Y-27830000D02*
X64485000Y-28055401D01*
X66259500Y-43729500D02*
X66259500Y-28048772D01*
X60960000Y-46077500D02*
X61965800Y-46077500D01*
X68485000Y-27830000D02*
X68485000Y-28009600D01*
X68485000Y-28009600D02*
X67667202Y-28827398D01*
X72485000Y-28505400D02*
X72163002Y-28827398D01*
X79785101Y-28622099D02*
X80289400Y-28117800D01*
X79785101Y-28680301D02*
X79785101Y-28622099D01*
%TO.N,Y8*%
X44485000Y-32055402D02*
X43806097Y-32734305D01*
X56485000Y-32046810D02*
X55797505Y-32734305D01*
X63500000Y-46077500D02*
X63025552Y-45603052D01*
X48485000Y-31830000D02*
X48485000Y-32045810D01*
X59766200Y-32689800D02*
X59766200Y-32664400D01*
X52485000Y-31932010D02*
X51682705Y-32734305D01*
X44485000Y-31830000D02*
X44485000Y-32055402D01*
X59766200Y-32664400D02*
X60350400Y-32080200D01*
X63025552Y-45603052D02*
X62113052Y-45603052D01*
X61351301Y-44841301D02*
X61351301Y-43111503D01*
X62113052Y-45603052D02*
X61351301Y-44841301D01*
X48485000Y-32045810D02*
X47796505Y-32734305D01*
X56485000Y-31830000D02*
X56485000Y-32046810D01*
%TO.N,Y9*%
X79790601Y-32749801D02*
X79790601Y-32604399D01*
X72485000Y-32290000D02*
X71915194Y-32859806D01*
X76485000Y-32756012D02*
X76588794Y-32859806D01*
X64485000Y-32055401D02*
X63680595Y-32859806D01*
X68485000Y-32055402D02*
X67758101Y-32782301D01*
X68485000Y-31830000D02*
X68485000Y-32055402D01*
X64873500Y-46077500D02*
X64770000Y-45974000D01*
X79790601Y-32604399D02*
X80264000Y-32131000D01*
X66040000Y-46077500D02*
X64873500Y-46077500D01*
X72485000Y-31830000D02*
X72485000Y-32290000D01*
X64485000Y-31830000D02*
X64485000Y-32055401D01*
X76485000Y-31830000D02*
X76485000Y-32756012D01*
%TO.N,YA*%
X58114473Y-34560074D02*
X58463600Y-34909201D01*
X44485000Y-35980402D02*
X43763301Y-36702101D01*
X56485000Y-36225000D02*
X56007899Y-36702101D01*
X48485000Y-35830000D02*
X48485000Y-35993602D01*
X52485000Y-35830000D02*
X52485000Y-35980402D01*
X69746500Y-46077500D02*
X69850000Y-45974000D01*
X60028201Y-36787201D02*
X60028201Y-36415599D01*
X60028201Y-36415599D02*
X60350400Y-36093400D01*
X68580000Y-46077500D02*
X69746500Y-46077500D01*
X58463600Y-34909201D02*
X58463600Y-42382898D01*
X44485000Y-35830000D02*
X44485000Y-35980402D01*
X48485000Y-35993602D02*
X47776501Y-36702101D01*
X58463600Y-42382898D02*
X57874500Y-42971998D01*
X56485000Y-35830000D02*
X56485000Y-36225000D01*
X52485000Y-35980402D02*
X51674901Y-36790501D01*
%TO.N,YB*%
X76485000Y-35830000D02*
X76485000Y-36037000D01*
X79730600Y-36679502D02*
X79730600Y-36652200D01*
X72485000Y-35830000D02*
X72485000Y-36049200D01*
X70259500Y-45217000D02*
X71120000Y-46077500D01*
X64485000Y-35830000D02*
X64485000Y-35972000D01*
X64485000Y-35972000D02*
X63703200Y-36753800D01*
X68485000Y-36315400D02*
X68046600Y-36753800D01*
X72485000Y-36049200D02*
X71780400Y-36753800D01*
X79730600Y-36652200D02*
X80289400Y-36093400D01*
X76485000Y-36037000D02*
X75768200Y-36753800D01*
X68485000Y-35830000D02*
X68485000Y-36315400D01*
X70259500Y-39902111D02*
X70259500Y-45217000D01*
%TO.N,YC*%
X48485000Y-39980402D02*
X47699801Y-40765601D01*
X44485000Y-40055400D02*
X43743400Y-40797000D01*
X60528200Y-40919400D02*
X60528200Y-39873200D01*
X48485000Y-39830000D02*
X48485000Y-39980402D01*
X52485000Y-39830000D02*
X52485000Y-40005600D01*
X56485000Y-40196600D02*
X55884600Y-40797000D01*
X44485000Y-39830000D02*
X44485000Y-40055400D01*
X46259500Y-39878000D02*
X46259500Y-44178902D01*
X56485000Y-39830000D02*
X56485000Y-40196600D01*
X46259500Y-44178902D02*
X46506299Y-44425701D01*
X72644000Y-46736000D02*
X73001500Y-46736000D01*
X52485000Y-40005600D02*
X51693600Y-40797000D01*
X73001500Y-46736000D02*
X73660000Y-46077500D01*
%TO.N,YD*%
X64485000Y-39830000D02*
X64485000Y-39980402D01*
X80162400Y-40741600D02*
X80162400Y-40152600D01*
X68485000Y-39973000D02*
X67693399Y-40764601D01*
X72485000Y-39830000D02*
X72485000Y-39986200D01*
X64485000Y-39980402D02*
X63700801Y-40764601D01*
X76485000Y-39830000D02*
X76485000Y-39974000D01*
X76798200Y-45479300D02*
X77724000Y-45479300D01*
X68485000Y-39830000D02*
X68485000Y-39973000D01*
X76485000Y-39974000D02*
X75694399Y-40764601D01*
X72485000Y-39986200D02*
X71706599Y-40764601D01*
X80162400Y-40152600D02*
X80485000Y-39830000D01*
X76200000Y-46077500D02*
X76798200Y-45479300D01*
%TO.N,YE*%
X56485000Y-44216800D02*
X57023000Y-44754800D01*
X52485000Y-44712600D02*
X52527200Y-44754800D01*
X60485000Y-43932516D02*
X59662716Y-44754800D01*
X44485000Y-44655700D02*
X44385900Y-44754800D01*
X77470000Y-47752000D02*
X77470000Y-47347500D01*
X48485000Y-44675000D02*
X48564800Y-44754800D01*
X59662716Y-44754800D02*
X57023000Y-44754800D01*
X48485000Y-43830000D02*
X48485000Y-44675000D01*
X44485000Y-43830000D02*
X44485000Y-44655700D01*
X56485000Y-43830000D02*
X56485000Y-44216800D01*
X52485000Y-43830000D02*
X52485000Y-44712600D01*
X77470000Y-47347500D02*
X78740000Y-46077500D01*
%TO.N,YF*%
X68485000Y-43830000D02*
X68485000Y-44659800D01*
X80485000Y-44848800D02*
X80485000Y-45282500D01*
X64485000Y-43830000D02*
X64485000Y-44749200D01*
X73548000Y-43830000D02*
X74472800Y-44754800D01*
X76485000Y-44509505D02*
X76239705Y-44754800D01*
X80485000Y-43830000D02*
X80485000Y-44848800D01*
X76485000Y-43830000D02*
X76485000Y-44509505D01*
X76239705Y-44754800D02*
X74472800Y-44754800D01*
X68485000Y-44659800D02*
X68580000Y-44754800D01*
X80485000Y-45282500D02*
X81280000Y-46077500D01*
X72485000Y-43830000D02*
X73548000Y-43830000D01*
X64485000Y-44749200D02*
X64490600Y-44754800D01*
%TD*%
%TA.AperFunction,Conductor*%
%TO.N,GND*%
G36*
X67175698Y-47636250D02*
G01*
X67208049Y-47643127D01*
X67208058Y-47643128D01*
X67214513Y-47644500D01*
X67405487Y-47644500D01*
X67411942Y-47643128D01*
X67411951Y-47643127D01*
X67444302Y-47636250D01*
X67515093Y-47641651D01*
X67571726Y-47684467D01*
X67596220Y-47751104D01*
X67596500Y-47759496D01*
X67596500Y-48202072D01*
X67607293Y-48306093D01*
X67609474Y-48312629D01*
X67609474Y-48312631D01*
X67626764Y-48364456D01*
X67662346Y-48471107D01*
X67753884Y-48619031D01*
X67759066Y-48624204D01*
X67871816Y-48736758D01*
X67871821Y-48736762D01*
X67876997Y-48741929D01*
X67883227Y-48745769D01*
X67883228Y-48745770D01*
X68015367Y-48827222D01*
X68057704Y-48870342D01*
X68068395Y-48888419D01*
X68075458Y-48900362D01*
X68089779Y-48914683D01*
X68102619Y-48929716D01*
X68114528Y-48946107D01*
X68120634Y-48951158D01*
X68148605Y-48974298D01*
X68157384Y-48982288D01*
X68548975Y-49373879D01*
X68583001Y-49436191D01*
X68581694Y-49465795D01*
X68585000Y-49465795D01*
X68585000Y-50928000D01*
X68564998Y-50996121D01*
X68511342Y-51042614D01*
X68459000Y-51054000D01*
X68203000Y-51054000D01*
X68134879Y-51033998D01*
X68088386Y-50980342D01*
X68077000Y-50928000D01*
X68077000Y-49483102D01*
X68073082Y-49469758D01*
X68058806Y-49467771D01*
X68020324Y-49473660D01*
X68010288Y-49476051D01*
X67807868Y-49542212D01*
X67798359Y-49546209D01*
X67609463Y-49644542D01*
X67600738Y-49650036D01*
X67430433Y-49777905D01*
X67422726Y-49784748D01*
X67275590Y-49938717D01*
X67269109Y-49946722D01*
X67164498Y-50100074D01*
X67109587Y-50145076D01*
X67039062Y-50153247D01*
X66975315Y-50121993D01*
X66954618Y-50097509D01*
X66873822Y-49972617D01*
X66873820Y-49972614D01*
X66871014Y-49968277D01*
X66720670Y-49803051D01*
X66716619Y-49799852D01*
X66716615Y-49799848D01*
X66549414Y-49667800D01*
X66549410Y-49667798D01*
X66545359Y-49664598D01*
X66540835Y-49662101D01*
X66540831Y-49662098D01*
X66489608Y-49633822D01*
X66439636Y-49583390D01*
X66424500Y-49523513D01*
X66424500Y-48980697D01*
X66444502Y-48912576D01*
X66498158Y-48866083D01*
X66510618Y-48861175D01*
X66596107Y-48832654D01*
X66744031Y-48741116D01*
X66749809Y-48735328D01*
X66861758Y-48623184D01*
X66861762Y-48623179D01*
X66866929Y-48618003D01*
X66915027Y-48539974D01*
X66954369Y-48476150D01*
X66954370Y-48476148D01*
X66958209Y-48469920D01*
X67012974Y-48304809D01*
X67023500Y-48202072D01*
X67023500Y-47759496D01*
X67043502Y-47691375D01*
X67097158Y-47644882D01*
X67167432Y-47634778D01*
X67175698Y-47636250D01*
G37*
%TD.AperFunction*%
%TA.AperFunction,Conductor*%
G36*
X56933086Y-48479288D02*
G01*
X56963840Y-48496195D01*
X56971515Y-48498166D01*
X56971516Y-48498166D01*
X56983462Y-48501233D01*
X57002167Y-48507637D01*
X57020755Y-48515681D01*
X57028578Y-48516920D01*
X57028588Y-48516923D01*
X57064424Y-48522599D01*
X57076044Y-48525005D01*
X57111189Y-48534028D01*
X57118870Y-48536000D01*
X57139124Y-48536000D01*
X57158834Y-48537551D01*
X57178843Y-48540720D01*
X57186735Y-48539974D01*
X57222861Y-48536559D01*
X57234719Y-48536000D01*
X57411500Y-48536000D01*
X57479621Y-48556002D01*
X57526114Y-48609658D01*
X57537500Y-48662000D01*
X57537500Y-49521692D01*
X57517498Y-49589813D01*
X57469683Y-49633453D01*
X57444607Y-49646507D01*
X57440474Y-49649610D01*
X57440471Y-49649612D01*
X57274289Y-49774385D01*
X57265965Y-49780635D01*
X57262393Y-49784373D01*
X57154729Y-49897037D01*
X57111629Y-49942138D01*
X57004204Y-50099618D01*
X57003898Y-50100066D01*
X56948987Y-50145069D01*
X56878462Y-50153240D01*
X56814715Y-50121986D01*
X56794018Y-50097502D01*
X56713426Y-49972926D01*
X56707136Y-49964757D01*
X56563806Y-49807240D01*
X56556273Y-49800215D01*
X56389139Y-49668222D01*
X56380552Y-49662517D01*
X56194117Y-49559599D01*
X56184705Y-49555369D01*
X55983959Y-49484280D01*
X55973988Y-49481646D01*
X55902837Y-49468972D01*
X55889540Y-49470432D01*
X55885000Y-49484989D01*
X55885000Y-50928000D01*
X55864998Y-50996121D01*
X55811342Y-51042614D01*
X55759000Y-51054000D01*
X55503000Y-51054000D01*
X55434879Y-51033998D01*
X55388386Y-50980342D01*
X55377000Y-50928000D01*
X55377000Y-49464987D01*
X55381447Y-49464987D01*
X55381440Y-49427275D01*
X55413248Y-49373656D01*
X55851499Y-48935405D01*
X55913811Y-48901379D01*
X55940594Y-48898500D01*
X56167072Y-48898500D01*
X56170318Y-48898163D01*
X56170322Y-48898163D01*
X56264235Y-48888419D01*
X56264239Y-48888418D01*
X56271093Y-48887707D01*
X56277629Y-48885526D01*
X56277631Y-48885526D01*
X56424720Y-48836453D01*
X56436107Y-48832654D01*
X56584031Y-48741116D01*
X56589809Y-48735328D01*
X56701758Y-48623184D01*
X56701762Y-48623179D01*
X56706929Y-48618003D01*
X56710770Y-48611772D01*
X56710772Y-48611770D01*
X56765129Y-48523587D01*
X56817901Y-48476094D01*
X56887973Y-48464672D01*
X56933086Y-48479288D01*
G37*
%TD.AperFunction*%
%TA.AperFunction,Conductor*%
G36*
X86580874Y-12930332D02*
G01*
X86590524Y-12931996D01*
X86590526Y-12931996D01*
X86599371Y-12933521D01*
X86613288Y-12931931D01*
X86614654Y-12931775D01*
X86639987Y-12931445D01*
X86847868Y-12949715D01*
X86865618Y-12952562D01*
X86948988Y-12972123D01*
X87093493Y-13006028D01*
X87110657Y-13011372D01*
X87328602Y-13096724D01*
X87344831Y-13104457D01*
X87548415Y-13219959D01*
X87563372Y-13229919D01*
X87748443Y-13373216D01*
X87761834Y-13385207D01*
X87835768Y-13461584D01*
X87924629Y-13553383D01*
X87936180Y-13567160D01*
X87977895Y-13624816D01*
X88020501Y-13683703D01*
X88073380Y-13756790D01*
X88082848Y-13772061D01*
X88191677Y-13979309D01*
X88198872Y-13995769D01*
X88269628Y-14195328D01*
X88277089Y-14216370D01*
X88281873Y-14233698D01*
X88322628Y-14436896D01*
X88327902Y-14463193D01*
X88330170Y-14481022D01*
X88341151Y-14679980D01*
X88341279Y-14682296D01*
X88340238Y-14700273D01*
X88340003Y-14708529D01*
X88338479Y-14717371D01*
X88339498Y-14726290D01*
X88339498Y-14726291D01*
X88342685Y-14754182D01*
X88343500Y-14768486D01*
X88343500Y-49534309D01*
X88323498Y-49602430D01*
X88269842Y-49648923D01*
X88199568Y-49659027D01*
X88134988Y-49629533D01*
X88128405Y-49623404D01*
X84467205Y-45962203D01*
X84433179Y-45899891D01*
X84430300Y-45873108D01*
X84430300Y-43962505D01*
X84450302Y-43894384D01*
X84503958Y-43847891D01*
X84574232Y-43837787D01*
X84636870Y-43865631D01*
X84785970Y-43989637D01*
X84789973Y-43992066D01*
X85005422Y-44122804D01*
X85005426Y-44122806D01*
X85009419Y-44125229D01*
X85250455Y-44226303D01*
X85503783Y-44290641D01*
X85508434Y-44291109D01*
X85508438Y-44291110D01*
X85701308Y-44310531D01*
X85720867Y-44312500D01*
X85876354Y-44312500D01*
X85878679Y-44312327D01*
X85878685Y-44312327D01*
X86066000Y-44298407D01*
X86066004Y-44298406D01*
X86070652Y-44298061D01*
X86075200Y-44297032D01*
X86075206Y-44297031D01*
X86261601Y-44254853D01*
X86325577Y-44240377D01*
X86361769Y-44226303D01*
X86564824Y-44147340D01*
X86564827Y-44147339D01*
X86569177Y-44145647D01*
X86575214Y-44142197D01*
X86679124Y-44082807D01*
X86796098Y-44015951D01*
X87001357Y-43854138D01*
X87180443Y-43663763D01*
X87309631Y-43477540D01*
X87326759Y-43452851D01*
X87326761Y-43452848D01*
X87329424Y-43449009D01*
X87336120Y-43435431D01*
X87442960Y-43218781D01*
X87442961Y-43218778D01*
X87445025Y-43214593D01*
X87450417Y-43197750D01*
X87523280Y-42970123D01*
X87524707Y-42965665D01*
X87566721Y-42707693D01*
X87568716Y-42555311D01*
X87570081Y-42451022D01*
X87570081Y-42451019D01*
X87570142Y-42446345D01*
X87534896Y-42187362D01*
X87520473Y-42137877D01*
X87501556Y-42072976D01*
X87461757Y-41936433D01*
X87459376Y-41931267D01*
X87417623Y-41840699D01*
X87352332Y-41699072D01*
X87279971Y-41588703D01*
X87211590Y-41484404D01*
X87211586Y-41484399D01*
X87209024Y-41480491D01*
X87034982Y-41285494D01*
X86834030Y-41118363D01*
X86721371Y-41050000D01*
X86614578Y-40985196D01*
X86614574Y-40985194D01*
X86610581Y-40982771D01*
X86369545Y-40881697D01*
X86116217Y-40817359D01*
X86111566Y-40816891D01*
X86111562Y-40816890D01*
X85902271Y-40795816D01*
X85899133Y-40795500D01*
X85743646Y-40795500D01*
X85741321Y-40795673D01*
X85741315Y-40795673D01*
X85554000Y-40809593D01*
X85553996Y-40809594D01*
X85549348Y-40809939D01*
X85544800Y-40810968D01*
X85544794Y-40810969D01*
X85358399Y-40853147D01*
X85294423Y-40867623D01*
X85290071Y-40869315D01*
X85290069Y-40869316D01*
X85055176Y-40960660D01*
X85055173Y-40960661D01*
X85050823Y-40962353D01*
X84823902Y-41092049D01*
X84775626Y-41130107D01*
X84634306Y-41241514D01*
X84568426Y-41267979D01*
X84498697Y-41254626D01*
X84447256Y-41205694D01*
X84430300Y-41142564D01*
X84430300Y-16828505D01*
X84450302Y-16760384D01*
X84503958Y-16713891D01*
X84574232Y-16703787D01*
X84636870Y-16731631D01*
X84785970Y-16855637D01*
X84789973Y-16858066D01*
X85005422Y-16988804D01*
X85005426Y-16988806D01*
X85009419Y-16991229D01*
X85250455Y-17092303D01*
X85503783Y-17156641D01*
X85508434Y-17157109D01*
X85508438Y-17157110D01*
X85701308Y-17176531D01*
X85720867Y-17178500D01*
X85876354Y-17178500D01*
X85878679Y-17178327D01*
X85878685Y-17178327D01*
X86066000Y-17164407D01*
X86066004Y-17164406D01*
X86070652Y-17164061D01*
X86075200Y-17163032D01*
X86075206Y-17163031D01*
X86272050Y-17118489D01*
X86325577Y-17106377D01*
X86361769Y-17092303D01*
X86564824Y-17013340D01*
X86564827Y-17013339D01*
X86569177Y-17011647D01*
X86630952Y-16976340D01*
X86669638Y-16954229D01*
X86796098Y-16881951D01*
X87001357Y-16720138D01*
X87180443Y-16529763D01*
X87286116Y-16377437D01*
X87326759Y-16318851D01*
X87326761Y-16318848D01*
X87329424Y-16315009D01*
X87346191Y-16281009D01*
X87442960Y-16084781D01*
X87442961Y-16084778D01*
X87445025Y-16080593D01*
X87457626Y-16041229D01*
X87523280Y-15836123D01*
X87524707Y-15831665D01*
X87566721Y-15573693D01*
X87570142Y-15312345D01*
X87534896Y-15053362D01*
X87461757Y-14802433D01*
X87352332Y-14565072D01*
X87304545Y-14492184D01*
X87211590Y-14350404D01*
X87211586Y-14350399D01*
X87209024Y-14346491D01*
X87034982Y-14151494D01*
X86834030Y-13984363D01*
X86790666Y-13958049D01*
X86614578Y-13851196D01*
X86614574Y-13851194D01*
X86610581Y-13848771D01*
X86369545Y-13747697D01*
X86116217Y-13683359D01*
X86111566Y-13682891D01*
X86111562Y-13682890D01*
X85902271Y-13661816D01*
X85899133Y-13661500D01*
X85743646Y-13661500D01*
X85741321Y-13661673D01*
X85741315Y-13661673D01*
X85554000Y-13675593D01*
X85553996Y-13675594D01*
X85549348Y-13675939D01*
X85544800Y-13676968D01*
X85544794Y-13676969D01*
X85387755Y-13712504D01*
X85294423Y-13733623D01*
X85290071Y-13735315D01*
X85290069Y-13735316D01*
X85055176Y-13826660D01*
X85055173Y-13826661D01*
X85050823Y-13828353D01*
X85046769Y-13830670D01*
X85046767Y-13830671D01*
X84971610Y-13873627D01*
X84823902Y-13958049D01*
X84618643Y-14119862D01*
X84439557Y-14310237D01*
X84376333Y-14401374D01*
X84302313Y-14508073D01*
X84290576Y-14524991D01*
X84232367Y-14643027D01*
X84214144Y-14679980D01*
X84166075Y-14732228D01*
X84097390Y-14750195D01*
X84029894Y-14728176D01*
X84012043Y-14713346D01*
X83474405Y-14175708D01*
X83440379Y-14113396D01*
X83437500Y-14086613D01*
X83437500Y-13910524D01*
X83457502Y-13842403D01*
X83469858Y-13826221D01*
X83543040Y-13744944D01*
X83638527Y-13579556D01*
X83697542Y-13397928D01*
X83699560Y-13378733D01*
X83716814Y-13214565D01*
X83717504Y-13208000D01*
X83702755Y-13067670D01*
X83715527Y-12997832D01*
X83764029Y-12945985D01*
X83828065Y-12928500D01*
X86559467Y-12928500D01*
X86580874Y-12930332D01*
G37*
%TD.AperFunction*%
%TA.AperFunction,Conductor*%
G36*
X41556735Y-12948502D02*
G01*
X41603228Y-13002158D01*
X41613332Y-13072432D01*
X41583838Y-13137012D01*
X41577725Y-13143579D01*
X40617736Y-14103567D01*
X40609462Y-14111096D01*
X40602982Y-14115208D01*
X40597557Y-14120985D01*
X40556357Y-14164859D01*
X40553602Y-14167701D01*
X40533865Y-14187438D01*
X40531385Y-14190635D01*
X40523682Y-14199655D01*
X40493414Y-14231887D01*
X40489595Y-14238833D01*
X40489593Y-14238836D01*
X40483652Y-14249642D01*
X40472801Y-14266161D01*
X40460386Y-14282167D01*
X40457241Y-14289436D01*
X40457238Y-14289440D01*
X40442826Y-14322745D01*
X40437609Y-14333395D01*
X40416305Y-14372148D01*
X40414334Y-14379823D01*
X40414334Y-14379824D01*
X40411267Y-14391770D01*
X40404863Y-14410474D01*
X40396819Y-14429063D01*
X40395580Y-14436886D01*
X40395577Y-14436896D01*
X40389901Y-14472732D01*
X40387495Y-14484352D01*
X40381405Y-14508073D01*
X40376500Y-14527178D01*
X40376500Y-14547432D01*
X40374949Y-14567142D01*
X40371780Y-14587151D01*
X40372526Y-14595043D01*
X40375941Y-14631169D01*
X40376500Y-14643027D01*
X40376500Y-43508614D01*
X40356498Y-43576735D01*
X40339595Y-43597709D01*
X35933595Y-48003708D01*
X35871283Y-48037734D01*
X35800467Y-48032669D01*
X35743632Y-47990122D01*
X35718821Y-47923602D01*
X35718500Y-47914613D01*
X35718500Y-42661655D01*
X36449858Y-42661655D01*
X36485104Y-42920638D01*
X36486412Y-42925124D01*
X36486412Y-42925126D01*
X36500074Y-42971998D01*
X36558243Y-43171567D01*
X36560203Y-43175820D01*
X36560204Y-43175821D01*
X36570400Y-43197937D01*
X36667668Y-43408928D01*
X36676882Y-43422982D01*
X36808410Y-43623596D01*
X36808414Y-43623601D01*
X36810976Y-43627509D01*
X36985018Y-43822506D01*
X37185970Y-43989637D01*
X37189973Y-43992066D01*
X37405422Y-44122804D01*
X37405426Y-44122806D01*
X37409419Y-44125229D01*
X37650455Y-44226303D01*
X37903783Y-44290641D01*
X37908434Y-44291109D01*
X37908438Y-44291110D01*
X38101308Y-44310531D01*
X38120867Y-44312500D01*
X38276354Y-44312500D01*
X38278679Y-44312327D01*
X38278685Y-44312327D01*
X38466000Y-44298407D01*
X38466004Y-44298406D01*
X38470652Y-44298061D01*
X38475200Y-44297032D01*
X38475206Y-44297031D01*
X38661601Y-44254853D01*
X38725577Y-44240377D01*
X38761769Y-44226303D01*
X38964824Y-44147340D01*
X38964827Y-44147339D01*
X38969177Y-44145647D01*
X38975214Y-44142197D01*
X39079124Y-44082807D01*
X39196098Y-44015951D01*
X39401357Y-43854138D01*
X39580443Y-43663763D01*
X39709631Y-43477540D01*
X39726759Y-43452851D01*
X39726761Y-43452848D01*
X39729424Y-43449009D01*
X39736120Y-43435431D01*
X39842960Y-43218781D01*
X39842961Y-43218778D01*
X39845025Y-43214593D01*
X39850417Y-43197750D01*
X39923280Y-42970123D01*
X39924707Y-42965665D01*
X39966721Y-42707693D01*
X39968716Y-42555311D01*
X39970081Y-42451022D01*
X39970081Y-42451019D01*
X39970142Y-42446345D01*
X39934896Y-42187362D01*
X39920473Y-42137877D01*
X39901556Y-42072976D01*
X39861757Y-41936433D01*
X39859376Y-41931267D01*
X39817623Y-41840699D01*
X39752332Y-41699072D01*
X39679971Y-41588703D01*
X39611590Y-41484404D01*
X39611586Y-41484399D01*
X39609024Y-41480491D01*
X39434982Y-41285494D01*
X39234030Y-41118363D01*
X39121371Y-41050000D01*
X39014578Y-40985196D01*
X39014574Y-40985194D01*
X39010581Y-40982771D01*
X38769545Y-40881697D01*
X38516217Y-40817359D01*
X38511566Y-40816891D01*
X38511562Y-40816890D01*
X38302271Y-40795816D01*
X38299133Y-40795500D01*
X38143646Y-40795500D01*
X38141321Y-40795673D01*
X38141315Y-40795673D01*
X37954000Y-40809593D01*
X37953996Y-40809594D01*
X37949348Y-40809939D01*
X37944800Y-40810968D01*
X37944794Y-40810969D01*
X37758399Y-40853147D01*
X37694423Y-40867623D01*
X37690071Y-40869315D01*
X37690069Y-40869316D01*
X37455176Y-40960660D01*
X37455173Y-40960661D01*
X37450823Y-40962353D01*
X37223902Y-41092049D01*
X37018643Y-41253862D01*
X36839557Y-41444237D01*
X36690576Y-41658991D01*
X36688510Y-41663181D01*
X36688508Y-41663184D01*
X36579647Y-41883934D01*
X36574975Y-41893407D01*
X36573553Y-41897850D01*
X36573552Y-41897852D01*
X36528016Y-42040108D01*
X36495293Y-42142335D01*
X36453279Y-42400307D01*
X36452353Y-42471038D01*
X36450319Y-42626473D01*
X36449858Y-42661655D01*
X35718500Y-42661655D01*
X35718500Y-15490655D01*
X36449858Y-15490655D01*
X36485104Y-15749638D01*
X36486412Y-15754124D01*
X36486412Y-15754126D01*
X36500721Y-15803217D01*
X36558243Y-16000567D01*
X36667668Y-16237928D01*
X36676799Y-16251855D01*
X36808410Y-16452596D01*
X36808414Y-16452601D01*
X36810976Y-16456509D01*
X36985018Y-16651506D01*
X37185970Y-16818637D01*
X37189973Y-16821066D01*
X37405422Y-16951804D01*
X37405426Y-16951806D01*
X37409419Y-16954229D01*
X37650455Y-17055303D01*
X37903783Y-17119641D01*
X37908434Y-17120109D01*
X37908438Y-17120110D01*
X38101308Y-17139531D01*
X38120867Y-17141500D01*
X38276354Y-17141500D01*
X38278679Y-17141327D01*
X38278685Y-17141327D01*
X38466000Y-17127407D01*
X38466004Y-17127406D01*
X38470652Y-17127061D01*
X38475200Y-17126032D01*
X38475206Y-17126031D01*
X38661601Y-17083853D01*
X38725577Y-17069377D01*
X38761769Y-17055303D01*
X38964824Y-16976340D01*
X38964827Y-16976339D01*
X38969177Y-16974647D01*
X39196098Y-16844951D01*
X39401357Y-16683138D01*
X39580443Y-16492763D01*
X39703756Y-16315009D01*
X39726759Y-16281851D01*
X39726761Y-16281848D01*
X39729424Y-16278009D01*
X39731492Y-16273816D01*
X39842960Y-16047781D01*
X39842961Y-16047778D01*
X39845025Y-16043593D01*
X39879977Y-15934404D01*
X39923280Y-15799123D01*
X39924707Y-15794665D01*
X39966721Y-15536693D01*
X39968892Y-15370825D01*
X39970081Y-15280022D01*
X39970081Y-15280019D01*
X39970142Y-15275345D01*
X39934896Y-15016362D01*
X39920473Y-14966877D01*
X39872541Y-14802433D01*
X39861757Y-14765433D01*
X39839590Y-14717348D01*
X39779568Y-14587151D01*
X39752332Y-14528072D01*
X39715589Y-14472030D01*
X39611590Y-14313404D01*
X39611586Y-14313399D01*
X39609024Y-14309491D01*
X39434982Y-14114494D01*
X39234030Y-13947363D01*
X39162974Y-13904245D01*
X39014578Y-13814196D01*
X39014574Y-13814194D01*
X39010581Y-13811771D01*
X38769545Y-13710697D01*
X38516217Y-13646359D01*
X38511566Y-13645891D01*
X38511562Y-13645890D01*
X38302271Y-13624816D01*
X38299133Y-13624500D01*
X38143646Y-13624500D01*
X38141321Y-13624673D01*
X38141315Y-13624673D01*
X37954000Y-13638593D01*
X37953996Y-13638594D01*
X37949348Y-13638939D01*
X37944800Y-13639968D01*
X37944794Y-13639969D01*
X37758399Y-13682147D01*
X37694423Y-13696623D01*
X37690071Y-13698315D01*
X37690069Y-13698316D01*
X37455176Y-13789660D01*
X37455173Y-13789661D01*
X37450823Y-13791353D01*
X37446769Y-13793670D01*
X37446767Y-13793671D01*
X37386086Y-13828353D01*
X37223902Y-13921049D01*
X37018643Y-14082862D01*
X36839557Y-14273237D01*
X36788739Y-14346491D01*
X36701162Y-14472732D01*
X36690576Y-14487991D01*
X36688510Y-14492181D01*
X36688508Y-14492184D01*
X36594756Y-14682296D01*
X36574975Y-14722407D01*
X36573553Y-14726850D01*
X36573552Y-14726852D01*
X36561425Y-14764738D01*
X36495293Y-14971335D01*
X36453279Y-15229307D01*
X36453218Y-15233980D01*
X36450133Y-15469684D01*
X36449858Y-15490655D01*
X35718500Y-15490655D01*
X35718500Y-14786103D01*
X35720303Y-14764863D01*
X35721236Y-14759407D01*
X35723540Y-14745935D01*
X35722509Y-14737016D01*
X35722509Y-14737012D01*
X35721654Y-14729618D01*
X35721227Y-14705034D01*
X35737089Y-14508073D01*
X35739483Y-14491766D01*
X35786457Y-14272735D01*
X35790960Y-14256882D01*
X35866118Y-14045862D01*
X35872647Y-14030741D01*
X35974712Y-13831327D01*
X35983160Y-13817185D01*
X36110379Y-13632801D01*
X36120601Y-13619883D01*
X36270802Y-13453678D01*
X36282619Y-13442208D01*
X36453222Y-13297036D01*
X36466446Y-13287199D01*
X36654534Y-13165540D01*
X36668929Y-13157513D01*
X36871281Y-13061448D01*
X36886600Y-13055368D01*
X37099771Y-12986533D01*
X37115754Y-12982505D01*
X37336085Y-12942085D01*
X37352454Y-12940178D01*
X37542623Y-12930558D01*
X37565711Y-12931931D01*
X37569213Y-12932026D01*
X37578065Y-12933540D01*
X37586983Y-12932509D01*
X37586985Y-12932509D01*
X37614442Y-12929334D01*
X37628914Y-12928500D01*
X41488614Y-12928500D01*
X41556735Y-12948502D01*
G37*
%TD.AperFunction*%
%TD*%
M02*
