%TF.GenerationSoftware,KiCad,Pcbnew,(6.0.10)*%
%TF.CreationDate,2023-02-01T20:58:39-08:00*%
%TF.ProjectId,pico8t-matrix,7069636f-3874-42d6-9d61-747269782e6b,rev?*%
%TF.SameCoordinates,Original*%
%TF.FileFunction,Copper,L2,Bot*%
%TF.FilePolarity,Positive*%
%FSLAX46Y46*%
G04 Gerber Fmt 4.6, Leading zero omitted, Abs format (unit mm)*
G04 Created by KiCad (PCBNEW (6.0.10)) date 2023-02-01 20:58:39*
%MOMM*%
%LPD*%
G01*
G04 APERTURE LIST*
%TA.AperFunction,ComponentPad*%
%ADD10O,1.700000X1.700000*%
%TD*%
%TA.AperFunction,ComponentPad*%
%ADD11R,1.700000X1.700000*%
%TD*%
%TA.AperFunction,ViaPad*%
%ADD12C,0.800000*%
%TD*%
%TA.AperFunction,Conductor*%
%ADD13C,0.250000*%
%TD*%
G04 APERTURE END LIST*
D10*
%TO.P,J0,20,Pin_20*%
%TO.N,PF*%
X86111000Y-50800000D03*
%TO.P,J0,19,Pin_19*%
%TO.N,PE*%
X83571000Y-50800000D03*
%TO.P,J0,18,Pin_18*%
%TO.N,GND*%
X81031000Y-50800000D03*
%TO.P,J0,17,Pin_17*%
%TO.N,PD*%
X78491000Y-50800000D03*
%TO.P,J0,16,Pin_16*%
%TO.N,PC*%
X75951000Y-50800000D03*
%TO.P,J0,15,Pin_15*%
%TO.N,PB*%
X73411000Y-50800000D03*
%TO.P,J0,14,Pin_14*%
%TO.N,PA*%
X70871000Y-50800000D03*
%TO.P,J0,13,Pin_13*%
%TO.N,GND*%
X68331000Y-50800000D03*
%TO.P,J0,12,Pin_12*%
%TO.N,P9*%
X65791000Y-50800000D03*
%TO.P,J0,11,Pin_11*%
%TO.N,P8*%
X63251000Y-50800000D03*
%TO.P,J0,10,Pin_10*%
%TO.N,P7*%
X60711000Y-50800000D03*
%TO.P,J0,9,Pin_9*%
%TO.N,P6*%
X58171000Y-50800000D03*
%TO.P,J0,8,Pin_8*%
%TO.N,GND*%
X55631000Y-50800000D03*
%TO.P,J0,7,Pin_7*%
%TO.N,P5*%
X53091000Y-50800000D03*
%TO.P,J0,6,Pin_6*%
%TO.N,P4*%
X50551000Y-50800000D03*
%TO.P,J0,5,Pin_5*%
%TO.N,P3*%
X48011000Y-50800000D03*
%TO.P,J0,4,Pin_4*%
%TO.N,P2*%
X45471000Y-50800000D03*
%TO.P,J0,3,Pin_3*%
%TO.N,GND*%
X42931000Y-50800000D03*
%TO.P,J0,2,Pin_2*%
%TO.N,P1*%
X40391000Y-50800000D03*
D11*
%TO.P,J0,1,Pin_1*%
%TO.N,P0*%
X37851000Y-50800000D03*
%TD*%
D12*
%TO.N,GND*%
X85865200Y-32930600D03*
X85839800Y-38645600D03*
%TO.N,Y9*%
X82674000Y-32397200D03*
%TO.N,GND*%
X37960800Y-30949400D03*
%TO.N,P0*%
X62217800Y-48145200D03*
%TO.N,Y8*%
X64707000Y-47688000D03*
%TO.N,Y7*%
X61155003Y-44923995D03*
%TO.N,Y3*%
X57239400Y-45119500D03*
%TO.N,P3*%
X65062600Y-20545500D03*
X46025000Y-21182800D03*
%TO.N,P4*%
X65697600Y-24751800D03*
%TO.N,P3*%
X66220851Y-22880359D03*
%TO.N,Y2*%
X40575500Y-20408400D03*
X40575500Y-44995600D03*
%TO.N,Y3*%
X61815607Y-19601343D03*
%TO.N,Y6*%
X50025800Y-38188400D03*
X54013600Y-38112200D03*
%TO.N,P5*%
X69225000Y-37143800D03*
%TO.N,P6*%
X69228200Y-13345500D03*
X49238400Y-13345500D03*
%TO.N,YC*%
X73647800Y-43573200D03*
%TO.N,P8*%
X73225000Y-41544500D03*
%TO.N,YC*%
X74917800Y-46062400D03*
%TO.N,Y0*%
X44449502Y-16395000D03*
%TO.N,YA*%
X69990200Y-33494500D03*
X69867499Y-45854901D03*
%TO.N,Y9*%
X67247000Y-46113200D03*
%TO.N,Y8*%
X39851000Y-32346400D03*
%TO.N,YB*%
X74044200Y-36395000D03*
X72301600Y-46087800D03*
%TO.N,Y7*%
X66100500Y-28312683D03*
%TO.N,P6*%
X59625000Y-48016200D03*
%TO.N,Y6*%
X59728600Y-45935400D03*
X50000400Y-32434700D03*
%TO.N,YD*%
X77483200Y-46062400D03*
X77962600Y-40395000D03*
%TO.N,Y5*%
X83057000Y-44360600D03*
X81949500Y-24370800D03*
%TO.N,P2*%
X49568600Y-47891200D03*
%TO.N,Y4*%
X46036800Y-24395000D03*
X47130200Y-45989500D03*
%TO.N,Y1*%
X41416172Y-46787675D03*
X41300500Y-18016973D03*
%TO.N,P5*%
X57225000Y-47595000D03*
%TO.N,PD*%
X77225000Y-47995000D03*
%TO.N,PE*%
X80025000Y-47995000D03*
%TO.N,P4*%
X54425000Y-47595000D03*
%TO.N,P3*%
X52025000Y-47595000D03*
%TO.N,P1*%
X46825000Y-47595000D03*
%TO.N,P2*%
X58731018Y-13548009D03*
%TO.N,PF*%
X82332500Y-47902500D03*
X81225000Y-14795000D03*
%TO.N,PE*%
X79625000Y-13995000D03*
%TO.N,PD*%
X78825000Y-15595000D03*
%TO.N,PC*%
X77225000Y-14795000D03*
%TO.N,PB*%
X75625000Y-13995000D03*
%TO.N,PA*%
X74825000Y-15595000D03*
%TO.N,P9*%
X73225000Y-14795000D03*
%TO.N,P8*%
X71625000Y-13995000D03*
%TO.N,P7*%
X70825000Y-15595000D03*
%TO.N,P6*%
X69225000Y-14795000D03*
%TO.N,P5*%
X67625000Y-13995000D03*
%TO.N,P4*%
X66825000Y-15595000D03*
%TO.N,PF*%
X81225000Y-18795000D03*
%TO.N,PE*%
X79625000Y-17995000D03*
%TO.N,PD*%
X78825000Y-19595000D03*
%TO.N,PC*%
X77225000Y-18795000D03*
%TO.N,PB*%
X75625000Y-17995000D03*
%TO.N,PA*%
X74825000Y-19595000D03*
%TO.N,P9*%
X73225000Y-18795000D03*
%TO.N,P8*%
X71625000Y-17995000D03*
%TO.N,P7*%
X70825000Y-19595000D03*
%TO.N,P6*%
X69225000Y-18795000D03*
%TO.N,P5*%
X67625000Y-17995000D03*
%TO.N,P4*%
X66825000Y-19595000D03*
%TO.N,PF*%
X81225000Y-22795000D03*
%TO.N,PE*%
X79625000Y-21995000D03*
%TO.N,PD*%
X78825000Y-23595000D03*
%TO.N,PC*%
X77225000Y-22795000D03*
%TO.N,PB*%
X75625000Y-21995000D03*
%TO.N,PA*%
X74825000Y-23595000D03*
%TO.N,P9*%
X73225000Y-22795000D03*
%TO.N,P8*%
X71625000Y-21995000D03*
%TO.N,P7*%
X70825000Y-23595000D03*
%TO.N,P6*%
X69225000Y-22795000D03*
%TO.N,P4*%
X67625000Y-21995000D03*
%TO.N,PF*%
X81225000Y-26795000D03*
%TO.N,PE*%
X79625000Y-25995000D03*
%TO.N,PD*%
X78825000Y-27595000D03*
%TO.N,PC*%
X77225000Y-26795000D03*
%TO.N,PB*%
X75625000Y-25995000D03*
%TO.N,PA*%
X74825000Y-27595000D03*
%TO.N,P9*%
X73225000Y-26795000D03*
%TO.N,P8*%
X71625000Y-25995000D03*
%TO.N,P6*%
X70825000Y-27595000D03*
%TO.N,P5*%
X69225000Y-26795000D03*
%TO.N,P4*%
X67625000Y-25995000D03*
%TO.N,P3*%
X66825000Y-27595000D03*
%TO.N,PF*%
X81225000Y-30795000D03*
%TO.N,PE*%
X79625000Y-29995000D03*
%TO.N,PD*%
X78825000Y-31595000D03*
%TO.N,PC*%
X77225000Y-30795000D03*
%TO.N,PB*%
X75625000Y-29995000D03*
%TO.N,PA*%
X74825000Y-31595000D03*
%TO.N,P8*%
X73225000Y-30795000D03*
%TO.N,P7*%
X71625000Y-29995000D03*
%TO.N,P6*%
X70825000Y-31595000D03*
%TO.N,P5*%
X69225000Y-30795000D03*
%TO.N,P4*%
X67625000Y-29995000D03*
%TO.N,P3*%
X66825000Y-31595000D03*
%TO.N,PF*%
X81225000Y-34795000D03*
%TO.N,PE*%
X79625000Y-33995000D03*
%TO.N,PD*%
X78825000Y-35595000D03*
%TO.N,PC*%
X77225000Y-34795000D03*
%TO.N,PA*%
X75625000Y-33995000D03*
%TO.N,P9*%
X74825000Y-35595000D03*
%TO.N,P8*%
X73225000Y-34795000D03*
%TO.N,P7*%
X71625000Y-33995000D03*
%TO.N,P6*%
X70825000Y-35595000D03*
%TO.N,P5*%
X69225000Y-34795000D03*
%TO.N,P4*%
X67625000Y-33995000D03*
%TO.N,P3*%
X66825000Y-35595000D03*
%TO.N,PF*%
X81225000Y-38795000D03*
%TO.N,PE*%
X79625000Y-37995000D03*
%TO.N,PC*%
X78825000Y-39595000D03*
%TO.N,PB*%
X77225000Y-38795000D03*
%TO.N,PA*%
X75625000Y-37995000D03*
%TO.N,P9*%
X74825000Y-39595000D03*
%TO.N,P8*%
X73225000Y-38795000D03*
%TO.N,P7*%
X71625000Y-37995000D03*
%TO.N,P6*%
X70825000Y-39595000D03*
%TO.N,P5*%
X69225000Y-38795000D03*
%TO.N,P4*%
X67625000Y-37995000D03*
%TO.N,P3*%
X66825000Y-39595000D03*
%TO.N,PE*%
X81225000Y-42795000D03*
%TO.N,PD*%
X79625000Y-41995000D03*
%TO.N,PC*%
X78825000Y-43595000D03*
%TO.N,PB*%
X77225000Y-42795000D03*
%TO.N,PA*%
X75625000Y-41995000D03*
%TO.N,P9*%
X74825000Y-43595000D03*
%TO.N,P7*%
X71625000Y-41995000D03*
%TO.N,P6*%
X70825000Y-43595000D03*
%TO.N,P5*%
X69225000Y-42795000D03*
%TO.N,P4*%
X67625000Y-41995000D03*
%TO.N,P3*%
X66825000Y-43595000D03*
%TO.N,P2*%
X65225000Y-42795000D03*
%TO.N,P1*%
X63625000Y-41995000D03*
%TO.N,P0*%
X62825000Y-43595000D03*
%TO.N,PF*%
X61225000Y-42795000D03*
%TO.N,PD*%
X59625000Y-41995000D03*
%TO.N,PC*%
X58825000Y-43595000D03*
%TO.N,PB*%
X57225000Y-42795000D03*
%TO.N,PA*%
X55625000Y-41995000D03*
%TO.N,P9*%
X54825000Y-43595000D03*
%TO.N,P8*%
X53225000Y-42795000D03*
%TO.N,P7*%
X51625000Y-41995000D03*
%TO.N,P6*%
X50825000Y-43595000D03*
%TO.N,P2*%
X65225000Y-38795000D03*
%TO.N,P1*%
X63625000Y-37995000D03*
%TO.N,P0*%
X62825000Y-39595000D03*
%TO.N,PF*%
X61225000Y-38795000D03*
%TO.N,PE*%
X59625000Y-37995000D03*
%TO.N,PD*%
X58825000Y-39595000D03*
%TO.N,PB*%
X57225000Y-38795000D03*
%TO.N,PA*%
X55625000Y-37995000D03*
%TO.N,P9*%
X54825000Y-39595000D03*
%TO.N,P8*%
X53225000Y-38795000D03*
%TO.N,P7*%
X51625000Y-37995000D03*
%TO.N,P6*%
X50825000Y-39595000D03*
%TO.N,P2*%
X65225000Y-34795000D03*
%TO.N,P1*%
X63625000Y-33995000D03*
%TO.N,P0*%
X62825000Y-35595000D03*
%TO.N,PF*%
X61225000Y-34795000D03*
%TO.N,PE*%
X59625000Y-33995000D03*
%TO.N,PD*%
X58825000Y-35595000D03*
%TO.N,PC*%
X57225000Y-34795000D03*
%TO.N,PB*%
X55625000Y-33995000D03*
%TO.N,P9*%
X54825000Y-35595000D03*
%TO.N,P8*%
X53225000Y-34795000D03*
%TO.N,P7*%
X51625000Y-33995000D03*
%TO.N,P6*%
X50825000Y-35595000D03*
%TO.N,P2*%
X65225000Y-30795000D03*
%TO.N,P1*%
X63625000Y-29995000D03*
%TO.N,P0*%
X62825000Y-31595000D03*
%TO.N,PF*%
X61225000Y-30795000D03*
%TO.N,PE*%
X59625000Y-29995000D03*
%TO.N,PD*%
X58825000Y-31595000D03*
%TO.N,PC*%
X57225000Y-30795000D03*
%TO.N,PB*%
X55625000Y-29995000D03*
%TO.N,PA*%
X54825000Y-31595000D03*
%TO.N,P9*%
X53225000Y-30795000D03*
%TO.N,P7*%
X51625000Y-29995000D03*
%TO.N,P6*%
X50825000Y-31595000D03*
%TO.N,P2*%
X65225000Y-26795000D03*
%TO.N,P1*%
X63625000Y-25995000D03*
%TO.N,P0*%
X62825000Y-27595000D03*
%TO.N,PF*%
X61225000Y-26795000D03*
%TO.N,PE*%
X59625000Y-25995000D03*
%TO.N,PD*%
X58825000Y-27595000D03*
%TO.N,PC*%
X57225000Y-26795000D03*
%TO.N,PB*%
X55625000Y-25995000D03*
%TO.N,PA*%
X54825000Y-27595000D03*
%TO.N,P9*%
X53225000Y-26795000D03*
%TO.N,P8*%
X51625000Y-25995000D03*
%TO.N,P7*%
X50825000Y-27595000D03*
%TO.N,P2*%
X65225000Y-22795000D03*
%TO.N,P1*%
X63625000Y-21995000D03*
%TO.N,P0*%
X62825000Y-23595000D03*
%TO.N,PF*%
X61225000Y-22795000D03*
%TO.N,PE*%
X59625000Y-21995000D03*
%TO.N,PD*%
X58825000Y-23595000D03*
%TO.N,PC*%
X57225000Y-22795000D03*
%TO.N,PB*%
X55625000Y-21995000D03*
%TO.N,PA*%
X54825000Y-23595000D03*
%TO.N,P9*%
X53225000Y-22795000D03*
%TO.N,P8*%
X51625000Y-21995000D03*
%TO.N,P7*%
X50825000Y-23595000D03*
%TO.N,P2*%
X65225000Y-18795000D03*
%TO.N,P1*%
X63625000Y-17995000D03*
%TO.N,P0*%
X62825000Y-19595000D03*
%TO.N,PF*%
X61225000Y-18795000D03*
%TO.N,PE*%
X59625000Y-17995000D03*
%TO.N,PD*%
X58825000Y-19595000D03*
%TO.N,PC*%
X57225000Y-18795000D03*
%TO.N,PB*%
X55625000Y-17995000D03*
%TO.N,PA*%
X54825000Y-19595000D03*
%TO.N,P9*%
X53225000Y-18795000D03*
%TO.N,P8*%
X51625000Y-17995000D03*
%TO.N,P7*%
X50825000Y-19595000D03*
%TO.N,P3*%
X65225000Y-14795000D03*
%TO.N,P2*%
X63625000Y-13995000D03*
%TO.N,P0*%
X62825000Y-15595000D03*
%TO.N,PF*%
X61225000Y-14795000D03*
%TO.N,PE*%
X59625000Y-13995000D03*
%TO.N,PD*%
X58825000Y-15595000D03*
%TO.N,PC*%
X57225000Y-14795000D03*
%TO.N,PB*%
X55625000Y-13995000D03*
%TO.N,PA*%
X54825000Y-15595000D03*
%TO.N,P9*%
X53225000Y-14795000D03*
%TO.N,P8*%
X51625000Y-13995000D03*
%TO.N,P7*%
X50825000Y-15595000D03*
%TO.N,Y0*%
X42025000Y-45995000D03*
%TO.N,P6*%
X49225000Y-14795000D03*
%TO.N,P5*%
X47625000Y-13995000D03*
%TO.N,P4*%
X46825000Y-15595000D03*
%TO.N,P6*%
X49225000Y-18795000D03*
%TO.N,P5*%
X47625000Y-17995000D03*
%TO.N,P4*%
X46825000Y-19595000D03*
%TO.N,P6*%
X49225000Y-22795000D03*
%TO.N,P5*%
X47625000Y-21995000D03*
%TO.N,P3*%
X46825000Y-23595000D03*
%TO.N,P5*%
X49225000Y-26795000D03*
%TO.N,P4*%
X47625000Y-25995000D03*
%TO.N,P3*%
X46825000Y-27595000D03*
%TO.N,P5*%
X49225000Y-30795000D03*
%TO.N,P4*%
X47625000Y-29995000D03*
%TO.N,P3*%
X46825000Y-31595000D03*
%TO.N,P5*%
X49225000Y-34795000D03*
%TO.N,P4*%
X47625000Y-33995000D03*
%TO.N,P3*%
X46825000Y-35595000D03*
%TO.N,P5*%
X49225000Y-38795000D03*
%TO.N,P4*%
X47625000Y-37995000D03*
%TO.N,P3*%
X46825000Y-39595000D03*
%TO.N,P5*%
X49225000Y-42795000D03*
%TO.N,P4*%
X47625000Y-41995000D03*
%TO.N,P3*%
X46825000Y-43595000D03*
%TO.N,P2*%
X45225000Y-42795000D03*
%TO.N,P1*%
X43625000Y-41995000D03*
%TO.N,P0*%
X42825000Y-43595000D03*
%TO.N,P2*%
X45225000Y-38795000D03*
%TO.N,P1*%
X43625000Y-37995000D03*
%TO.N,P0*%
X42825000Y-39595000D03*
%TO.N,P2*%
X45225000Y-34795000D03*
%TO.N,P1*%
X43625000Y-33995000D03*
%TO.N,P0*%
X42825000Y-35595000D03*
%TO.N,P2*%
X45225000Y-30795000D03*
%TO.N,P1*%
X43625000Y-29995000D03*
%TO.N,P0*%
X42825000Y-31595000D03*
%TO.N,P2*%
X45225000Y-26795000D03*
%TO.N,P1*%
X43625000Y-25995000D03*
%TO.N,P0*%
X42825000Y-27595000D03*
%TO.N,P2*%
X45225000Y-22795000D03*
%TO.N,P1*%
X43625000Y-21995000D03*
%TO.N,P0*%
X42825000Y-23595000D03*
%TO.N,P3*%
X45225000Y-18795000D03*
%TO.N,P1*%
X43625000Y-17995000D03*
%TO.N,P0*%
X42825000Y-19595000D03*
%TO.N,P3*%
X45225000Y-14795000D03*
%TO.N,P2*%
X43625000Y-13995000D03*
%TO.N,P1*%
X42825000Y-15595000D03*
%TD*%
D13*
%TO.N,Y9*%
X87435001Y-37158201D02*
X82674000Y-32397200D01*
X87435001Y-51147399D02*
X87435001Y-37158201D01*
X86601800Y-51980600D02*
X87435001Y-51147399D01*
X67849899Y-51980600D02*
X86601800Y-51980600D01*
X67156000Y-51286701D02*
X67849899Y-51980600D01*
X67156000Y-46204200D02*
X67156000Y-51286701D01*
X67247000Y-46113200D02*
X67156000Y-46204200D01*
%TO.N,Y8*%
X36413450Y-51601650D02*
X36413450Y-46648650D01*
X36413450Y-46648650D02*
X39851000Y-43211099D01*
X36786800Y-51975000D02*
X36413450Y-51601650D01*
X39851000Y-43211099D02*
X39851000Y-32346400D01*
X64616000Y-51096701D02*
X63737701Y-51975000D01*
X63737701Y-51975000D02*
X36786800Y-51975000D01*
X64616000Y-47779000D02*
X64616000Y-51096701D01*
X64707000Y-47688000D02*
X64616000Y-47779000D01*
%TO.N,P0*%
X62825000Y-47538000D02*
X62217800Y-48145200D01*
X62825000Y-43595000D02*
X62825000Y-47538000D01*
%TO.N,Y7*%
X66100500Y-43779900D02*
X66100500Y-28312683D01*
X63532000Y-46348400D02*
X66100500Y-43779900D01*
X63532000Y-49040800D02*
X63532000Y-46348400D01*
X62947800Y-49625000D02*
X63532000Y-49040800D01*
X61155003Y-49089003D02*
X61691000Y-49625000D01*
X61691000Y-49625000D02*
X62947800Y-49625000D01*
X61155003Y-44923995D02*
X61155003Y-49089003D01*
%TO.N,P7*%
X60350000Y-47593000D02*
X60350000Y-50439000D01*
X59177000Y-46420000D02*
X60350000Y-47593000D01*
X56393792Y-46420000D02*
X59177000Y-46420000D01*
X55493792Y-45520000D02*
X56393792Y-46420000D01*
X53852200Y-45520000D02*
X55493792Y-45520000D01*
X53174502Y-44842302D02*
X53852200Y-45520000D01*
X51625000Y-42220305D02*
X53178248Y-43773552D01*
X53174502Y-43777298D02*
X53174502Y-44842302D01*
X51625000Y-41995000D02*
X51625000Y-42220305D01*
X53178248Y-43773552D02*
X53174502Y-43777298D01*
%TO.N,P8*%
X71565000Y-43204500D02*
X73225000Y-41544500D01*
X71565000Y-46392600D02*
X71565000Y-43204500D01*
X71137600Y-46820000D02*
X71565000Y-46392600D01*
X66196796Y-44320000D02*
X67308000Y-44320000D01*
X63982000Y-46534796D02*
X66196796Y-44320000D01*
X67308000Y-44320000D02*
X69808000Y-46820000D01*
X69808000Y-46820000D02*
X71137600Y-46820000D01*
X63982000Y-50069000D02*
X63982000Y-46534796D01*
X63251000Y-50800000D02*
X63982000Y-50069000D01*
%TO.N,Y3*%
X59934900Y-45119500D02*
X57239400Y-45119500D01*
X59934900Y-45119500D02*
X62040000Y-43014400D01*
%TO.N,P0*%
X42825000Y-46404152D02*
X38429152Y-50800000D01*
X42825000Y-43595000D02*
X42825000Y-46404152D01*
%TO.N,P3*%
X65972600Y-19635500D02*
X65972600Y-17542600D01*
X65062600Y-20545500D02*
X65972600Y-19635500D01*
X65225000Y-16795000D02*
X65972600Y-17542600D01*
X66220851Y-21703751D02*
X66220851Y-22880359D01*
X65062600Y-20545500D02*
X66220851Y-21703751D01*
%TO.N,P2*%
X64075000Y-19821200D02*
X65101200Y-18795000D01*
X64075000Y-21419695D02*
X64075000Y-19821200D01*
X65101200Y-18795000D02*
X65225000Y-18795000D01*
X65225000Y-22569695D02*
X64075000Y-21419695D01*
X65225000Y-22795000D02*
X65225000Y-22569695D01*
%TO.N,P3*%
X46025000Y-19820305D02*
X46025000Y-21182800D01*
X45225000Y-19020305D02*
X46025000Y-19820305D01*
X45225000Y-18795000D02*
X45225000Y-19020305D01*
X46025000Y-21182800D02*
X46025000Y-22795000D01*
%TO.N,P4*%
X65700600Y-24748800D02*
X65697600Y-24751800D01*
X67625000Y-24748800D02*
X65700600Y-24748800D01*
X67625000Y-24748800D02*
X67625000Y-25995000D01*
X67625000Y-21995000D02*
X67625000Y-24748800D01*
%TO.N,P3*%
X66825000Y-27300204D02*
X66825000Y-27595000D01*
X64605400Y-25080604D02*
X66825000Y-27300204D01*
X64605400Y-24495810D02*
X64605400Y-25080604D01*
X66220851Y-22880359D02*
X64605400Y-24495810D01*
%TO.N,P2*%
X64075000Y-25186600D02*
X65225000Y-26336600D01*
X64075000Y-23945000D02*
X64075000Y-25186600D01*
X65225000Y-26336600D02*
X65225000Y-26795000D01*
X65225000Y-22795000D02*
X64075000Y-23945000D01*
%TO.N,Y2*%
X40575500Y-44995600D02*
X40575500Y-20408400D01*
%TO.N,Y3*%
X61815607Y-21936607D02*
X62040000Y-22161000D01*
X61815607Y-19601343D02*
X61815607Y-21936607D01*
X62040000Y-22161000D02*
X62040000Y-43014400D01*
%TO.N,PF*%
X60075000Y-19945000D02*
X60075000Y-21313600D01*
X61225000Y-22463600D02*
X61225000Y-22795000D01*
X61225000Y-18795000D02*
X60075000Y-19945000D01*
X60075000Y-21313600D02*
X61225000Y-22463600D01*
%TO.N,Y6*%
X50000400Y-38163000D02*
X50025800Y-38188400D01*
X50000400Y-32434700D02*
X50000400Y-38163000D01*
X54039000Y-38137600D02*
X54013600Y-38112200D01*
X54039000Y-43834305D02*
X54039000Y-38137600D01*
%TO.N,P5*%
X69225000Y-34795000D02*
X69225000Y-38795000D01*
%TO.N,P6*%
X69225000Y-13348700D02*
X69228200Y-13345500D01*
X69225000Y-14795000D02*
X69225000Y-13348700D01*
%TO.N,P7*%
X69888600Y-12610600D02*
X70825000Y-13547000D01*
X67825000Y-12820000D02*
X68034400Y-12610600D01*
X70825000Y-13547000D02*
X70825000Y-15595000D01*
X51774695Y-12820000D02*
X67825000Y-12820000D01*
X68034400Y-12610600D02*
X69888600Y-12610600D01*
X50825000Y-15595000D02*
X50825000Y-13769695D01*
X50825000Y-13769695D02*
X51774695Y-12820000D01*
%TO.N,P6*%
X49225000Y-14795000D02*
X49225000Y-13358900D01*
X49225000Y-13358900D02*
X49238400Y-13345500D01*
%TO.N,YC*%
X73647800Y-44792400D02*
X73647800Y-43573200D01*
X74917800Y-46062400D02*
X73647800Y-44792400D01*
%TO.N,YB*%
X72501005Y-45888395D02*
X72301600Y-46087800D01*
X72501005Y-43293800D02*
X72501005Y-45888395D01*
X72501005Y-43293800D02*
X74044200Y-41750605D01*
X74044200Y-41750605D02*
X74044200Y-36395000D01*
%TO.N,P8*%
X73225000Y-38795000D02*
X73225000Y-41544500D01*
%TO.N,P9*%
X75846600Y-44616600D02*
X74825000Y-43595000D01*
X73099204Y-49175000D02*
X75846600Y-46427604D01*
X75846600Y-46427604D02*
X75846600Y-44616600D01*
X71526604Y-49175000D02*
X73099204Y-49175000D01*
X66383192Y-44770000D02*
X67121604Y-44770000D01*
X65791000Y-45362192D02*
X66383192Y-44770000D01*
X67121604Y-44770000D02*
X71526604Y-49175000D01*
X65791000Y-50800000D02*
X65791000Y-45362192D01*
%TO.N,PA*%
X76296600Y-46614000D02*
X76296600Y-42666600D01*
X76296600Y-42666600D02*
X75625000Y-41995000D01*
X73285600Y-49625000D02*
X76296600Y-46614000D01*
X70871000Y-50800000D02*
X72046000Y-49625000D01*
X72046000Y-49625000D02*
X73285600Y-49625000D01*
%TO.N,PB*%
X73411000Y-50135404D02*
X76746600Y-46799804D01*
X76746600Y-46799804D02*
X76746600Y-43273400D01*
X76746600Y-43273400D02*
X77225000Y-42795000D01*
%TO.N,PC*%
X75951000Y-48231800D02*
X75951000Y-50800000D01*
X76912800Y-47270000D02*
X75951000Y-48231800D01*
X76912800Y-47270000D02*
X77313604Y-47270000D01*
%TO.N,YA*%
X69950000Y-45772400D02*
X69867499Y-45854901D01*
X69950000Y-33534700D02*
X69950000Y-45772400D01*
X69990200Y-33494500D02*
X69950000Y-33534700D01*
%TO.N,P6*%
X59625000Y-48016200D02*
X59625000Y-49346000D01*
X59625000Y-47595000D02*
X59625000Y-48016200D01*
%TO.N,Y6*%
X59694000Y-45970000D02*
X59728600Y-45935400D01*
X58420000Y-45970000D02*
X59694000Y-45970000D01*
X56994600Y-45970000D02*
X58420000Y-45970000D01*
X56094600Y-45070000D02*
X56994600Y-45970000D01*
X55274695Y-45070000D02*
X56094600Y-45070000D01*
X54039000Y-43834305D02*
X55274695Y-45070000D01*
%TO.N,P6*%
X56207396Y-46870000D02*
X58900000Y-46870000D01*
X58900000Y-46870000D02*
X59625000Y-47595000D01*
X52999197Y-45970000D02*
X55307396Y-45970000D01*
X55307396Y-45970000D02*
X56207396Y-46870000D01*
X50825000Y-43795803D02*
X52999197Y-45970000D01*
X50825000Y-43595000D02*
X50825000Y-43795803D01*
%TO.N,YD*%
X77483200Y-46062400D02*
X77962600Y-45583000D01*
X77962600Y-45583000D02*
X77962600Y-40395000D01*
%TO.N,PC*%
X78825000Y-45758604D02*
X78825000Y-43595000D01*
X77313604Y-47270000D02*
X78825000Y-45758604D01*
%TO.N,Y5*%
X83261396Y-40195000D02*
X83261396Y-44156204D01*
X81949500Y-24370800D02*
X81949500Y-38883104D01*
X83261396Y-44156204D02*
X83057000Y-44360600D01*
X81949500Y-38883104D02*
X83261396Y-40195000D01*
%TO.N,P2*%
X48379800Y-47891200D02*
X49568600Y-47891200D01*
X45471000Y-50800000D02*
X48379800Y-47891200D01*
X46925300Y-46822700D02*
X45225000Y-45122400D01*
X49568600Y-47891200D02*
X48500100Y-46822700D01*
X48500100Y-46822700D02*
X46925300Y-46822700D01*
X45225000Y-45122400D02*
X45225000Y-42795000D01*
%TO.N,Y4*%
X46036800Y-44896100D02*
X46036800Y-24395000D01*
X47130200Y-45989500D02*
X46036800Y-44896100D01*
%TO.N,Y1*%
X41416172Y-46787675D02*
X41300000Y-46671503D01*
X41300000Y-46671503D02*
X41300000Y-18017473D01*
X41300000Y-18017473D02*
X41300500Y-18016973D01*
%TO.N,P4*%
X47625000Y-42220305D02*
X47625000Y-41995000D01*
X53031000Y-46870000D02*
X52274696Y-46870000D01*
X52274696Y-46870000D02*
X47625000Y-42220305D01*
X53756000Y-47595000D02*
X53031000Y-46870000D01*
%TO.N,P5*%
X49225000Y-43020305D02*
X49225000Y-42795000D01*
X55121000Y-46420000D02*
X52624696Y-46420000D01*
X52624696Y-46420000D02*
X49225000Y-43020305D01*
X56296000Y-47595000D02*
X55121000Y-46420000D01*
%TO.N,P6*%
X59625000Y-49346000D02*
X58171000Y-50800000D01*
%TO.N,P5*%
X56296000Y-47595000D02*
X57225000Y-47595000D01*
X53091000Y-50800000D02*
X56296000Y-47595000D01*
%TO.N,PD*%
X79625000Y-45595000D02*
X79625000Y-41995000D01*
X77225000Y-47995000D02*
X79625000Y-45595000D01*
X78491000Y-49261000D02*
X78491000Y-50800000D01*
X77225000Y-47995000D02*
X78491000Y-49261000D01*
%TO.N,PE*%
X80025000Y-47995000D02*
X80766000Y-47995000D01*
X81995500Y-49224500D02*
X81225000Y-48454000D01*
X83571000Y-50800000D02*
X81995500Y-49224500D01*
X80766000Y-47995000D02*
X81995500Y-49224500D01*
X81225000Y-48454000D02*
X81225000Y-42795000D01*
%TO.N,PF*%
X83213500Y-47902500D02*
X82332500Y-47902500D01*
X86111000Y-50800000D02*
X83213500Y-47902500D01*
%TO.N,P4*%
X53756000Y-47595000D02*
X54425000Y-47595000D01*
X50551000Y-50800000D02*
X53756000Y-47595000D01*
%TO.N,P3*%
X51216000Y-47595000D02*
X52025000Y-47595000D01*
X48011000Y-50800000D02*
X51216000Y-47595000D01*
%TO.N,P1*%
X42796000Y-48395000D02*
X40391000Y-50800000D01*
X46025000Y-48395000D02*
X42796000Y-48395000D01*
X46825000Y-47595000D02*
X46025000Y-48395000D01*
%TO.N,P3*%
X50624197Y-47595000D02*
X52025000Y-47595000D01*
X46825000Y-43795803D02*
X50624197Y-47595000D01*
X46825000Y-43595000D02*
X46825000Y-43795803D01*
%TO.N,P1*%
X46624197Y-47595000D02*
X46825000Y-47595000D01*
X43625000Y-44595803D02*
X46624197Y-47595000D01*
X43625000Y-41995000D02*
X43625000Y-44595803D01*
%TO.N,P2*%
X62900000Y-13270000D02*
X59009027Y-13270000D01*
X59009027Y-13270000D02*
X58731018Y-13548009D01*
X63625000Y-13995000D02*
X62900000Y-13270000D01*
X65225000Y-26795000D02*
X65225000Y-30795000D01*
%TO.N,PB*%
X77225000Y-38795000D02*
X77225000Y-42795000D01*
%TO.N,P8*%
X53225000Y-31995000D02*
X53225000Y-34795000D01*
X52500000Y-31270000D02*
X53225000Y-31995000D01*
X52500000Y-29844695D02*
X52500000Y-31270000D01*
X51625000Y-28969695D02*
X52500000Y-29844695D01*
X51625000Y-25995000D02*
X51625000Y-28969695D01*
%TO.N,PA*%
X54825000Y-34395000D02*
X54825000Y-31595000D01*
X55625000Y-35195000D02*
X54825000Y-34395000D01*
X55625000Y-37995000D02*
X55625000Y-35195000D01*
%TO.N,PB*%
X55675000Y-34445000D02*
X57225000Y-35995000D01*
X57225000Y-35995000D02*
X57225000Y-38795000D01*
X55625000Y-34445000D02*
X55675000Y-34445000D01*
X55625000Y-33995000D02*
X55625000Y-34445000D01*
%TO.N,PC*%
X58025000Y-35595000D02*
X57225000Y-34795000D01*
X58025000Y-42795000D02*
X58025000Y-35595000D01*
X58825000Y-43595000D02*
X58025000Y-42795000D01*
%TO.N,PD*%
X58825000Y-41195000D02*
X59625000Y-41995000D01*
X58825000Y-39595000D02*
X58825000Y-41195000D01*
%TO.N,P9*%
X54025000Y-34795000D02*
X54025000Y-31595000D01*
X54825000Y-35595000D02*
X54025000Y-34795000D01*
X54025000Y-31595000D02*
X53225000Y-30795000D01*
%TO.N,P7*%
X50825000Y-27595000D02*
X50825000Y-29195000D01*
X50825000Y-29195000D02*
X51625000Y-29995000D01*
%TO.N,P6*%
X50025000Y-30795000D02*
X50025000Y-23595000D01*
X50825000Y-31595000D02*
X50025000Y-30795000D01*
X50025000Y-23595000D02*
X49225000Y-22795000D01*
%TO.N,P5*%
X49225000Y-23820305D02*
X49225000Y-26795000D01*
X47625000Y-21995000D02*
X47625000Y-22220305D01*
X47625000Y-22220305D02*
X49225000Y-23820305D01*
%TO.N,PF*%
X82332500Y-39902500D02*
X82332500Y-47902500D01*
X81225000Y-38795000D02*
X82332500Y-39902500D01*
%TO.N,PE*%
X81225000Y-39995000D02*
X81225000Y-42795000D01*
X79625000Y-38395000D02*
X81225000Y-39995000D01*
X79625000Y-37995000D02*
X79625000Y-38395000D01*
%TO.N,PD*%
X78825000Y-38569695D02*
X79625000Y-39369695D01*
X79625000Y-39369695D02*
X79625000Y-41995000D01*
X78825000Y-35595000D02*
X78825000Y-38569695D01*
%TO.N,PC*%
X78025000Y-38795000D02*
X78025000Y-35595000D01*
X78025000Y-35595000D02*
X77225000Y-34795000D01*
X78825000Y-39595000D02*
X78025000Y-38795000D01*
%TO.N,PB*%
X77225000Y-35995000D02*
X77225000Y-38795000D01*
X76425000Y-35195000D02*
X77225000Y-35995000D01*
X76425000Y-33769695D02*
X76425000Y-35195000D01*
X75625000Y-32969695D02*
X76425000Y-33769695D01*
X75625000Y-29995000D02*
X75625000Y-32969695D01*
%TO.N,PA*%
X74825000Y-33195000D02*
X75625000Y-33995000D01*
X74825000Y-31595000D02*
X74825000Y-33195000D01*
%TO.N,PE*%
X79625000Y-25995000D02*
X79625000Y-29995000D01*
%TO.N,P9*%
X74825000Y-35595000D02*
X74025000Y-34795000D01*
X74025000Y-34795000D02*
X74025000Y-27595000D01*
X74025000Y-27595000D02*
X73225000Y-26795000D01*
%TO.N,P7*%
X71625000Y-27369695D02*
X71625000Y-29995000D01*
X70825000Y-26569695D02*
X71625000Y-27369695D01*
X70825000Y-23595000D02*
X70825000Y-26569695D01*
%TO.N,P8*%
X71625000Y-26545193D02*
X73225000Y-28145193D01*
X73225000Y-28145193D02*
X73225000Y-30795000D01*
X71625000Y-25995000D02*
X71625000Y-26545193D01*
%TO.N,P6*%
X70025000Y-23595000D02*
X69225000Y-22795000D01*
X70825000Y-27595000D02*
X70025000Y-26795000D01*
X70025000Y-26795000D02*
X70025000Y-23595000D01*
%TO.N,P4*%
X66825000Y-21195000D02*
X67625000Y-21995000D01*
X66825000Y-19595000D02*
X66825000Y-21195000D01*
%TO.N,P5*%
X68500000Y-21470803D02*
X67625000Y-20595803D01*
X68500000Y-23270000D02*
X68500000Y-21470803D01*
X69225000Y-23995000D02*
X68500000Y-23270000D01*
X67625000Y-20595803D02*
X67625000Y-17995000D01*
X69225000Y-26795000D02*
X69225000Y-23995000D01*
%TO.N,P3*%
X65225000Y-14795000D02*
X65225000Y-16795000D01*
%TO.N,P2*%
X63625000Y-16595803D02*
X65225000Y-18195803D01*
X65225000Y-18195803D02*
X65225000Y-18795000D01*
X63625000Y-13995000D02*
X63625000Y-16595803D01*
%TO.N,PC*%
X78825000Y-39595000D02*
X78825000Y-43595000D01*
%TO.N,PF*%
X81225000Y-34795000D02*
X81225000Y-38795000D01*
%TO.N,PE*%
X79625000Y-33995000D02*
X79625000Y-37995000D01*
%TO.N,PD*%
X78825000Y-31595000D02*
X78825000Y-35595000D01*
%TO.N,PC*%
X77225000Y-30795000D02*
X77225000Y-34795000D01*
%TO.N,PF*%
X81225000Y-30795000D02*
X81225000Y-34795000D01*
%TO.N,PE*%
X79625000Y-29995000D02*
X79625000Y-33995000D01*
%TO.N,PF*%
X81225000Y-26795000D02*
X81225000Y-30795000D01*
%TO.N,PD*%
X78825000Y-27595000D02*
X78825000Y-31595000D01*
%TO.N,PC*%
X77225000Y-26795000D02*
X77225000Y-30795000D01*
X77225000Y-22795000D02*
X77225000Y-26795000D01*
%TO.N,PD*%
X78825000Y-23595000D02*
X78825000Y-27595000D01*
%TO.N,PE*%
X79625000Y-21995000D02*
X79625000Y-25995000D01*
%TO.N,PF*%
X81225000Y-22795000D02*
X81225000Y-26795000D01*
X81225000Y-18795000D02*
X81225000Y-22795000D01*
%TO.N,PE*%
X79625000Y-17995000D02*
X79625000Y-21995000D01*
%TO.N,PD*%
X78825000Y-19595000D02*
X78825000Y-23595000D01*
%TO.N,PC*%
X77225000Y-18795000D02*
X77225000Y-22795000D01*
%TO.N,PF*%
X81225000Y-14795000D02*
X81225000Y-18795000D01*
%TO.N,PE*%
X79625000Y-13995000D02*
X79625000Y-17995000D01*
%TO.N,PD*%
X78825000Y-15595000D02*
X78825000Y-19595000D01*
%TO.N,PC*%
X77225000Y-14795000D02*
X77225000Y-18795000D01*
%TO.N,PB*%
X75625000Y-13995000D02*
X75625000Y-17995000D01*
%TO.N,PA*%
X74825000Y-15595000D02*
X74825000Y-19595000D01*
%TO.N,P9*%
X73225000Y-14795000D02*
X73225000Y-18795000D01*
%TO.N,P8*%
X71625000Y-13995000D02*
X71625000Y-17995000D01*
%TO.N,P7*%
X70825000Y-15595000D02*
X70825000Y-19595000D01*
%TO.N,P6*%
X69225000Y-14795000D02*
X69225000Y-18795000D01*
%TO.N,P5*%
X67625000Y-13995000D02*
X67625000Y-17995000D01*
%TO.N,P4*%
X66825000Y-15595000D02*
X66825000Y-19595000D01*
%TO.N,P0*%
X62825000Y-15595000D02*
X62825000Y-19595000D01*
%TO.N,P8*%
X71625000Y-17995000D02*
X71625000Y-21995000D01*
%TO.N,P9*%
X73225000Y-18795000D02*
X73225000Y-22795000D01*
%TO.N,PB*%
X75625000Y-17995000D02*
X75625000Y-21995000D01*
%TO.N,PA*%
X74825000Y-19595000D02*
X74825000Y-23595000D01*
%TO.N,P6*%
X69225000Y-18795000D02*
X69225000Y-22795000D01*
%TO.N,P7*%
X70825000Y-19595000D02*
X70825000Y-23595000D01*
%TO.N,P1*%
X63625000Y-17995000D02*
X63625000Y-21995000D01*
%TO.N,P0*%
X62825000Y-19595000D02*
X62825000Y-23595000D01*
X62825000Y-23595000D02*
X62825000Y-27595000D01*
%TO.N,P1*%
X63625000Y-21995000D02*
X63625000Y-25995000D01*
%TO.N,P8*%
X71625000Y-21995000D02*
X71625000Y-25995000D01*
%TO.N,P9*%
X73225000Y-22795000D02*
X73225000Y-26795000D01*
%TO.N,PA*%
X74825000Y-23595000D02*
X74825000Y-27595000D01*
%TO.N,PB*%
X75625000Y-21995000D02*
X75625000Y-25995000D01*
X75625000Y-25995000D02*
X75625000Y-29995000D01*
%TO.N,PA*%
X74825000Y-27595000D02*
X74825000Y-31595000D01*
%TO.N,P6*%
X70825000Y-27595000D02*
X70825000Y-31595000D01*
%TO.N,P5*%
X69225000Y-26795000D02*
X69225000Y-30795000D01*
%TO.N,P4*%
X67625000Y-25995000D02*
X67625000Y-29995000D01*
%TO.N,P3*%
X66825000Y-27595000D02*
X66825000Y-31595000D01*
%TO.N,P1*%
X63625000Y-25995000D02*
X63625000Y-29995000D01*
%TO.N,P0*%
X62825000Y-27595000D02*
X62825000Y-31595000D01*
%TO.N,P8*%
X73225000Y-30795000D02*
X73225000Y-34795000D01*
%TO.N,P7*%
X71625000Y-29995000D02*
X71625000Y-33995000D01*
%TO.N,P6*%
X70825000Y-31595000D02*
X70825000Y-35595000D01*
%TO.N,P5*%
X69225000Y-30795000D02*
X69225000Y-34795000D01*
%TO.N,P4*%
X67625000Y-29995000D02*
X67625000Y-33995000D01*
%TO.N,P3*%
X66825000Y-31595000D02*
X66825000Y-35595000D01*
%TO.N,P2*%
X65225000Y-30795000D02*
X65225000Y-34795000D01*
%TO.N,P1*%
X63625000Y-29995000D02*
X63625000Y-33995000D01*
%TO.N,P0*%
X62825000Y-31595000D02*
X62825000Y-35595000D01*
%TO.N,PA*%
X75625000Y-33995000D02*
X75625000Y-37995000D01*
%TO.N,P9*%
X74825000Y-35595000D02*
X74825000Y-39595000D01*
%TO.N,P8*%
X73225000Y-34795000D02*
X73225000Y-38795000D01*
%TO.N,P7*%
X71625000Y-33995000D02*
X71625000Y-37995000D01*
%TO.N,P6*%
X70825000Y-35595000D02*
X70825000Y-39595000D01*
%TO.N,P4*%
X67625000Y-33995000D02*
X67625000Y-37995000D01*
%TO.N,P3*%
X66825000Y-35595000D02*
X66825000Y-39595000D01*
%TO.N,P2*%
X65225000Y-34795000D02*
X65225000Y-38795000D01*
%TO.N,P1*%
X63625000Y-33995000D02*
X63625000Y-37995000D01*
%TO.N,P0*%
X62825000Y-35595000D02*
X62825000Y-39595000D01*
%TO.N,PA*%
X75625000Y-37995000D02*
X75625000Y-41995000D01*
%TO.N,P9*%
X74825000Y-39595000D02*
X74825000Y-43595000D01*
%TO.N,P7*%
X71625000Y-37995000D02*
X71625000Y-41995000D01*
%TO.N,P6*%
X70825000Y-39595000D02*
X70825000Y-43595000D01*
%TO.N,P5*%
X69225000Y-38795000D02*
X69225000Y-42795000D01*
%TO.N,P4*%
X67625000Y-37995000D02*
X67625000Y-41995000D01*
%TO.N,P3*%
X66825000Y-39595000D02*
X66825000Y-43595000D01*
%TO.N,P2*%
X65225000Y-38795000D02*
X65225000Y-42795000D01*
%TO.N,P1*%
X63625000Y-37995000D02*
X63625000Y-41995000D01*
%TO.N,P0*%
X62825000Y-43595000D02*
X62825000Y-39595000D01*
%TO.N,P9*%
X54825000Y-39595000D02*
X54825000Y-43595000D01*
%TO.N,PF*%
X61225000Y-38795000D02*
X61225000Y-42795000D01*
%TO.N,PB*%
X57225000Y-38795000D02*
X57225000Y-42795000D01*
%TO.N,PA*%
X55625000Y-37995000D02*
X55625000Y-41995000D01*
%TO.N,P8*%
X53225000Y-38795000D02*
X53225000Y-42795000D01*
%TO.N,P7*%
X51625000Y-37995000D02*
X51625000Y-41995000D01*
X51625000Y-33995000D02*
X51625000Y-37995000D01*
%TO.N,P8*%
X53225000Y-34795000D02*
X53225000Y-38795000D01*
%TO.N,P9*%
X54825000Y-35595000D02*
X54825000Y-39595000D01*
%TO.N,PD*%
X58825000Y-35595000D02*
X58825000Y-39595000D01*
%TO.N,PE*%
X59625000Y-33995000D02*
X59625000Y-37995000D01*
%TO.N,PF*%
X61225000Y-34795000D02*
X61225000Y-38795000D01*
X61225000Y-30795000D02*
X61225000Y-34795000D01*
%TO.N,PE*%
X59625000Y-29995000D02*
X59625000Y-33995000D01*
%TO.N,PD*%
X58825000Y-31595000D02*
X58825000Y-35595000D01*
%TO.N,PC*%
X57225000Y-30795000D02*
X57225000Y-34795000D01*
%TO.N,PB*%
X55625000Y-29995000D02*
X55625000Y-33995000D01*
%TO.N,P7*%
X51625000Y-29995000D02*
X51625000Y-33995000D01*
%TO.N,PF*%
X61225000Y-26795000D02*
X61225000Y-30795000D01*
%TO.N,PE*%
X59625000Y-25995000D02*
X59625000Y-29995000D01*
%TO.N,PD*%
X58825000Y-27595000D02*
X58825000Y-31595000D01*
%TO.N,PC*%
X57225000Y-26795000D02*
X57225000Y-30795000D01*
%TO.N,PB*%
X55625000Y-25995000D02*
X55625000Y-29995000D01*
%TO.N,PA*%
X54825000Y-27595000D02*
X54825000Y-31595000D01*
%TO.N,P9*%
X53225000Y-26795000D02*
X53225000Y-30795000D01*
%TO.N,P8*%
X51625000Y-21995000D02*
X51625000Y-25995000D01*
%TO.N,P9*%
X53225000Y-22795000D02*
X53225000Y-26795000D01*
%TO.N,PA*%
X54825000Y-23595000D02*
X54825000Y-27595000D01*
%TO.N,PB*%
X55625000Y-21995000D02*
X55625000Y-25995000D01*
%TO.N,PC*%
X57225000Y-22795000D02*
X57225000Y-26795000D01*
%TO.N,PD*%
X58825000Y-23595000D02*
X58825000Y-27595000D01*
%TO.N,PE*%
X59625000Y-21995000D02*
X59625000Y-25995000D01*
%TO.N,PF*%
X61225000Y-22795000D02*
X61225000Y-26795000D01*
%TO.N,PE*%
X59625000Y-17995000D02*
X59625000Y-21995000D01*
%TO.N,PD*%
X58825000Y-19595000D02*
X58825000Y-23595000D01*
%TO.N,PC*%
X57225000Y-22795000D02*
X57225000Y-18795000D01*
%TO.N,PB*%
X55625000Y-17995000D02*
X55625000Y-21995000D01*
%TO.N,PA*%
X54825000Y-19595000D02*
X54825000Y-23595000D01*
%TO.N,P9*%
X53225000Y-18795000D02*
X53225000Y-22795000D01*
%TO.N,P8*%
X51625000Y-17995000D02*
X51625000Y-21995000D01*
%TO.N,PF*%
X61225000Y-14795000D02*
X61225000Y-18795000D01*
%TO.N,PE*%
X59625000Y-13995000D02*
X59625000Y-17995000D01*
%TO.N,PD*%
X58825000Y-15595000D02*
X58825000Y-19595000D01*
%TO.N,PC*%
X57225000Y-14795000D02*
X57225000Y-18795000D01*
%TO.N,PB*%
X55625000Y-13995000D02*
X55625000Y-17995000D01*
%TO.N,PA*%
X54825000Y-15595000D02*
X54825000Y-19595000D01*
%TO.N,P9*%
X53225000Y-14795000D02*
X53225000Y-18795000D01*
%TO.N,P8*%
X51625000Y-13995000D02*
X51625000Y-17995000D01*
%TO.N,P7*%
X50825000Y-19595000D02*
X50825000Y-15595000D01*
X50825000Y-23595000D02*
X50825000Y-19595000D01*
X50825000Y-27595000D02*
X50825000Y-23595000D01*
%TO.N,P6*%
X50825000Y-35595000D02*
X50825000Y-31595000D01*
X50825000Y-39595000D02*
X50825000Y-35595000D01*
X50825000Y-43595000D02*
X50825000Y-39595000D01*
X49225000Y-18795000D02*
X49225000Y-14795000D01*
X49225000Y-22795000D02*
X49225000Y-18795000D01*
%TO.N,P5*%
X49225000Y-30795000D02*
X49225000Y-26795000D01*
X49225000Y-34795000D02*
X49225000Y-30795000D01*
X49225000Y-38795000D02*
X49225000Y-34795000D01*
X49225000Y-42795000D02*
X49225000Y-38795000D01*
%TO.N,P2*%
X45225000Y-26795000D02*
X45225000Y-22795000D01*
X45225000Y-30795000D02*
X45225000Y-26795000D01*
X45225000Y-34795000D02*
X45225000Y-30795000D01*
X45225000Y-38795000D02*
X45225000Y-34795000D01*
X45225000Y-42795000D02*
X45225000Y-38795000D01*
%TO.N,Y0*%
X43399695Y-13195000D02*
X42025000Y-14569695D01*
X43850305Y-13195000D02*
X43399695Y-13195000D01*
X44449502Y-13794197D02*
X43850305Y-13195000D01*
X42025000Y-14569695D02*
X42025000Y-45995000D01*
X44449502Y-16395000D02*
X44449502Y-13794197D01*
%TO.N,P3*%
X46025000Y-22795000D02*
X46825000Y-23595000D01*
X45225000Y-14795000D02*
X45225000Y-18795000D01*
%TO.N,P2*%
X44500000Y-19270000D02*
X45225000Y-19995000D01*
X43625000Y-16969695D02*
X44500000Y-17844695D01*
X44500000Y-17844695D02*
X44500000Y-19270000D01*
X45225000Y-19995000D02*
X45225000Y-22795000D01*
X43625000Y-13995000D02*
X43625000Y-16969695D01*
%TO.N,P5*%
X47625000Y-17995000D02*
X47625000Y-13995000D01*
X47625000Y-21995000D02*
X47625000Y-17995000D01*
%TO.N,P4*%
X46825000Y-22220305D02*
X46825000Y-19595000D01*
X47625000Y-23020305D02*
X46825000Y-22220305D01*
X47625000Y-25995000D02*
X47625000Y-23020305D01*
X47625000Y-29995000D02*
X47625000Y-25995000D01*
X47625000Y-33995000D02*
X47625000Y-29995000D01*
X47625000Y-37995000D02*
X47625000Y-33995000D01*
X47625000Y-41995000D02*
X47625000Y-37995000D01*
%TO.N,P1*%
X43625000Y-21995000D02*
X43625000Y-17995000D01*
X43625000Y-25995000D02*
X43625000Y-21995000D01*
X43625000Y-29995000D02*
X43625000Y-25995000D01*
X43625000Y-33995000D02*
X43625000Y-29995000D01*
X43625000Y-37995000D02*
X43625000Y-33995000D01*
X43625000Y-41995000D02*
X43625000Y-37995000D01*
%TO.N,P4*%
X46825000Y-15595000D02*
X46825000Y-19595000D01*
%TO.N,P3*%
X46825000Y-27595000D02*
X46825000Y-23595000D01*
X46825000Y-31595000D02*
X46825000Y-27595000D01*
X46825000Y-35595000D02*
X46825000Y-31595000D01*
X46825000Y-39595000D02*
X46825000Y-35595000D01*
X46825000Y-43595000D02*
X46825000Y-39595000D01*
%TO.N,P0*%
X42825000Y-39595000D02*
X42825000Y-43595000D01*
X42825000Y-35595000D02*
X42825000Y-39595000D01*
X42825000Y-31595000D02*
X42825000Y-35595000D01*
X42825000Y-27595000D02*
X42825000Y-31595000D01*
X42825000Y-23595000D02*
X42825000Y-27595000D01*
X42825000Y-23595000D02*
X42825000Y-19595000D01*
%TO.N,P1*%
X42825000Y-15595000D02*
X42825000Y-17195000D01*
X42825000Y-17195000D02*
X43625000Y-17995000D01*
%TD*%
%TA.AperFunction,Conductor*%
%TO.N,GND*%
G36*
X86580874Y-12930332D02*
G01*
X86590524Y-12931996D01*
X86590526Y-12931996D01*
X86599371Y-12933521D01*
X86613288Y-12931931D01*
X86614654Y-12931775D01*
X86639987Y-12931445D01*
X86847868Y-12949715D01*
X86865618Y-12952562D01*
X86904437Y-12961670D01*
X87093493Y-13006028D01*
X87110657Y-13011372D01*
X87328602Y-13096724D01*
X87344831Y-13104457D01*
X87548415Y-13219959D01*
X87563372Y-13229919D01*
X87748443Y-13373216D01*
X87761834Y-13385207D01*
X87832353Y-13458056D01*
X87924629Y-13553383D01*
X87936180Y-13567160D01*
X87977895Y-13624816D01*
X88068763Y-13750408D01*
X88073380Y-13756790D01*
X88082848Y-13772061D01*
X88191677Y-13979309D01*
X88198872Y-13995769D01*
X88263054Y-14176787D01*
X88277089Y-14216370D01*
X88281873Y-14233698D01*
X88325958Y-14453498D01*
X88327902Y-14463193D01*
X88330170Y-14481022D01*
X88339450Y-14649158D01*
X88341279Y-14682296D01*
X88340238Y-14700273D01*
X88340003Y-14708529D01*
X88338479Y-14717371D01*
X88339498Y-14726290D01*
X88339498Y-14726291D01*
X88342685Y-14754182D01*
X88343500Y-14768486D01*
X88343500Y-51262001D01*
X88342198Y-51280065D01*
X88338271Y-51307174D01*
X88340413Y-51322308D01*
X88340428Y-51322411D01*
X88341438Y-51347722D01*
X88336966Y-51421212D01*
X88329642Y-51541559D01*
X88328876Y-51554138D01*
X88326508Y-51571953D01*
X88279562Y-51799351D01*
X88274680Y-51816652D01*
X88197913Y-52029338D01*
X88195853Y-52035044D01*
X88188563Y-52051465D01*
X88079455Y-52256423D01*
X88069901Y-52271642D01*
X87932734Y-52458987D01*
X87921111Y-52472693D01*
X87758685Y-52638603D01*
X87745224Y-52650520D01*
X87560835Y-52791628D01*
X87545815Y-52801507D01*
X87343228Y-52914935D01*
X87326955Y-52922576D01*
X87110284Y-53006018D01*
X87093091Y-53011265D01*
X87042440Y-53022848D01*
X86866754Y-53063023D01*
X86848998Y-53065769D01*
X86649963Y-53082129D01*
X86631989Y-53081572D01*
X86623714Y-53081559D01*
X86614826Y-53080271D01*
X86586679Y-53084256D01*
X86569016Y-53085500D01*
X37398756Y-53085500D01*
X37374929Y-53083227D01*
X37371461Y-53082559D01*
X37371460Y-53082559D01*
X37362648Y-53080862D01*
X37347330Y-53082310D01*
X37321997Y-53082146D01*
X37162935Y-53065032D01*
X37124002Y-53060843D01*
X37106311Y-53057650D01*
X36888771Y-53002108D01*
X36871714Y-52996429D01*
X36664295Y-52910494D01*
X36648219Y-52902445D01*
X36497823Y-52813194D01*
X36449449Y-52761228D01*
X36436849Y-52691359D01*
X36464024Y-52625769D01*
X36522345Y-52585283D01*
X36597283Y-52583842D01*
X36601377Y-52585031D01*
X36608655Y-52588181D01*
X36616485Y-52589421D01*
X36616491Y-52589423D01*
X36652324Y-52595099D01*
X36663944Y-52597505D01*
X36695560Y-52605622D01*
X36706770Y-52608500D01*
X36727024Y-52608500D01*
X36746734Y-52610051D01*
X36766743Y-52613220D01*
X36774635Y-52612474D01*
X36793380Y-52610702D01*
X36810762Y-52609059D01*
X36822619Y-52608500D01*
X63658934Y-52608500D01*
X63670117Y-52609027D01*
X63677610Y-52610702D01*
X63685536Y-52610453D01*
X63685537Y-52610453D01*
X63745687Y-52608562D01*
X63749646Y-52608500D01*
X63777557Y-52608500D01*
X63781492Y-52608003D01*
X63781557Y-52607995D01*
X63793394Y-52607062D01*
X63825652Y-52606048D01*
X63829671Y-52605922D01*
X63837590Y-52605673D01*
X63857044Y-52600021D01*
X63876401Y-52596013D01*
X63888631Y-52594468D01*
X63888632Y-52594468D01*
X63896498Y-52593474D01*
X63903869Y-52590555D01*
X63903871Y-52590555D01*
X63937613Y-52577196D01*
X63948843Y-52573351D01*
X63983684Y-52563229D01*
X63983685Y-52563229D01*
X63991294Y-52561018D01*
X63998113Y-52556985D01*
X63998118Y-52556983D01*
X64008729Y-52550707D01*
X64026477Y-52542012D01*
X64045318Y-52534552D01*
X64081088Y-52508564D01*
X64091008Y-52502048D01*
X64122236Y-52483580D01*
X64122239Y-52483578D01*
X64129063Y-52479542D01*
X64143384Y-52465221D01*
X64158418Y-52452380D01*
X64168395Y-52445131D01*
X64174808Y-52440472D01*
X64202999Y-52406395D01*
X64210989Y-52397616D01*
X64754626Y-51853979D01*
X64816938Y-51819953D01*
X64887753Y-51825018D01*
X64924205Y-51846130D01*
X65009126Y-51916632D01*
X65202000Y-52029338D01*
X65206825Y-52031180D01*
X65206826Y-52031181D01*
X65259971Y-52051475D01*
X65410692Y-52109030D01*
X65415760Y-52110061D01*
X65415763Y-52110062D01*
X65523017Y-52131883D01*
X65629597Y-52153567D01*
X65634772Y-52153757D01*
X65634774Y-52153757D01*
X65847673Y-52161564D01*
X65847677Y-52161564D01*
X65852837Y-52161753D01*
X65857957Y-52161097D01*
X65857959Y-52161097D01*
X66069288Y-52134025D01*
X66069289Y-52134025D01*
X66074416Y-52133368D01*
X66079366Y-52131883D01*
X66283429Y-52070661D01*
X66283434Y-52070659D01*
X66288384Y-52069174D01*
X66488994Y-51970896D01*
X66493199Y-51967896D01*
X66493205Y-51967893D01*
X66651134Y-51855243D01*
X66667901Y-51843284D01*
X66734973Y-51820011D01*
X66803982Y-51836694D01*
X66830163Y-51856768D01*
X67346242Y-52372847D01*
X67353786Y-52381137D01*
X67357899Y-52387618D01*
X67363676Y-52393043D01*
X67407566Y-52434258D01*
X67410408Y-52437013D01*
X67430129Y-52456734D01*
X67433324Y-52459212D01*
X67442346Y-52466918D01*
X67474578Y-52497186D01*
X67481527Y-52501006D01*
X67492331Y-52506946D01*
X67508855Y-52517799D01*
X67524858Y-52530213D01*
X67565442Y-52547776D01*
X67576072Y-52552983D01*
X67614839Y-52574295D01*
X67622516Y-52576266D01*
X67622521Y-52576268D01*
X67634457Y-52579332D01*
X67653165Y-52585737D01*
X67671754Y-52593781D01*
X67679579Y-52595020D01*
X67679581Y-52595021D01*
X67715418Y-52600697D01*
X67727039Y-52603104D01*
X67756634Y-52610702D01*
X67769869Y-52614100D01*
X67790130Y-52614100D01*
X67809839Y-52615651D01*
X67829842Y-52618819D01*
X67837734Y-52618073D01*
X67842961Y-52617579D01*
X67873853Y-52614659D01*
X67885710Y-52614100D01*
X86523033Y-52614100D01*
X86534216Y-52614627D01*
X86541709Y-52616302D01*
X86549635Y-52616053D01*
X86549636Y-52616053D01*
X86609786Y-52614162D01*
X86613745Y-52614100D01*
X86641656Y-52614100D01*
X86645591Y-52613603D01*
X86645656Y-52613595D01*
X86657493Y-52612662D01*
X86689751Y-52611648D01*
X86693770Y-52611522D01*
X86701689Y-52611273D01*
X86721143Y-52605621D01*
X86740500Y-52601613D01*
X86752730Y-52600068D01*
X86752731Y-52600068D01*
X86760597Y-52599074D01*
X86767968Y-52596155D01*
X86767970Y-52596155D01*
X86801712Y-52582796D01*
X86812942Y-52578951D01*
X86847783Y-52568829D01*
X86847784Y-52568829D01*
X86855393Y-52566618D01*
X86862212Y-52562585D01*
X86862217Y-52562583D01*
X86872828Y-52556307D01*
X86890576Y-52547612D01*
X86909417Y-52540152D01*
X86929787Y-52525353D01*
X86945187Y-52514164D01*
X86955107Y-52507648D01*
X86986335Y-52489180D01*
X86986338Y-52489178D01*
X86993162Y-52485142D01*
X87007483Y-52470821D01*
X87022517Y-52457980D01*
X87038907Y-52446072D01*
X87067098Y-52411995D01*
X87075088Y-52403216D01*
X87827248Y-51651056D01*
X87835538Y-51643512D01*
X87842019Y-51639399D01*
X87888660Y-51589731D01*
X87891414Y-51586890D01*
X87911135Y-51567169D01*
X87913613Y-51563974D01*
X87921319Y-51554952D01*
X87933896Y-51541559D01*
X87951587Y-51522720D01*
X87961347Y-51504967D01*
X87972200Y-51488444D01*
X87979754Y-51478705D01*
X87984614Y-51472440D01*
X88002177Y-51431856D01*
X88007384Y-51421226D01*
X88028696Y-51382459D01*
X88030667Y-51374782D01*
X88030669Y-51374777D01*
X88033733Y-51362841D01*
X88040139Y-51344129D01*
X88045034Y-51332818D01*
X88048182Y-51325544D01*
X88049422Y-51317716D01*
X88049424Y-51317709D01*
X88055100Y-51281875D01*
X88057506Y-51270255D01*
X88066529Y-51235110D01*
X88066529Y-51235109D01*
X88068501Y-51227429D01*
X88068501Y-51207175D01*
X88070052Y-51187464D01*
X88071981Y-51175285D01*
X88073221Y-51167456D01*
X88069060Y-51123437D01*
X88068501Y-51111580D01*
X88068501Y-37236968D01*
X88069028Y-37225785D01*
X88070703Y-37218292D01*
X88069887Y-37192314D01*
X88068563Y-37150215D01*
X88068501Y-37146256D01*
X88068501Y-37118345D01*
X88067996Y-37114345D01*
X88067063Y-37102502D01*
X88066284Y-37077700D01*
X88065674Y-37058311D01*
X88060023Y-37038859D01*
X88056015Y-37019507D01*
X88054468Y-37007264D01*
X88053475Y-36999404D01*
X88050557Y-36992033D01*
X88037201Y-36958298D01*
X88033356Y-36947071D01*
X88032722Y-36944888D01*
X88021019Y-36904608D01*
X88016985Y-36897786D01*
X88016982Y-36897780D01*
X88010707Y-36887169D01*
X88002011Y-36869419D01*
X87997473Y-36857957D01*
X87997470Y-36857952D01*
X87994553Y-36850584D01*
X87968574Y-36814826D01*
X87962058Y-36804908D01*
X87943576Y-36773658D01*
X87939543Y-36766838D01*
X87925219Y-36752514D01*
X87912377Y-36737479D01*
X87900473Y-36721094D01*
X87866407Y-36692912D01*
X87857628Y-36684923D01*
X83621122Y-32448417D01*
X83587096Y-32386105D01*
X83584907Y-32372492D01*
X83568232Y-32213835D01*
X83568232Y-32213833D01*
X83567542Y-32207272D01*
X83508527Y-32025644D01*
X83413040Y-31860256D01*
X83362881Y-31804548D01*
X83289675Y-31723245D01*
X83289674Y-31723244D01*
X83285253Y-31718334D01*
X83130752Y-31606082D01*
X83124724Y-31603398D01*
X83124722Y-31603397D01*
X82962319Y-31531091D01*
X82962318Y-31531091D01*
X82956288Y-31528406D01*
X82862887Y-31508553D01*
X82775944Y-31490072D01*
X82775939Y-31490072D01*
X82769487Y-31488700D01*
X82709000Y-31488700D01*
X82640879Y-31468698D01*
X82594386Y-31415042D01*
X82583000Y-31362700D01*
X82583000Y-25073324D01*
X82603002Y-25005203D01*
X82615358Y-24989021D01*
X82688540Y-24907744D01*
X82784027Y-24742356D01*
X82843042Y-24560728D01*
X82863004Y-24370800D01*
X82856571Y-24309596D01*
X82843732Y-24187435D01*
X82843732Y-24187433D01*
X82843042Y-24180872D01*
X82784027Y-23999244D01*
X82776253Y-23985778D01*
X82691841Y-23839574D01*
X82688540Y-23833856D01*
X82682407Y-23827044D01*
X82565175Y-23696845D01*
X82565174Y-23696844D01*
X82560753Y-23691934D01*
X82461657Y-23619936D01*
X82411594Y-23583563D01*
X82411593Y-23583562D01*
X82406252Y-23579682D01*
X82400224Y-23576998D01*
X82400222Y-23576997D01*
X82237819Y-23504691D01*
X82237818Y-23504691D01*
X82231788Y-23502006D01*
X82122788Y-23478837D01*
X82075488Y-23468783D01*
X82013014Y-23435054D01*
X81978693Y-23372905D01*
X81983421Y-23302066D01*
X81992566Y-23282536D01*
X82056223Y-23172279D01*
X82056224Y-23172278D01*
X82059527Y-23166556D01*
X82118542Y-22984928D01*
X82138504Y-22795000D01*
X82118542Y-22605072D01*
X82059527Y-22423444D01*
X81964040Y-22258056D01*
X81890863Y-22176785D01*
X81860147Y-22112779D01*
X81858500Y-22092476D01*
X81858500Y-19497524D01*
X81878502Y-19429403D01*
X81890858Y-19413221D01*
X81964040Y-19331944D01*
X82059527Y-19166556D01*
X82118542Y-18984928D01*
X82138504Y-18795000D01*
X82118542Y-18605072D01*
X82059527Y-18423444D01*
X81964040Y-18258056D01*
X81890863Y-18176785D01*
X81860147Y-18112779D01*
X81858500Y-18092476D01*
X81858500Y-15527655D01*
X84049858Y-15527655D01*
X84085104Y-15786638D01*
X84086412Y-15791124D01*
X84086412Y-15791126D01*
X84106098Y-15858664D01*
X84158243Y-16037567D01*
X84267668Y-16274928D01*
X84270231Y-16278837D01*
X84408410Y-16489596D01*
X84408414Y-16489601D01*
X84410976Y-16493509D01*
X84585018Y-16688506D01*
X84785970Y-16855637D01*
X84789973Y-16858066D01*
X85005422Y-16988804D01*
X85005426Y-16988806D01*
X85009419Y-16991229D01*
X85250455Y-17092303D01*
X85503783Y-17156641D01*
X85508434Y-17157109D01*
X85508438Y-17157110D01*
X85701308Y-17176531D01*
X85720867Y-17178500D01*
X85876354Y-17178500D01*
X85878679Y-17178327D01*
X85878685Y-17178327D01*
X86066000Y-17164407D01*
X86066004Y-17164406D01*
X86070652Y-17164061D01*
X86075200Y-17163032D01*
X86075206Y-17163031D01*
X86272050Y-17118489D01*
X86325577Y-17106377D01*
X86329931Y-17104684D01*
X86564824Y-17013340D01*
X86564827Y-17013339D01*
X86569177Y-17011647D01*
X86630952Y-16976340D01*
X86669638Y-16954229D01*
X86796098Y-16881951D01*
X87001357Y-16720138D01*
X87180443Y-16529763D01*
X87329424Y-16315009D01*
X87347262Y-16278837D01*
X87442960Y-16084781D01*
X87442961Y-16084778D01*
X87445025Y-16080593D01*
X87524707Y-15831665D01*
X87566721Y-15573693D01*
X87569821Y-15336847D01*
X87570081Y-15317022D01*
X87570081Y-15317019D01*
X87570142Y-15312345D01*
X87534896Y-15053362D01*
X87531797Y-15042728D01*
X87463068Y-14806932D01*
X87461757Y-14802433D01*
X87352332Y-14565072D01*
X87309562Y-14499837D01*
X87211590Y-14350404D01*
X87211586Y-14350399D01*
X87209024Y-14346491D01*
X87034982Y-14151494D01*
X86834030Y-13984363D01*
X86786844Y-13955730D01*
X86614578Y-13851196D01*
X86614574Y-13851194D01*
X86610581Y-13848771D01*
X86369545Y-13747697D01*
X86116217Y-13683359D01*
X86111566Y-13682891D01*
X86111562Y-13682890D01*
X85902271Y-13661816D01*
X85899133Y-13661500D01*
X85743646Y-13661500D01*
X85741321Y-13661673D01*
X85741315Y-13661673D01*
X85554000Y-13675593D01*
X85553996Y-13675594D01*
X85549348Y-13675939D01*
X85544800Y-13676968D01*
X85544794Y-13676969D01*
X85387755Y-13712504D01*
X85294423Y-13733623D01*
X85290071Y-13735315D01*
X85290069Y-13735316D01*
X85055176Y-13826660D01*
X85055173Y-13826661D01*
X85050823Y-13828353D01*
X85046769Y-13830670D01*
X85046767Y-13830671D01*
X85008137Y-13852750D01*
X84823902Y-13958049D01*
X84618643Y-14119862D01*
X84439557Y-14310237D01*
X84348785Y-14441084D01*
X84302313Y-14508073D01*
X84290576Y-14524991D01*
X84288510Y-14529181D01*
X84288508Y-14529184D01*
X84177552Y-14754182D01*
X84174975Y-14759407D01*
X84173553Y-14763850D01*
X84173552Y-14763852D01*
X84124807Y-14916134D01*
X84095293Y-15008335D01*
X84053279Y-15266307D01*
X84052737Y-15307711D01*
X84050282Y-15495289D01*
X84049858Y-15527655D01*
X81858500Y-15527655D01*
X81858500Y-15497524D01*
X81878502Y-15429403D01*
X81890858Y-15413221D01*
X81964040Y-15331944D01*
X82059527Y-15166556D01*
X82118542Y-14984928D01*
X82125773Y-14916134D01*
X82137814Y-14801565D01*
X82138504Y-14795000D01*
X82131556Y-14728891D01*
X82119232Y-14611635D01*
X82119232Y-14611633D01*
X82118542Y-14605072D01*
X82059527Y-14423444D01*
X81964040Y-14258056D01*
X81958522Y-14251927D01*
X81840675Y-14121045D01*
X81840674Y-14121044D01*
X81836253Y-14116134D01*
X81717772Y-14030052D01*
X81687094Y-14007763D01*
X81687093Y-14007762D01*
X81681752Y-14003882D01*
X81675724Y-14001198D01*
X81675722Y-14001197D01*
X81513319Y-13928891D01*
X81513318Y-13928891D01*
X81507288Y-13926206D01*
X81405001Y-13904464D01*
X81326944Y-13887872D01*
X81326939Y-13887872D01*
X81320487Y-13886500D01*
X81129513Y-13886500D01*
X81123061Y-13887872D01*
X81123056Y-13887872D01*
X81044999Y-13904464D01*
X80942712Y-13926206D01*
X80936682Y-13928891D01*
X80936681Y-13928891D01*
X80774278Y-14001197D01*
X80774276Y-14001198D01*
X80768248Y-14003882D01*
X80758363Y-14011064D01*
X80732228Y-14030052D01*
X80665360Y-14053910D01*
X80596209Y-14037829D01*
X80546729Y-13986914D01*
X80532858Y-13941285D01*
X80531632Y-13929614D01*
X80518542Y-13805072D01*
X80459527Y-13623444D01*
X80364040Y-13458056D01*
X80349771Y-13442208D01*
X80240675Y-13321045D01*
X80240674Y-13321044D01*
X80236253Y-13316134D01*
X80137107Y-13244100D01*
X80087094Y-13207763D01*
X80087093Y-13207762D01*
X80081752Y-13203882D01*
X80075724Y-13201198D01*
X80075722Y-13201197D01*
X80004769Y-13169607D01*
X79950673Y-13123627D01*
X79930024Y-13055700D01*
X79949376Y-12987391D01*
X80002587Y-12940390D01*
X80056018Y-12928500D01*
X86559467Y-12928500D01*
X86580874Y-12930332D01*
G37*
%TD.AperFunction*%
%TA.AperFunction,Conductor*%
G36*
X45957416Y-49029027D02*
G01*
X45964909Y-49030702D01*
X45972835Y-49030453D01*
X45972836Y-49030453D01*
X46032986Y-49028562D01*
X46036945Y-49028500D01*
X46042405Y-49028500D01*
X46110526Y-49048502D01*
X46157019Y-49102158D01*
X46167123Y-49172432D01*
X46137629Y-49237012D01*
X46131500Y-49243595D01*
X45928345Y-49446750D01*
X45866033Y-49480776D01*
X45817154Y-49481702D01*
X45604373Y-49443800D01*
X45604367Y-49443799D01*
X45599284Y-49442894D01*
X45525452Y-49441992D01*
X45381081Y-49440228D01*
X45381079Y-49440228D01*
X45375911Y-49440165D01*
X45155091Y-49473955D01*
X44942756Y-49543357D01*
X44865853Y-49583390D01*
X44768975Y-49633822D01*
X44744607Y-49646507D01*
X44740474Y-49649610D01*
X44740471Y-49649612D01*
X44716247Y-49667800D01*
X44565965Y-49780635D01*
X44411629Y-49942138D01*
X44408720Y-49946403D01*
X44408714Y-49946411D01*
X44357153Y-50021997D01*
X44304204Y-50099618D01*
X44303898Y-50100066D01*
X44248987Y-50145069D01*
X44178462Y-50153240D01*
X44114715Y-50121986D01*
X44094018Y-50097502D01*
X44013426Y-49972926D01*
X44007136Y-49964757D01*
X43863806Y-49807240D01*
X43856273Y-49800215D01*
X43689139Y-49668222D01*
X43680552Y-49662517D01*
X43494117Y-49559599D01*
X43484705Y-49555369D01*
X43283959Y-49484280D01*
X43273988Y-49481646D01*
X43202837Y-49468972D01*
X43189540Y-49470432D01*
X43185000Y-49484989D01*
X43185000Y-50928000D01*
X43164998Y-50996121D01*
X43111342Y-51042614D01*
X43059000Y-51054000D01*
X42803000Y-51054000D01*
X42734879Y-51033998D01*
X42688386Y-50980342D01*
X42677000Y-50928000D01*
X42677000Y-49464987D01*
X42681447Y-49464987D01*
X42681440Y-49427275D01*
X42713248Y-49373656D01*
X43021499Y-49065405D01*
X43083811Y-49031379D01*
X43110594Y-49028500D01*
X45946233Y-49028500D01*
X45957416Y-49029027D01*
G37*
%TD.AperFunction*%
%TA.AperFunction,Conductor*%
G36*
X58653526Y-47523502D02*
G01*
X58674501Y-47540405D01*
X58732998Y-47598903D01*
X58767023Y-47661216D01*
X58763735Y-47726933D01*
X58731458Y-47826272D01*
X58730768Y-47832833D01*
X58730768Y-47832835D01*
X58727395Y-47864926D01*
X58711496Y-48016200D01*
X58712186Y-48022765D01*
X58729890Y-48191206D01*
X58731458Y-48206128D01*
X58790473Y-48387756D01*
X58885960Y-48553144D01*
X58959137Y-48634415D01*
X58989853Y-48698421D01*
X58991500Y-48718724D01*
X58991500Y-49031405D01*
X58971498Y-49099526D01*
X58954595Y-49120501D01*
X58628344Y-49446751D01*
X58566032Y-49480776D01*
X58517153Y-49481702D01*
X58304373Y-49443800D01*
X58304367Y-49443799D01*
X58299284Y-49442894D01*
X58225452Y-49441992D01*
X58081081Y-49440228D01*
X58081079Y-49440228D01*
X58075911Y-49440165D01*
X57855091Y-49473955D01*
X57642756Y-49543357D01*
X57565853Y-49583390D01*
X57468975Y-49633822D01*
X57444607Y-49646507D01*
X57440474Y-49649610D01*
X57440471Y-49649612D01*
X57416247Y-49667800D01*
X57265965Y-49780635D01*
X57111629Y-49942138D01*
X57108720Y-49946403D01*
X57108714Y-49946411D01*
X57057153Y-50021997D01*
X57004204Y-50099618D01*
X57003898Y-50100066D01*
X56948987Y-50145069D01*
X56878462Y-50153240D01*
X56814715Y-50121986D01*
X56794018Y-50097502D01*
X56713426Y-49972926D01*
X56707136Y-49964757D01*
X56563806Y-49807240D01*
X56556273Y-49800215D01*
X56389139Y-49668222D01*
X56380552Y-49662517D01*
X56194117Y-49559599D01*
X56184705Y-49555369D01*
X55983959Y-49484280D01*
X55973988Y-49481646D01*
X55902837Y-49468972D01*
X55889540Y-49470432D01*
X55885000Y-49484989D01*
X55885000Y-50928000D01*
X55864998Y-50996121D01*
X55811342Y-51042614D01*
X55759000Y-51054000D01*
X55503000Y-51054000D01*
X55434879Y-51033998D01*
X55388386Y-50980342D01*
X55377000Y-50928000D01*
X55377000Y-49464987D01*
X55381447Y-49464987D01*
X55381440Y-49427275D01*
X55413248Y-49373656D01*
X56479322Y-48307582D01*
X56541634Y-48273556D01*
X56612449Y-48278621D01*
X56642478Y-48294741D01*
X56741323Y-48366556D01*
X56768248Y-48386118D01*
X56774276Y-48388802D01*
X56774278Y-48388803D01*
X56936681Y-48461109D01*
X56942712Y-48463794D01*
X57036112Y-48483647D01*
X57123056Y-48502128D01*
X57123061Y-48502128D01*
X57129513Y-48503500D01*
X57320487Y-48503500D01*
X57326939Y-48502128D01*
X57326944Y-48502128D01*
X57413887Y-48483647D01*
X57507288Y-48463794D01*
X57513319Y-48461109D01*
X57675722Y-48388803D01*
X57675724Y-48388802D01*
X57681752Y-48386118D01*
X57836253Y-48273866D01*
X57916333Y-48184928D01*
X57959621Y-48136852D01*
X57959622Y-48136851D01*
X57964040Y-48131944D01*
X58030865Y-48016200D01*
X58056223Y-47972279D01*
X58056224Y-47972278D01*
X58059527Y-47966556D01*
X58118542Y-47784928D01*
X58119823Y-47772745D01*
X58131532Y-47661337D01*
X58136262Y-47616329D01*
X58163275Y-47550673D01*
X58221497Y-47510043D01*
X58261572Y-47503500D01*
X58585405Y-47503500D01*
X58653526Y-47523502D01*
G37*
%TD.AperFunction*%
%TA.AperFunction,Conductor*%
G36*
X68085388Y-46649887D02*
G01*
X68136689Y-46680990D01*
X70703948Y-49248249D01*
X70737974Y-49310561D01*
X70732909Y-49381376D01*
X70690362Y-49438212D01*
X70633911Y-49461894D01*
X70622784Y-49463597D01*
X70560205Y-49473172D01*
X70560200Y-49473173D01*
X70555091Y-49473955D01*
X70342756Y-49543357D01*
X70265853Y-49583390D01*
X70168975Y-49633822D01*
X70144607Y-49646507D01*
X70140474Y-49649610D01*
X70140471Y-49649612D01*
X70116247Y-49667800D01*
X69965965Y-49780635D01*
X69811629Y-49942138D01*
X69808720Y-49946403D01*
X69808714Y-49946411D01*
X69757153Y-50021997D01*
X69704204Y-50099618D01*
X69703898Y-50100066D01*
X69648987Y-50145069D01*
X69578462Y-50153240D01*
X69514715Y-50121986D01*
X69494018Y-50097502D01*
X69413426Y-49972926D01*
X69407136Y-49964757D01*
X69263806Y-49807240D01*
X69256273Y-49800215D01*
X69089139Y-49668222D01*
X69080552Y-49662517D01*
X68894117Y-49559599D01*
X68884705Y-49555369D01*
X68683959Y-49484280D01*
X68673988Y-49481646D01*
X68602837Y-49468972D01*
X68589540Y-49470432D01*
X68585000Y-49484989D01*
X68585000Y-50928000D01*
X68564998Y-50996121D01*
X68511342Y-51042614D01*
X68459000Y-51054000D01*
X68203000Y-51054000D01*
X68134879Y-51033998D01*
X68088386Y-50980342D01*
X68077000Y-50928000D01*
X68077000Y-49483102D01*
X68073082Y-49469758D01*
X68058806Y-49467771D01*
X68020324Y-49473660D01*
X68010288Y-49476051D01*
X67954645Y-49494238D01*
X67883681Y-49496389D01*
X67822819Y-49459833D01*
X67791383Y-49396175D01*
X67789500Y-49374473D01*
X67789500Y-46906218D01*
X67809502Y-46838097D01*
X67841439Y-46804282D01*
X67852909Y-46795949D01*
X67852911Y-46795947D01*
X67858253Y-46792066D01*
X67953959Y-46685773D01*
X68014404Y-46648535D01*
X68085388Y-46649887D01*
G37*
%TD.AperFunction*%
%TA.AperFunction,Conductor*%
G36*
X80467012Y-43310261D02*
G01*
X80484343Y-43329144D01*
X80485960Y-43331944D01*
X80559137Y-43413215D01*
X80589853Y-43477221D01*
X80591500Y-43497524D01*
X80591500Y-47058722D01*
X80571498Y-47126843D01*
X80517842Y-47173336D01*
X80447568Y-47183440D01*
X80414253Y-47173829D01*
X80307288Y-47126206D01*
X80213888Y-47106353D01*
X80126944Y-47087872D01*
X80126939Y-47087872D01*
X80120487Y-47086500D01*
X79929513Y-47086500D01*
X79923061Y-47087872D01*
X79923056Y-47087872D01*
X79836112Y-47106353D01*
X79742712Y-47126206D01*
X79736682Y-47128891D01*
X79736681Y-47128891D01*
X79574278Y-47201197D01*
X79574276Y-47201198D01*
X79568248Y-47203882D01*
X79413747Y-47316134D01*
X79409326Y-47321044D01*
X79409325Y-47321045D01*
X79291189Y-47452249D01*
X79285960Y-47458056D01*
X79190473Y-47623444D01*
X79131458Y-47805072D01*
X79130768Y-47811633D01*
X79130768Y-47811635D01*
X79129230Y-47826272D01*
X79111496Y-47995000D01*
X79131458Y-48184928D01*
X79190473Y-48366556D01*
X79285960Y-48531944D01*
X79290378Y-48536851D01*
X79290379Y-48536852D01*
X79367443Y-48622440D01*
X79413747Y-48673866D01*
X79476656Y-48719572D01*
X79557620Y-48778396D01*
X79568248Y-48786118D01*
X79574276Y-48788802D01*
X79574278Y-48788803D01*
X79736681Y-48861109D01*
X79742712Y-48863794D01*
X79836113Y-48883647D01*
X79923056Y-48902128D01*
X79923061Y-48902128D01*
X79929513Y-48903500D01*
X80120487Y-48903500D01*
X80126939Y-48902128D01*
X80126944Y-48902128D01*
X80213888Y-48883647D01*
X80307288Y-48863794D01*
X80313319Y-48861109D01*
X80475722Y-48788803D01*
X80475724Y-48788802D01*
X80481752Y-48786118D01*
X80498636Y-48773851D01*
X80565504Y-48749994D01*
X80634655Y-48766076D01*
X80661790Y-48786694D01*
X80734779Y-48859683D01*
X80747619Y-48874716D01*
X80759528Y-48891107D01*
X80769724Y-48899542D01*
X80793605Y-48919298D01*
X80802384Y-48927288D01*
X81248975Y-49373879D01*
X81283001Y-49436191D01*
X81281694Y-49465795D01*
X81285000Y-49465795D01*
X81285000Y-50928000D01*
X81264998Y-50996121D01*
X81211342Y-51042614D01*
X81159000Y-51054000D01*
X80903000Y-51054000D01*
X80834879Y-51033998D01*
X80788386Y-50980342D01*
X80777000Y-50928000D01*
X80777000Y-49483102D01*
X80773082Y-49469758D01*
X80758806Y-49467771D01*
X80720324Y-49473660D01*
X80710288Y-49476051D01*
X80507868Y-49542212D01*
X80498359Y-49546209D01*
X80309463Y-49644542D01*
X80300738Y-49650036D01*
X80130433Y-49777905D01*
X80122726Y-49784748D01*
X79975590Y-49938717D01*
X79969109Y-49946722D01*
X79864498Y-50100074D01*
X79809587Y-50145076D01*
X79739062Y-50153247D01*
X79675315Y-50121993D01*
X79654618Y-50097509D01*
X79573822Y-49972617D01*
X79573820Y-49972614D01*
X79571014Y-49968277D01*
X79420670Y-49803051D01*
X79416619Y-49799852D01*
X79416615Y-49799848D01*
X79249414Y-49667800D01*
X79249410Y-49667798D01*
X79245359Y-49664598D01*
X79240835Y-49662101D01*
X79240831Y-49662098D01*
X79189608Y-49633822D01*
X79139636Y-49583390D01*
X79124500Y-49523513D01*
X79124500Y-49339763D01*
X79125027Y-49328579D01*
X79126701Y-49321091D01*
X79124562Y-49253032D01*
X79124500Y-49249075D01*
X79124500Y-49221144D01*
X79123994Y-49217138D01*
X79123061Y-49205292D01*
X79121922Y-49169037D01*
X79121673Y-49161110D01*
X79116022Y-49141658D01*
X79112014Y-49122306D01*
X79110468Y-49110068D01*
X79110467Y-49110066D01*
X79109474Y-49102203D01*
X79093194Y-49061086D01*
X79089359Y-49049885D01*
X79077018Y-49007406D01*
X79072985Y-49000587D01*
X79072983Y-49000582D01*
X79066707Y-48989971D01*
X79058010Y-48972221D01*
X79050552Y-48953383D01*
X79038154Y-48936318D01*
X79024572Y-48917625D01*
X79018053Y-48907701D01*
X78999578Y-48876460D01*
X78999574Y-48876455D01*
X78995542Y-48869637D01*
X78981218Y-48855313D01*
X78968376Y-48840278D01*
X78956472Y-48823893D01*
X78922406Y-48795711D01*
X78913627Y-48787722D01*
X78210000Y-48084095D01*
X78175974Y-48021783D01*
X78181039Y-47950968D01*
X78210000Y-47905905D01*
X80017247Y-46098657D01*
X80025537Y-46091113D01*
X80032018Y-46087000D01*
X80078659Y-46037332D01*
X80081413Y-46034491D01*
X80101135Y-46014769D01*
X80103612Y-46011576D01*
X80111317Y-46002555D01*
X80136159Y-45976100D01*
X80141586Y-45970321D01*
X80145407Y-45963371D01*
X80151346Y-45952568D01*
X80162202Y-45936041D01*
X80169757Y-45926302D01*
X80169758Y-45926300D01*
X80174614Y-45920040D01*
X80192174Y-45879460D01*
X80197391Y-45868812D01*
X80214875Y-45837009D01*
X80214876Y-45837007D01*
X80218695Y-45830060D01*
X80223733Y-45810437D01*
X80230137Y-45791734D01*
X80235033Y-45780420D01*
X80235033Y-45780419D01*
X80238181Y-45773145D01*
X80239420Y-45765322D01*
X80239423Y-45765312D01*
X80245099Y-45729476D01*
X80247505Y-45717856D01*
X80256528Y-45682711D01*
X80256528Y-45682710D01*
X80258500Y-45675030D01*
X80258500Y-45654776D01*
X80260051Y-45635065D01*
X80261980Y-45622886D01*
X80263220Y-45615057D01*
X80259059Y-45571038D01*
X80258500Y-45559181D01*
X80258500Y-43405485D01*
X80278502Y-43337364D01*
X80332158Y-43290871D01*
X80402432Y-43280767D01*
X80467012Y-43310261D01*
G37*
%TD.AperFunction*%
%TA.AperFunction,Conductor*%
G36*
X42534221Y-12948502D02*
G01*
X42580714Y-13002158D01*
X42590818Y-13072432D01*
X42561324Y-13137012D01*
X42555195Y-13143595D01*
X41632747Y-14066043D01*
X41624461Y-14073583D01*
X41617982Y-14077695D01*
X41612557Y-14083472D01*
X41571357Y-14127346D01*
X41568602Y-14130188D01*
X41548865Y-14149925D01*
X41546385Y-14153122D01*
X41538682Y-14162142D01*
X41508414Y-14194374D01*
X41504595Y-14201320D01*
X41504593Y-14201323D01*
X41498652Y-14212129D01*
X41487801Y-14228648D01*
X41475386Y-14244654D01*
X41472241Y-14251923D01*
X41472238Y-14251927D01*
X41457826Y-14285232D01*
X41452609Y-14295882D01*
X41431305Y-14334635D01*
X41429334Y-14342310D01*
X41429334Y-14342311D01*
X41426267Y-14354257D01*
X41419863Y-14372961D01*
X41411819Y-14391550D01*
X41410580Y-14399373D01*
X41410577Y-14399383D01*
X41404901Y-14435219D01*
X41402495Y-14446839D01*
X41393472Y-14481984D01*
X41391500Y-14489665D01*
X41391500Y-14509919D01*
X41389949Y-14529629D01*
X41386780Y-14549638D01*
X41387526Y-14557530D01*
X41390941Y-14593656D01*
X41391500Y-14605514D01*
X41391500Y-16982473D01*
X41371498Y-17050594D01*
X41317842Y-17097087D01*
X41265500Y-17108473D01*
X41205013Y-17108473D01*
X41198561Y-17109845D01*
X41198556Y-17109845D01*
X41117564Y-17127061D01*
X41018212Y-17148179D01*
X41012182Y-17150864D01*
X41012181Y-17150864D01*
X40849778Y-17223170D01*
X40849776Y-17223171D01*
X40843748Y-17225855D01*
X40689247Y-17338107D01*
X40684826Y-17343017D01*
X40684825Y-17343018D01*
X40581245Y-17458056D01*
X40561460Y-17480029D01*
X40465973Y-17645417D01*
X40406958Y-17827045D01*
X40386996Y-18016973D01*
X40387686Y-18023538D01*
X40404649Y-18184928D01*
X40406958Y-18206901D01*
X40465973Y-18388529D01*
X40561460Y-18553917D01*
X40565878Y-18558824D01*
X40565879Y-18558825D01*
X40634136Y-18634632D01*
X40664854Y-18698639D01*
X40666500Y-18718942D01*
X40666500Y-19373900D01*
X40646498Y-19442021D01*
X40592842Y-19488514D01*
X40540500Y-19499900D01*
X40480013Y-19499900D01*
X40473561Y-19501272D01*
X40473556Y-19501272D01*
X40386612Y-19519753D01*
X40293212Y-19539606D01*
X40287182Y-19542291D01*
X40287181Y-19542291D01*
X40124778Y-19614597D01*
X40124776Y-19614598D01*
X40118748Y-19617282D01*
X39964247Y-19729534D01*
X39836460Y-19871456D01*
X39740973Y-20036844D01*
X39681958Y-20218472D01*
X39681268Y-20225033D01*
X39681268Y-20225035D01*
X39672075Y-20312504D01*
X39661996Y-20408400D01*
X39662686Y-20414965D01*
X39676406Y-20545500D01*
X39681958Y-20598328D01*
X39740973Y-20779956D01*
X39836460Y-20945344D01*
X39909637Y-21026615D01*
X39940353Y-21090621D01*
X39942000Y-21110924D01*
X39942000Y-31311900D01*
X39921998Y-31380021D01*
X39868342Y-31426514D01*
X39816000Y-31437900D01*
X39755513Y-31437900D01*
X39749061Y-31439272D01*
X39749056Y-31439272D01*
X39662113Y-31457753D01*
X39568712Y-31477606D01*
X39562682Y-31480291D01*
X39562681Y-31480291D01*
X39400278Y-31552597D01*
X39400276Y-31552598D01*
X39394248Y-31555282D01*
X39239747Y-31667534D01*
X39235326Y-31672444D01*
X39235325Y-31672445D01*
X39194007Y-31718334D01*
X39111960Y-31809456D01*
X39016473Y-31974844D01*
X38957458Y-32156472D01*
X38956768Y-32163033D01*
X38956768Y-32163035D01*
X38947716Y-32249158D01*
X38937496Y-32346400D01*
X38957458Y-32536328D01*
X39016473Y-32717956D01*
X39019776Y-32723678D01*
X39019777Y-32723679D01*
X39053686Y-32782410D01*
X39111960Y-32883344D01*
X39185137Y-32964615D01*
X39215853Y-33028621D01*
X39217500Y-33048924D01*
X39217500Y-40884490D01*
X39197498Y-40952611D01*
X39143842Y-40999104D01*
X39073568Y-41009208D01*
X39026137Y-40992210D01*
X39014581Y-40985198D01*
X39014578Y-40985197D01*
X39010581Y-40982771D01*
X38769545Y-40881697D01*
X38516217Y-40817359D01*
X38511566Y-40816891D01*
X38511562Y-40816890D01*
X38302271Y-40795816D01*
X38299133Y-40795500D01*
X38143646Y-40795500D01*
X38141321Y-40795673D01*
X38141315Y-40795673D01*
X37954000Y-40809593D01*
X37953996Y-40809594D01*
X37949348Y-40809939D01*
X37944800Y-40810968D01*
X37944794Y-40810969D01*
X37758399Y-40853147D01*
X37694423Y-40867623D01*
X37690071Y-40869315D01*
X37690069Y-40869316D01*
X37455176Y-40960660D01*
X37455173Y-40960661D01*
X37450823Y-40962353D01*
X37446769Y-40964670D01*
X37446767Y-40964671D01*
X37407535Y-40987094D01*
X37223902Y-41092049D01*
X37018643Y-41253862D01*
X36839557Y-41444237D01*
X36690576Y-41658991D01*
X36574975Y-41893407D01*
X36573553Y-41897850D01*
X36573552Y-41897852D01*
X36519857Y-42065596D01*
X36495293Y-42142335D01*
X36453279Y-42400307D01*
X36453218Y-42404980D01*
X36450022Y-42649158D01*
X36449858Y-42661655D01*
X36485104Y-42920638D01*
X36558243Y-43171567D01*
X36667668Y-43408928D01*
X36674264Y-43418988D01*
X36808410Y-43623596D01*
X36808414Y-43623601D01*
X36810976Y-43627509D01*
X36985018Y-43822506D01*
X37185970Y-43989637D01*
X37189973Y-43992066D01*
X37405422Y-44122804D01*
X37405426Y-44122806D01*
X37409419Y-44125229D01*
X37650455Y-44226303D01*
X37654983Y-44227453D01*
X37666515Y-44230382D01*
X37727617Y-44266537D01*
X37759471Y-44329986D01*
X37751966Y-44400585D01*
X37724595Y-44441600D01*
X36021197Y-46144998D01*
X36012911Y-46152538D01*
X36006432Y-46156650D01*
X36001007Y-46162427D01*
X35959807Y-46206301D01*
X35957052Y-46209143D01*
X35937315Y-46228880D01*
X35937023Y-46228588D01*
X35878954Y-46265202D01*
X35807960Y-46264589D01*
X35748567Y-46225692D01*
X35719632Y-46160859D01*
X35718500Y-46144004D01*
X35718500Y-15490655D01*
X36449858Y-15490655D01*
X36485104Y-15749638D01*
X36486412Y-15754124D01*
X36486412Y-15754126D01*
X36506098Y-15821664D01*
X36558243Y-16000567D01*
X36667668Y-16237928D01*
X36691197Y-16273816D01*
X36808410Y-16452596D01*
X36808414Y-16452601D01*
X36810976Y-16456509D01*
X36985018Y-16651506D01*
X37185970Y-16818637D01*
X37189973Y-16821066D01*
X37405422Y-16951804D01*
X37405426Y-16951806D01*
X37409419Y-16954229D01*
X37650455Y-17055303D01*
X37903783Y-17119641D01*
X37908434Y-17120109D01*
X37908438Y-17120110D01*
X38101308Y-17139531D01*
X38120867Y-17141500D01*
X38276354Y-17141500D01*
X38278679Y-17141327D01*
X38278685Y-17141327D01*
X38466000Y-17127407D01*
X38466004Y-17127406D01*
X38470652Y-17127061D01*
X38475200Y-17126032D01*
X38475206Y-17126031D01*
X38661601Y-17083853D01*
X38725577Y-17069377D01*
X38761769Y-17055303D01*
X38964824Y-16976340D01*
X38964827Y-16976339D01*
X38969177Y-16974647D01*
X39196098Y-16844951D01*
X39401357Y-16683138D01*
X39580443Y-16492763D01*
X39729424Y-16278009D01*
X39731492Y-16273816D01*
X39842960Y-16047781D01*
X39842961Y-16047778D01*
X39845025Y-16043593D01*
X39924707Y-15794665D01*
X39966721Y-15536693D01*
X39968337Y-15413213D01*
X39970081Y-15280022D01*
X39970081Y-15280019D01*
X39970142Y-15275345D01*
X39934896Y-15016362D01*
X39920473Y-14966877D01*
X39905682Y-14916134D01*
X39861757Y-14765433D01*
X39839590Y-14717348D01*
X39821207Y-14677474D01*
X39752332Y-14528072D01*
X39715589Y-14472030D01*
X39611590Y-14313404D01*
X39611586Y-14313399D01*
X39609024Y-14309491D01*
X39434982Y-14114494D01*
X39234030Y-13947363D01*
X39161746Y-13903500D01*
X39014578Y-13814196D01*
X39014574Y-13814194D01*
X39010581Y-13811771D01*
X38769545Y-13710697D01*
X38516217Y-13646359D01*
X38511566Y-13645891D01*
X38511562Y-13645890D01*
X38302271Y-13624816D01*
X38299133Y-13624500D01*
X38143646Y-13624500D01*
X38141321Y-13624673D01*
X38141315Y-13624673D01*
X37954000Y-13638593D01*
X37953996Y-13638594D01*
X37949348Y-13638939D01*
X37944800Y-13639968D01*
X37944794Y-13639969D01*
X37758399Y-13682147D01*
X37694423Y-13696623D01*
X37690071Y-13698315D01*
X37690069Y-13698316D01*
X37455176Y-13789660D01*
X37455173Y-13789661D01*
X37450823Y-13791353D01*
X37446769Y-13793670D01*
X37446767Y-13793671D01*
X37386086Y-13828353D01*
X37223902Y-13921049D01*
X37018643Y-14082862D01*
X36839557Y-14273237D01*
X36788739Y-14346491D01*
X36694312Y-14482606D01*
X36690576Y-14487991D01*
X36688510Y-14492181D01*
X36688508Y-14492184D01*
X36592006Y-14687872D01*
X36574975Y-14722407D01*
X36573553Y-14726850D01*
X36573552Y-14726852D01*
X36561708Y-14763852D01*
X36495293Y-14971335D01*
X36453279Y-15229307D01*
X36449858Y-15490655D01*
X35718500Y-15490655D01*
X35718500Y-14786103D01*
X35720303Y-14764863D01*
X35721952Y-14755219D01*
X35723540Y-14745935D01*
X35722509Y-14737016D01*
X35722509Y-14737012D01*
X35721654Y-14729618D01*
X35721227Y-14705034D01*
X35737089Y-14508073D01*
X35739483Y-14491766D01*
X35786457Y-14272735D01*
X35790960Y-14256882D01*
X35866118Y-14045862D01*
X35872647Y-14030741D01*
X35974712Y-13831327D01*
X35983160Y-13817185D01*
X36110379Y-13632801D01*
X36120601Y-13619883D01*
X36270802Y-13453678D01*
X36282619Y-13442208D01*
X36453222Y-13297036D01*
X36466446Y-13287199D01*
X36654534Y-13165540D01*
X36668929Y-13157513D01*
X36871281Y-13061448D01*
X36886600Y-13055368D01*
X37099771Y-12986533D01*
X37115754Y-12982505D01*
X37336085Y-12942085D01*
X37352454Y-12940178D01*
X37542623Y-12930558D01*
X37565711Y-12931931D01*
X37569213Y-12932026D01*
X37578065Y-12933540D01*
X37586983Y-12932509D01*
X37586985Y-12932509D01*
X37614442Y-12929334D01*
X37628914Y-12928500D01*
X42466100Y-12928500D01*
X42534221Y-12948502D01*
G37*
%TD.AperFunction*%
%TA.AperFunction,Conductor*%
G36*
X82791512Y-33411070D02*
G01*
X82798095Y-33417199D01*
X86764596Y-37383700D01*
X86798622Y-37446012D01*
X86801501Y-37472795D01*
X86801501Y-40874825D01*
X86781499Y-40942946D01*
X86727843Y-40989439D01*
X86657569Y-40999543D01*
X86618302Y-40987094D01*
X86614581Y-40985198D01*
X86610581Y-40982771D01*
X86369545Y-40881697D01*
X86116217Y-40817359D01*
X86111566Y-40816891D01*
X86111562Y-40816890D01*
X85902271Y-40795816D01*
X85899133Y-40795500D01*
X85743646Y-40795500D01*
X85741321Y-40795673D01*
X85741315Y-40795673D01*
X85554000Y-40809593D01*
X85553996Y-40809594D01*
X85549348Y-40809939D01*
X85544800Y-40810968D01*
X85544794Y-40810969D01*
X85358399Y-40853147D01*
X85294423Y-40867623D01*
X85290071Y-40869315D01*
X85290069Y-40869316D01*
X85055176Y-40960660D01*
X85055173Y-40960661D01*
X85050823Y-40962353D01*
X85046769Y-40964670D01*
X85046767Y-40964671D01*
X85007535Y-40987094D01*
X84823902Y-41092049D01*
X84618643Y-41253862D01*
X84439557Y-41444237D01*
X84290576Y-41658991D01*
X84174975Y-41893407D01*
X84173553Y-41897850D01*
X84173552Y-41897852D01*
X84140898Y-41999864D01*
X84101081Y-42058644D01*
X84035805Y-42086566D01*
X83965796Y-42074765D01*
X83913281Y-42026987D01*
X83894896Y-41961451D01*
X83894896Y-40273767D01*
X83895423Y-40262584D01*
X83897098Y-40255091D01*
X83896291Y-40229403D01*
X83894958Y-40187014D01*
X83894896Y-40183055D01*
X83894896Y-40155144D01*
X83894391Y-40151144D01*
X83893458Y-40139301D01*
X83893211Y-40131425D01*
X83892069Y-40095110D01*
X83886418Y-40075658D01*
X83882410Y-40056306D01*
X83880863Y-40044063D01*
X83879870Y-40036203D01*
X83876952Y-40028832D01*
X83863596Y-39995097D01*
X83859751Y-39983870D01*
X83856383Y-39972279D01*
X83847414Y-39941407D01*
X83837103Y-39923972D01*
X83828408Y-39906224D01*
X83820948Y-39887383D01*
X83794960Y-39851613D01*
X83788444Y-39841693D01*
X83769976Y-39810465D01*
X83769974Y-39810462D01*
X83765938Y-39803638D01*
X83751617Y-39789317D01*
X83738776Y-39774283D01*
X83731527Y-39764306D01*
X83726868Y-39757893D01*
X83692791Y-39729702D01*
X83684012Y-39721712D01*
X82619905Y-38657604D01*
X82585879Y-38595292D01*
X82583000Y-38568509D01*
X82583000Y-33506294D01*
X82603002Y-33438173D01*
X82656658Y-33391680D01*
X82726932Y-33381576D01*
X82791512Y-33411070D01*
G37*
%TD.AperFunction*%
%TD*%
M02*
